<?xml version="1.0" standalone="no"?><!DOCTYPE svg PUBLIC "-//W3C//DTD SVG 1.1//EN" "http://www.w3.org/Graphics/SVG/1.1/DTD/svg11.dtd"><svg class="icon" width="200px" height="200.00px" viewBox="0 0 1024 1024" version="1.1" xmlns="http://www.w3.org/2000/svg"><path d="M132.24 47.8c-41.32 72.96-37.26 180.6 9.54 276.4 46.28 94.8 132.82 176.6 253.02 203.4 1.6-8 3.4-16 5.2-24 0.2-62-16.4-154.4-53-239-44.4-102.64-116.2-192.88-214.76-216.8z m31.14 60.3C268 139.7 290.4 291.2 271.4 340.2 143.5 304.6 104.66 166.72 163.38 108.1zM596.8 258.2c-1 1.2-4.4 5-6.8 13.8-2.8 10.2-4 25.2-2 44 4 40.2 10.2 71 20 100.8 1.8-25.4 5.8-49.6 12.8-74.4-1.4-16.8-4.4-34.6-10-54.8v-0.2c-4.4-16.4-10.6-25.8-13.6-28.8l-0.4-0.4z m118.6 0.8c-0.6 0-1.2 0-1.8 0.2-9.6 1-26.4 10.8-38.8 39.8v0.2h-0.2c-23.2 53.4-31.2 93.6-31.2 145.6 0.2 0.6 0.8 1.4 1 1.8 39.4-46.4 71.2-73.4 84.6-143.6 3-16.8 1.2-28.4-1.8-34.8-3-6.4-6-8.2-10.2-9-0.6-0.2-1-0.2-1.6-0.2z m-253.8 30.8l-30.4 19.2c18 28.2 27.6 58.6 32.4 90 6.8-1.8 13.8-2.4 20.6-1.8 4.2 0.4 8.4 1.2 12.4 2.4l3.6 1.2c-5-37.4-15.8-75.4-38.6-111z m341.4 15.4c-3 0.2-6 1.2-9.4 3.4-11.6 7.4-26.4 24.2-41.2 44.2-12.6 34-30.6 58.6-50.2 81.8-9.4 17.8-15.4 30.8-17.4 35 1 7.4 2.8 13 5.4 17.4 2.4-1.4 5-2.6 7.8-3.6h0.2l0.2-0.2c23.6-7.6 51-24.4 79.8-39.2 23-17.6 45.4-36.6 59-52.2 14-16 11-42.2-1.8-62.8-6.4-10.2-15.2-18-22.6-21.4-3.6-1.6-6.8-2.4-9.8-2.4z m-323.6 127.6c-4.4 0-8.8 1.2-13.2 4-6.8 4.4-14.4 13.2-19.4 30-0.6 2.4-1.4 4.6-2 7 7.8 0.6 15.6 1.6 24.2 3 13.4 2 26.6 4.8 38.2 8 0.2-0.8 0.2-1.4 0.4-2.2 5.2-29-8.4-44.6-21.6-48.6-1.6-0.6-3.2-0.8-4.8-1-0.6 0-1.2-0.2-1.8-0.2zM861.6 454c-2.8 0-5.6 0-8.6 0.4-12.4 1.2-26.8 6.4-42.4 13.6-31 14.8-65 37.8-100.6 49.6-0.2 0-6.8 6.4-9.4 13.6-1.4 3.8-1.8 7.6-1.6 9.4 0 0.8 0.2 1 0.2 1.2 42.8 35.8 107.4 41.6 152.8 21.8v-0.2c32.8-14.2 52-34.4 57.2-51.4 5.4-16.8 1.2-32.4-24.2-50.2-7.6-5.2-15-7.4-23.4-7.8zM710 517.6v-0.2l-0.4 0.2h0.4z m-90.6-44c-18.4 13.2-32 34.8-36.2 61.4-5.4 35.2 7.4 68.2 30 87.8 2.2-3.4 4.8-6.4 7.8-9.2 5.6-5.2 13.2-9.4 22.2-9.8h2.2c0.6-3.6 1.6-7.4 3.2-11.2 3.8-9.6 12.8-20 25.4-25-7.2-6.6-10.2-15.8-10.8-23.8-0.8-8.6 0.6-16.6 3.2-24.2 0.4-1.4 1-2.8 1.6-4-7.8-8.8-14-19.8-17.6-33-8.6 1.4-17.4 0.8-24.8-4-2.4-1.6-4.4-3.2-6.2-5z m-184 36.6c-3.8 16.2-7 32.4-9.6 48.4l0.4-0.4c15.4 15 41 18.8 64.4 17.2 3.4-18.2 6.8-36.6 10-55.2-10.6-2.8-24.2-5.8-37-7.8-10.2-1.6-20.8-2-28.2-2.2z m-98.6 38c-33.8 8.2-73.4 23.2-110.6 45.2-67.94 40.2-128.74 101.8-146.8 183.2 44.68 26.8 111 19.2 173.2-21.8 57.8-38 110-103.8 133.8-192.2-17.2-3.8-33.6-8.6-49.6-14.4z m83 49.6c-2.2 15.8-4 31.4-5.6 47.2 18 10.2 41.2 15.4 57.8 13.6 4-15.4 7.8-31 11.2-46.8-20.6 0.4-43.4-2.6-63.4-14z m304 0.2c-11.4 1.2-23 2.4-35 2.8-5.2 0.2-5.2 1.2-6.8 5.4-0.8 2-1.2 4.6-1.4 6.2 0 0.6 0.2 1.2 0.4 1.4 2.8 4.8 5.6 9.6 8.2 14.6 29.6 23 53.2 47.2 73.6 74.4 12 2.8 26.6 3.6 45 1.4 26.4-3.4 56-22.2 67-41.6 5.4-9.8 6.8-18.4 4-27.6-3-9.2-11-20.4-29.6-31.8 0 0-0.2 0-0.2-0.2-39.4 12.2-84.6 11.2-125.2-5z m-78.6 42.6c-1.6 1.8-4.6 7.8-4.8 13-3 61.8 7.6 111.2 35.8 167.6 6.4 13 11.4 14.4 20 14.2 8.6-0.2 21.4-5.8 33-15.4 11.6-9.8 21.6-23.2 26.8-35.2 5-12 4.6-21 1.4-26.2-29.2-47-59.8-81.6-110.8-117l-0.8-0.4-0.6-0.6z m-409 8.8c4.6 0 8.6 0.4 12 1.4-9.4 87.8-77.72 126-112.14 92.4 7.82-63 67.54-92.8 100.14-93.8z m358.4 4c-16.4 43.4-32.6 83.4-24.2 125 3.6 17.4 8.6 27.6 12.6 32.4 4 4.6 5.2 4.4 6.6 4.2 2.8-0.2 13.2-8 16.2-21.8 4.2-19.6 4.8-39.2 3.4-58.8-2-11-3.4-22-4.2-33.2-2.6-15.4-5.8-31-9-46.8-0.4-0.4-0.8-0.8-1.4-1z m-184.2 30.2c-0.4 3.4-0.6 7-1 10.6-1 27 2.6 44.2 6.4 52.4 3.8 8.4 4.8 7.4 6.6 7.4 2 0 8.2-2.2 14.8-8.6 6.4-6.2 12.6-16 16.4-26.4v-0.2c2.8-7.8 5.4-15.8 8-23.6-17.2-0.4-34.8-4.4-51.2-11.6z m466.6 29.8c-9.6 7.4-20.2 13.2-31.4 17.8 64.6 84.4 91.2 183.2 96.2 258.6l36-2.4c-5.4-80.4-33.8-184.4-100.8-274z" /></svg>