<?xml version="1.0" standalone="no"?><!DOCTYPE svg PUBLIC "-//W3C//DTD SVG 1.1//EN" "http://www.w3.org/Graphics/SVG/1.1/DTD/svg11.dtd"><svg t="1743519689580" class="icon" viewBox="0 0 1024 1024" version="1.1" xmlns="http://www.w3.org/2000/svg" p-id="5999" xmlns:xlink="http://www.w3.org/1999/xlink" width="200" height="200"><path d="M407.404606 915.801212c-8.475152 0-16.945131-3.439192-23.036121-10.329212-80.100848-89.63103-209.449374-90.555475-212.231758-90.555475h-0.131879c-16.943838 0-30.717414-13.635232-30.848-30.585535-0.131879-16.942545 13.504646-30.846707 30.449778-30.979879 6.358626-0.398222 159.272081-0.130586 258.70093 111.080727 11.389414 12.712081 10.197333 32.17196-2.514748 43.424324-5.691475 5.298424-13.106424 7.945051-20.388202 7.94505z m206.403232-0.131879c-7.545535 0-14.959192-2.646626-20.914424-8.206222-12.449616-11.521293-13.242182-30.985051-1.722182-43.429495 102.869333-111.080727 252.611232-110.946263 258.570344-110.682505 17.075717 0.133172 30.712242 14.03604 30.449778 31.111758-0.131879 16.947717-13.904162 30.453657-30.717415 30.453656h-0.262464c-2.514747 0-129.353697 0.793859-212.893738 90.95499-5.959111 6.490505-14.297212 9.797818-22.509899 9.797818z m-54.277171-156.494868h-97.576081c-3.044848 0-6.09099-0.394343-9.005253-1.321374-104.065293-13.370182-192.636121-73.742222-249.565091-170.656323-66.19798-112.536566-81.424808-258.304-37.732848-362.763637 4.763152-11.257535 15.621172-18.671192 27.803151-18.933656l9.267718-0.131879c58.651152 0 113.327838 11.121778 163.242666 32.964525 36.009374-65.802343 77.054707-115.712 122.46497-148.812283 2.382869-2.116525 5.166545-3.838707 8.211394-5.162666 9.530182-4.105051 20.520081-3.176727 29.257697 2.384161 1.454545 0.924444 2.914263 2.116525 4.236929 3.308606 45.414141 33.362747 85.394101 82.615596 121.671111 149.736728 50.83798-22.904242 106.843798-34.554828 166.949495-34.554829l9.403475 0.135758c12.176808 0.262465 23.034828 7.677414 27.803152 18.929778 43.686788 104.459636 28.465131 250.232242-37.738021 362.767515-57.060848 96.779636-145.501091 157.282263-249.565091 170.656323-2.907798 0.928323-5.952646 1.453253-9.129373 1.453253z m-48.990384 183.368404c-16.943838 0-30.717414-13.767111-30.717414-30.712243V728.331636c0-17.080889 13.773576-30.718707 30.717414-30.718707 16.94901 0 30.717414 13.767111 30.717414 30.718707v183.36194c0 17.082182-13.768404 30.849293-30.717414 30.849293z m0 0" fill="#1296DB" p-id="6000"></path></svg>