<?xml version="1.0" encoding="UTF-8"?><svg id="Layer_1" xmlns="http://www.w3.org/2000/svg" xmlns:xlink="http://www.w3.org/1999/xlink" viewBox="0 0 928.12 499.09"><defs><style>.cls-1{fill:#727c92;}.cls-1,.cls-2,.cls-3,.cls-4,.cls-5,.cls-6,.cls-7,.cls-8,.cls-9,.cls-10,.cls-11,.cls-12,.cls-13,.cls-14,.cls-15,.cls-16,.cls-17,.cls-18,.cls-19{stroke-width:0px;}.cls-2{fill:#d4d8df;}.cls-20{clip-path:url(#clippath-11);}.cls-3{fill:url(#linear-gradient);}.cls-4{fill:#000;}.cls-21{stroke:#3bc81e;stroke-width:.5px;}.cls-21,.cls-22{stroke-miterlimit:10;}.cls-21,.cls-16{fill:#fff;}.cls-22{stroke:#223654;stroke-width:.84px;}.cls-22,.cls-8{fill:none;}.cls-23{clip-path:url(#clippath-2);}.cls-24{clip-path:url(#clippath-13);}.cls-25{clip-path:url(#clippath-6);}.cls-5{fill:#223654;}.cls-6{fill:#2e3d5b;}.cls-7{fill:url(#linear-gradient-5);}.cls-9{fill:#eb0037;}.cls-26{clip-path:url(#clippath-7);}.cls-27{clip-path:url(#clippath-1);}.cls-28{clip-path:url(#clippath-4);}.cls-10{fill:#151c2b;}.cls-29{clip-path:url(#clippath-12);}.cls-11{fill:url(#linear-gradient-2);}.cls-30{opacity:.11;}.cls-12{fill:#a3ea2a;}.cls-13{fill:url(#linear-gradient-3);}.cls-31{clip-path:url(#clippath-9);}.cls-32{clip-path:url(#clippath);}.cls-14{fill:#ecbb0a;}.cls-15{fill:#eb0037;}.cls-33{clip-path:url(#clippath-3);}.cls-34{clip-path:url(#clippath-8);}.cls-35{clip-path:url(#clippath-14);}.cls-36{clip-path:url(#clippath-5);}.cls-17{fill:#3bc81e;}.cls-37{clip-path:url(#clippath-10);}.cls-18{fill:url(#linear-gradient-4);}.cls-19{fill:#7a1123;}.cls-38{opacity:.29;}</style><clipPath id="clippath"><rect class="cls-8" x="650.17" y="241.45" width="233.39" height="245.58"/></clipPath><clipPath id="clippath-1"><rect class="cls-8" x="650.17" y="241.45" width="233.39" height="245.58"/></clipPath><clipPath id="clippath-2"><rect class="cls-8" x="650.17" y="241.45" width="233.39" height="245.58"/></clipPath><clipPath id="clippath-3"><polygon class="cls-8" points="657.32 322.77 657.32 415.43 777.56 445.58 879.31 411.66 877.43 317.45 657.32 322.77"/></clipPath><linearGradient id="linear-gradient" x1="-1325.6" y1="-107.06" x2="-1325.4" y2="-107.06" gradientTransform="translate(1438609.73 -115747.52) scale(1084.75 -1084.75)" gradientUnits="userSpaceOnUse"><stop offset="0" stop-color="#eb0037"/><stop offset=".51" stop-color="#7a1123"/><stop offset=".92" stop-color="#eb0037"/></linearGradient><clipPath id="clippath-4"><path class="cls-8" d="M651.22,319.62c.05,2.33,1.43,4.42,3.55,5.38,13.16,5.99,62.43,26.24,125.56,25.28,56.11-.85,90.7-20,100.41-26.16,1.76-1.12,2.8-3.07,2.78-5.15l-.59-52.95-232.75-.46,1.05,54.05Z"/></clipPath><linearGradient id="linear-gradient-2" x1="-1326.71" y1="-106.63" x2="-1326.5" y2="-106.63" gradientTransform="translate(3475245.56 -278938.77) scale(2618.94 -2618.94)" gradientUnits="userSpaceOnUse"><stop offset="0" stop-color="#9da8c4"/><stop offset=".17" stop-color="#51586b"/><stop offset=".36" stop-color="#828ca5"/><stop offset="1" stop-color="#828ca5"/></linearGradient><clipPath id="clippath-5"><path class="cls-8" d="M766.61,241.45c-64.21,0-116.44,10.8-116.44,24.12s52.23,24.12,116.44,24.12,116.26-10.8,116.26-24.12-52.05-24.12-116.26-24.12Z"/></clipPath><linearGradient id="linear-gradient-3" x1="-1327.55" y1="-106.64" x2="-1327.34" y2="-106.64" gradientTransform="translate(-314833.68 -3928490.73) rotate(-90) scale(2959.62 -2959.62)" gradientUnits="userSpaceOnUse"><stop offset="0" stop-color="#7c89a5"/><stop offset=".57" stop-color="#4f5669"/><stop offset="1" stop-color="#444b5c"/></linearGradient><clipPath id="clippath-6"><rect class="cls-8" x="650.17" y="241.45" width="233.39" height="245.58"/></clipPath><clipPath id="clippath-7"><path class="cls-8" d="M770.22,428.55c-26.93-2.24-67.32-2.24-118.93-25.81v44.94c0,7.77,4.72,14.74,11.92,17.64,19.5,7.84,61.25,21.7,112.77,21.71h.01c1.44,0,2.88-.01,4.33-.03,46.37-.7,78.04-13.9,93.12-21.94,6.21-3.31,10.1-9.75,10.1-16.79v-48.89c-20.2,19.07-81.91,31.42-113.32,29.17"/></clipPath><linearGradient id="linear-gradient-4" x1="-1326.55" y1="-106.46" x2="-1326.35" y2="-106.46" gradientTransform="translate(3090951.9 -247559.6) scale(2329.57 -2329.57)" gradientUnits="userSpaceOnUse"><stop offset="0" stop-color="#9da8c4"/><stop offset=".28" stop-color="#51586b"/><stop offset=".53" stop-color="#828ca5"/><stop offset="1" stop-color="#828ca5"/></linearGradient><clipPath id="clippath-8"><rect class="cls-8" x="650.17" y="241.45" width="233.39" height="245.58"/></clipPath><clipPath id="clippath-9"><path class="cls-8" d="M883.39,332.16c-20.35,18.99-81.83,31.27-113.17,29.03-26.93-2.24-67.32-2.24-118.93-25.81v57.33s54.98,28.05,129.03,26.93c65.65-.99,101.84-27.04,103.18-28.02.02-.02.04-.05.04-.08v-59.32c0-.05-.04-.09-.09-.09-.02,0-.04,0-.06.02"/></clipPath><linearGradient id="linear-gradient-5" x1="-1326.5" y1="-106.6" x2="-1326.29" y2="-106.6" gradientTransform="translate(2897246.62 -232400.98) scale(2183.64 -2183.64)" xlink:href="#linear-gradient-4"/><clipPath id="clippath-10"><rect class="cls-8" x="650.17" y="241.45" width="233.39" height="245.58"/></clipPath><clipPath id="clippath-11"><rect class="cls-8" x="653.73" y="276.91" width="83.64" height="28.61"/></clipPath><clipPath id="clippath-12"><rect class="cls-8" x="758.06" y="246.88" width="113.9" height="37.24"/></clipPath><clipPath id="clippath-13"><rect class="cls-8" x="35.73" y="265.1" width="252.9" height="170.27"/></clipPath><clipPath id="clippath-14"><rect class="cls-8" x="35.73" y="265.1" width="252.9" height="170.27"/></clipPath></defs><rect class="cls-5" x="150.55" y="11.66" width="627.02" height="100.05" rx="34.06" ry="34.06"/><path class="cls-12" d="M368.6,130.92l-15.21-26.46c-.45-.78-1.57-.78-2.01,0l-15.21,26.46c-.45.78.11,1.76,1.02,1.76h7.85v290.9h-49.88s0,14.71,0,14.71h57.95c.21,0,.42-.03.63-.06h1.77c2.34,0,4.25-1.9,4.25-4.25V132.68h7.85c.9,0,1.46-.98,1.02-1.76Z"/><path class="cls-12" d="M618.87,448.6l26.46-15.21c.78-.45.78-1.57,0-2.01l-26.46-15.21c-.78-.45-1.76.11-1.76,1.02v7.85h-19.21V111.7s-14.71,0-14.71,0v321.4c0,.21.03.42.06.63v1.77c0,2.34,1.9,4.25,4.25,4.25h29.61v7.85c0,.9.98,1.46,1.76,1.02Z"/><g id="Database"><g class="cls-32"><g class="cls-27"><g class="cls-23"><path class="cls-6" d="M651.77,399.66s2.74-2.05,6.85-2.05l-.68,6.16-6.16-4.11Z"/><path class="cls-6" d="M651.42,330.95s3.02-1.85,7.12-1.85l-.68,6.16-6.44-4.32Z"/></g><g class="cls-33"><rect class="cls-3" x="657.32" y="317.45" width="222" height="128.13"/></g><g class="cls-28"><rect class="cls-11" x="649.99" y="265.09" width="233.72" height="86.64" transform="translate(-1.28 3.21) rotate(-.24)"/></g><g class="cls-36"><rect class="cls-13" x="649.66" y="238.87" width="233.72" height="53.4" transform="translate(-5.71 17.1) rotate(-1.27)"/></g><g class="cls-25"><path class="cls-19" d="M819.59,315.12c0,4.18-3.39,7.56-7.56,7.56-2.1,0-4-.85-5.37-2.24,1.12.65,2.41,1.02,3.8,1.02,4.18,0,7.56-3.39,7.56-7.56,0-2.08-.84-3.96-2.2-5.33,2.25,1.31,3.77,3.75,3.77,6.54"/><path class="cls-15" d="M818.02,313.91c0,4.18-3.39,7.56-7.56,7.56-1.38,0-2.68-.37-3.8-1.02-1.36-1.37-2.2-3.25-2.2-5.33,0-4.18,3.39-7.56,7.56-7.56,1.38,0,2.68.37,3.8,1.02,1.36,1.37,2.2,3.25,2.2,5.33"/><path class="cls-16" d="M819.59,452.07c0,4.18-3.39,7.56-7.56,7.56s-7.56-3.39-7.56-7.56,3.39-7.56,7.56-7.56,7.56,3.39,7.56,7.56"/><path class="cls-6" d="M652.15,399.65s5.55,4.09,12.35,6.36c11.31,3.77,48.98,17.31,107.41,18.84,71.6,1.88,107.88-24.89,107.88-24.89l3.76-.58-47.57,44.32-158.28-15.07-24.5-20.73-1.88-3.77s-.2-5.18.84-4.48"/></g><g class="cls-26"><rect class="cls-18" x="651.29" y="399.38" width="232.25" height="87.65"/></g><g class="cls-34"><path class="cls-15" d="M819.59,452.38c0,4.18-3.39,7.56-7.56,7.56s-7.56-3.39-7.56-7.56,3.39-7.56,7.56-7.56,7.56,3.39,7.56,7.56"/><path class="cls-6" d="M651.46,330.93s6.23,4.09,13.04,6.36c11.31,3.77,48.98,17.31,107.41,18.84,71.6,1.88,106.06-23.78,106.06-23.78l3.76,3.54-45.76,39.08-158.28-15.07-24.5-20.73-1.88-3.77s-.22-4.21.15-4.48"/><path class="cls-6" d="M883.54,399.38s.55-2.51-4.54-3.58v.82l.1,4.03,2.02-.45,2.42-.83Z"/><path class="cls-6" d="M883.54,332.22s-.83-4.17-5.92-5.23v1.12l.13,9.33,2.29-.39,3.5-4.84Z"/></g><g class="cls-31"><rect class="cls-7" x="651.29" y="332.13" width="232.25" height="88.63"/></g><g class="cls-37"><path class="cls-15" d="M819.59,384.54c0,4.18-3.39,7.56-7.56,7.56s-7.56-3.39-7.56-7.56,3.39-7.56,7.56-7.56,7.56,3.39,7.56,7.56"/><path class="cls-19" d="M819.59,384.54c0,4.18-3.39,7.56-7.56,7.56-2.1,0-4-.85-5.37-2.24,1.12.65,2.41,1.02,3.8,1.02,4.18,0,7.56-3.39,7.56-7.56,0-2.08-.84-3.96-2.2-5.33,2.25,1.31,3.77,3.75,3.77,6.54"/><path class="cls-19" d="M819.59,452.31c0,4.18-3.39,7.56-7.56,7.56-2.1,0-4-.85-5.37-2.24,1.12.65,2.41,1.02,3.8,1.02,4.18,0,7.56-3.39,7.56-7.56,0-2.08-.84-3.96-2.2-5.33,2.25,1.31,3.77,3.75,3.77,6.54"/><g class="cls-38"><g class="cls-20"><path class="cls-16" d="M653.73,276.91v16.65s50.54,15.39,83.64,11.25c0,0-67.97-14.43-83.64-27.9"/></g></g><g class="cls-30"><g class="cls-29"><path class="cls-16" d="M758.06,284.12s111.86-3.94,113.86-18.52c2-14.58-80.76-18.72-80.76-18.72,0,0,74.28,12.62,61.97,18.72-12.31,6.11-95.07,18.52-95.07,18.52"/></g></g></g></g></g></g><rect class="cls-5" x="12.63" y="193.92" width="299.1" height="299.1" rx="34.06" ry="34.06"/><g id="Browser"><g class="cls-24"><g class="cls-35"><path class="cls-2" d="M285.47,434.95H39.02c-1.58,0-2.86-1.22-2.86-2.72v-150.82c0-4.19,3.57-7.27,7.97-7.27l234.42-.33c4.4,0,9.58,3.42,9.58,7.6v151.02c0,1.4-.46,2.54-2.66,2.53"/><path class="cls-22" d="M285.47,434.95H39.02c-1.58,0-2.86-1.22-2.86-2.72v-150.82c0-4.19,3.57-7.27,7.97-7.27l234.42-.33c4.4,0,9.58,3.42,9.58,7.6v151.02c0,1.4-.46,2.54-2.66,2.53Z"/><path class="cls-16" d="M277.44,432.15H42.74c-1.03,0-1.86-.83-1.86-1.86v-130.72c0-1.03.83-1.86,1.86-1.86h234.69c1.03,0,1.86.83,1.86,1.86v130.72c0,1.03-.83,1.86-1.86,1.86"/><path class="cls-10" d="M288.54,281.69H35.73v-10.76c0-3.23,2.61-5.84,5.84-5.84h241.13c3.23,0,5.93,2.61,5.93,5.84l-.09,10.76Z"/><path class="cls-9" d="M48.35,272.82c0,1.65-1.34,2.99-2.99,2.99s-2.99-1.34-2.99-2.99,1.34-2.99,2.99-2.99,2.99,1.34,2.99,2.99"/><path class="cls-14" d="M57.16,272.82c0,1.65-1.34,2.99-2.99,2.99s-2.99-1.34-2.99-2.99,1.34-2.99,2.99-2.99,2.99,1.34,2.99,2.99"/><path class="cls-17" d="M65.97,272.82c0,1.65-1.34,2.99-2.99,2.99s-2.99-1.34-2.99-2.99,1.34-2.99,2.99-2.99,2.99,1.34,2.99,2.99"/><rect class="cls-1" x="36.58" y="281.75" width="251.07" height="12.92"/><path class="cls-16" d="M249.14,292.83H73.08c-.98,0-1.77-.79-1.77-1.77v-4.22c0-.98.79-1.77,1.77-1.77h176.06c.98,0,1.77.79,1.77,1.77v4.22c0,.98-.79,1.77-1.77,1.77"/><path class="cls-16" d="M280.42,271.49c-.24-1.22-1.33-2.15-2.63-2.15h-.47c-.35-1.75-1.89-3.03-3.69-3.03s-3.35,1.29-3.7,3.05c-1.34.14-2.39,1.27-2.39,2.64,0,1.46,1.2,2.65,2.68,2.65h3.96c.21,0,.37-.18.36-.39,0-.2-.17-.36-.36-.36h-3.96c-1.06,0-1.92-.85-1.92-1.89s.86-1.89,1.92-1.89c.39,0,.77.12,1.09.35.15.11.36.09.49-.04.15-.15.15-.38,0-.53h0s-.03-.03-.05-.04c-.32-.23-.68-.38-1.06-.45.32-1.35,1.52-2.32,2.93-2.32,1.49,0,2.75,1.09,2.98,2.55-.12.06-.24.13-.34.21-.17.12-.21.36-.09.53.01.02.02.03.04.05.13.13.34.15.49.04.32-.23.7-.35,1.09-.35.93,0,1.71.66,1.88,1.54.03.18.19.31.37.31.21,0,.38-.17.38-.38,0-.02,0-.05,0-.08"/><path class="cls-16" d="M275.7,274.02h-.33v-1.04s0-.16,0-.16c-.04.04-.07.07-.11.11l-.18.14-.16-.2.5-.4h.27v1.54Z"/><path class="cls-16" d="M277.2,273.25c0,.27-.04.47-.13.6-.09.13-.23.19-.41.19s-.31-.07-.4-.2c-.09-.13-.14-.33-.14-.59s.04-.47.13-.6c.09-.13.22-.19.41-.19s.31.07.4.2c.1.14.14.33.14.59M276.44,273.25c0,.19.02.32.05.41.03.08.09.12.17.12s.13-.04.17-.12c.03-.08.05-.22.05-.41s-.02-.33-.05-.41c-.03-.08-.09-.12-.16-.12s-.13.04-.17.12c-.03.08-.05.22-.05.41"/><path class="cls-16" d="M275.7,276.37h-.33v-1.04s0-.16,0-.16c-.04.04-.07.07-.11.11l-.18.14-.16-.2.5-.4h.27v1.54Z"/><path class="cls-16" d="M276.93,276.37h-.33v-1.04s0-.16,0-.16c-.04.04-.07.07-.11.11l-.18.14-.16-.2.5-.4h.27v1.54h0Z"/><path class="cls-16" d="M278.17,276.37h-.33v-1.04s0-.16,0-.16c-.04.04-.07.07-.11.11l-.18.14-.16-.2.5-.4h.27v1.54Z"/><path class="cls-16" d="M279.66,275.59c0,.27-.04.47-.13.6-.09.13-.23.2-.41.2s-.31-.07-.4-.2c-.09-.13-.14-.33-.14-.59s.04-.47.13-.6c.09-.13.22-.19.41-.19s.31.07.4.2c.1.13.14.33.14.59M278.91,275.59c0,.19.02.32.05.41.03.08.09.12.17.12s.13-.04.17-.12c.03-.08.05-.22.05-.41s-.02-.33-.05-.41c-.03-.08-.09-.12-.16-.12s-.13.04-.17.12c-.03.08-.05.22-.05.41"/><path class="cls-16" d="M280.37,277.45c0,.2-.03.34-.1.44-.06.09-.16.14-.3.14s-.23-.05-.29-.15c-.06-.1-.1-.24-.1-.43s.03-.34.1-.44c.06-.09.16-.14.3-.14s.23.05.29.15c.07.1.1.24.1.43M279.82,277.45c0,.14.01.24.03.3.01.05.06.09.12.09s.09-.03.12-.09c.02-.06.04-.16.04-.29s-.01-.24-.04-.3c-.02-.06-.06-.09-.12-.09s-.1.03-.12.09c-.02.06-.04.16-.04.3"/><path class="cls-16" d="M281.08,278.01h-.24v-.76s0-.12,0-.12c-.04.04-.07.06-.08.08l-.13.1-.11-.14.36-.29h.2v1.12h0Z"/><path class="cls-16" d="M275.63,277.46c0,.19-.03.33-.09.43-.06.09-.16.14-.29.14s-.22-.05-.29-.14c-.06-.1-.1-.24-.1-.42s.03-.34.09-.43c.06-.09.16-.14.29-.14s.22.05.29.14c.06.1.1.24.1.42M275.09,277.46c0,.13.01.23.03.29.01.05.06.09.12.09.05,0,.09-.03.12-.09.02-.06.04-.16.04-.29s-.01-.23-.04-.29c-.02-.06-.06-.09-.12-.09s-.09.03-.12.09c-.02.06-.04.16-.04.29"/><path class="cls-16" d="M276.32,278.01h-.23v-.74s0-.11,0-.11c-.04.04-.06.06-.08.08l-.13.1-.11-.14.35-.28h.19v1.1Z"/><path class="cls-16" d="M277.39,277.46c0,.19-.03.33-.09.43-.06.09-.16.14-.29.14s-.22-.05-.29-.14c-.06-.1-.1-.24-.1-.42s.03-.34.09-.43c.06-.09.16-.14.29-.14s.22.05.29.14.1.24.1.42M276.85,277.46c0,.13.01.23.03.29.01.05.06.09.12.09.06,0,.09-.03.12-.09.02-.06.04-.16.04-.29s-.01-.23-.04-.29c-.02-.06-.06-.09-.12-.09s-.09.03-.12.09c-.02.06-.04.16-.04.29"/><path class="cls-16" d="M278.08,278.01h-.23v-.74s0-.11,0-.11c-.04.04-.07.06-.08.08l-.13.1-.11-.14.35-.28h.19v1.1Z"/><path class="cls-16" d="M275.4,278.86c0,.14-.02.24-.07.31-.04.07-.11.1-.21.1-.08,0-.16-.03-.21-.1-.05-.07-.07-.17-.07-.3,0-.14.02-.24.07-.31.04-.07.11-.1.21-.1.08,0,.16.03.21.1.04.07.07.17.07.31M275.01,278.86c0,.1,0,.17.02.21.01.05.06.07.11.06h0s.05-.03.06-.06c.02-.04.02-.11.02-.21,0-.07,0-.14-.03-.21-.01-.04-.06-.07-.1-.06h0s-.05.03-.06.06c-.02.07-.02.14-.02.21"/><path class="cls-16" d="M275.9,279.25h-.17v-.53s0-.08,0-.08c-.03.03-.05.05-.06.05l-.09.07-.08-.1.25-.2h.14v.79Z"/><path class="cls-16" d="M277.59,279.85c0,.14-.02.24-.07.31-.05.07-.12.1-.21.1-.08,0-.16-.03-.21-.1-.05-.07-.07-.17-.07-.3s.02-.24.07-.31c.04-.07.11-.1.21-.1.08,0,.16.03.21.1.05.07.07.17.07.31M277.21,279.85c0,.1,0,.17.02.21.01.04.06.07.1.06h0s.05-.03.06-.06c.02-.04.02-.11.02-.21,0-.07,0-.14-.03-.21,0-.04-.04-.06-.08-.06s-.07.02-.08.06c-.01.04-.02.11-.02.21"/><path class="cls-16" d="M278.09,280.24h-.17v-.53s0-.08,0-.08c-.03.03-.05.05-.06.05l-.09.07-.08-.1.25-.2h.14v.79Z"/><path class="cls-16" d="M279.41,278.71c0,.19-.03.33-.09.43-.06.09-.16.14-.29.14s-.22-.05-.29-.14c-.06-.1-.1-.24-.1-.42s.03-.34.09-.43c.06-.09.16-.14.29-.14s.22.05.29.14c.06.1.1.24.1.42M278.87,278.71c0,.14.01.23.03.29.01.05.06.09.12.09.05,0,.09-.03.12-.09.02-.06.04-.16.04-.29s-.01-.23-.04-.29c-.02-.06-.06-.09-.12-.09s-.09.03-.12.09c-.02.06-.03.16-.03.29"/><path class="cls-16" d="M280.1,279.25h-.23v-.74s0-.11,0-.11c-.04.04-.06.06-.08.08l-.13.1-.11-.14.35-.28h.19v1.1h0Z"/><path class="cls-16" d="M281.17,278.71c0,.19-.03.33-.09.43-.06.09-.16.14-.29.14s-.22-.05-.29-.14c-.06-.1-.1-.24-.1-.42s.03-.34.09-.43c.06-.09.16-.14.29-.14s.22.05.29.14c.06.1.1.24.1.42M280.63,278.71c0,.14.01.23.03.29.01.05.06.09.12.09.05,0,.09-.03.12-.09.02-.06.04-.16.04-.29s-.01-.23-.04-.29c-.02-.06-.06-.09-.12-.09s-.09.03-.12.09c-.02.06-.04.16-.04.29"/><path class="cls-16" d="M279.48,274.02h-.33v-1.04s0-.16,0-.16c-.04.04-.07.07-.11.11l-.18.14-.16-.2.5-.4h.27v1.54h0Z"/><path class="cls-16" d="M280.98,273.25c0,.27-.04.47-.13.6-.09.13-.23.19-.41.19s-.31-.07-.4-.2c-.09-.13-.14-.33-.14-.59s.04-.47.13-.6c.09-.13.22-.19.41-.19s.31.07.4.2c.09.14.14.33.14.59M280.22,273.25c0,.19.02.32.05.41.03.08.09.12.17.12s.13-.04.17-.12c.03-.08.05-.22.05-.41s-.02-.33-.05-.41c-.03-.08-.09-.12-.16-.12s-.13.04-.17.12c-.03.08-.05.22-.05.41"/><path class="cls-1" d="M286.09,434.51h-2.28v-141.56h3.85v139.99c0,.87-.7,1.57-1.57,1.57"/><path class="cls-2" d="M286.49,319.31h-.96c-.64,0-1.15-.52-1.15-1.15v-7.55c0-.64.52-1.15,1.15-1.15h.96c.64,0,1.15.52,1.15,1.15v7.55c0,.64-.52,1.15-1.15,1.15"/></g></g></g><rect class="cls-5" x="618.24" y="193.92" width="297.24" height="32.25" rx="10.53" ry="10.53"/><path class="cls-16" d="M629.3,215.62h-.07l-.2.87h-1.98v-11.44h2.52v2.75l-.05,1.23c.61-.54,1.34-.87,2.1-.87,1.96,0,3.19,1.62,3.19,4.13,0,2.8-1.65,4.4-3.41,4.4-.74,0-1.47-.36-2.11-1.06ZM632.21,212.32c0-1.42-.42-2.1-1.33-2.1-.47,0-.87.21-1.31.69v3.23c.41.36.83.47,1.23.47.79,0,1.41-.64,1.41-2.29Z"/><path class="cls-16" d="M636.01,212.42c0-2.7,1.92-4.26,3.98-4.26s4,1.56,4,4.26-1.92,4.27-4,4.27-3.98-1.57-3.98-4.27ZM641.38,212.42c0-1.34-.44-2.23-1.39-2.23s-1.39.88-1.39,2.23.44,2.23,1.39,2.23,1.39-.87,1.39-2.23Z"/><path class="cls-16" d="M645.13,212.42c0-2.7,1.92-4.26,3.98-4.26s4,1.56,4,4.26-1.92,4.27-4,4.27-3.98-1.57-3.98-4.27ZM650.5,212.42c0-1.34-.44-2.23-1.39-2.23s-1.39.88-1.39,2.23.44,2.23,1.39,2.23,1.39-.87,1.39-2.23Z"/><path class="cls-16" d="M654.71,205.05h2.5v6.39h.05l2.42-3.08h2.78l-2.83,3.39,3.03,4.75h-2.75l-1.77-3.09-.93,1.08v2.01h-2.5v-11.44Z"/><path class="cls-16" d="M662.94,217.41h7.79v1.41h-7.79v-1.41Z"/><path class="cls-16" d="M672.29,213.48v-3.14h-1.1v-1.9l1.24-.08.29-2.49h2.1v2.49h1.92v1.98h-1.92v3.11c0,.92.43,1.26,1.03,1.26.26,0,.54-.03.75-.11l.39,1.77c-.43.16-1.05.33-1.85.33-2.03,0-2.87-1.29-2.87-3.21Z"/><path class="cls-16" d="M678.15,205.9c0-.79.59-1.29,1.42-1.29s1.42.51,1.42,1.29-.59,1.31-1.42,1.31-1.42-.51-1.42-1.31ZM678.32,208.35h2.52v8.14h-2.52v-8.14Z"/><path class="cls-16" d="M683.23,213.48v-3.14h-1.1v-1.9l1.24-.08.29-2.49h2.1v2.49h1.92v1.98h-1.92v3.11c0,.92.43,1.26,1.03,1.26.26,0,.54-.03.75-.11l.39,1.77c-.43.16-1.05.33-1.85.33-2.03,0-2.87-1.29-2.87-3.21Z"/><path class="cls-16" d="M689.25,213.86v-8.81h2.52v8.91c0,.52.26.69.46.69.1,0,.16,0,.29-.03l.29,1.87c-.28.11-.7.21-1.26.21-1.74,0-2.31-1.13-2.31-2.83Z"/><path class="cls-16" d="M693.54,212.42c0-2.64,1.9-4.26,3.85-4.26,2.36,0,3.5,1.7,3.5,3.91,0,.46-.05.88-.1,1.11h-4.8c.23,1.1,1,1.57,2.03,1.57.59,0,1.18-.18,1.75-.51l.82,1.52c-.85.61-1.96.92-2.93.92-2.33,0-4.13-1.56-4.13-4.27ZM698.73,211.48c0-.8-.36-1.41-1.28-1.41-.72,0-1.33.46-1.49,1.41h2.77Z"/><path class="cls-16" d="M702.04,208.27h7.6v1.77h-7.6v-1.77ZM702.04,212.14h7.6v1.77h-7.6v-1.77Z"/><path class="cls-16" d="M711.31,214.45h2.26v-5.81h-1.95v-1.57c1.13-.21,1.88-.49,2.62-.97h1.87v8.35h1.93v2.05h-6.73v-2.05Z"/><path class="cls-16" d="M719.51,214.94c2.55-2.26,4.45-4.11,4.45-5.55,0-.98-.54-1.49-1.41-1.49-.72,0-1.29.49-1.8,1.03l-1.31-1.31c1.02-1.15,1.98-1.72,3.46-1.72,2.06,0,3.49,1.33,3.49,3.32,0,1.87-1.7,3.55-3.46,5.26.54-.05,1.26-.11,1.74-.11h2.23v2.13h-7.38v-1.56Z"/><path class="cls-16" d="M727.96,215.22l1.16-1.6c.64.61,1.41,1.03,2.23,1.03,1,0,1.64-.41,1.64-1.16,0-.87-.49-1.39-2.72-1.39v-1.78c1.82,0,2.39-.54,2.39-1.33,0-.7-.44-1.08-1.23-1.08-.72,0-1.26.31-1.9.88l-1.28-1.54c.97-.83,2.03-1.34,3.29-1.34,2.21,0,3.65,1.03,3.65,2.88,0,1.05-.61,1.82-1.72,2.29v.07c1.2.34,2.05,1.18,2.05,2.52,0,1.95-1.8,3.03-3.91,3.03-1.69,0-2.88-.59-3.65-1.47Z"/><path class="cls-16" d="M741.12,214.07h-4.47v-1.77l3.7-6.21h3.13v6.04h1.18v1.93h-1.18v2.42h-2.36v-2.42ZM741.12,212.14v-1.54c0-.67.05-1.69.08-2.37h-.07c-.26.61-.56,1.19-.85,1.8l-1.23,2.11h2.06Z"/><path class="cls-16" d="M745.4,215.22l1.15-1.59c.62.57,1.34,1.02,2.19,1.02,1.03,0,1.69-.52,1.69-1.54s-.66-1.52-1.57-1.52c-.59,0-.88.13-1.51.52l-1.11-.72.28-5.29h5.98v2.13h-3.8l-.15,1.82c.38-.16.7-.21,1.1-.21,1.8,0,3.32,1.02,3.32,3.21,0,2.32-1.8,3.65-3.85,3.65-1.7,0-2.88-.64-3.72-1.47Z"/><path class="cls-16" d="M754.93,209.78c1-.47,1.51-1.11,1.51-2.06-.05.02-.12.02-.16.02-.72,0-1.31-.49-1.31-1.24,0-.85.56-1.39,1.31-1.39,1.05,0,1.6.8,1.6,2.21,0,1.57-.79,2.78-2.41,3.57l-.54-1.1Z"/><path class="cls-16" d="M759.53,218.37c1.26-.41,1.9-1.2,1.88-1.98h-.11c-.79,0-1.52-.52-1.52-1.42,0-.85.7-1.42,1.57-1.42,1.11,0,1.74.88,1.74,2.36,0,1.83-1.06,3.24-3.03,3.83l-.52-1.36ZM759.77,209.88c0-.88.64-1.57,1.51-1.57s1.52.69,1.52,1.57-.65,1.57-1.52,1.57-1.51-.69-1.51-1.57Z"/><path class="cls-16" d="M768.3,205.83h3.06c3.26,0,5.4,1.59,5.4,5.29s-2.14,5.37-5.26,5.37h-3.21v-10.66ZM771.22,214.45c1.72,0,2.95-.8,2.95-3.32s-1.23-3.24-2.95-3.24h-.36v6.57h.36Z"/><path class="cls-16" d="M778.73,205.83h3.91c2.26,0,4.16.79,4.16,3.36,0,1.56-.74,2.55-1.83,3.08l2.37,4.22h-2.85l-1.96-3.75h-1.24v3.75h-2.55v-10.66ZM782.45,210.73c1.21,0,1.87-.52,1.87-1.54s-.65-1.34-1.87-1.34h-1.16v2.88h1.16Z"/><path class="cls-16" d="M788.36,211.12c0-3.5,1.98-5.48,4.88-5.48s4.88,2,4.88,5.48-1.98,5.57-4.88,5.57-4.88-2.08-4.88-5.57ZM795.52,211.12c0-2.08-.87-3.29-2.28-3.29s-2.28,1.21-2.28,3.29.88,3.37,2.28,3.37,2.28-1.31,2.28-3.37Z"/><path class="cls-16" d="M800.1,205.83h3.75c2.34,0,4.26.83,4.26,3.45s-1.95,3.67-4.19,3.67h-1.26v3.54h-2.55v-10.66ZM803.77,210.94c1.26,0,1.85-.59,1.85-1.65s-.67-1.44-1.92-1.44h-1.05v3.09h1.11Z"/><path class="cls-16" d="M815.28,207.96h-2.9v-2.13h8.33v2.13h-2.9v8.53h-2.54v-8.53Z"/><path class="cls-16" d="M823.66,205.83h3.05l3.32,10.66h-2.68l-.62-2.46h-3.16l-.62,2.46h-2.6l3.32-10.66ZM824.06,212.07h2.18l-.23-.92c-.28-1.05-.56-2.31-.83-3.42h-.07c-.26,1.11-.54,2.37-.82,3.42l-.23.92Z"/><path class="cls-16" d="M831.13,205.83h3.72c2.21,0,3.96.59,3.96,2.65,0,.93-.52,1.96-1.39,2.29v.07c1.08.29,1.92,1.08,1.92,2.5,0,2.18-1.87,3.14-4.17,3.14h-4.03v-10.66ZM834.75,210.07c1.1,0,1.57-.48,1.57-1.21s-.51-1.08-1.56-1.08h-1.08v2.29h1.06ZM834.96,214.54c1.24,0,1.88-.46,1.88-1.36s-.62-1.24-1.88-1.24h-1.28v2.6h1.28Z"/><path class="cls-16" d="M841.07,205.83h2.55v8.53h4.14v2.13h-6.7v-10.66Z"/><path class="cls-16" d="M849.61,205.83h6.75v2.13h-4.19v2h3.59v2.13h-3.59v2.28h4.36v2.13h-6.91v-10.66Z"/><path class="cls-16" d="M861.7,205.05h2.52v2.75l-.11,1.46c.61-.54,1.39-1.1,2.5-1.1,1.77,0,2.52,1.26,2.52,3.29v5.04h-2.54v-4.72c0-1.13-.29-1.47-.95-1.47-.57,0-.92.28-1.42.74v5.45h-2.52v-11.44Z"/><path class="cls-16" d="M870.65,212.42c0-2.64,1.9-4.26,3.85-4.26,2.36,0,3.5,1.7,3.5,3.91,0,.46-.05.88-.1,1.11h-4.8c.23,1.1,1,1.57,2.03,1.57.59,0,1.18-.18,1.75-.51l.82,1.52c-.85.61-1.96.92-2.93.92-2.33,0-4.13-1.56-4.13-4.27ZM875.84,211.48c0-.8-.36-1.41-1.28-1.41-.72,0-1.33.46-1.49,1.41h2.77Z"/><path class="cls-16" d="M879.63,213.86v-8.81h2.52v8.91c0,.52.26.69.46.69.1,0,.16,0,.29-.03l.29,1.87c-.28.11-.7.21-1.26.21-1.74,0-2.31-1.13-2.31-2.83Z"/><path class="cls-16" d="M884.37,213.86v-8.81h2.52v8.91c0,.52.26.69.46.69.1,0,.16,0,.29-.03l.29,1.87c-.28.11-.7.21-1.26.21-1.74,0-2.31-1.13-2.31-2.83Z"/><path class="cls-16" d="M888.66,212.42c0-2.7,1.92-4.26,3.98-4.26s4,1.56,4,4.26-1.92,4.27-4,4.27-3.98-1.57-3.98-4.27ZM894.03,212.42c0-1.34-.44-2.23-1.39-2.23s-1.39.88-1.39,2.23.44,2.23,1.39,2.23,1.39-.87,1.39-2.23Z"/><path class="cls-16" d="M897.96,218.37c1.26-.41,1.9-1.2,1.88-1.98h-.11c-.79,0-1.52-.52-1.52-1.42,0-.85.7-1.42,1.57-1.42,1.11,0,1.74.88,1.74,2.36,0,1.83-1.06,3.24-3.03,3.83l-.52-1.36ZM898.21,209.88c0-.88.64-1.57,1.51-1.57s1.52.69,1.52,1.57-.65,1.57-1.52,1.57-1.51-.69-1.51-1.57Z"/><path class="cls-16" d="M902.96,211.45h4.04v1.78h-4.04v-1.78Z"/><rect class="cls-10" x="104.05" y="383.36" width="116.28" height="28.02" rx="5.81" ry="5.81"/><rect class="cls-21" x="87.45" y="336.22" width="149.47" height="28.02" rx="5.81" ry="5.81"/><path class="cls-4" d="M97.69,353.13l.88-1.56-1.63-.75.38-1.14,1.77.36.2-1.79h1.2l.2,1.8,1.77-.38.36,1.14-1.65.75.91,1.56-.97.71-1.21-1.35-1.23,1.35-.96-.71Z"/><path class="cls-4" d="M104.62,353.13l.88-1.56-1.63-.75.38-1.14,1.77.36.2-1.79h1.2l.2,1.8,1.77-.38.36,1.14-1.65.75.91,1.56-.97.71-1.21-1.35-1.23,1.35-.96-.71Z"/><path class="cls-4" d="M111.55,353.13l.88-1.56-1.63-.75.38-1.14,1.77.36.2-1.79h1.2l.2,1.8,1.77-.38.36,1.14-1.65.75.91,1.56-.97.71-1.21-1.35-1.23,1.35-.96-.71Z"/><path class="cls-4" d="M118.48,353.13l.88-1.56-1.63-.75.38-1.14,1.77.36.2-1.79h1.2l.2,1.8,1.77-.38.36,1.14-1.65.75.91,1.56-.97.71-1.21-1.35-1.23,1.35-.96-.71Z"/><path class="cls-4" d="M125.41,353.13l.88-1.56-1.63-.75.38-1.14,1.77.36.2-1.79h1.2l.2,1.8,1.77-.38.36,1.14-1.65.75.91,1.56-.97.71-1.21-1.35-1.23,1.35-.96-.71Z"/><path class="cls-4" d="M132.34,353.13l.88-1.56-1.63-.75.38-1.14,1.77.36.2-1.79h1.2l.2,1.8,1.77-.38.36,1.14-1.65.75.91,1.56-.97.71-1.21-1.35-1.23,1.35-.96-.71Z"/><path class="cls-4" d="M139.27,353.13l.88-1.56-1.63-.75.38-1.14,1.77.36.2-1.79h1.2l.2,1.8,1.77-.38.36,1.14-1.65.75.91,1.56-.97.71-1.21-1.35-1.23,1.35-.96-.71Z"/><path class="cls-4" d="M146.2,353.13l.88-1.56-1.63-.75.38-1.14,1.77.36.2-1.79h1.2l.2,1.8,1.77-.38.36,1.14-1.65.75.91,1.56-.97.71-1.21-1.35-1.23,1.35-.96-.71Z"/><path class="cls-4" d="M153.13,353.13l.88-1.56-1.63-.75.38-1.14,1.77.36.2-1.79h1.2l.2,1.8,1.77-.38.36,1.14-1.65.75.91,1.56-.97.71-1.21-1.35-1.23,1.35-.96-.71Z"/><path class="cls-4" d="M160.06,353.13l.88-1.56-1.63-.75.38-1.14,1.77.36.2-1.79h1.2l.2,1.8,1.77-.38.36,1.14-1.65.75.91,1.56-.97.71-1.21-1.35-1.23,1.35-.96-.71Z"/><path class="cls-16" d="M138.44,400.95l1.23-1.51c.69.6,1.63.93,2.46.93.88,0,1.29-.33,1.29-.85,0-.57-.53-.75-1.38-1.1l-1.24-.54c-1.04-.41-1.98-1.26-1.98-2.67,0-1.64,1.47-2.96,3.54-2.96,1.17,0,2.33.43,3.17,1.21l-1.21,1.51c-.66-.46-1.33-.72-1.95-.72-.72,0-1.18.29-1.18.79,0,.57.61.76,1.48,1.11l1.21.49c1.21.48,1.94,1.29,1.94,2.66,0,1.63-1.37,3.06-3.72,3.06-1.32,0-2.62-.45-3.65-1.42Z"/><path class="cls-16" d="M147.17,399.36v-4.62h2.33v4.32c0,1.04.27,1.33.87,1.33.53,0,.84-.21,1.25-.76v-4.89h2.33v7.46h-1.89l-.17-1.02h-.06c-.61.73-1.32,1.2-2.32,1.2-1.64,0-2.33-1.15-2.33-3.01Z"/><path class="cls-16" d="M157.88,401.4h-.06l-.18.79h-1.81v-10.48h2.31v2.52l-.04,1.12c.55-.5,1.23-.79,1.92-.79,1.8,0,2.92,1.49,2.92,3.78,0,2.56-1.51,4.03-3.12,4.03-.67,0-1.35-.33-1.93-.97ZM160.55,398.37c0-1.3-.39-1.92-1.21-1.92-.44,0-.79.2-1.2.63v2.96c.38.33.76.44,1.12.44.72,0,1.29-.58,1.29-2.1Z"/><path class="cls-16" d="M164.45,394.74h1.89l.17.93h.06c.6-.6,1.26-1.11,2.25-1.11s1.68.43,2.05,1.23c.65-.66,1.33-1.23,2.33-1.23,1.62,0,2.34,1.16,2.34,3.01v4.62h-2.31v-4.32c0-1.04-.29-1.35-.87-1.35-.36,0-.75.23-1.2.67v5h-2.32v-4.32c0-1.04-.27-1.35-.87-1.35-.35,0-.75.23-1.2.67v5h-2.31v-7.46Z"/><path class="cls-16" d="M177.21,392.49c0-.72.54-1.18,1.3-1.18s1.31.46,1.31,1.18-.54,1.2-1.31,1.2-1.3-.46-1.3-1.2ZM177.36,394.74h2.31v7.46h-2.31v-7.46Z"/><path class="cls-16" d="M181.86,399.44v-2.88h-1v-1.74l1.14-.08.27-2.28h1.92v2.28h1.75v1.82h-1.75v2.85c0,.84.39,1.16.94,1.16.24,0,.5-.03.69-.11l.36,1.62c-.39.15-.96.3-1.69.3-1.86,0-2.62-1.18-2.62-2.94Z"/><path class="cls-16" d="M194.02,68.94l1.71-2.29c1.21.95,2.4,1.26,3.42,1.26,1.11,0,1.55-.4,1.55-1.03,0-.79-1.11-1.13-2.5-1.66-1.87-.69-3.45-1.87-3.45-3.9,0-2.48,2-4.13,5.06-4.13,1.92,0,3.56.71,4.69,1.66l-1.74,2.29c-.95-.68-1.92-.95-2.82-.95-.95,0-1.4.37-1.4.95,0,.69.74,1,2.4,1.53,2,.63,3.58,1.82,3.58,3.98,0,2.4-1.9,4.27-5.45,4.27-1.74,0-3.74-.68-5.06-1.98Z"/><path class="cls-16" d="M206.16,64.04c0-4.24,3.05-6.85,6.19-6.85,3.79,0,5.64,2.74,5.64,6.29,0,.74-.08,1.42-.16,1.79h-7.72c.37,1.76,1.61,2.53,3.27,2.53.95,0,1.9-.29,2.82-.82l1.32,2.45c-1.37.97-3.16,1.47-4.71,1.47-3.74,0-6.64-2.5-6.64-6.87ZM214.51,62.54c0-1.29-.58-2.27-2.05-2.27-1.16,0-2.13.74-2.4,2.27h4.45Z"/><path class="cls-16" d="M220.6,66.35v-14.17h4.06v14.33c0,.84.42,1.11.74,1.11.16,0,.26,0,.47-.05l.47,3c-.45.18-1.13.34-2.03.34-2.79,0-3.71-1.82-3.71-4.56Z"/><path class="cls-16" d="M227.5,64.04c0-4.24,3.05-6.85,6.19-6.85,3.79,0,5.64,2.74,5.64,6.29,0,.74-.08,1.42-.16,1.79h-7.72c.37,1.76,1.61,2.53,3.27,2.53.95,0,1.9-.29,2.82-.82l1.32,2.45c-1.37.97-3.16,1.47-4.71,1.47-3.74,0-6.64-2.5-6.64-6.87ZM235.85,62.54c0-1.29-.58-2.27-2.05-2.27-1.16,0-2.13.74-2.4,2.27h4.45Z"/><path class="cls-16" d="M241.19,64.04c0-4.35,3.24-6.85,6.87-6.85,1.61,0,2.84.55,3.82,1.4l-1.9,2.5c-.61-.45-1.11-.63-1.69-.63-1.82,0-2.95,1.42-2.95,3.58s1.21,3.58,2.82,3.58c.87,0,1.61-.32,2.26-.82l1.58,2.55c-1.26,1.16-2.92,1.55-4.32,1.55-3.69,0-6.5-2.53-6.5-6.87Z"/><path class="cls-16" d="M254.55,65.75v-5.06h-1.76v-3.06l2-.13.47-4h3.37v4h3.08v3.19h-3.08v5c0,1.47.68,2.03,1.66,2.03.42,0,.87-.05,1.21-.18l.63,2.84c-.68.26-1.69.53-2.98.53-3.27,0-4.61-2.08-4.61-5.16Z"/><path class="cls-16" d="M270.09,60.4l1.55-2.74-2.87-1.32.66-2,3.11.63.34-3.13h2.11l.34,3.16,3.11-.66.63,2-2.9,1.32,1.61,2.74-1.71,1.24-2.13-2.37-2.16,2.37-1.69-1.24Z"/><path class="cls-16" d="M290.55,69.2h-.11l-.32,1.4h-3.19v-18.41h4.06v4.42l-.08,1.98c.97-.87,2.16-1.4,3.37-1.4,3.16,0,5.14,2.61,5.14,6.64,0,4.5-2.66,7.08-5.48,7.08-1.19,0-2.37-.58-3.4-1.71ZM295.24,63.88c0-2.29-.68-3.37-2.13-3.37-.76,0-1.4.34-2.11,1.11v5.19c.66.58,1.34.76,1.98.76,1.26,0,2.26-1.03,2.26-3.69Z"/><path class="cls-16" d="M301.36,64.04c0-4.35,3.08-6.85,6.4-6.85s6.43,2.5,6.43,6.85-3.08,6.87-6.43,6.87-6.4-2.53-6.4-6.87ZM309.99,64.04c0-2.16-.71-3.58-2.24-3.58s-2.24,1.42-2.24,3.58.71,3.58,2.24,3.58,2.24-1.4,2.24-3.58Z"/><path class="cls-16" d="M316.03,64.04c0-4.35,3.08-6.85,6.4-6.85s6.43,2.5,6.43,6.85-3.08,6.87-6.43,6.87-6.4-2.53-6.4-6.87ZM324.67,64.04c0-2.16-.71-3.58-2.24-3.58s-2.24,1.42-2.24,3.58.71,3.58,2.24,3.58,2.24-1.4,2.24-3.58Z"/><path class="cls-16" d="M331.44,52.19h4.03v10.27h.08l3.9-4.95h4.48l-4.56,5.45,4.87,7.64h-4.42l-2.84-4.98-1.5,1.74v3.24h-4.03v-18.41Z"/><path class="cls-16" d="M344.89,68.94l1.71-2.29c1.21.95,2.4,1.26,3.42,1.26,1.11,0,1.55-.4,1.55-1.03,0-.79-1.11-1.13-2.5-1.66-1.87-.69-3.45-1.87-3.45-3.9,0-2.48,2-4.13,5.06-4.13,1.92,0,3.55.71,4.69,1.66l-1.74,2.29c-.95-.68-1.92-.95-2.82-.95-.95,0-1.4.37-1.4.95,0,.69.74,1,2.4,1.53,2,.63,3.58,1.82,3.58,3.98,0,2.4-1.9,4.27-5.45,4.27-1.74,0-3.74-.68-5.06-1.98Z"/><path class="cls-16" d="M362.02,57.5h4.03l1.19,5.9c.21,1.26.37,2.53.55,3.95h.11c.24-1.42.45-2.71.74-3.95l1.34-5.9h3.61l1.4,5.9c.29,1.26.53,2.53.76,3.95h.11c.24-1.42.34-2.69.58-3.95l1.16-5.9h3.77l-3.08,13.09h-4.85l-1.05-5.03c-.24-1.21-.45-2.37-.66-3.87h-.11c-.21,1.5-.37,2.66-.61,3.87l-1.03,5.03h-4.71l-3.24-13.09Z"/><path class="cls-16" d="M383.64,52.19h4.06v4.42l-.18,2.34c.97-.87,2.24-1.76,4.03-1.76,2.84,0,4.06,2.03,4.06,5.29v8.11h-4.08v-7.58c0-1.82-.47-2.37-1.53-2.37-.92,0-1.47.45-2.29,1.19v8.77h-4.06v-18.41Z"/><path class="cls-16" d="M398.05,64.04c0-4.24,3.05-6.85,6.19-6.85,3.79,0,5.64,2.74,5.64,6.29,0,.74-.08,1.42-.16,1.79h-7.72c.37,1.76,1.61,2.53,3.27,2.53.95,0,1.9-.29,2.82-.82l1.32,2.45c-1.37.97-3.16,1.47-4.71,1.47-3.74,0-6.64-2.5-6.64-6.87ZM406.4,62.54c0-1.29-.58-2.27-2.05-2.27-1.16,0-2.13.74-2.4,2.27h4.45Z"/><path class="cls-16" d="M412.48,57.5h3.32l.29,2.27h.11c.95-1.76,2.4-2.58,3.71-2.58.76,0,1.21.08,1.58.26l-.76,3.45c-.47-.11-.76-.16-1.34-.16-.97,0-2.16.63-2.84,2.37v7.48h-4.06v-13.09Z"/><path class="cls-16" d="M422.15,64.04c0-4.24,3.05-6.85,6.19-6.85,3.79,0,5.64,2.74,5.64,6.29,0,.74-.08,1.42-.16,1.79h-7.72c.37,1.76,1.61,2.53,3.27,2.53.95,0,1.9-.29,2.82-.82l1.32,2.45c-1.37.97-3.16,1.47-4.71,1.47-3.74,0-6.64-2.5-6.64-6.87ZM430.5,62.54c0-1.29-.58-2.27-2.05-2.27-1.16,0-2.13.74-2.4,2.27h4.45Z"/><path class="cls-16" d="M445.46,69.2h-.11l-.32,1.4h-3.19v-18.41h4.06v4.42l-.08,1.98c.97-.87,2.16-1.4,3.37-1.4,3.16,0,5.14,2.61,5.14,6.64,0,4.5-2.66,7.08-5.48,7.08-1.19,0-2.37-.58-3.4-1.71ZM450.15,63.88c0-2.29-.68-3.37-2.13-3.37-.76,0-1.4.34-2.11,1.11v5.19c.66.58,1.34.76,1.98.76,1.26,0,2.26-1.03,2.26-3.69Z"/><path class="cls-16" d="M456.26,64.04c0-4.35,3.08-6.85,6.4-6.85s6.43,2.5,6.43,6.85-3.08,6.87-6.43,6.87-6.4-2.53-6.4-6.87ZM464.9,64.04c0-2.16-.71-3.58-2.24-3.58s-2.24,1.42-2.24,3.58.71,3.58,2.24,3.58,2.24-1.4,2.24-3.58Z"/><path class="cls-16" d="M470.93,64.04c0-4.35,3.08-6.85,6.4-6.85s6.43,2.5,6.43,6.85-3.08,6.87-6.43,6.87-6.4-2.53-6.4-6.87ZM479.57,64.04c0-2.16-.71-3.58-2.24-3.58s-2.24,1.42-2.24,3.58.71,3.58,2.24,3.58,2.24-1.4,2.24-3.58Z"/><path class="cls-16" d="M486.34,52.19h4.03v10.27h.08l3.9-4.95h4.48l-4.56,5.45,4.87,7.64h-4.42l-2.84-4.98-1.5,1.74v3.24h-4.03v-18.41Z"/><path class="cls-16" d="M499.59,72.07h12.54v2.27h-12.54v-2.27Z"/><path class="cls-16" d="M514.63,65.75v-5.06h-1.76v-3.06l2-.13.47-4h3.37v4h3.08v3.19h-3.08v5c0,1.47.68,2.03,1.66,2.03.42,0,.87-.05,1.21-.18l.63,2.84c-.68.26-1.69.53-2.98.53-3.27,0-4.61-2.08-4.61-5.16Z"/><path class="cls-16" d="M524.06,53.55c0-1.26.95-2.08,2.29-2.08s2.29.82,2.29,2.08-.95,2.11-2.29,2.11-2.29-.82-2.29-2.11ZM524.33,57.5h4.06v13.09h-4.06v-13.09Z"/><path class="cls-16" d="M532.23,65.75v-5.06h-1.76v-3.06l2-.13.47-4h3.37v4h3.08v3.19h-3.08v5c0,1.47.68,2.03,1.66,2.03.42,0,.87-.05,1.21-.18l.63,2.84c-.68.26-1.69.53-2.98.53-3.27,0-4.61-2.08-4.61-5.16Z"/><path class="cls-16" d="M541.92,66.35v-14.17h4.06v14.33c0,.84.42,1.11.74,1.11.16,0,.26,0,.47-.05l.47,3c-.45.18-1.13.34-2.03.34-2.79,0-3.71-1.82-3.71-4.56Z"/><path class="cls-16" d="M548.82,64.04c0-4.24,3.05-6.85,6.19-6.85,3.79,0,5.64,2.74,5.64,6.29,0,.74-.08,1.42-.16,1.79h-7.72c.37,1.76,1.61,2.53,3.27,2.53.95,0,1.9-.29,2.82-.82l1.32,2.45c-1.37.97-3.16,1.47-4.71,1.47-3.74,0-6.64-2.5-6.64-6.87ZM557.17,62.54c0-1.29-.58-2.27-2.05-2.27-1.16,0-2.13.74-2.4,2.27h4.45Z"/><path class="cls-16" d="M562.49,57.37h12.22v2.84h-12.22v-2.84ZM562.49,63.59h12.22v2.84h-12.22v-2.84Z"/><path class="cls-16" d="M577.03,58.4c0-2.53,1.26-4.48,3.87-5.74l.9,1.76c-1.63.76-2.42,1.79-2.42,3.32.08-.03.16-.03.24-.03,1.16,0,2.11.79,2.11,2,0,1.37-.87,2.24-2.11,2.24-1.69,0-2.58-1.29-2.58-3.56Z"/><path class="cls-16" d="M585.67,53.45h4.11v17.15h-4.11v-17.15Z"/><path class="cls-16" d="M593.42,57.5h3.32l.29,1.63h.11c1.08-1.05,2.4-1.95,4.19-1.95,2.84,0,4.06,2.03,4.06,5.29v8.11h-4.08v-7.58c0-1.82-.47-2.37-1.53-2.37-.92,0-1.47.45-2.29,1.19v8.77h-4.06v-13.09Z"/><path class="cls-16" d="M609.09,65.75v-5.06h-1.76v-3.06l2-.13.47-4h3.37v4h3.08v3.19h-3.08v5c0,1.47.68,2.03,1.66,2.03.42,0,.87-.05,1.21-.18l.63,2.84c-.68.26-1.69.53-2.98.53-3.27,0-4.61-2.08-4.61-5.16Z"/><path class="cls-16" d="M618.78,57.5h3.32l.29,2.27h.11c.95-1.76,2.4-2.58,3.71-2.58.76,0,1.21.08,1.58.26l-.76,3.45c-.47-.11-.76-.16-1.34-.16-.97,0-2.16.63-2.84,2.37v7.48h-4.06v-13.09Z"/><path class="cls-16" d="M628.45,64.04c0-4.35,3.08-6.85,6.4-6.85s6.43,2.5,6.43,6.85-3.08,6.87-6.43,6.87-6.4-2.53-6.4-6.87ZM637.09,64.04c0-2.16-.71-3.58-2.24-3.58s-2.24,1.42-2.24,3.58.71,3.58,2.24,3.58,2.24-1.4,2.24-3.58Z"/><path class="cls-16" d="M649.65,65.75v-5.06h-1.76v-3.06l2-.13.47-4h3.37v4h3.08v3.19h-3.08v5c0,1.47.68,2.03,1.66,2.03.42,0,.87-.05,1.21-.18l.63,2.84c-.68.26-1.69.53-2.98.53-3.27,0-4.61-2.08-4.61-5.16Z"/><path class="cls-16" d="M658.11,64.04c0-4.35,3.08-6.85,6.4-6.85s6.43,2.5,6.43,6.85-3.08,6.87-6.43,6.87-6.4-2.53-6.4-6.87ZM666.75,64.04c0-2.16-.71-3.58-2.24-3.58s-2.24,1.42-2.24,3.58.71,3.58,2.24,3.58,2.24-1.4,2.24-3.58Z"/><path class="cls-16" d="M679.1,53.45h6.03c3.77,0,6.85,1.34,6.85,5.56s-3.13,5.9-6.74,5.9h-2.03v5.69h-4.11v-17.15ZM685,61.67c2.03,0,2.98-.95,2.98-2.66s-1.08-2.32-3.08-2.32h-1.69v4.98h1.79Z"/><path class="cls-16" d="M694.9,53.45h4.11v6.53h5.66v-6.53h4.08v17.15h-4.08v-7.06h-5.66v7.06h-4.11v-17.15Z"/><path class="cls-16" d="M712.71,53.45h6.03c3.77,0,6.85,1.34,6.85,5.56s-3.13,5.9-6.74,5.9h-2.03v5.69h-4.11v-17.15ZM718.61,61.67c2.03,0,2.98-.95,2.98-2.66s-1.08-2.32-3.08-2.32h-1.69v4.98h1.79Z"/><path class="cls-16" d="M728.44,59.8c1.61-.76,2.42-1.79,2.42-3.32-.08.03-.18.03-.26.03-1.16,0-2.11-.79-2.11-2,0-1.37.9-2.24,2.11-2.24,1.69,0,2.58,1.29,2.58,3.56,0,2.53-1.26,4.48-3.87,5.74l-.87-1.76Z"/></svg>