<?xml version="1.0" encoding="UTF-8"?><svg id="Layer_5" xmlns="http://www.w3.org/2000/svg" xmlns:xlink="http://www.w3.org/1999/xlink" viewBox="0 0 1140 373.36"><defs><style>.cls-1{fill:url(#linear-gradient);}.cls-1,.cls-2,.cls-3,.cls-4,.cls-5,.cls-6,.cls-7,.cls-8{stroke-width:0px;}.cls-2{fill:#223654;}.cls-3{fill:url(#linear-gradient-5);}.cls-4{fill:#fff;}.cls-5{fill:url(#linear-gradient-2);}.cls-6{fill:url(#linear-gradient-3);}.cls-7{fill:#a3ea2a;}.cls-8{fill:url(#linear-gradient-4);}</style><linearGradient id="linear-gradient" x1="961.9" y1="43.69" x2="1124.1" y2="43.69" gradientTransform="translate(-746.33 83.54)" gradientUnits="userSpaceOnUse"><stop offset=".48" stop-color="#223654"/><stop offset=".52" stop-color="#35514d"/><stop offset=".66" stop-color="#70a33a"/><stop offset=".76" stop-color="#94d62e"/><stop offset=".81" stop-color="#a3ea2a"/></linearGradient><linearGradient id="linear-gradient-2" x1="1129.36" y1="-42.94" x2="1429.61" y2="-42.94" gradientTransform="translate(-746.33 83.54)" gradientUnits="userSpaceOnUse"><stop offset=".59" stop-color="#223654"/><stop offset=".63" stop-color="#273d52"/><stop offset=".7" stop-color="#37534d"/><stop offset=".79" stop-color="#507744"/><stop offset=".89" stop-color="#74a839"/><stop offset="1" stop-color="#a1e72a"/><stop offset="1" stop-color="#a3ea2a"/></linearGradient><linearGradient id="linear-gradient-3" x1="494.26" y1="657.94" x2="686.39" y2="657.94" gradientTransform="translate(636.98 -723.56) rotate(45)" gradientUnits="userSpaceOnUse"><stop offset=".56" stop-color="#223654"/><stop offset=".61" stop-color="#35504d"/><stop offset=".8" stop-color="#6fa23a"/><stop offset=".94" stop-color="#94d62e"/><stop offset="1" stop-color="#a3ea2a"/></linearGradient><linearGradient id="linear-gradient-4" x1="1384.63" y1="75.98" x2="1631.03" y2="75.98" xlink:href="#linear-gradient-2"/><linearGradient id="linear-gradient-5" x1="1394.67" y1="251.77" x2="1694.92" y2="251.77" xlink:href="#linear-gradient-2"/></defs><rect class="cls-2" x="8.57" y="90.58" width="285.64" height="73.3" rx="9.56" ry="9.56"/><rect class="cls-2" x="683.13" y="6.14" width="177.27" height="68.92" rx="9.56" ry="9.56"/><rect class="cls-2" x="883.91" y="127.61" width="247.52" height="63.83" rx="9.56" ry="9.56"/><rect class="cls-2" x="949.61" y="303.39" width="181.82" height="63.83" rx="9.56" ry="9.56"/><rect class="cls-2" x="405.81" y="44.17" width="166.12" height="166.12" transform="translate(233.15 -308.42) rotate(45)"/><rect class="cls-2" x="670.31" y="161.63" width="166.12" height="166.12" transform="translate(393.68 -461.05) rotate(45)"/><g id="arrow_styles_for_diagrams_etc"><g id="arrow_styles_for_diagrams_etc-2"><path class="cls-1" d="M382.33,128.1l-22.89,13.16c-.68.39-1.52-.1-1.52-.88v-6.79s-76.82,0-76.82,0c-2.03,0-3.67-1.64-3.67-3.67v-5.39c0-2.02,1.64-3.66,3.66-3.66h76.83s0-6.79,0-6.79c0-.78.84-1.27,1.52-.88l22.89,13.16c.68.39.68,1.36,0,1.74Z"/></g></g><g id="arrow_styles_for_diagrams_etc-3"><g id="arrow_styles_for_diagrams_etc-4"><path class="cls-5" d="M692.16,41.47l-22.89,13.16c-.68.39-1.52-.1-1.52-.88v-6.79s-166.55,0-166.55,0c-2.03,0-3.67-1.64-3.67-3.67v-5.39c0-2.02,1.64-3.66,3.66-3.66h166.57s0-6.79,0-6.79c0-.78.84-1.27,1.52-.88l22.89,13.16c.68.39.68,1.36,0,1.74Z"/></g></g><g id="arrow_styles_for_diagrams_etc-5"><g id="arrow_styles_for_diagrams_etc-6"><path class="cls-6" d="M660.37,231.53l-25.5-6.88c-.75-.2-1.01-1.15-.45-1.7l4.8-4.8-68.08-68.08c-1.43-1.43-1.43-3.76,0-5.2l3.81-3.81c1.43-1.43,3.75-1.43,5.18,0l68.09,68.09,4.8-4.8c.55-.55,1.49-.3,1.7.45l6.88,25.5c.21.75-.48,1.44-1.23,1.23Z"/></g></g><path class="cls-7" d="M415.16,122.43h2.4v10.66h-2.4v-10.66Z"/><path class="cls-7" d="M422.18,131.44c.42,0,.72-.04.89-.12.17-.08.26-.24.26-.48,0-.18-.11-.35-.34-.48s-.57-.29-1.03-.47c-.36-.13-.68-.27-.98-.42-.29-.14-.54-.32-.75-.51-.21-.2-.36-.44-.48-.72-.11-.28-.17-.61-.17-1,0-.76.28-1.36.85-1.8.56-.44,1.34-.66,2.32-.66.49,0,.96.04,1.42.13s.81.18,1.08.28l-.4,1.79c-.27-.09-.56-.17-.87-.25-.31-.07-.66-.11-1.05-.11-.72,0-1.08.2-1.08.6,0,.09.02.17.05.25.03.07.09.14.18.21.09.07.22.14.38.22.16.08.36.16.61.26.5.19.92.37,1.25.55.33.18.59.38.78.59.19.21.32.44.4.7.08.26.12.55.12.89,0,.8-.3,1.4-.9,1.81-.6.41-1.45.61-2.55.61-.72,0-1.31-.06-1.79-.18-.48-.12-.81-.23-.99-.31l.38-1.86c.39.15.79.28,1.2.36s.82.13,1.21.13Z"/><path class="cls-7" d="M441.32,127.75c0,.91-.14,1.71-.41,2.41s-.64,1.27-1.12,1.74c-.47.47-1.03.82-1.68,1.05-.65.24-1.35.35-2.1.35s-1.42-.12-2.06-.35c-.65-.24-1.21-.59-1.69-1.05-.48-.47-.86-1.05-1.14-1.74-.28-.69-.42-1.49-.42-2.41s.14-1.71.43-2.41.67-1.27,1.16-1.75,1.05-.83,1.69-1.06c.64-.24,1.31-.35,2.02-.35s1.42.12,2.06.35c.65.24,1.21.59,1.69,1.06.48.47.86,1.05,1.14,1.75.28.69.42,1.5.42,2.41ZM433.18,127.75c0,.52.06,1,.19,1.42.13.42.31.78.55,1.08.24.3.54.54.88.7.35.17.75.25,1.2.25s.84-.08,1.19-.25c.35-.16.65-.4.89-.7s.43-.66.55-1.08c.13-.42.19-.89.19-1.42s-.06-1-.19-1.42c-.13-.43-.31-.79-.55-1.09s-.54-.54-.89-.7c-.35-.16-.75-.25-1.19-.25s-.85.08-1.2.25-.64.41-.88.71c-.24.3-.43.67-.55,1.09-.13.43-.19.89-.19,1.41Z"/><path class="cls-7" d="M448.04,127.03c-.21-.05-.45-.11-.72-.16-.28-.06-.58-.08-.89-.08-.14,0-.32.01-.52.04-.2.03-.35.05-.45.08v6.18h-2.29v-7.66c.41-.14.89-.28,1.45-.41.56-.13,1.18-.19,1.87-.19.12,0,.27,0,.45.02.17.02.35.04.52.06.17.03.35.06.52.09.17.04.32.08.45.13l-.38,1.89Z"/><path class="cls-7" d="M452.16,122.66c0,.42-.14.75-.41.99-.27.24-.59.36-.96.36s-.69-.12-.96-.36c-.27-.24-.41-.57-.41-.99s.14-.75.41-.99c.27-.24.59-.36.96-.36s.69.12.96.36c.27.24.41.57.41.99ZM451.95,133.09h-2.29v-8.09h2.29v8.09Z"/><path class="cls-7" d="M461.09,132.07c0,1.32-.34,2.3-1.01,2.95-.67.64-1.71.96-3.12.96-.49,0-.98-.04-1.48-.13-.49-.09-.95-.2-1.37-.35l.4-1.92c.36.14.74.26,1.13.34.39.08.84.12,1.35.12.66,0,1.12-.14,1.39-.43.27-.29.41-.66.41-1.11v-.29c-.25.11-.5.2-.76.25s-.55.08-.85.08c-1.12,0-1.97-.33-2.57-.99-.59-.66-.89-1.59-.89-2.78,0-.59.09-1.13.28-1.62s.45-.91.81-1.25c.35-.35.79-.62,1.3-.81s1.09-.28,1.74-.28c.28,0,.56.01.85.04.29.03.58.06.87.1.29.04.56.09.82.15s.5.12.7.18v6.8ZM456.06,128.78c0,1.28.52,1.92,1.55,1.92.24,0,.46-.03.66-.09s.38-.13.52-.22v-3.66c-.11-.02-.25-.04-.4-.05-.15-.01-.33-.02-.54-.02-.61,0-1.06.2-1.35.6-.3.4-.45.91-.45,1.52Z"/><path class="cls-7" d="M465.75,122.66c0,.42-.14.75-.41.99-.27.24-.59.36-.96.36s-.69-.12-.96-.36c-.27-.24-.41-.57-.41-.99s.14-.75.41-.99c.27-.24.59-.36.96-.36s.69.12.96.36c.27.24.41.57.41.99ZM465.53,133.09h-2.29v-8.09h2.29v8.09Z"/><path class="cls-7" d="M467.69,125.27c.39-.11.89-.22,1.51-.32s1.26-.15,1.94-.15,1.26.09,1.71.27c.46.18.82.43,1.08.76s.46.72.57,1.17c.11.45.17.95.17,1.51v4.57h-2.29v-4.29c0-.74-.1-1.26-.29-1.57-.2-.31-.56-.46-1.09-.46-.16,0-.34,0-.52.02-.18.01-.35.03-.49.05v6.25h-2.29v-7.81Z"/><path class="cls-7" d="M482.95,122.66c0,.42-.14.75-.41.99-.27.24-.59.36-.96.36s-.69-.12-.96-.36c-.27-.24-.41-.57-.41-.99s.14-.75.41-.99c.27-.24.59-.36.96-.36s.69.12.96.36c.27.24.41.57.41.99ZM482.73,133.09h-2.29v-8.09h2.29v8.09Z"/><path class="cls-7" d="M484.88,125.27c.39-.11.89-.22,1.51-.32s1.26-.15,1.94-.15,1.26.09,1.71.27c.46.18.82.43,1.08.76s.46.72.57,1.17c.11.45.17.95.17,1.51v4.57h-2.29v-4.29c0-.74-.1-1.26-.29-1.57-.2-.31-.56-.46-1.09-.46-.16,0-.34,0-.52.02-.18.01-.35.03-.49.05v6.25h-2.29v-7.81Z"/><path class="cls-7" d="M500.91,122.3c1.6,0,2.83.28,3.68.85.85.57,1.28,1.45,1.28,2.65,0,.75-.17,1.36-.52,1.82s-.84.83-1.48,1.1c.22.27.44.57.68.92.24.34.47.7.7,1.08.23.38.45.76.67,1.17.22.41.42.8.6,1.19h-2.68c-.2-.35-.39-.7-.59-1.06-.2-.36-.41-.71-.62-1.05s-.42-.66-.62-.96c-.21-.3-.41-.58-.62-.82h-1.18v3.89h-2.4v-10.51c.52-.1,1.06-.17,1.62-.22.56-.04,1.06-.06,1.5-.06ZM501.05,124.35c-.17,0-.33,0-.47.02-.14,0-.27.02-.39.03v2.89h.68c.9,0,1.55-.11,1.94-.34s.58-.61.58-1.15-.2-.89-.59-1.12-.98-.33-1.75-.33Z"/><path class="cls-7" d="M507.13,129.1c0-.72.11-1.35.33-1.88.22-.54.51-.99.87-1.35.36-.36.77-.63,1.24-.81.47-.18.95-.28,1.44-.28,1.15,0,2.06.35,2.72,1.05.67.7,1,1.74,1,3.1,0,.13,0,.28-.02.44,0,.16-.02.3-.03.42h-5.2c.05.47.27.85.66,1.12s.91.42,1.57.42c.42,0,.83-.04,1.24-.12s.74-.17.99-.28l.31,1.86c-.12.06-.29.12-.49.18s-.43.12-.68.16c-.25.05-.52.08-.81.12-.29.03-.57.05-.86.05-.73,0-1.36-.11-1.9-.32-.54-.22-.98-.51-1.34-.88s-.62-.82-.78-1.33c-.17-.51-.25-1.07-.25-1.66ZM512.51,128.23c-.01-.19-.04-.38-.1-.57-.06-.18-.14-.35-.26-.49-.12-.14-.27-.26-.45-.35-.18-.09-.4-.14-.67-.14s-.48.04-.66.13c-.18.09-.34.2-.46.35s-.22.31-.29.5c-.07.19-.12.38-.15.58h3.03Z"/><path class="cls-7" d="M516.11,129.04c0-.62.09-1.2.28-1.71s.46-.96.82-1.34c.36-.38.8-.66,1.32-.87.52-.21,1.12-.31,1.78-.31.28,0,.57.01.87.04.3.03.6.06.89.1.29.04.57.09.84.15s.5.12.71.18v10.66h-2.29v-3.05c-.26.11-.52.2-.8.26-.28.06-.57.09-.89.09-1.15,0-2.03-.38-2.63-1.13s-.91-1.78-.91-3.07ZM518.45,129.1c0,1.47.54,2.2,1.63,2.2.24,0,.47-.03.7-.09.23-.06.42-.14.56-.23v-4.14c-.11-.02-.26-.04-.43-.05-.17-.02-.36-.02-.57-.02-.63,0-1.1.21-1.42.64-.32.43-.48.99-.48,1.7Z"/><path class="cls-7" d="M532.69,132.81c-.39.11-.89.22-1.51.32-.62.1-1.26.15-1.94.15s-1.26-.09-1.72-.28c-.46-.18-.82-.44-1.08-.78s-.46-.73-.57-1.19c-.11-.46-.17-.97-.17-1.52v-4.51h2.29v4.23c0,.74.1,1.27.29,1.6.2.33.56.49,1.09.49.16,0,.34,0,.52-.02s.35-.03.49-.05v-6.25h2.29v7.81Z"/><path class="cls-7" d="M534.46,129.1c0-.72.11-1.35.33-1.88.22-.54.51-.99.87-1.35.36-.36.77-.63,1.24-.81.47-.18.95-.28,1.44-.28,1.15,0,2.06.35,2.72,1.05.67.7,1,1.74,1,3.1,0,.13,0,.28-.02.44,0,.16-.02.3-.03.42h-5.2c.05.47.27.85.66,1.12s.91.42,1.57.42c.42,0,.83-.04,1.24-.12s.74-.17.99-.28l.31,1.86c-.12.06-.29.12-.49.18s-.43.12-.68.16c-.25.05-.52.08-.81.12-.29.03-.57.05-.86.05-.73,0-1.36-.11-1.9-.32-.54-.22-.98-.51-1.34-.88s-.62-.82-.78-1.33c-.17-.51-.25-1.07-.25-1.66ZM539.84,128.23c-.01-.19-.04-.38-.1-.57-.06-.18-.14-.35-.26-.49-.12-.14-.27-.26-.45-.35-.18-.09-.4-.14-.67-.14s-.48.04-.66.13c-.18.09-.34.2-.46.35s-.22.31-.29.5c-.07.19-.12.38-.15.58h3.03Z"/><path class="cls-7" d="M546.15,131.44c.42,0,.72-.04.89-.12.17-.08.26-.24.26-.48,0-.18-.11-.35-.34-.48s-.57-.29-1.03-.47c-.36-.13-.68-.27-.98-.42-.29-.14-.54-.32-.75-.51-.21-.2-.36-.44-.48-.72-.11-.28-.17-.61-.17-1,0-.76.28-1.36.85-1.8.56-.44,1.34-.66,2.32-.66.49,0,.96.04,1.42.13s.81.18,1.08.28l-.4,1.79c-.27-.09-.56-.17-.87-.25-.31-.07-.66-.11-1.05-.11-.72,0-1.08.2-1.08.6,0,.09.02.17.05.25.03.07.09.14.18.21.09.07.22.14.38.22.16.08.36.16.61.26.5.19.92.37,1.25.55.33.18.59.38.78.59.19.21.32.44.4.7.08.26.12.55.12.89,0,.8-.3,1.4-.9,1.81-.6.41-1.45.61-2.55.61-.72,0-1.31-.06-1.79-.18-.48-.12-.81-.23-.99-.31l.38-1.86c.39.15.79.28,1.2.36s.82.13,1.21.13Z"/><path class="cls-7" d="M551.21,122.98l2.29-.37v2.38h2.75v1.91h-2.75v2.85c0,.48.08.87.25,1.15s.51.43,1.02.43c.25,0,.5-.02.76-.07.26-.05.5-.11.71-.19l.32,1.78c-.28.11-.58.21-.92.29-.34.08-.75.12-1.25.12-.62,0-1.14-.08-1.55-.25s-.74-.41-.98-.71c-.25-.3-.42-.67-.51-1.1-.1-.43-.15-.91-.15-1.43v-6.8Z"/><path class="cls-7" d="M559.9,124.13c-.37,0-.72.05-1.05.14-.33.09-.69.24-1.09.45l-.65-1.74c.4-.26.87-.45,1.42-.59.54-.14,1.08-.21,1.6-.21.66,0,1.2.09,1.62.26.43.17.76.39,1.01.66s.42.56.52.88c.1.32.15.62.15.91s-.04.55-.13.79c-.09.24-.2.46-.33.67-.13.21-.29.4-.46.58s-.34.36-.51.52c-.12.12-.25.25-.38.39-.13.14-.25.28-.36.44-.11.15-.2.32-.27.49-.07.17-.11.34-.11.51v.18c0,.08,0,.15.02.22h-2.03c-.02-.1-.03-.22-.04-.35,0-.13,0-.24,0-.33,0-.29.04-.55.11-.78.07-.23.17-.45.28-.65.12-.2.25-.39.41-.56.15-.17.31-.34.48-.51.24-.24.45-.47.65-.7.19-.23.29-.49.29-.79,0-.25-.09-.46-.28-.63-.19-.17-.47-.26-.84-.26ZM561.33,131.87c0,.45-.15.8-.44,1.05s-.62.37-.99.37-.7-.12-.99-.37-.44-.59-.44-1.05.15-.8.44-1.05c.29-.25.62-.37.99-.37s.7.12.99.37c.29.25.44.6.44,1.05Z"/><path class="cls-7" d="M688.61,241.29h2.4v10.66h-2.4v-10.66Z"/><path class="cls-7" d="M695.64,250.31c.42,0,.72-.04.89-.12.17-.08.26-.24.26-.48,0-.18-.11-.35-.34-.48s-.57-.29-1.03-.47c-.36-.13-.68-.27-.98-.42-.29-.14-.54-.32-.75-.51-.21-.2-.36-.44-.48-.72-.11-.28-.17-.61-.17-1,0-.76.28-1.36.85-1.8.56-.44,1.34-.66,2.32-.66.49,0,.96.04,1.42.13s.81.18,1.08.28l-.4,1.79c-.27-.09-.56-.17-.87-.25-.31-.07-.66-.11-1.05-.11-.72,0-1.08.2-1.08.6,0,.09.02.17.05.25.03.07.09.14.18.21.09.07.22.14.38.22.16.08.36.16.61.26.5.19.92.37,1.25.55.33.18.59.38.78.59.19.21.32.44.4.7.08.26.12.55.12.89,0,.8-.3,1.4-.9,1.81-.6.41-1.45.61-2.55.61-.72,0-1.31-.06-1.79-.18-.48-.12-.81-.23-.99-.31l.38-1.86c.39.15.79.28,1.2.36s.82.13,1.21.13Z"/><path class="cls-7" d="M714.78,246.62c0,.91-.14,1.71-.41,2.41s-.64,1.27-1.12,1.74c-.47.47-1.03.82-1.68,1.05-.65.24-1.35.35-2.1.35s-1.42-.12-2.06-.35c-.65-.24-1.21-.59-1.69-1.05-.48-.47-.86-1.05-1.14-1.74-.28-.69-.42-1.49-.42-2.41s.14-1.71.43-2.41.67-1.27,1.16-1.75,1.05-.83,1.69-1.06c.64-.24,1.31-.35,2.02-.35s1.42.12,2.06.35c.65.24,1.21.59,1.69,1.06.48.47.86,1.05,1.14,1.75.28.69.42,1.5.42,2.41ZM706.64,246.62c0,.52.06,1,.19,1.42.13.42.31.78.55,1.08.24.3.54.54.88.7.35.17.75.25,1.2.25s.84-.08,1.19-.25c.35-.16.65-.4.89-.7s.43-.66.55-1.08c.13-.42.19-.89.19-1.42s-.06-1-.19-1.42c-.13-.43-.31-.79-.55-1.09s-.54-.54-.89-.7c-.35-.16-.75-.25-1.19-.25s-.85.08-1.2.25-.64.41-.88.71c-.24.3-.43.67-.55,1.09-.13.43-.19.89-.19,1.41Z"/><path class="cls-7" d="M721.5,245.89c-.21-.05-.45-.11-.72-.16-.28-.06-.58-.08-.89-.08-.14,0-.32.01-.52.04-.2.03-.35.05-.45.08v6.18h-2.29v-7.66c.41-.14.89-.28,1.45-.41.56-.13,1.18-.19,1.87-.19.12,0,.27,0,.45.02.17.02.35.04.52.06.17.03.35.06.52.09.17.04.32.08.45.13l-.38,1.89Z"/><path class="cls-7" d="M725.62,241.52c0,.42-.14.75-.41.99-.27.24-.59.36-.96.36s-.69-.12-.96-.36c-.27-.24-.41-.57-.41-.99s.14-.75.41-.99c.27-.24.59-.36.96-.36s.69.12.96.36c.27.24.41.57.41.99ZM725.41,251.95h-2.29v-8.09h2.29v8.09Z"/><path class="cls-7" d="M734.54,250.94c0,1.32-.34,2.3-1.01,2.95-.67.64-1.71.96-3.12.96-.49,0-.98-.04-1.48-.13-.49-.09-.95-.2-1.37-.35l.4-1.92c.36.14.74.26,1.13.34.39.08.84.12,1.35.12.66,0,1.12-.14,1.39-.43.27-.29.41-.66.41-1.11v-.29c-.25.11-.5.2-.76.25s-.55.08-.85.08c-1.12,0-1.97-.33-2.57-.99-.59-.66-.89-1.59-.89-2.78,0-.59.09-1.13.28-1.62s.45-.91.81-1.25c.35-.35.79-.62,1.3-.81s1.09-.28,1.74-.28c.28,0,.56.01.85.04.29.03.58.06.87.1.29.04.56.09.82.15s.5.12.7.18v6.8ZM729.51,247.65c0,1.28.52,1.92,1.55,1.92.24,0,.46-.03.66-.09s.38-.13.52-.22v-3.66c-.11-.02-.25-.04-.4-.05-.15-.01-.33-.02-.54-.02-.61,0-1.06.2-1.35.6-.3.4-.45.91-.45,1.52Z"/><path class="cls-7" d="M739.2,241.52c0,.42-.14.75-.41.99-.27.24-.59.36-.96.36s-.69-.12-.96-.36c-.27-.24-.41-.57-.41-.99s.14-.75.41-.99c.27-.24.59-.36.96-.36s.69.12.96.36c.27.24.41.57.41.99ZM738.99,251.95h-2.29v-8.09h2.29v8.09Z"/><path class="cls-7" d="M741.14,244.14c.39-.11.89-.22,1.51-.32s1.26-.15,1.94-.15,1.26.09,1.71.27c.46.18.82.43,1.08.76s.46.72.57,1.17c.11.45.17.95.17,1.51v4.57h-2.29v-4.29c0-.74-.1-1.26-.29-1.57-.2-.31-.56-.46-1.09-.46-.16,0-.34,0-.52.02-.18.01-.35.03-.49.05v6.25h-2.29v-7.81Z"/><path class="cls-7" d="M761.2,251.95c-.12-.37-.25-.75-.38-1.14-.14-.39-.27-.78-.41-1.17h-4.16c-.13.39-.27.78-.41,1.17-.13.39-.26.77-.38,1.14h-2.49c.4-1.15.78-2.21,1.14-3.18.36-.97.71-1.89,1.06-2.75s.68-1.68,1.02-2.45c.33-.77.68-1.53,1.04-2.27h2.28c.35.74.7,1.5,1.04,2.27.34.77.68,1.59,1.03,2.45.35.86.7,1.78,1.06,2.75.36.97.74,2.04,1.14,3.18h-2.57ZM758.32,243.71c-.05.16-.13.37-.23.63-.1.27-.22.57-.35.92s-.28.73-.44,1.15c-.16.42-.33.86-.5,1.32h3.05c-.16-.46-.32-.9-.47-1.33-.15-.42-.3-.81-.44-1.16-.14-.35-.26-.66-.36-.92-.1-.27-.19-.47-.25-.63Z"/><path class="cls-7" d="M768.22,252.11c-.67-.01-1.21-.08-1.62-.22-.42-.13-.74-.32-.98-.56-.24-.24-.41-.53-.49-.88-.09-.34-.13-.73-.13-1.16v-8.91l2.29-.37v8.81c0,.21.01.39.05.55.03.17.09.3.18.42.09.11.21.21.38.28.16.07.38.12.66.14l-.32,1.89Z"/><path class="cls-7" d="M773.08,252.11c-.67-.01-1.21-.08-1.62-.22-.42-.13-.74-.32-.98-.56-.24-.24-.41-.53-.49-.88-.09-.34-.13-.73-.13-1.16v-8.91l2.29-.37v8.81c0,.21.01.39.05.55.03.17.09.3.18.42.09.11.21.21.38.28.16.07.38.12.66.14l-.32,1.89Z"/><path class="cls-7" d="M782.28,247.89c0,.64-.09,1.22-.28,1.75-.18.53-.45.98-.8,1.35-.35.37-.77.66-1.25.87-.49.21-1.03.31-1.64.31s-1.14-.1-1.62-.31c-.49-.2-.91-.49-1.25-.87-.35-.38-.62-.83-.82-1.35-.19-.53-.29-1.11-.29-1.75s.1-1.22.3-1.74c.2-.52.48-.97.83-1.34.35-.37.77-.66,1.26-.86s1.02-.31,1.59-.31,1.12.1,1.61.31c.49.21.9.49,1.25.86s.62.82.82,1.34c.2.52.29,1.1.29,1.74ZM779.94,247.89c0-.71-.14-1.26-.42-1.67-.28-.4-.68-.61-1.21-.61s-.93.2-1.22.61c-.29.41-.43.96-.43,1.67s.14,1.27.43,1.68c.29.42.69.62,1.22.62s.92-.21,1.21-.62c.28-.42.42-.98.42-1.68Z"/><path class="cls-7" d="M788.79,247.31c-.21.78-.42,1.55-.65,2.32-.23.77-.47,1.54-.73,2.32h-1.78c-.18-.43-.39-.94-.6-1.54s-.44-1.24-.67-1.95c-.23-.7-.47-1.45-.71-2.23-.24-.78-.48-1.58-.7-2.38h2.42c.08.37.17.77.27,1.21.1.44.2.88.31,1.35.11.46.22.93.34,1.39.12.47.24.92.36,1.35.13-.45.26-.91.39-1.38.13-.47.25-.94.37-1.39.12-.46.23-.9.34-1.32.11-.42.2-.82.28-1.19h1.66c.08.37.17.77.28,1.19.1.43.21.87.32,1.32.11.46.23.92.35,1.39s.25.93.38,1.38c.12-.43.25-.88.37-1.35.12-.47.24-.93.35-1.39.11-.46.21-.91.31-1.35.1-.44.19-.84.27-1.21h2.38c-.23.8-.46,1.59-.7,2.38-.24.79-.48,1.53-.71,2.23-.23.7-.46,1.35-.68,1.95-.22.59-.42,1.11-.61,1.54h-1.78c-.26-.78-.51-1.55-.75-2.32-.25-.77-.47-1.54-.68-2.32Z"/><path class="cls-7" d="M795.35,247.97c0-.72.11-1.35.33-1.88.22-.54.51-.99.87-1.35.36-.36.77-.63,1.24-.81.47-.18.95-.28,1.44-.28,1.15,0,2.06.35,2.72,1.05.67.7,1,1.74,1,3.1,0,.13,0,.28-.02.44,0,.16-.02.3-.03.42h-5.2c.05.47.27.85.66,1.12s.91.42,1.57.42c.42,0,.83-.04,1.24-.12s.74-.17.99-.28l.31,1.86c-.12.06-.29.12-.49.18s-.43.12-.68.16c-.25.05-.52.08-.81.12-.29.03-.57.05-.86.05-.73,0-1.36-.11-1.9-.32-.54-.22-.98-.51-1.34-.88s-.62-.82-.78-1.33c-.17-.51-.25-1.07-.25-1.66ZM800.73,247.09c-.01-.19-.04-.38-.1-.57-.06-.18-.14-.35-.26-.49-.12-.14-.27-.26-.45-.35-.18-.09-.4-.14-.67-.14s-.48.04-.66.13c-.18.09-.34.2-.46.35s-.22.31-.29.5c-.07.19-.12.38-.15.58h3.03Z"/><path class="cls-7" d="M811.86,251.69c-.21.06-.44.12-.71.18-.27.06-.55.11-.84.15-.29.04-.59.07-.89.1-.3.03-.59.04-.87.04-.67,0-1.26-.1-1.78-.29-.52-.19-.96-.47-1.32-.84-.36-.36-.63-.8-.82-1.32-.19-.52-.28-1.1-.28-1.75s.08-1.25.25-1.78.4-.98.71-1.35.68-.65,1.13-.85c.45-.2.96-.29,1.53-.29.32,0,.6.03.85.09.25.06.5.15.76.26v-3.66l2.29-.37v11.67ZM806.67,247.85c0,.71.16,1.28.48,1.71.32.43.79.65,1.42.65.21,0,.39,0,.57-.02.17-.02.32-.03.43-.05v-4.17c-.14-.09-.33-.17-.56-.23-.23-.06-.46-.09-.7-.09-1.09,0-1.63.74-1.63,2.21Z"/><path class="cls-7" d="M815.46,243c-.37,0-.72.05-1.05.14-.33.09-.69.24-1.09.45l-.65-1.74c.4-.26.87-.45,1.42-.59.54-.14,1.08-.21,1.6-.21.66,0,1.2.09,1.62.26.43.17.76.39,1.01.66s.42.56.52.88c.1.32.15.62.15.91s-.04.55-.13.79c-.09.24-.2.46-.33.67-.13.21-.29.4-.46.58s-.34.36-.51.52c-.12.12-.25.25-.38.39-.13.14-.25.28-.36.44-.11.15-.2.32-.27.49-.07.17-.11.34-.11.51v.18c0,.08,0,.15.02.22h-2.03c-.02-.1-.03-.22-.04-.35,0-.13,0-.24,0-.33,0-.29.04-.55.11-.78.07-.23.17-.45.28-.65.12-.2.25-.39.41-.56.15-.17.31-.34.48-.51.24-.24.45-.47.65-.7.19-.23.29-.49.29-.79,0-.25-.09-.46-.28-.63-.19-.17-.47-.26-.84-.26ZM816.89,250.74c0,.45-.15.8-.44,1.05s-.62.37-.99.37-.7-.12-.99-.37-.44-.59-.44-1.05.15-.8.44-1.05c.29-.25.62-.37.99-.37s.7.12.99.37c.29.25.44.6.44,1.05Z"/><path class="cls-7" d="M22.56,130.86c.41,0,.75-.03,1.02-.1.27-.07.48-.16.65-.28.16-.12.27-.26.34-.42s.09-.34.09-.54c0-.42-.2-.78-.6-1.06s-1.09-.58-2.06-.91c-.42-.15-.85-.32-1.27-.52-.42-.19-.81-.44-1.14-.73-.34-.29-.61-.65-.82-1.07-.21-.42-.32-.93-.32-1.53s.11-1.14.34-1.62c.22-.48.54-.89.96-1.23.41-.34.91-.6,1.5-.78s1.25-.27,1.99-.27c.87,0,1.63.09,2.27.28.64.19,1.16.39,1.57.62l-.84,2.3c-.36-.19-.77-.35-1.21-.5s-.98-.22-1.6-.22c-.7,0-1.2.1-1.51.29-.31.19-.46.49-.46.89,0,.24.06.44.17.6.11.16.27.31.48.44.21.13.44.25.71.36.27.11.56.22.89.33.67.25,1.26.5,1.76.74.5.24.92.53,1.25.85.33.33.58.71.74,1.14.16.44.24.97.24,1.59,0,1.21-.42,2.15-1.27,2.82-.85.67-2.13,1-3.84,1-.58,0-1.09-.04-1.56-.1-.46-.07-.87-.15-1.23-.25-.36-.1-.66-.21-.92-.32s-.47-.22-.65-.32l.83-2.32c.39.21.86.4,1.43.57.57.17,1.26.25,2.09.25Z"/><path class="cls-7" d="M29.65,120.77l2.79-.45v2.91h3.36v2.32h-3.36v3.47c0,.59.1,1.06.31,1.41s.62.52,1.25.52c.3,0,.61-.03.93-.08.32-.06.61-.13.87-.23l.39,2.17c-.34.14-.71.26-1.12.36s-.92.15-1.52.15c-.76,0-1.39-.1-1.89-.31s-.9-.49-1.2-.86-.51-.82-.63-1.34c-.12-.53-.18-1.11-.18-1.74v-8.28Z"/><path class="cls-7" d="M41.23,122.97c.82,0,1.51.09,2.06.28s.99.46,1.32.81c.33.35.57.78.7,1.27.14.5.21,1.06.21,1.67v5.81c-.4.09-.96.19-1.67.31-.71.12-1.57.18-2.59.18-.64,0-1.21-.06-1.73-.17-.52-.11-.96-.3-1.34-.55-.38-.26-.66-.59-.86-1-.2-.41-.3-.92-.3-1.52s.12-1.06.35-1.46c.23-.4.54-.72.93-.96.39-.24.83-.41,1.33-.52.5-.11,1.02-.16,1.56-.16.36,0,.68.02.97.05s.51.07.68.12v-.26c0-.47-.14-.86-.43-1.14-.29-.29-.79-.43-1.5-.43-.48,0-.94.03-1.41.1-.46.07-.86.17-1.2.29l-.36-2.25c.16-.05.37-.1.61-.16.24-.06.51-.11.8-.15.29-.04.59-.08.91-.11.32-.03.64-.05.97-.05ZM41.45,131.14c.27,0,.54,0,.79-.02s.45-.03.6-.06v-2.12c-.11-.02-.28-.05-.51-.07-.22-.03-.43-.04-.62-.04-.26,0-.51.02-.74.05-.23.03-.43.09-.61.18-.17.09-.31.21-.41.36-.1.15-.15.34-.15.56,0,.44.15.74.44.91s.7.25,1.21.25Z"/><path class="cls-7" d="M53.99,125.7c-.25-.06-.54-.13-.88-.2-.34-.07-.7-.1-1.09-.1-.17,0-.38.02-.63.05-.24.03-.43.07-.55.1v7.53h-2.79v-9.33c.5-.17,1.09-.34,1.77-.5s1.44-.23,2.28-.23c.15,0,.33,0,.54.03.21.02.42.04.64.08s.42.07.64.11c.21.04.39.1.54.16l-.47,2.3Z"/><path class="cls-7" d="M55.87,120.77l2.79-.45v2.91h3.36v2.32h-3.36v3.47c0,.59.1,1.06.31,1.41s.62.52,1.25.52c.3,0,.61-.03.93-.08.32-.06.61-.13.87-.23l.39,2.17c-.34.14-.71.26-1.12.36s-.92.15-1.52.15c-.76,0-1.39-.1-1.89-.31s-.9-.49-1.2-.86-.51-.82-.63-1.34c-.12-.53-.18-1.11-.18-1.74v-8.28Z"/><path class="cls-7" d="M67.21,124.95c0,.56-.18.99-.53,1.28-.36.29-.76.44-1.21.44s-.85-.15-1.21-.44c-.36-.29-.53-.72-.53-1.28s.18-.99.53-1.28c.36-.29.76-.44,1.21-.44s.85.15,1.21.44c.36.29.53.72.53,1.28ZM67.21,131.61c0,.56-.18.99-.53,1.28-.36.29-.76.44-1.21.44s-.85-.15-1.21-.44c-.36-.29-.53-.72-.53-1.28s.18-.99.53-1.28c.36-.29.76-.44,1.21-.44s.85.15,1.21.44c.36.29.53.72.53,1.28Z"/><path class="cls-7" d="M73.77,120.1h2.92v12.99h-2.92v-12.99Z"/><path class="cls-7" d="M79.5,123.57c.48-.14,1.09-.26,1.84-.38.75-.12,1.54-.18,2.36-.18s1.53.11,2.09.33c.56.22,1,.53,1.32.93.32.4.56.88.69,1.42.14.55.21,1.16.21,1.84v5.57h-2.79v-5.23c0-.9-.12-1.54-.36-1.91-.24-.38-.68-.56-1.33-.56-.2,0-.41,0-.64.03-.22.02-.42.04-.6.07v7.61h-2.79v-9.52Z"/><path class="cls-7" d="M90.07,128.16c0-.71.12-1.38.35-2.01.23-.63.56-1.18,1-1.65.44-.47.97-.84,1.59-1.12.62-.27,1.34-.41,2.14-.41.52,0,1.01.05,1.44.14.44.09.86.23,1.27.4l-.58,2.23c-.26-.1-.55-.19-.86-.26s-.66-.11-1.05-.11c-.82,0-1.44.26-1.85.77-.41.51-.61,1.19-.61,2.02,0,.89.19,1.58.57,2.06s1.05.73,2,.73c.34,0,.7-.03,1.09-.09.39-.06.74-.16,1.07-.3l.39,2.29c-.32.14-.73.26-1.22.36s-1.02.15-1.61.15c-.9,0-1.67-.13-2.32-.4-.65-.27-1.18-.63-1.6-1.1-.42-.46-.73-1.01-.92-1.64s-.29-1.32-.29-2.05Z"/><path class="cls-7" d="M108.66,128.14c0,.78-.11,1.48-.34,2.13-.23.64-.55,1.19-.97,1.65-.42.46-.93.81-1.53,1.06-.59.25-1.26.38-2,.38s-1.38-.12-1.98-.38c-.59-.25-1.1-.6-1.53-1.06-.43-.46-.76-1-.99-1.65s-.36-1.35-.36-2.13.12-1.48.37-2.12c.24-.64.58-1.18,1.01-1.63.43-.45.94-.8,1.54-1.05s1.24-.38,1.94-.38,1.36.12,1.96.38,1.1.6,1.53,1.05c.42.45.76.99.99,1.63.24.64.36,1.34.36,2.12ZM105.82,128.14c0-.86-.17-1.54-.52-2.03s-.83-.74-1.47-.74-1.13.25-1.48.74-.52,1.17-.52,2.03.17,1.55.52,2.05.84.76,1.48.76,1.13-.25,1.47-.76.52-1.19.52-2.05Z"/><path class="cls-7" d="M116.24,127.86c0-.9-.12-1.54-.35-1.91s-.63-.56-1.19-.56c-.17,0-.36,0-.54.03s-.37.04-.54.07v7.61h-2.79v-9.52c.24-.06.52-.13.83-.2.32-.07.66-.13,1.01-.19.36-.06.72-.1,1.1-.13.38-.03.74-.05,1.11-.05.71,0,1.29.09,1.73.27.44.18.81.4,1.1.65.4-.29.86-.51,1.38-.67s1-.24,1.43-.24c.79,0,1.43.11,1.94.33.51.22.91.53,1.21.93.3.4.51.88.62,1.42.11.55.17,1.16.17,1.84v5.57h-2.79v-5.23c0-.9-.12-1.54-.35-1.91-.23-.38-.63-.56-1.19-.56-.15,0-.36.04-.63.11s-.49.17-.67.28c.09.29.14.59.17.91.03.32.04.66.04,1.02v5.38h-2.79v-5.23Z"/><path class="cls-7" d="M130.03,120.38c0,.51-.17.92-.5,1.21-.33.29-.72.44-1.17.44s-.84-.15-1.17-.44c-.33-.29-.5-.7-.5-1.21s.17-.92.5-1.21c.33-.29.72-.44,1.17-.44s.84.15,1.17.44c.33.29.5.7.5,1.21ZM129.77,133.09h-2.79v-9.86h2.79v9.86Z"/><path class="cls-7" d="M132.39,123.57c.48-.14,1.09-.26,1.84-.38.75-.12,1.54-.18,2.36-.18s1.53.11,2.09.33c.56.22,1,.53,1.32.93.32.4.56.88.69,1.42.14.55.21,1.16.21,1.84v5.57h-2.79v-5.23c0-.9-.12-1.54-.36-1.91-.24-.38-.68-.56-1.33-.56-.2,0-.41,0-.64.03-.22.02-.42.04-.6.07v7.61h-2.79v-9.52Z"/><path class="cls-7" d="M151.94,131.85c0,1.61-.41,2.81-1.23,3.59-.82.78-2.08,1.17-3.8,1.17-.6,0-1.2-.05-1.8-.16s-1.16-.25-1.67-.42l.49-2.34c.44.17.9.31,1.38.41.48.1,1.03.15,1.64.15.8,0,1.36-.17,1.7-.52.33-.35.5-.8.5-1.35v-.36c-.3.14-.61.24-.93.31s-.67.1-1.04.1c-1.36,0-2.41-.4-3.13-1.21-.72-.81-1.09-1.93-1.09-3.38,0-.72.11-1.38.34-1.98.22-.59.55-1.1.98-1.53.43-.42.96-.75,1.58-.98.62-.23,1.33-.35,2.12-.35.34,0,.68.02,1.04.05.36.03.71.07,1.06.12.35.05.68.11,1,.18.32.07.6.14.85.21v8.28ZM145.81,127.84c0,1.56.63,2.34,1.89,2.34.29,0,.56-.04.81-.11.25-.08.46-.16.64-.26v-4.46c-.14-.03-.3-.05-.49-.07-.19-.02-.41-.03-.66-.03-.74,0-1.29.24-1.65.73s-.54,1.11-.54,1.86Z"/><path class="cls-7" d="M167.08,120.1h2.92v12.99h-2.92v-5.51h-4.91v5.51h-2.92v-12.99h2.92v4.97h4.91v-4.97Z"/><path class="cls-7" d="M182.64,120.1v2.49h-3.92v10.5h-2.92v-10.5h-3.92v-2.49h10.76Z"/><path class="cls-7" d="M194.63,120.1v2.49h-3.92v10.5h-2.92v-10.5h-3.92v-2.49h10.76Z"/><path class="cls-7" d="M200.41,119.95c1.94,0,3.42.34,4.46,1.02,1.04.68,1.56,1.8,1.56,3.35s-.52,2.69-1.57,3.38-2.55,1.04-4.5,1.04h-.92v4.35h-2.92v-12.8c.64-.12,1.31-.21,2.02-.26s1.34-.08,1.87-.08ZM200.59,122.44c-.21,0-.42,0-.63.02-.21.01-.38.03-.53.04v3.75h.92c1.01,0,1.77-.14,2.29-.41.51-.28.77-.79.77-1.54,0-.36-.07-.66-.2-.9-.13-.24-.32-.43-.56-.57-.24-.14-.54-.24-.89-.3s-.74-.08-1.16-.08Z"/><path class="cls-7" d="M216.88,119.95c1.95,0,3.44.35,4.48,1.04s1.56,1.77,1.56,3.23c0,.91-.21,1.65-.63,2.22-.42.57-1.02,1.02-1.81,1.34.26.32.54.7.83,1.11.29.42.57.86.85,1.31s.55.93.82,1.42c.26.49.51.98.73,1.45h-3.27c-.24-.42-.48-.86-.72-1.29-.25-.44-.5-.86-.75-1.27-.26-.41-.51-.8-.76-1.17-.25-.37-.5-.7-.75-1h-1.44v4.74h-2.92v-12.8c.64-.12,1.3-.21,1.98-.26s1.29-.08,1.83-.08ZM217.05,122.44c-.21,0-.4,0-.57.02s-.33.03-.48.04v3.52h.83c1.1,0,1.89-.14,2.36-.41.47-.27.71-.74.71-1.41s-.24-1.09-.72-1.36c-.48-.27-1.19-.4-2.13-.4Z"/><path class="cls-7" d="M224.45,128.23c0-.87.13-1.64.4-2.3s.62-1.2,1.06-1.64c.44-.44.94-.77,1.51-.99.57-.23,1.15-.34,1.75-.34,1.4,0,2.5.43,3.32,1.28s1.22,2.12,1.22,3.78c0,.16,0,.34-.02.53-.01.19-.03.37-.04.52h-6.33c.06.57.33,1.03.81,1.37.47.34,1.11.51,1.91.51.51,0,1.01-.05,1.51-.14.49-.09.9-.21,1.21-.35l.38,2.27c-.15.08-.35.15-.6.23-.25.07-.53.14-.83.2-.31.06-.63.1-.98.14-.35.04-.7.06-1.05.06-.89,0-1.66-.13-2.31-.39-.66-.26-1.2-.62-1.63-1.08-.43-.46-.75-1-.96-1.62s-.31-1.3-.31-2.02ZM231.01,127.17c-.01-.24-.05-.47-.12-.69s-.17-.42-.32-.6-.33-.32-.54-.43c-.22-.11-.49-.17-.81-.17s-.58.05-.81.16c-.22.11-.41.25-.56.42-.15.17-.27.38-.35.61-.08.23-.14.47-.18.7h3.69Z"/><path class="cls-7" d="M235.4,128.16c0-.76.12-1.46.35-2.09.23-.63.56-1.17,1-1.63.44-.46.97-.81,1.61-1.06.64-.25,1.36-.38,2.17-.38.34,0,.69.02,1.06.05.37.03.73.07,1.09.12s.7.11,1.02.18c.32.07.61.14.86.21v12.99h-2.79v-3.71c-.31.14-.64.24-.97.32-.34.08-.7.11-1.09.11-1.4,0-2.47-.46-3.21-1.38-.74-.92-1.11-2.16-1.11-3.74ZM238.25,128.23c0,1.79.66,2.68,1.99,2.68.29,0,.57-.04.85-.11.28-.08.51-.17.68-.28v-5.04c-.14-.03-.31-.05-.52-.07-.21-.02-.44-.03-.69-.03-.76,0-1.34.26-1.72.78-.39.52-.58,1.21-.58,2.07Z"/><path class="cls-7" d="M255.6,132.75c-.48.14-1.09.27-1.84.38s-1.54.18-2.36.18-1.53-.11-2.09-.34c-.56-.22-1-.54-1.32-.95-.33-.41-.56-.89-.69-1.45-.14-.56-.21-1.18-.21-1.86v-5.49h2.79v5.15c0,.9.12,1.55.36,1.95.24.4.68.6,1.33.6.2,0,.41,0,.64-.03s.42-.04.6-.07v-7.61h2.79v9.52Z"/><path class="cls-7" d="M257.76,128.23c0-.87.13-1.64.4-2.3s.62-1.2,1.06-1.64c.44-.44.94-.77,1.51-.99.57-.23,1.15-.34,1.75-.34,1.4,0,2.5.43,3.32,1.28s1.22,2.12,1.22,3.78c0,.16,0,.34-.02.53-.01.19-.03.37-.04.52h-6.33c.06.57.33,1.03.81,1.37.47.34,1.11.51,1.91.51.51,0,1.01-.05,1.51-.14.49-.09.9-.21,1.21-.35l.38,2.27c-.15.08-.35.15-.6.23-.25.07-.53.14-.83.2-.31.06-.63.1-.98.14-.35.04-.7.06-1.05.06-.89,0-1.66-.13-2.31-.39-.66-.26-1.2-.62-1.63-1.08-.43-.46-.75-1-.96-1.62s-.31-1.3-.31-2.02ZM264.32,127.17c-.01-.24-.05-.47-.12-.69s-.17-.42-.32-.6-.33-.32-.54-.43c-.22-.11-.49-.17-.81-.17s-.58.05-.81.16c-.22.11-.41.25-.56.42-.15.17-.27.38-.35.61-.08.23-.14.47-.18.7h3.69Z"/><path class="cls-7" d="M272,131.08c.51,0,.87-.05,1.09-.15.21-.1.32-.29.32-.58,0-.22-.14-.42-.41-.59-.28-.17-.69-.36-1.26-.57-.44-.16-.83-.33-1.19-.51s-.66-.38-.91-.63c-.25-.24-.44-.53-.58-.87-.14-.34-.21-.74-.21-1.22,0-.92.34-1.66,1.03-2.19.69-.54,1.63-.81,2.83-.81.6,0,1.17.05,1.72.16.55.11.99.22,1.31.35l-.49,2.17c-.33-.11-.68-.21-1.06-.3-.38-.09-.81-.13-1.28-.13-.88,0-1.31.24-1.31.73,0,.11.02.21.06.3.04.09.11.17.22.25.11.08.27.17.46.26.19.09.44.2.74.31.61.23,1.12.45,1.52.67.4.22.72.46.95.71.23.26.39.54.49.85.09.31.14.67.14,1.08,0,.97-.37,1.71-1.1,2.21-.73.5-1.77.75-3.1.75-.87,0-1.6-.08-2.18-.23-.58-.15-.98-.27-1.21-.37l.47-2.27c.47.19.96.33,1.46.44.5.11.99.16,1.48.16Z"/><path class="cls-7" d="M278.17,120.77l2.79-.45v2.91h3.36v2.32h-3.36v3.47c0,.59.1,1.06.31,1.41s.62.52,1.25.52c.3,0,.61-.03.93-.08.32-.06.61-.13.87-.23l.39,2.17c-.34.14-.71.26-1.12.36s-.92.15-1.52.15c-.76,0-1.39-.1-1.89-.31s-.9-.49-1.2-.86-.51-.82-.63-1.34c-.12-.53-.18-1.11-.18-1.74v-8.28Z"/><path class="cls-7" d="M584.07,45.18c-.58-1.03-1.21-2.05-1.89-3.06-.68-1.01-1.4-1.96-2.16-2.85v5.91h-2v-9.02h1.65c.29.29.6.64.95,1.05.35.42.7.86,1.06,1.33.36.47.72.96,1.07,1.47.36.51.69,1,1,1.46v-5.32h2.02v9.02h-1.7Z"/><path class="cls-7" d="M594.12,41.74c0,.54-.08,1.03-.23,1.48-.16.45-.38.83-.68,1.14-.29.32-.65.56-1.06.74-.41.17-.87.26-1.38.26s-.96-.09-1.37-.26c-.41-.17-.77-.42-1.06-.74-.29-.32-.53-.7-.69-1.14-.17-.45-.25-.94-.25-1.48s.08-1.03.25-1.47.4-.82.7-1.13c.3-.31.65-.55,1.07-.73s.86-.26,1.35-.26.95.09,1.36.26c.41.17.76.42,1.06.73s.53.69.69,1.13c.16.44.25.93.25,1.47ZM592.14,41.74c0-.6-.12-1.07-.36-1.41-.24-.34-.58-.51-1.02-.51s-.79.17-1.03.51c-.24.34-.36.81-.36,1.41s.12,1.07.36,1.42c.24.35.59.53,1.03.53s.78-.17,1.02-.53c.24-.35.36-.83.36-1.42Z"/><g id="arrow_styles_for_diagrams_etc-7"><g id="arrow_styles_for_diagrams_etc-8"><path class="cls-8" d="M891.89,160.39l-22.89,13.16c-.68.39-1.52-.1-1.52-.88v-6.79s-131.55,0-131.55,0c-2.03,0-3.67-1.64-3.67-3.67v-5.39c0-2.02,1.64-3.66,3.66-3.66h131.57s0-6.79,0-6.79c0-.78.84-1.27,1.52-.88l22.89,13.16c.68.39.68,1.36,0,1.74Z"/></g></g><path class="cls-7" d="M823.98,158.78c.36-.61.71-1.23,1.04-1.84s.63-1.23.91-1.86h2.24c-.49.97-1.01,1.91-1.54,2.82-.53.91-1.09,1.83-1.68,2.75v3.45h-2.03v-3.42c-.59-.92-1.15-1.84-1.68-2.76-.53-.92-1.05-1.86-1.54-2.84h2.35c.28.62.58,1.24.9,1.86.32.61.66,1.23,1.03,1.84Z"/><path class="cls-7" d="M827.68,160.73c0-.61.09-1.14.28-1.59s.43-.83.74-1.14.65-.53,1.05-.69.8-.23,1.22-.23c.97,0,1.74.3,2.3.89.56.59.85,1.47.85,2.62,0,.11,0,.24-.01.37s-.02.25-.03.36h-4.4c.04.4.23.72.56.95.33.23.77.35,1.33.35.36,0,.71-.03,1.05-.1.34-.06.62-.14.84-.24l.26,1.57c-.1.05-.24.1-.42.16-.17.05-.37.1-.58.14s-.44.07-.68.1c-.24.03-.49.04-.73.04-.62,0-1.15-.09-1.61-.27-.46-.18-.83-.43-1.13-.75-.3-.32-.52-.69-.66-1.13-.14-.43-.21-.9-.21-1.4ZM832.23,159.99c0-.16-.04-.33-.08-.48-.05-.16-.12-.29-.22-.42-.1-.12-.23-.22-.38-.3-.15-.08-.34-.12-.57-.12s-.4.04-.56.11c-.16.07-.29.17-.39.29-.1.12-.18.26-.24.42s-.1.32-.12.49h2.56Z"/><path class="cls-7" d="M837.57,162.71c.36,0,.61-.04.75-.1s.22-.2.22-.4c0-.16-.1-.29-.29-.41-.19-.12-.48-.25-.87-.4-.3-.11-.58-.23-.83-.35-.25-.12-.46-.27-.63-.44-.17-.17-.31-.37-.4-.6-.1-.23-.14-.52-.14-.85,0-.64.24-1.15.72-1.52.48-.37,1.13-.56,1.96-.56.42,0,.82.04,1.2.11.38.07.68.15.91.24l-.34,1.51c-.23-.08-.47-.15-.74-.21-.26-.06-.56-.09-.89-.09-.61,0-.91.17-.91.51,0,.08.01.15.04.21.03.06.08.12.16.18.08.06.18.12.32.18.13.07.31.14.51.22.42.16.78.31,1.05.47.28.15.5.32.66.5.16.18.27.37.34.59.06.22.1.47.1.75,0,.68-.25,1.19-.76,1.53-.51.35-1.22.52-2.15.52-.61,0-1.11-.05-1.52-.16-.4-.1-.68-.19-.84-.26l.33-1.57c.33.13.67.23,1.01.31.35.07.69.11,1.03.11Z"/><g id="arrow_styles_for_diagrams_etc-9"><g id="arrow_styles_for_diagrams_etc-10"><path class="cls-3" d="M957.47,336.18l-22.89,13.16c-.68.39-1.52-.1-1.52-.88v-6.79s-166.55,0-166.55,0c-2.03,0-3.67-1.64-3.67-3.67v-5.39c0-2.02,1.64-3.66,3.66-3.66h166.57s0-6.79,0-6.79c0-.78.84-1.27,1.52-.88l22.89,13.16c.68.39.68,1.36,0,1.74Z"/></g></g><path class="cls-7" d="M849.38,339.89c-.58-1.03-1.21-2.05-1.89-3.06-.68-1.01-1.4-1.96-2.16-2.85v5.91h-2v-9.02h1.65c.29.29.6.64.95,1.05.35.42.7.86,1.06,1.33.36.47.72.96,1.07,1.47.36.51.69,1,1,1.46v-5.32h2.02v9.02h-1.7Z"/><path class="cls-7" d="M859.43,336.45c0,.54-.08,1.03-.23,1.48-.16.45-.38.83-.68,1.14-.29.32-.65.56-1.06.74-.41.17-.87.26-1.38.26s-.96-.09-1.37-.26c-.41-.17-.77-.42-1.06-.74-.29-.32-.53-.7-.69-1.14-.17-.45-.25-.94-.25-1.48s.08-1.03.25-1.47.4-.82.7-1.13c.3-.31.65-.55,1.07-.73s.86-.26,1.35-.26.95.09,1.36.26c.41.17.76.42,1.06.73s.53.69.69,1.13c.16.44.25.93.25,1.47ZM857.46,336.45c0-.6-.12-1.07-.36-1.41-.24-.34-.58-.51-1.02-.51s-.79.17-1.03.51c-.24.34-.36.81-.36,1.41s.12,1.07.36,1.42c.24.35.59.53,1.03.53s.78-.17,1.02-.53c.24-.35.36-.83.36-1.42Z"/><path class="cls-7" d="M605.72,173.55c.69-.18,1.37-.37,2.04-.57.67-.2,1.32-.42,1.96-.67l1.58,1.58c-1.04.34-2.06.64-3.08.91-1.02.27-2.06.52-3.13.75l-2.44,2.44-1.43-1.43,2.42-2.42c.23-1.07.49-2.12.76-3.14.27-1.03.58-2.06.92-3.1l1.67,1.67c-.25.64-.47,1.29-.68,1.95-.21.66-.4,1.34-.58,2.03Z"/><path class="cls-7" d="M606.95,177.54c.43-.43.87-.74,1.33-.93.45-.19.89-.29,1.32-.29.43,0,.84.08,1.23.25.39.17.73.4,1.03.69.69.69,1.02,1.44,1,2.26-.02.82-.44,1.64-1.26,2.45-.08.08-.17.17-.27.25-.1.09-.19.17-.27.23l-3.11-3.11c-.25.31-.34.67-.28,1.07.07.4.3.79.69,1.19.25.25.52.48.81.67.29.19.54.34.76.42l-.93,1.3c-.11-.04-.24-.1-.4-.18s-.33-.19-.51-.31-.36-.26-.55-.41c-.19-.15-.37-.32-.54-.49-.44-.44-.75-.88-.94-1.33-.19-.45-.28-.89-.27-1.33.01-.44.12-.86.33-1.26.21-.41.49-.79.84-1.15ZM610.7,180.24c.11-.12.2-.26.28-.4.08-.14.12-.29.14-.45s0-.32-.05-.48c-.05-.16-.16-.32-.32-.48s-.31-.26-.47-.32c-.16-.06-.32-.08-.48-.07-.16.01-.32.05-.47.13-.15.07-.3.16-.43.26l1.81,1.81Z"/><path class="cls-7" d="M612.55,185.93c.25.25.45.41.61.46s.3.01.44-.13c.11-.11.14-.27.09-.49s-.17-.52-.34-.9c-.13-.29-.25-.57-.33-.83-.09-.26-.14-.51-.14-.75,0-.24.04-.48.14-.71.1-.23.26-.47.5-.7.45-.45.98-.64,1.58-.57.6.07,1.2.4,1.79.99.29.29.55.6.77.93.22.32.38.59.47.81l-1.31.83c-.1-.21-.23-.44-.37-.67s-.33-.46-.57-.69c-.43-.43-.76-.53-1-.29-.06.06-.09.11-.12.18s-.03.14-.01.23c.01.09.05.21.09.35.05.14.12.31.21.52.19.41.33.77.42,1.07.09.3.12.58.11.81-.01.24-.07.46-.18.66-.11.2-.26.4-.46.6-.48.48-1.02.66-1.62.54s-1.23-.5-1.89-1.16c-.43-.43-.75-.82-.96-1.18s-.35-.62-.41-.78l1.34-.88c.14.32.31.64.5.93.19.3.41.57.65.8Z"/><path id="path32" class="cls-4" d="M754.92,309.5v-2.04l-.52.4-.34-.47.91-.67h.6v2.77h-.65"/><path id="path34" class="cls-4" d="M757.61,308.1c0-.09,0-.18-.02-.29-.01-.1-.03-.2-.06-.29-.03-.09-.07-.17-.12-.23-.05-.06-.12-.09-.21-.09s-.16.03-.21.09c-.06.06-.1.14-.13.23-.03.09-.05.19-.06.29-.01.1-.02.2-.02.29s0,.19.02.29c.01.11.03.2.06.29.03.09.07.17.13.23.05.06.13.09.21.09s.16-.03.21-.09c.05-.06.09-.14.12-.23.03-.09.05-.19.06-.29,0-.11.02-.2.02-.29ZM758.28,308.1c0,.2-.02.38-.06.56-.04.18-.1.33-.19.47-.09.13-.2.24-.33.32-.14.08-.3.12-.5.12s-.36-.04-.5-.12c-.14-.08-.25-.19-.34-.32-.09-.13-.15-.29-.19-.47-.04-.18-.06-.36-.06-.56s.02-.38.06-.56c.04-.18.1-.33.19-.46.09-.13.2-.24.34-.32.14-.08.31-.12.5-.12s.36.04.5.12c.14.08.25.18.33.32.09.13.15.29.19.46.04.18.06.36.06.56"/><path id="path36" class="cls-4" d="M761.95,309.5v-2.04l-.52.4-.34-.47.91-.67h.6v2.77h-.65"/><path id="path38" class="cls-4" d="M764.64,308.1c0-.09,0-.18-.02-.29-.01-.1-.03-.2-.06-.29-.03-.09-.07-.17-.12-.23-.05-.06-.12-.09-.21-.09s-.16.03-.21.09c-.06.06-.1.14-.13.23-.03.09-.05.19-.06.29-.01.1-.02.2-.02.29s0,.19.02.29c.01.11.03.2.06.29.03.09.07.17.13.23.05.06.13.09.21.09s.16-.03.21-.09c.05-.06.09-.14.12-.23.03-.09.05-.19.06-.29,0-.11.02-.2.02-.29ZM765.31,308.1c0,.2-.02.38-.06.56-.04.18-.1.33-.19.47-.09.13-.2.24-.33.32-.14.08-.3.12-.5.12s-.36-.04-.5-.12c-.14-.08-.25-.19-.34-.32-.09-.13-.15-.29-.19-.47-.04-.18-.06-.36-.06-.56s.02-.38.06-.56c.04-.18.1-.33.19-.46s.2-.24.34-.32c.14-.08.31-.12.5-.12s.36.04.5.12c.14.08.25.18.33.32.09.13.15.29.19.46.04.18.06.36.06.56"/><path id="path40" class="cls-4" d="M754.86,313.86v-2.04l-.52.4-.34-.47.91-.67h.6v2.77h-.65"/><path id="path42" class="cls-4" d="M757.16,313.86v-2.04l-.52.4-.34-.47.91-.67h.6v2.77h-.65"/><path id="path44" class="cls-4" d="M759.46,313.86v-2.04l-.52.4-.34-.47.91-.67h.6v2.77h-.65"/><path id="path46" class="cls-4" d="M762.26,312.47c0-.09,0-.18-.02-.29-.01-.1-.03-.2-.06-.29-.03-.09-.07-.17-.12-.23-.05-.06-.12-.09-.21-.09s-.16.03-.21.09c-.05.06-.1.14-.13.23-.03.09-.05.19-.06.29-.01.1-.02.2-.02.29s0,.19.02.29c.01.11.03.2.06.29.03.09.07.17.13.23.06.06.13.09.21.09s.16-.03.21-.09c.05-.06.09-.14.12-.23.03-.09.05-.19.06-.29.01-.11.02-.2.02-.29ZM762.94,312.47c0,.2-.02.38-.06.56-.04.18-.1.33-.19.47-.09.13-.2.24-.33.32-.14.08-.3.12-.5.12s-.36-.04-.5-.12c-.14-.08-.25-.19-.34-.32-.09-.13-.15-.29-.19-.47-.04-.18-.06-.36-.06-.56s.02-.38.06-.56c.04-.18.1-.33.19-.46.09-.13.2-.24.34-.32.14-.08.31-.12.5-.12s.36.04.5.12c.14.08.25.18.33.32.09.13.15.29.19.46.04.18.06.36.06.56"/><path id="path48" class="cls-4" d="M756.18,316.97v-1.48l-.38.29-.25-.34.66-.49h.43v2.01h-.47"/><path id="path50" class="cls-4" d="M759.51,316.97v-1.48l-.38.29-.25-.34.66-.49h.44v2.01h-.47"/><path id="path52" class="cls-4" d="M754.85,315.96c0-.06,0-.13-.01-.21,0-.08-.02-.15-.04-.21-.02-.07-.05-.12-.09-.16-.04-.04-.09-.07-.15-.07s-.11.02-.15.07c-.04.04-.07.1-.09.16-.02.07-.04.14-.04.21,0,.08-.01.15-.01.21s0,.14.01.21c0,.08.02.15.04.21.02.07.05.12.09.16.04.04.09.07.15.07s.11-.02.15-.07c.04-.04.07-.1.09-.16.02-.07.04-.14.04-.21,0-.08.01-.15.01-.21ZM755.34,315.96c0,.14-.01.28-.04.41-.03.13-.07.24-.14.34-.06.1-.14.18-.24.23-.1.06-.22.09-.36.09s-.26-.03-.36-.09c-.1-.06-.18-.14-.25-.23-.06-.1-.11-.21-.14-.34-.03-.13-.04-.26-.04-.41s.01-.28.04-.4c.03-.13.07-.24.14-.34.06-.1.15-.17.25-.23.1-.06.22-.09.36-.09s.26.03.36.09c.1.06.18.13.24.23.06.1.11.21.14.34.03.13.04.26.04.4"/><path id="path54" class="cls-4" d="M758.2,315.96c0-.06,0-.13-.01-.21,0-.08-.02-.15-.04-.21-.02-.07-.05-.12-.09-.16-.04-.04-.09-.07-.15-.07s-.11.02-.15.07c-.04.04-.07.1-.09.16-.02.07-.04.14-.04.21,0,.08-.01.15-.01.21s0,.14.01.21c0,.08.02.15.04.21.02.07.05.12.09.16.04.04.09.07.15.07s.11-.02.15-.07c.04-.04.07-.1.09-.16.02-.07.04-.14.04-.21,0-.08.01-.15.01-.21ZM758.69,315.96c0,.14-.01.28-.04.41-.03.13-.07.24-.14.34-.06.1-.14.18-.24.23-.1.06-.22.09-.36.09s-.26-.03-.36-.09c-.1-.06-.18-.14-.25-.23-.06-.1-.11-.21-.14-.34-.03-.13-.04-.26-.04-.41s.01-.28.04-.4c.03-.13.07-.24.14-.34.06-.1.15-.17.25-.23.1-.06.22-.09.36-.09s.26.03.36.09c.1.06.18.13.24.23.06.1.11.21.14.34.03.13.04.26.04.4"/><path id="path56" class="cls-4" d="M765.05,316.97v-1.48l-.38.29-.25-.34.66-.49h.44v2.01h-.47"/><path id="path58" class="cls-4" d="M763.74,315.96c0-.06,0-.13-.01-.21,0-.08-.02-.15-.04-.21-.02-.07-.05-.12-.09-.16-.04-.04-.09-.07-.15-.07s-.11.02-.15.07c-.04.04-.07.1-.09.16-.02.07-.04.14-.04.21,0,.08-.01.15-.01.21s0,.14.01.21c0,.08.02.15.04.21.02.07.05.12.09.16.04.04.09.07.15.07s.11-.02.15-.07c.04-.04.07-.1.09-.16.02-.07.04-.14.04-.21,0-.08.01-.15.01-.21ZM764.23,315.96c0,.14-.01.28-.04.41-.03.13-.07.24-.14.34-.06.1-.14.18-.24.23-.1.06-.22.09-.36.09s-.26-.03-.36-.09c-.1-.06-.18-.14-.25-.23-.06-.1-.11-.21-.14-.34-.03-.13-.04-.26-.04-.41s.01-.28.04-.4c.03-.13.07-.24.14-.34.06-.1.15-.17.25-.23.1-.06.22-.09.36-.09s.26.03.36.09c.1.06.18.13.24.23.06.1.11.21.14.34.03.13.04.26.04.4"/><path id="path60" class="cls-4" d="M763.22,319.34v-1.48l-.38.29-.25-.34.66-.49h.44v2.01h-.47"/><path id="path62" class="cls-4" d="M761.91,318.33c0-.06,0-.13-.01-.21,0-.08-.02-.15-.04-.21-.02-.07-.05-.12-.09-.16-.04-.04-.09-.07-.15-.07s-.11.02-.15.07c-.04.04-.07.1-.09.16-.02.07-.04.14-.04.21,0,.08-.01.15-.01.21s0,.14.01.21c0,.08.02.15.04.21.02.07.05.12.09.16.04.04.09.07.15.07s.11-.02.15-.07c.04-.04.07-.1.09-.16.02-.07.04-.14.04-.21,0-.08.01-.15.01-.21ZM762.4,318.33c0,.14-.01.28-.04.41-.03.13-.07.24-.14.34-.06.1-.14.18-.24.23-.1.06-.22.09-.36.09s-.26-.03-.36-.09c-.1-.06-.18-.14-.25-.23-.06-.1-.11-.21-.14-.34-.03-.13-.04-.26-.04-.41s.01-.28.04-.4c.03-.13.07-.24.14-.34.06-.1.15-.17.25-.23.1-.06.22-.09.36-.09s.26.03.36.09c.1.06.18.13.24.23.06.1.11.21.14.34.03.13.04.26.04.4"/><path id="path64" class="cls-4" d="M755.52,319.31v-1.02l-.26.2-.17-.23.46-.34h.3v1.39h-.33"/><path id="path66" class="cls-4" d="M754.61,318.61s0-.09,0-.14c0-.05-.02-.1-.03-.15-.01-.05-.03-.08-.06-.11-.03-.03-.06-.05-.11-.05s-.08.02-.11.05c-.03.03-.05.07-.06.11-.02.05-.03.09-.03.15,0,.05,0,.1,0,.14s0,.09,0,.15c0,.05.02.1.03.15.02.05.04.08.06.11.03.03.06.05.11.05s.08-.02.11-.05c.03-.03.05-.07.06-.11.01-.05.02-.09.03-.15,0-.05,0-.1,0-.15ZM754.95,318.61c0,.1-.01.19-.03.28-.02.09-.05.17-.09.24-.04.07-.1.12-.17.16-.07.04-.15.06-.25.06s-.18-.02-.25-.06c-.07-.04-.13-.09-.17-.16-.04-.07-.08-.15-.1-.24-.02-.09-.03-.18-.03-.28s0-.19.03-.28c.02-.09.05-.17.1-.23.04-.07.1-.12.17-.16.07-.04.15-.06.25-.06s.18.02.25.06c.07.04.13.09.17.16.04.07.07.14.09.23.02.09.03.18.03.28"/><path id="path68" class="cls-4" d="M759.61,321.1v-1.02l-.26.2-.17-.23.46-.34h.3v1.39h-.33"/><path id="path70" class="cls-4" d="M758.71,320.4s0-.09,0-.14c0-.05-.01-.1-.03-.15s-.04-.08-.06-.11c-.03-.03-.06-.05-.11-.05s-.08.02-.11.05c-.03.03-.05.07-.06.11-.02.05-.03.09-.03.15,0,.05,0,.1,0,.14s0,.09,0,.15c0,.05.02.1.03.15.01.05.04.08.06.11.03.03.06.05.11.05s.08-.02.11-.05c.03-.03.05-.07.06-.11.01-.05.02-.09.03-.15,0-.05,0-.1,0-.15ZM759.04,320.4c0,.1,0,.19-.03.28-.02.09-.05.17-.09.24-.04.07-.1.12-.17.16-.07.04-.15.06-.25.06s-.18-.02-.25-.06c-.07-.04-.13-.09-.17-.16-.04-.07-.08-.15-.1-.24-.02-.09-.03-.18-.03-.28s0-.19.03-.28c.02-.09.05-.17.1-.23.04-.07.1-.12.17-.16.07-.04.15-.06.25-.06s.18.02.25.06c.07.04.13.09.17.16.04.07.07.14.09.23.02.09.03.18.03.28"/><path id="path72" class="cls-4" d="M765.24,318.33c0-.06,0-.13-.01-.21,0-.08-.02-.15-.04-.21-.02-.07-.05-.12-.09-.16-.04-.04-.09-.07-.15-.07s-.11.02-.15.07c-.04.04-.07.1-.09.16-.02.07-.04.14-.04.21,0,.08-.01.15-.01.21s0,.14.01.21c0,.08.02.15.04.21.02.07.05.12.09.16.04.04.09.07.15.07s.11-.02.15-.07c.04-.04.07-.1.09-.16.02-.07.04-.14.04-.21,0-.08.01-.15.01-.21ZM765.72,318.33c0,.14-.01.28-.04.41-.03.13-.07.24-.14.34-.06.1-.14.18-.24.23-.1.06-.22.09-.36.09s-.26-.03-.36-.09c-.1-.06-.18-.14-.25-.23-.06-.1-.11-.21-.14-.34-.03-.13-.04-.26-.04-.41s.01-.28.04-.4c.03-.13.07-.24.14-.34.06-.1.15-.17.25-.23.1-.06.22-.09.36-.09s.26.03.36.09c.1.06.18.13.24.23.06.1.11.21.14.34.03.13.04.26.04.4"/><path id="path74" class="cls-4" d="M764.32,304.74c-.46-2.27-2.48-3.91-4.8-3.91-.35,0-.7.04-1.04.11-.56-3.31-3.45-5.83-6.91-5.83s-6.29,2.48-6.89,5.74c-2.49.23-4.45,2.33-4.45,4.88,0,2.7,2.2,4.9,4.9,4.9h7.33c.37,0,.68-.3.68-.68s-.3-.68-.68-.68h-7.33c-1.96,0-3.55-1.59-3.55-3.55s1.59-3.55,3.55-3.55c.71,0,1.4.21,1.98.6.31.21.73.13.94-.18.21-.31.13-.73-.18-.94-.55-.37-1.17-.62-1.82-.75.55-2.54,2.82-4.45,5.53-4.45,2.88,0,5.27,2.17,5.61,4.96-.18.1-.36.21-.53.33-.3.22-.37.64-.15.95.22.3.64.37.95.15.61-.44,1.32-.67,2.07-.67,1.68,0,3.14,1.19,3.47,2.83.07.32.35.54.66.54.04,0,.09,0,.14-.01.37-.07.6-.43.53-.8"/><path class="cls-7" d="M721.63,44.23c.41,0,.75-.03,1.02-.1.27-.07.48-.16.65-.28.16-.12.27-.26.34-.42s.09-.34.09-.54c0-.42-.2-.78-.6-1.06s-1.09-.58-2.06-.91c-.42-.15-.85-.32-1.27-.52-.42-.19-.81-.44-1.14-.73-.34-.29-.61-.65-.82-1.07-.21-.42-.32-.93-.32-1.53s.11-1.14.34-1.62c.22-.48.54-.89.96-1.23.41-.34.91-.6,1.5-.78s1.25-.27,1.99-.27c.88,0,1.63.09,2.27.28.64.19,1.16.39,1.57.62l-.84,2.3c-.36-.19-.77-.35-1.21-.5s-.98-.22-1.6-.22c-.7,0-1.2.1-1.51.29-.31.19-.46.49-.46.89,0,.24.06.44.17.6.11.16.27.31.48.44.21.13.44.25.71.36.27.11.56.22.89.33.67.25,1.26.5,1.76.74.5.24.92.53,1.25.85.33.33.58.71.74,1.14.16.44.24.97.24,1.59,0,1.21-.42,2.15-1.27,2.82-.85.67-2.13,1-3.84,1-.58,0-1.09-.04-1.56-.1-.46-.07-.87-.15-1.23-.25-.36-.1-.66-.21-.92-.32s-.47-.22-.65-.32l.83-2.32c.39.21.86.4,1.43.57.57.17,1.26.25,2.09.25Z"/><path class="cls-7" d="M729,46.46v-12.99h8.77v2.46h-5.85v2.55h5.19v2.4h-5.19v3.13h6.28v2.46h-9.2Z"/><path class="cls-7" d="M749.99,33.47v2.49h-3.92v10.5h-2.92v-10.5h-3.92v-2.49h10.76Z"/><path class="cls-7" d="M765.07,46.46c-.14-.45-.3-.92-.47-1.39s-.33-.95-.5-1.42h-5.07c-.16.47-.33.95-.49,1.42-.17.48-.32.94-.46,1.39h-3.04c.49-1.4.95-2.69,1.39-3.88.44-1.19.87-2.31,1.29-3.35.42-1.05.83-2.05,1.24-2.99.41-.94.83-1.87,1.27-2.76h2.77c.43.9.85,1.82,1.26,2.76s.83,1.94,1.25,2.99c.42,1.05.85,2.17,1.29,3.35.44,1.19.9,2.48,1.39,3.88h-3.13ZM761.56,36.41c-.07.19-.16.45-.29.77-.13.33-.27.7-.43,1.13-.16.42-.34.89-.54,1.41-.2.51-.4,1.05-.6,1.61h3.71c-.2-.56-.39-1.1-.58-1.61-.19-.51-.36-.98-.53-1.41-.17-.43-.31-.8-.44-1.12s-.23-.58-.31-.76Z"/><path class="cls-7" d="M775.33,46.72c-2.11,0-3.72-.59-4.83-1.76-1.11-1.17-1.66-2.84-1.66-5,0-1.07.17-2.03.51-2.88.34-.84.8-1.56,1.39-2.14.59-.58,1.29-1.02,2.1-1.32.81-.3,1.69-.45,2.64-.45.55,0,1.05.04,1.5.12.45.08.84.18,1.18.28.34.11.62.22.84.33s.39.2.49.26l-.84,2.36c-.4-.21-.87-.39-1.4-.54-.53-.15-1.13-.22-1.81-.22-.45,0-.89.08-1.32.22-.43.15-.81.39-1.14.72-.33.33-.6.76-.8,1.28-.2.52-.3,1.16-.3,1.91,0,.6.07,1.16.2,1.68.13.52.34.97.64,1.34.29.37.68.67,1.15.89.47.22,1.05.33,1.72.33.42,0,.81-.02,1.14-.08.34-.05.64-.11.9-.18.26-.07.49-.15.69-.23.2-.09.38-.17.54-.24l.81,2.34c-.41.25-.99.47-1.74.67-.75.2-1.62.3-2.61.3Z"/><path class="cls-7" d="M790.79,46.46c-.14-.45-.3-.92-.47-1.39s-.33-.95-.5-1.42h-5.07c-.16.47-.33.95-.49,1.42-.17.48-.32.94-.46,1.39h-3.04c.49-1.4.95-2.69,1.39-3.88.44-1.19.87-2.31,1.29-3.35.42-1.05.83-2.05,1.24-2.99.41-.94.83-1.87,1.27-2.76h2.77c.43.9.85,1.82,1.26,2.76s.83,1.94,1.25,2.99c.42,1.05.85,2.17,1.29,3.35.44,1.19.9,2.48,1.39,3.88h-3.13ZM787.28,36.41c-.07.19-.16.45-.29.77-.13.33-.27.7-.43,1.13-.16.42-.34.89-.54,1.41-.2.51-.4,1.05-.6,1.61h3.71c-.2-.56-.39-1.1-.58-1.61-.19-.51-.36-.98-.53-1.41-.17-.43-.31-.8-.44-1.12s-.23-.58-.31-.76Z"/><path class="cls-7" d="M807.49,39.96c0,1.11-.17,2.09-.5,2.93s-.78,1.55-1.36,2.12c-.57.57-1.26,1-2.05,1.28-.79.29-1.65.43-2.56.43s-1.72-.14-2.51-.43-1.47-.71-2.06-1.28c-.59-.57-1.05-1.27-1.39-2.12-.34-.84-.51-1.82-.51-2.93s.17-2.09.52-2.93c.35-.84.82-1.55,1.42-2.13.59-.57,1.28-1.01,2.06-1.29s1.6-.43,2.46-.43,1.72.14,2.51.43,1.47.72,2.06,1.29c.59.58,1.05,1.28,1.39,2.13.34.84.51,1.82.51,2.93ZM797.58,39.96c0,.64.08,1.21.23,1.72.16.51.38.95.67,1.32.29.37.65.65,1.08.85.42.2.91.3,1.46.3s1.02-.1,1.45-.3c.43-.2.79-.48,1.09-.85.29-.37.52-.81.67-1.32.16-.51.23-1.09.23-1.72s-.08-1.21-.23-1.73c-.16-.52-.38-.96-.67-1.33-.29-.37-.66-.65-1.09-.85-.43-.2-.92-.3-1.45-.3s-1.04.1-1.46.31c-.42.21-.78.49-1.08.86-.29.37-.52.81-.67,1.33-.16.52-.23,1.09-.23,1.71Z"/><path class="cls-7" d="M812.48,38.32c0,.56-.18.99-.53,1.28-.36.29-.76.44-1.21.44s-.85-.15-1.21-.44c-.36-.29-.53-.72-.53-1.28s.18-.99.53-1.28c.36-.29.76-.44,1.21-.44s.85.15,1.21.44c.36.29.53.72.53,1.28ZM812.48,44.98c0,.56-.18.99-.53,1.28-.36.29-.76.44-1.21.44s-.85-.15-1.21-.44c-.36-.29-.53-.72-.53-1.28s.18-.99.53-1.28c.36-.29.76-.44,1.21-.44s.85.15,1.21.44c.36.29.53.72.53,1.28Z"/><path class="cls-7" d="M822.85,36.41c.12-.11.28-.23.47-.37.19-.13.38-.26.57-.39.19-.13.39-.25.59-.36.2-.11.38-.18.53-.23l.45-.15.75,2.32-.45.15c-.16.05-.35.09-.56.11-.21.03-.44.04-.68.05-.24,0-.47,0-.7,0h-.6c.15.1.32.21.5.35.18.13.36.27.55.41.18.14.35.29.52.44.16.15.29.29.4.43l.3.39-1.99,1.41-.28-.38c-.1-.12-.2-.29-.29-.49-.09-.2-.19-.41-.27-.63s-.16-.43-.23-.65c-.06-.21-.12-.41-.17-.58-.05.17-.11.37-.17.58-.06.21-.14.43-.22.65s-.18.43-.27.63c-.09.2-.19.36-.29.49l-.28.38-1.99-1.41.3-.39c.1-.14.23-.28.39-.43.16-.15.33-.3.51-.44s.36-.28.54-.41c.18-.13.35-.25.5-.35h-.6c-.22,0-.46,0-.69,0-.24,0-.46-.02-.67-.05-.21-.02-.4-.06-.56-.11l-.45-.15.75-2.32.45.15c.15.05.32.13.52.23s.4.22.59.36c.19.13.38.26.56.39.18.13.34.25.48.37-.06-.16-.13-.35-.19-.57-.07-.22-.13-.44-.19-.67s-.11-.45-.16-.67-.06-.41-.06-.57v-.47h2.44v.47c0,.16-.02.35-.07.57-.04.22-.1.44-.16.67s-.13.45-.2.67c-.07.22-.14.41-.2.57Z"/><path class="cls-7" d="M897.95,163.15c.41,0,.75-.03,1.02-.1.27-.07.48-.16.65-.28.16-.12.27-.26.34-.42s.09-.34.09-.54c0-.42-.2-.78-.6-1.06s-1.09-.58-2.06-.91c-.42-.15-.85-.32-1.27-.52-.42-.19-.81-.44-1.14-.73-.34-.29-.61-.65-.82-1.07-.21-.42-.32-.93-.32-1.53s.11-1.14.34-1.62c.22-.48.54-.89.96-1.23.41-.34.91-.6,1.5-.78s1.25-.27,1.99-.27c.88,0,1.63.09,2.27.28.64.19,1.16.39,1.57.62l-.84,2.3c-.36-.19-.77-.35-1.21-.5s-.98-.22-1.6-.22c-.7,0-1.2.1-1.51.29-.31.19-.46.49-.46.89,0,.24.06.44.17.6.11.16.27.31.48.44.21.13.44.25.71.36.27.11.56.22.89.33.67.25,1.26.5,1.76.74.5.24.92.53,1.25.85.33.33.58.71.74,1.14.16.44.24.97.24,1.59,0,1.21-.42,2.15-1.27,2.82-.85.67-2.13,1-3.84,1-.58,0-1.09-.04-1.56-.1-.46-.07-.87-.15-1.23-.25-.36-.1-.66-.21-.92-.32s-.47-.22-.65-.32l.83-2.32c.39.21.86.4,1.43.57.57.17,1.26.25,2.09.25Z"/><path class="cls-7" d="M904.66,160.53c0-.87.13-1.64.4-2.3s.62-1.2,1.06-1.64c.44-.44.94-.77,1.51-.99.57-.23,1.15-.34,1.75-.34,1.4,0,2.5.43,3.32,1.28s1.22,2.12,1.22,3.78c0,.16,0,.34-.02.53-.01.19-.03.37-.04.52h-6.33c.06.57.33,1.03.81,1.37.47.34,1.11.51,1.91.51.51,0,1.01-.05,1.51-.14.49-.09.9-.21,1.21-.35l.38,2.27c-.15.08-.35.15-.6.23-.25.07-.53.14-.83.2-.31.06-.63.1-.98.14-.35.04-.7.06-1.05.06-.89,0-1.66-.13-2.31-.39-.66-.26-1.2-.62-1.63-1.08-.43-.46-.75-1-.96-1.62s-.31-1.3-.31-2.02ZM911.21,159.46c-.01-.24-.05-.47-.12-.69s-.17-.42-.32-.6-.33-.32-.54-.43c-.22-.11-.49-.17-.81-.17s-.58.05-.81.16c-.22.11-.41.25-.56.42-.15.17-.27.38-.35.61-.08.23-.14.47-.18.7h3.69Z"/><path class="cls-7" d="M915.98,153.07l2.79-.45v2.91h3.36v2.32h-3.36v3.47c0,.59.1,1.06.31,1.41s.62.52,1.25.52c.3,0,.61-.03.93-.08.32-.06.61-.13.87-.23l.39,2.17c-.34.14-.71.26-1.12.36s-.92.15-1.52.15c-.76,0-1.39-.1-1.89-.31s-.9-.49-1.2-.86-.51-.82-.63-1.34c-.12-.53-.18-1.11-.18-1.74v-8.28Z"/><path class="cls-7" d="M937.79,165.38c-.14-.45-.3-.92-.47-1.39s-.33-.95-.5-1.42h-5.07c-.16.47-.33.95-.49,1.42-.17.48-.32.94-.46,1.39h-3.04c.49-1.4.95-2.69,1.39-3.88.44-1.19.87-2.31,1.29-3.35.42-1.05.83-2.05,1.24-2.99.41-.94.83-1.87,1.27-2.76h2.77c.43.9.85,1.82,1.26,2.76s.83,1.94,1.25,2.99c.42,1.05.85,2.17,1.29,3.35.44,1.19.9,2.48,1.39,3.88h-3.13ZM934.28,155.33c-.07.19-.16.45-.29.77-.13.33-.27.7-.43,1.13-.16.42-.34.89-.54,1.41-.2.51-.4,1.05-.6,1.61h3.71c-.2-.56-.39-1.1-.58-1.61-.19-.51-.36-.98-.53-1.41-.17-.43-.31-.8-.44-1.12s-.23-.58-.31-.76Z"/><path class="cls-7" d="M948.04,165.64c-2.11,0-3.72-.59-4.83-1.76-1.11-1.17-1.66-2.84-1.66-5,0-1.07.17-2.03.51-2.88.34-.84.8-1.56,1.39-2.14.59-.58,1.29-1.02,2.1-1.32.81-.3,1.69-.45,2.64-.45.55,0,1.05.04,1.5.12.45.08.84.18,1.18.28.34.11.62.22.84.33s.39.2.49.26l-.84,2.36c-.4-.21-.87-.39-1.4-.54-.53-.15-1.13-.22-1.81-.22-.45,0-.89.08-1.32.22-.43.15-.81.39-1.14.72-.33.33-.6.76-.8,1.28-.2.52-.3,1.16-.3,1.91,0,.6.07,1.16.2,1.68.13.52.34.97.64,1.34.29.37.68.67,1.15.89.47.22,1.05.33,1.72.33.42,0,.81-.02,1.14-.08.34-.05.64-.11.9-.18.26-.07.49-.15.69-.23.2-.09.38-.17.54-.24l.81,2.34c-.41.25-.99.47-1.74.67-.75.2-1.62.3-2.61.3Z"/><path class="cls-7" d="M963.5,165.38c-.14-.45-.3-.92-.47-1.39s-.33-.95-.5-1.42h-5.07c-.16.47-.33.95-.49,1.42-.17.48-.32.94-.46,1.39h-3.04c.49-1.4.95-2.69,1.39-3.88.44-1.19.87-2.31,1.29-3.35.42-1.05.83-2.05,1.24-2.99.41-.94.83-1.87,1.27-2.76h2.77c.43.9.85,1.82,1.26,2.76s.83,1.94,1.25,2.99c.42,1.05.85,2.17,1.29,3.35.44,1.19.9,2.48,1.39,3.88h-3.13ZM959.99,155.33c-.07.19-.16.45-.29.77-.13.33-.27.7-.43,1.13-.16.42-.34.89-.54,1.41-.2.51-.4,1.05-.6,1.61h3.71c-.2-.56-.39-1.1-.58-1.61-.19-.51-.36-.98-.53-1.41-.17-.43-.31-.8-.44-1.12s-.23-.58-.31-.76Z"/><path class="cls-7" d="M980.2,158.88c0,1.11-.17,2.09-.5,2.93s-.78,1.55-1.36,2.12c-.57.57-1.26,1-2.05,1.28-.79.29-1.65.43-2.56.43s-1.72-.14-2.51-.43-1.47-.71-2.06-1.28c-.59-.57-1.05-1.27-1.39-2.12-.34-.84-.51-1.82-.51-2.93s.17-2.09.52-2.93c.35-.84.82-1.55,1.42-2.13.59-.57,1.28-1.01,2.06-1.29s1.6-.43,2.46-.43,1.72.14,2.51.43,1.47.72,2.06,1.29c.59.58,1.05,1.28,1.39,2.13.34.84.51,1.82.51,2.93ZM970.29,158.88c0,.64.08,1.21.23,1.72.16.51.38.95.67,1.32.29.37.65.65,1.08.85.42.2.91.3,1.46.3s1.02-.1,1.45-.3c.43-.2.79-.48,1.09-.85.29-.37.52-.81.67-1.32.16-.51.23-1.09.23-1.72s-.08-1.21-.23-1.73c-.16-.52-.38-.96-.67-1.33-.29-.37-.66-.65-1.09-.85-.43-.2-.92-.3-1.45-.3s-1.04.1-1.46.31c-.42.21-.78.49-1.08.86-.29.37-.52.81-.67,1.33-.16.52-.23,1.09-.23,1.71Z"/><path class="cls-7" d="M985.19,157.25c0,.56-.18.99-.53,1.28-.36.29-.76.44-1.21.44s-.85-.15-1.21-.44c-.36-.29-.53-.72-.53-1.28s.18-.99.53-1.28c.36-.29.76-.44,1.21-.44s.85.15,1.21.44c.36.29.53.72.53,1.28ZM985.19,163.9c0,.56-.18.99-.53,1.28-.36.29-.76.44-1.21.44s-.85-.15-1.21-.44c-.36-.29-.53-.72-.53-1.28s.18-.99.53-1.28c.36-.29.76-.44,1.21-.44s.85.15,1.21.44c.36.29.53.72.53,1.28Z"/><path class="cls-7" d="M995.29,163.15c.41,0,.75-.03,1.02-.1.27-.07.48-.16.65-.28.16-.12.27-.26.34-.42s.09-.34.09-.54c0-.42-.2-.78-.6-1.06s-1.09-.58-2.06-.91c-.42-.15-.85-.32-1.27-.52-.42-.19-.81-.44-1.14-.73-.34-.29-.61-.65-.82-1.07-.21-.42-.32-.93-.32-1.53s.11-1.14.34-1.62c.22-.48.54-.89.96-1.23.41-.34.91-.6,1.5-.78s1.25-.27,1.99-.27c.88,0,1.63.09,2.27.28.64.19,1.16.39,1.57.62l-.84,2.3c-.36-.19-.77-.35-1.21-.5s-.98-.22-1.6-.22c-.7,0-1.2.1-1.51.29-.31.19-.46.49-.46.89,0,.24.06.44.17.6.11.16.27.31.48.44.21.13.44.25.71.36.27.11.56.22.89.33.67.25,1.26.5,1.76.74.5.24.92.53,1.25.85.33.33.58.71.74,1.14.16.44.24.97.24,1.59,0,1.21-.42,2.15-1.27,2.82-.85.67-2.13,1-3.84,1-.58,0-1.09-.04-1.56-.1-.46-.07-.87-.15-1.23-.25-.36-.1-.66-.21-.92-.32s-.47-.22-.65-.32l.83-2.32c.39.21.86.4,1.43.57.57.17,1.26.25,2.09.25Z"/><path class="cls-7" d="M1011.64,160.45c0,.76-.09,1.46-.28,2.08s-.46,1.16-.83,1.61c-.36.45-.81.8-1.35,1.05s-1.16.38-1.86.38c-.39,0-.75-.04-1.09-.11-.34-.08-.66-.18-.97-.32v3.71h-2.79v-12.99c.25-.08.54-.15.86-.21.33-.07.67-.13,1.02-.18.36-.05.72-.09,1.09-.12.37-.03.72-.05,1.06-.05.81,0,1.54.12,2.17.37.64.24,1.17.59,1.61,1.03.44.44.77.98,1,1.62.23.64.35,1.35.35,2.14ZM1008.79,160.53c0-.86-.19-1.55-.58-2.07-.39-.52-.96-.78-1.72-.78-.25,0-.48,0-.69.03-.21.02-.39.04-.53.07v5.04c.17.11.4.21.68.28.28.07.56.11.85.11,1.32,0,1.99-.89,1.99-2.68Z"/><path class="cls-7" d="M1013.32,160.53c0-.87.13-1.64.4-2.3s.62-1.2,1.06-1.64c.44-.44.94-.77,1.51-.99.57-.23,1.15-.34,1.75-.34,1.4,0,2.5.43,3.32,1.28s1.22,2.12,1.22,3.78c0,.16,0,.34-.02.53-.01.19-.03.37-.04.52h-6.33c.06.57.33,1.03.81,1.37.47.34,1.11.51,1.91.51.51,0,1.01-.05,1.51-.14.49-.09.9-.21,1.21-.35l.38,2.27c-.15.08-.35.15-.6.23-.25.07-.53.14-.83.2-.31.06-.63.1-.98.14-.35.04-.7.06-1.05.06-.89,0-1.66-.13-2.31-.39-.66-.26-1.2-.62-1.63-1.08-.43-.46-.75-1-.96-1.62s-.31-1.3-.31-2.02ZM1019.88,159.46c-.01-.24-.05-.47-.12-.69s-.17-.42-.32-.6-.33-.32-.54-.43c-.22-.11-.49-.17-.81-.17s-.58.05-.81.16c-.22.11-.41.25-.56.42-.15.17-.27.38-.35.61-.08.23-.14.47-.18.7h3.69Z"/><path class="cls-7" d="M1024.27,160.45c0-.71.12-1.38.35-2.01.23-.63.56-1.18,1-1.65.44-.47.97-.84,1.59-1.12.62-.27,1.34-.41,2.14-.41.52,0,1.01.05,1.44.14.44.09.86.23,1.27.4l-.58,2.23c-.26-.1-.55-.19-.86-.26s-.66-.11-1.05-.11c-.82,0-1.44.26-1.85.77-.41.51-.61,1.19-.61,2.02,0,.89.19,1.58.57,2.06s1.05.73,2,.73c.34,0,.7-.03,1.09-.09.39-.06.74-.16,1.07-.3l.39,2.29c-.32.14-.73.26-1.22.36s-1.02.15-1.61.15c-.9,0-1.67-.13-2.32-.4-.65-.27-1.18-.63-1.6-1.1-.42-.46-.73-1.01-.92-1.64s-.29-1.32-.29-2.05Z"/><path class="cls-7" d="M1037.16,152.67c0,.51-.17.92-.5,1.21-.33.29-.72.44-1.17.44s-.84-.15-1.17-.44c-.33-.29-.5-.7-.5-1.21s.17-.92.5-1.21c.33-.29.72-.44,1.17-.44s.84.15,1.17.44c.33.29.5.7.5,1.21ZM1036.9,165.38h-2.79v-9.86h2.79v9.86Z"/><path class="cls-7" d="M1043.8,150.84c.53,0,.96.04,1.3.13.34.09.63.18.87.28l-.49,2.19c-.2-.09-.42-.15-.67-.19-.24-.04-.49-.06-.74-.06-.34,0-.62.05-.85.14s-.41.22-.54.38c-.13.16-.22.36-.28.58-.06.23-.08.47-.08.73v.49h3.45v2.32h-3.45v7.53h-2.79v-10.38c0-1.27.36-2.29,1.08-3.04.72-.75,1.78-1.12,3.2-1.12ZM1050.43,152.67c0,.51-.17.92-.5,1.21-.33.29-.72.44-1.17.44s-.84-.15-1.17-.44c-.33-.29-.5-.7-.5-1.21s.17-.92.5-1.21c.33-.29.72-.44,1.17-.44s.84.15,1.17.44c.33.29.5.7.5,1.21ZM1050.17,165.38h-2.79v-9.86h2.79v9.86Z"/><path class="cls-7" d="M1052.33,160.45c0-.71.12-1.38.35-2.01.23-.63.56-1.18,1-1.65.44-.47.97-.84,1.59-1.12.62-.27,1.34-.41,2.14-.41.52,0,1.01.05,1.44.14.44.09.86.23,1.27.4l-.58,2.23c-.26-.1-.55-.19-.86-.26s-.66-.11-1.05-.11c-.82,0-1.44.26-1.85.77-.41.51-.61,1.19-.61,2.02,0,.89.19,1.58.57,2.06s1.05.73,2,.73c.34,0,.7-.03,1.09-.09.39-.06.74-.16,1.07-.3l.39,2.29c-.32.14-.73.26-1.22.36s-1.02.15-1.61.15c-.9,0-1.67-.13-2.32-.4-.65-.27-1.18-.63-1.6-1.1-.42-.46-.73-1.01-.92-1.64s-.29-1.32-.29-2.05Z"/><path class="cls-7" d="M1079.22,158.88c0,1.11-.17,2.09-.5,2.93s-.78,1.55-1.36,2.12c-.57.57-1.26,1-2.05,1.28-.79.29-1.65.43-2.56.43s-1.72-.14-2.51-.43-1.47-.71-2.06-1.28c-.59-.57-1.05-1.27-1.39-2.12-.34-.84-.51-1.82-.51-2.93s.17-2.09.52-2.93c.35-.84.82-1.55,1.42-2.13.59-.57,1.28-1.01,2.06-1.29s1.6-.43,2.46-.43,1.72.14,2.51.43,1.47.72,2.06,1.29c.59.58,1.05,1.28,1.39,2.13.34.84.51,1.82.51,2.93ZM1069.31,158.88c0,.64.08,1.21.23,1.72.16.51.38.95.67,1.32.29.37.65.65,1.08.85.42.2.91.3,1.46.3s1.02-.1,1.45-.3c.43-.2.79-.48,1.09-.85.29-.37.52-.81.67-1.32.16-.51.23-1.09.23-1.72s-.08-1.21-.23-1.73c-.16-.52-.38-.96-.67-1.33-.29-.37-.66-.65-1.09-.85-.43-.2-.92-.3-1.45-.3s-1.04.1-1.46.31c-.42.21-.78.49-1.08.86-.29.37-.52.81-.67,1.33-.16.52-.23,1.09-.23,1.71Z"/><path class="cls-7" d="M1087.41,158c-.25-.06-.54-.13-.88-.2-.34-.07-.7-.1-1.09-.1-.17,0-.38.02-.63.05-.24.03-.43.07-.55.1v7.53h-2.79v-9.33c.5-.17,1.09-.34,1.77-.5s1.44-.23,2.28-.23c.15,0,.33,0,.54.03.21.02.42.04.64.08s.42.07.64.11c.21.04.39.1.54.16l-.47,2.3Z"/><path class="cls-7" d="M1092.43,152.67c0,.51-.17.92-.5,1.21-.33.29-.72.44-1.17.44s-.84-.15-1.17-.44c-.33-.29-.5-.7-.5-1.21s.17-.92.5-1.21c.33-.29.72-.44,1.17-.44s.84.15,1.17.44c.33.29.5.7.5,1.21ZM1092.17,165.38h-2.79v-9.86h2.79v9.86Z"/><path class="cls-7" d="M1103.3,164.14c0,1.61-.41,2.81-1.23,3.59-.82.78-2.08,1.17-3.8,1.17-.6,0-1.2-.05-1.8-.16s-1.16-.25-1.67-.42l.49-2.34c.44.17.9.31,1.38.41.48.1,1.03.15,1.64.15.8,0,1.36-.17,1.7-.52.33-.35.5-.8.5-1.35v-.36c-.3.14-.61.24-.93.31s-.67.1-1.04.1c-1.36,0-2.41-.4-3.13-1.21-.72-.81-1.09-1.93-1.09-3.38,0-.72.11-1.38.34-1.98.22-.59.55-1.1.98-1.53.43-.42.96-.75,1.58-.98.62-.23,1.33-.35,2.12-.35.34,0,.68.02,1.04.05.36.03.71.07,1.06.12.35.05.68.11,1,.18.32.07.6.14.85.21v8.28ZM1097.18,160.13c0,1.56.63,2.34,1.89,2.34.29,0,.56-.04.81-.11.25-.08.46-.16.64-.26v-4.46c-.14-.03-.3-.05-.49-.07-.19-.02-.41-.03-.66-.03-.74,0-1.29.24-1.65.73s-.54,1.11-.54,1.86Z"/><path class="cls-7" d="M1108.98,152.67c0,.51-.17.92-.5,1.21-.33.29-.72.44-1.17.44s-.84-.15-1.17-.44c-.33-.29-.5-.7-.5-1.21s.17-.92.5-1.21c.33-.29.72-.44,1.17-.44s.84.15,1.17.44c.33.29.5.7.5,1.21ZM1108.72,165.38h-2.79v-9.86h2.79v9.86Z"/><path class="cls-7" d="M1111.34,155.86c.48-.14,1.09-.26,1.84-.38.75-.12,1.54-.18,2.36-.18s1.53.11,2.09.33c.56.22,1,.53,1.32.93.32.4.56.88.69,1.42.14.55.21,1.16.21,1.84v5.57h-2.79v-5.23c0-.9-.12-1.54-.36-1.91-.24-.38-.68-.56-1.33-.56-.2,0-.41,0-.64.03-.22.02-.42.04-.6.07v7.61h-2.79v-9.52Z"/><path class="cls-7" d="M978.01,341.34c-.71,0-1.42-.02-2.13-.07-.71-.04-1.44-.15-2.2-.31v-12.59c.6-.11,1.26-.2,1.97-.25.71-.06,1.37-.08,1.99-.08.82,0,1.58.06,2.28.18.69.12,1.29.32,1.79.61.5.29.89.67,1.17,1.13.28.47.42,1.05.42,1.73,0,1.04-.5,1.86-1.5,2.46.82.31,1.39.74,1.69,1.27s.45,1.14.45,1.82c0,1.36-.5,2.39-1.49,3.07-.99.69-2.47,1.03-4.43,1.03ZM976.53,333.28h1.42c.9,0,1.54-.12,1.93-.35s.58-.6.58-1.12-.2-.89-.6-1.11c-.4-.21-.99-.32-1.76-.32-.25,0-.52,0-.81,0-.29,0-.54.02-.77.05v2.83ZM976.53,335.51v3.35c.21.03.44.04.69.06s.52.02.82.02c.88,0,1.58-.12,2.12-.38s.81-.71.81-1.39c0-.6-.22-1.03-.67-1.28-.45-.26-1.09-.38-1.93-.38h-1.84Z"/><path class="cls-7" d="M990.03,341.36c-.81-.01-1.47-.1-1.98-.26s-.91-.39-1.2-.68-.49-.65-.6-1.07c-.11-.42-.16-.89-.16-1.42v-10.85l2.79-.45v10.74c0,.25.02.47.06.67.04.2.11.37.21.51.11.14.26.25.46.34.2.09.47.14.81.17l-.39,2.31Z"/><path class="cls-7" d="M1001.23,336.22c0,.78-.11,1.48-.34,2.13-.23.64-.55,1.19-.97,1.65-.42.46-.93.81-1.53,1.06-.59.25-1.26.38-2,.38s-1.38-.12-1.98-.38c-.59-.25-1.1-.6-1.53-1.06-.43-.46-.76-1-.99-1.65s-.36-1.35-.36-2.13.12-1.48.37-2.12c.24-.64.58-1.18,1.01-1.63.43-.45.94-.8,1.54-1.05s1.24-.38,1.94-.38,1.37.12,1.96.38,1.1.6,1.53,1.05c.42.45.76.99.99,1.63.24.64.36,1.34.36,2.12ZM998.38,336.22c0-.86-.17-1.54-.52-2.03s-.83-.74-1.47-.74-1.13.25-1.48.74-.52,1.17-.52,2.03.17,1.55.52,2.05.84.76,1.48.76,1.13-.25,1.47-.76.52-1.19.52-2.05Z"/><path class="cls-7" d="M1002.92,336.24c0-.71.12-1.38.35-2.01.23-.63.56-1.18,1-1.65.44-.47.97-.84,1.59-1.12.62-.27,1.34-.41,2.14-.41.52,0,1.01.05,1.44.14.44.09.86.23,1.27.4l-.58,2.23c-.26-.1-.55-.19-.86-.26s-.66-.11-1.05-.11c-.82,0-1.44.26-1.85.77-.41.51-.61,1.19-.61,2.02,0,.89.19,1.58.57,2.06s1.05.73,2,.73c.34,0,.7-.03,1.09-.09.39-.06.74-.16,1.07-.3l.39,2.29c-.32.14-.73.26-1.22.36s-1.02.15-1.61.15c-.9,0-1.67-.13-2.32-.4-.65-.27-1.18-.63-1.6-1.1-.42-.46-.73-1.01-.92-1.64s-.29-1.32-.29-2.05Z"/><path class="cls-7" d="M1015.55,334.85c.27-.3.56-.61.85-.93.29-.32.58-.64.85-.96.27-.32.53-.62.78-.9.24-.29.45-.53.63-.75h3.32c-.66.76-1.31,1.49-1.94,2.18-.63.69-1.32,1.41-2.07,2.14.38.34.76.74,1.16,1.21.4.47.79.95,1.16,1.46s.72,1,1.03,1.5c.31.5.58.96.79,1.37h-3.21c-.2-.33-.43-.69-.68-1.08s-.53-.79-.81-1.18c-.29-.39-.59-.77-.91-1.14-.32-.36-.63-.67-.95-.92v4.32h-2.79v-14.09l2.79-.45v8.23Z"/><path class="cls-7" d="M1032.1,328.03c1.95,0,3.44.35,4.48,1.04s1.56,1.77,1.56,3.23c0,.91-.21,1.65-.63,2.22-.42.57-1.02,1.02-1.81,1.34.26.32.54.7.83,1.11.29.42.57.86.85,1.31s.55.93.82,1.42c.26.49.51.98.73,1.45h-3.27c-.24-.42-.48-.86-.72-1.29-.25-.44-.5-.86-.75-1.27-.26-.41-.51-.8-.76-1.17-.25-.37-.5-.7-.75-1h-1.44v4.74h-2.92v-12.8c.64-.12,1.3-.21,1.98-.26s1.29-.08,1.83-.08ZM1032.27,330.52c-.21,0-.4,0-.57.02s-.33.03-.48.04v3.52h.83c1.1,0,1.89-.14,2.36-.41.47-.27.71-.74.71-1.41s-.24-1.09-.72-1.36c-.48-.27-1.19-.4-2.13-.4Z"/><path class="cls-7" d="M1039.67,336.31c0-.87.13-1.64.4-2.3s.62-1.2,1.06-1.64c.44-.44.94-.77,1.51-.99.57-.23,1.15-.34,1.75-.34,1.4,0,2.5.43,3.32,1.28s1.22,2.12,1.22,3.78c0,.16,0,.34-.02.53-.01.19-.03.37-.04.52h-6.33c.06.57.33,1.03.81,1.37.47.34,1.11.51,1.91.51.51,0,1.01-.05,1.51-.14.49-.09.9-.21,1.21-.35l.38,2.27c-.15.08-.35.15-.6.23-.25.07-.53.14-.83.2-.31.06-.63.1-.98.14-.35.04-.7.06-1.05.06-.89,0-1.66-.13-2.31-.39-.66-.26-1.2-.62-1.63-1.08-.43-.46-.75-1-.96-1.62s-.31-1.3-.31-2.02ZM1046.23,335.25c-.01-.24-.05-.47-.12-.69s-.17-.42-.32-.6-.33-.32-.54-.43c-.22-.11-.49-.17-.81-.17s-.58.05-.81.16c-.22.11-.41.25-.56.42-.15.17-.27.38-.35.61-.08.23-.14.47-.18.7h3.69Z"/><path class="cls-7" d="M1053.92,339.16c.51,0,.87-.05,1.09-.15.21-.1.32-.29.32-.58,0-.22-.14-.42-.41-.59-.28-.17-.69-.36-1.26-.57-.44-.16-.83-.33-1.19-.51s-.66-.38-.91-.63c-.25-.24-.44-.53-.58-.87-.14-.34-.21-.74-.21-1.22,0-.92.34-1.66,1.03-2.19.69-.54,1.63-.81,2.83-.81.6,0,1.17.05,1.72.16.55.11.99.22,1.31.35l-.49,2.17c-.33-.11-.68-.21-1.06-.3-.38-.09-.81-.13-1.28-.13-.88,0-1.31.24-1.31.73,0,.11.02.21.06.3.04.09.11.17.22.25.11.08.27.17.46.26.19.09.44.2.74.31.61.23,1.12.45,1.52.67.4.22.72.46.95.71.23.26.39.54.49.85.09.31.14.67.14,1.08,0,.97-.37,1.71-1.1,2.21-.73.5-1.77.75-3.1.75-.87,0-1.6-.08-2.18-.23-.58-.15-.98-.27-1.21-.37l.47-2.27c.47.19.96.33,1.46.44.5.11.99.16,1.48.16Z"/><path class="cls-7" d="M1069.4,336.22c0,.78-.11,1.48-.34,2.13-.23.64-.55,1.19-.97,1.65-.42.46-.93.81-1.53,1.06-.59.25-1.26.38-2,.38s-1.38-.12-1.98-.38c-.59-.25-1.1-.6-1.53-1.06-.43-.46-.76-1-.99-1.65s-.36-1.35-.36-2.13.12-1.48.37-2.12c.24-.64.58-1.18,1.01-1.63.43-.45.94-.8,1.54-1.05s1.24-.38,1.94-.38,1.37.12,1.96.38,1.1.6,1.53,1.05c.42.45.76.99.99,1.63.24.64.36,1.34.36,2.12ZM1066.55,336.22c0-.86-.17-1.54-.52-2.03s-.83-.74-1.47-.74-1.13.25-1.48.74-.52,1.17-.52,2.03.17,1.55.52,2.05.84.76,1.48.76,1.13-.25,1.47-.76.52-1.19.52-2.05Z"/><path class="cls-7" d="M1079.97,340.83c-.48.14-1.09.27-1.84.38s-1.54.18-2.36.18-1.53-.11-2.09-.34c-.56-.22-1-.54-1.32-.95-.33-.41-.56-.89-.69-1.45-.14-.56-.21-1.18-.21-1.86v-5.49h2.79v5.15c0,.9.12,1.55.36,1.95.24.4.68.6,1.33.6.2,0,.41,0,.64-.03s.42-.04.6-.07v-7.61h2.79v9.52Z"/><path class="cls-7" d="M1088.53,333.78c-.25-.06-.54-.13-.88-.2-.34-.07-.7-.1-1.09-.1-.17,0-.38.02-.63.05-.24.03-.43.07-.55.1v7.53h-2.79v-9.33c.5-.17,1.09-.34,1.77-.5s1.44-.23,2.28-.23c.15,0,.33,0,.54.03.21.02.42.04.64.08s.42.07.64.11c.21.04.39.1.54.16l-.47,2.3Z"/><path class="cls-7" d="M1089.85,336.24c0-.71.12-1.38.35-2.01.23-.63.56-1.18,1-1.65.44-.47.97-.84,1.59-1.12.62-.27,1.34-.41,2.14-.41.52,0,1.01.05,1.44.14.44.09.86.23,1.27.4l-.58,2.23c-.26-.1-.55-.19-.86-.26s-.66-.11-1.05-.11c-.82,0-1.44.26-1.85.77-.41.51-.61,1.19-.61,2.02,0,.89.19,1.58.57,2.06s1.05.73,2,.73c.34,0,.7-.03,1.09-.09.39-.06.74-.16,1.07-.3l.39,2.29c-.32.14-.73.26-1.22.36s-1.02.15-1.61.15c-.9,0-1.67-.13-2.32-.4-.65-.27-1.18-.63-1.6-1.1-.42-.46-.73-1.01-.92-1.64s-.29-1.32-.29-2.05Z"/><path class="cls-7" d="M1098.75,336.31c0-.87.13-1.64.4-2.3s.62-1.2,1.06-1.64c.44-.44.94-.77,1.51-.99.57-.23,1.15-.34,1.75-.34,1.4,0,2.5.43,3.32,1.28s1.22,2.12,1.22,3.78c0,.16,0,.34-.02.53-.01.19-.03.37-.04.52h-6.33c.06.57.33,1.03.81,1.37.47.34,1.11.51,1.91.51.51,0,1.01-.05,1.51-.14.49-.09.9-.21,1.21-.35l.38,2.27c-.15.08-.35.15-.6.23-.25.07-.53.14-.83.2-.31.06-.63.1-.98.14-.35.04-.7.06-1.05.06-.89,0-1.66-.13-2.31-.39-.66-.26-1.2-.62-1.63-1.08-.43-.46-.75-1-.96-1.62s-.31-1.3-.31-2.02ZM1105.31,335.25c-.01-.24-.05-.47-.12-.69s-.17-.42-.32-.6-.33-.32-.54-.43c-.22-.11-.49-.17-.81-.17s-.58.05-.81.16c-.22.11-.41.25-.56.42-.15.17-.27.38-.35.61-.08.23-.14.47-.18.7h3.69Z"/></svg>