<?xml version="1.0" encoding="UTF-8"?><svg xmlns="http://www.w3.org/2000/svg" xmlns:xlink="http://www.w3.org/1999/xlink" viewBox="0 0 1129.89 365.78"><defs><style>.cls-1{fill:url(#linear-gradient);}.cls-1,.cls-2,.cls-3,.cls-4,.cls-5,.cls-6,.cls-7,.cls-8,.cls-9,.cls-10,.cls-11,.cls-12,.cls-13{stroke-width:0px;}.cls-2{fill:#223654;}.cls-3{fill:url(#linear-gradient-6);}.cls-4{fill:url(#linear-gradient-5);}.cls-5{fill:none;}.cls-6{fill:#719cf9;}.cls-14{clip-path:url(#clippath-1);}.cls-7{fill:#fff;}.cls-8{fill:url(#linear-gradient-2);}.cls-9{fill:url(#linear-gradient-3);}.cls-10{fill:#3bc81e;}.cls-15{clip-path:url(#clippath);}.cls-11{fill:#a3ea2a;}.cls-12{fill:url(#linear-gradient-4);}.cls-13{fill:#ecbb0a;}</style><linearGradient id="linear-gradient" x1="227.43" y1="145.94" x2="915.42" y2="145.94" gradientUnits="userSpaceOnUse"><stop offset=".34" stop-color="#223654"/><stop offset=".4" stop-color="#38554c"/><stop offset=".5" stop-color="#5e8940"/><stop offset=".6" stop-color="#7bb336"/><stop offset=".68" stop-color="#91d12f"/><stop offset=".76" stop-color="#9ee32b"/><stop offset=".81" stop-color="#a3ea2a"/></linearGradient><linearGradient id="linear-gradient-2" x1="180.94" y1="179" x2="439.09" y2="179" gradientUnits="userSpaceOnUse"><stop offset=".15" stop-color="#223654"/><stop offset=".22" stop-color="#38554c"/><stop offset=".37" stop-color="#5e8940"/><stop offset=".5" stop-color="#7bb336"/><stop offset=".63" stop-color="#91d12f"/><stop offset=".73" stop-color="#9ee32b"/><stop offset=".81" stop-color="#a3ea2a"/></linearGradient><linearGradient id="linear-gradient-3" y1="88.01" y2="88.01" gradientTransform="translate(0 200.9) scale(1 -1)" xlink:href="#linear-gradient-2"/><clipPath id="clippath"><rect class="cls-5" x="245.58" y="59.31" width="56.34" height="56.34" rx="6.17" ry="6.17"/></clipPath><linearGradient id="linear-gradient-4" x1="860.99" y1="170.03" x2="1035.75" y2="170.03" gradientTransform="translate(0 356.8) scale(1 -1)" xlink:href="#linear-gradient-2"/><linearGradient id="linear-gradient-5" x1="860.99" y1="68.25" x2="1035.75" y2="68.25" gradientTransform="translate(0 36.86)" xlink:href="#linear-gradient-2"/><clipPath id="clippath-1"><rect class="cls-5" x="1029.35" y="175.04" width="56.34" height="56.34" rx="6.17" ry="6.17" transform="translate(2115.04 406.41) rotate(180)"/></clipPath><linearGradient id="linear-gradient-6" x1="1001.4" y1="228.76" x2="-23.06" y2="228.76" xlink:href="#linear-gradient-2"/></defs><g id="Layer_1"><rect class="cls-2" x="517.39" y="9.03" width="232.76" height="42.51" rx="10.64" ry="10.64"/><rect class="cls-2" x="96.65" y="9.03" width="100.03" height="42.51" rx="10.64" ry="10.64"/><rect class="cls-2" x="62.08" y="237.98" width="173.58" height="42.51" rx="10.64" ry="10.64"/><rect class="cls-2" x="913.22" y="9.03" width="209.56" height="42.51" rx="10.64" ry="10.64"/><circle class="cls-2" cx="146.67" cy="145.94" r="82.8"/><g id="arrow_styles_for_diagrams_etc"><g id="arrow_styles_for_diagrams_etc-2"><path class="cls-1" d="M865.21,146.77l-21.86,12.57c-.65.37-1.45-.09-1.45-.84v-6.48h-196.02s-202.09,0-225.19,0c-1.19,0-2.14-.96-2.14-2.15v-7.84c0-1.19.96-2.15,2.15-2.15h421.21v-6.48c0-.75.81-1.21,1.45-.84l21.86,12.57c.65.37.65,1.29,0,1.66Z"/></g></g><rect class="cls-10" x="463.67" y="117.77" width="56.34" height="56.34" rx="6.17" ry="6.17"/><rect class="cls-10" x="534.89" y="117.77" width="56.34" height="56.34" rx="6.17" ry="6.17"/><rect class="cls-13" x="605.6" y="117.77" width="56.34" height="56.34" rx="6.17" ry="6.17"/><rect class="cls-6" x="675.8" y="117.77" width="56.34" height="56.34" rx="6.17" ry="6.17"/><rect class="cls-6" x="746.51" y="117.77" width="56.34" height="56.34" rx="6.17" ry="6.17"/><path class="cls-8" d="M412.39,161.37l-21.86-12.57c-.65-.37-1.45.09-1.45.84v6.48h-56.61c-1.25,0-2.27,1.01-2.27,2.27v36.88c0,1.05-.85,1.89-1.89,1.89h-132.05v12.15h144.2c1.05,0,1.89-.85,1.89-1.89v-36.88c0-1.25,1.01-2.27,2.27-2.27h44.46v6.48c0,.75.81,1.21,1.45.84l21.86-12.57c.65-.37.65-1.29,0-1.66Z"/><path class="cls-9" d="M412.39,130.51l-21.86,12.57c-.65.37-1.45-.09-1.45-.84v-6.48h-57.26c-.89,0-1.62-.72-1.62-1.62v-37.44c0-1.1-.89-1.99-1.99-1.99h-131.95v-12.15h144.1c1.1,0,1.99.89,1.99,1.99v37.43c0,.89.72,1.62,1.62,1.62h45.11v-6.48c0-.75.81-1.21,1.45-.84l21.86,12.57c.65.37.65,1.29,0,1.66Z"/><rect class="cls-10" x="245.58" y="175.04" width="56.34" height="56.34" rx="6.17" ry="6.17"/><rect class="cls-6" x="245.58" y="59.31" width="56.34" height="56.34" rx="6.17" ry="6.17"/><rect class="cls-10" x="1029.35" y="175.04" width="56.34" height="56.34" rx="6.17" ry="6.17"/><rect class="cls-6" x="1029.35" y="59.31" width="56.34" height="56.34" rx="6.17" ry="6.17"/><g class="cls-15"><polygon class="cls-13" points="240.8 98.01 304.57 98.01 304.57 122.09 242.84 122.09 240.8 98.01"/></g><path class="cls-12" d="M1017.51,204.4l-21.86,12.57c-.65.37-1.45-.09-1.45-.84v-6.48h-56.61c-1.25,0-2.27-1.01-2.27-2.27v-36.88c0-1.05-.85-1.89-1.89-1.89h-60c-1.15,0-2.07-.93-2.07-2.07v-8c0-1.15.93-2.07,2.07-2.07h72.15c1.05,0,1.89.85,1.89,1.89v36.88c0,1.25,1.01,2.27,2.27,2.27h44.46v-6.48c0-.75.81-1.21,1.45-.84l21.86,12.57c.65.37.65,1.29,0,1.66Z"/><path class="cls-4" d="M1017.51,87.48l-21.86-12.57c-.65-.37-1.45.09-1.45.84v6.48h-57.26c-.89,0-1.62.72-1.62,1.62v37.44c0,1.1-.89,1.99-1.99,1.99h-59.9c-1.15,0-2.07.93-2.07,2.07v8c0,1.15.93,2.07,2.07,2.07h72.05c1.1,0,1.99-.89,1.99-1.99v-37.43c0-.89.72-1.62,1.62-1.62h45.11v6.48c0,.75.81,1.21,1.45.84l21.86-12.57c.65-.37.65-1.29,0-1.66Z"/><g class="cls-14"><polygon class="cls-13" points="1090.47 192.67 1026.7 192.67 1026.7 168.6 1088.43 168.6 1090.47 192.67"/></g><path class="cls-3" d="M1015.93,261.72v48.03c0,.84-.68,1.53-1.53,1.53H21.76c-1.37,0-2.49-1.11-2.49-2.49v-152.82c0-1.25,1.01-2.27,2.27-2.27h28.91v6.48c0,.75.81,1.21,1.45.84l21.86-12.57c.65-.37.65-1.29,0-1.66l-21.86-12.57c-.65-.37-1.45.09-1.45.84v6.48H9.38c-1.25,0-2.27,1.01-2.27,2.27v177.13c0,1.37,1.11,2.49,2.49,2.49h1016.95c.84,0,1.53-.68,1.53-1.53v-60.18c0-1.43-1.16-2.59-2.59-2.59h-6.97c-1.43,0-2.59,1.16-2.59,2.59Z"/><path class="cls-7" d="M146.67,107.54c-21.29,0-38.61,17.32-38.61,38.61s17.32,38.61,38.61,38.61,38.61-17.32,38.61-38.61-17.32-38.61-38.61-38.61ZM111.37,147.76h12.3c.11,4.45.66,8.71,1.6,12.65h-10.95c-1.73-3.9-2.74-8.17-2.95-12.65ZM148.28,128.35v-17.37c6.6.95,12.28,7.69,15.47,17.37h-15.47ZM164.69,131.58c1.02,3.99,1.62,8.35,1.75,12.96h-18.16v-12.96h16.41ZM145.05,110.98v17.37h-15.47c3.19-9.68,8.87-16.41,15.47-17.37ZM145.05,131.58v12.96h-18.15c.12-4.6.72-8.97,1.75-12.96h16.4ZM123.67,144.53h-12.31c.2-4.6,1.28-8.97,3.1-12.96h10.89c-.99,4.03-1.57,8.4-1.68,12.96ZM126.89,147.76h18.16v12.65h-16.52c-.96-3.9-1.53-8.17-1.65-12.65ZM145.05,163.64v17.74c-6.68-.97-12.43-7.86-15.59-17.74h15.59ZM148.28,181.38v-17.74h15.59c-3.16,9.87-8.91,16.78-15.59,17.74ZM148.28,160.41v-12.65h18.16c-.11,4.48-.68,8.75-1.65,12.65h-16.52ZM169.67,147.76h12.3c-.2,4.48-1.22,8.75-2.95,12.65h-10.95c.94-3.94,1.49-8.19,1.6-12.65ZM169.66,144.53c-.12-4.57-.69-8.94-1.68-12.96h10.89c1.81,3.99,2.88,8.36,3.1,12.96h-12.31ZM177.19,128.35h-10.11c-2.06-6.56-5.2-12-9.04-15.66,8.11,2.76,14.88,8.38,19.15,15.66ZM135.29,112.68c-3.84,3.66-6.98,9.11-9.04,15.66h-10.11c4.26-7.28,11.04-12.91,19.15-15.66ZM115.95,163.64h10.2c2.03,6.67,5.18,12.21,9.05,15.94-8.19-2.82-15.01-8.54-19.24-15.94ZM158.15,179.58c3.86-3.73,7.01-9.27,9.05-15.94h10.2c-4.24,7.4-11.06,13.12-19.24,15.94Z"/><rect class="cls-6" x="418.42" y="274.98" width="81.77" height="81.77" rx="6.17" ry="6.17"/><rect class="cls-13" x="522.18" y="274.98" width="81.77" height="81.77" rx="6.17" ry="6.17"/><path class="cls-7" d="M562.3,282.27c-.15.01-.65.04-1.12.08-5.21.37-10.07,1.76-13.13,3.76-2.4,1.58-4.49,3.98-5.82,6.68-1.73,3.54-2.13,7-1.29,11.23.67,3.34,2.18,6.54,4.05,8.56l.35.38-.21,1.09c-.2,1.03-.21,1.15-.22,2.18-.01,1.22.05,1.79.29,2.8.28,1.16.74,2.11,1.34,2.82l.29.34-1.05-.51c-3.77-1.82-5.68-2.82-6.02-3.16-.35-.34-.6-.72-1.1-1.73-.54-1.08-.77-1.43-1.28-1.94-.69-.69-1.58-1.18-2.41-1.34-.64-.11-1.29.1-1.79.6-.81.8-1.12,1.74-1.28,3.88l-.07.93-.63.56c-1.82,1.6-2.54,2.72-2.44,3.79.11,1.22,1.19,2.01,3.2,2.33.73.12,1.42.09,2.64-.09.9-.14,1.2-.16,1.72-.15l.63.03,1.91.9c3.27,1.54,5.05,2.39,7.28,3.48,1.18.57,2.61,1.26,3.16,1.53l1.01.49v.61s-.02.61-.02.61l-.86.46c-2.94,1.56-5.06,2.6-6.99,3.42-1.34.57-1.61.67-2.17.74-.54.07-.72.05-1.76-.21-.72-.19-.86-.2-1.58-.2-.83,0-1.31.08-2.13.33-.51.16-.84.4-1.16.86-.38.53-.5.89-.49,1.51,0,1.04.26,1.44,1.92,3.02.66.63,1.2,1.16,1.2,1.17s.04.23.08.47c.04.24.13.96.2,1.61.13,1.35.22,1.68.6,2.25.28.42.63.72,1.06.92.22.1.37.13.82.13.64,0,1.04-.13,1.64-.52.58-.38,1.56-1.58,2.27-2.76.32-.53.72-1.17.9-1.42l.33-.46,4.24-2.25,4.25-2.25.27.31c1.56,1.79,2.74,2.61,4.62,3.22,2.04.67,3.51.88,6.12.88,1.6,0,2.34-.05,3.43-.22,1.74-.28,3.76-1.01,4.95-1.81.66-.44,1.6-1.26,2.11-1.86.27-.31.49-.51.53-.5.04.02,1.92.99,4.18,2.16l4.1,2.13.37.39c.47.48.75.92,1.19,1.85.44.91.71,1.28,1.36,1.85,1.41,1.24,2.37,1.55,3.35,1.1.47-.22.93-.69,1.18-1.22.37-.77.52-1.52.66-3.12.05-.58.11-1.01.15-1.06.03-.04.48-.44.98-.87,1.71-1.47,2.22-2.25,2.15-3.28-.03-.52-.2-.88-.63-1.32-.49-.51-.99-.77-2-1.05-1.01-.27-1.99-.27-3.13.03-1.42.37-1.53.35-4.2-.89-1.12-.52-3.25-1.5-4.73-2.19l-2.68-1.24v-.68s.03-.69.03-.69l2.59-1.22c8.08-3.81,10.57-4.98,10.82-5.06.15-.05.48-.1.74-.12.4-.02.57,0,1.3.17.94.22,1.37.25,2.54.14.84-.08,1.39-.21,1.91-.46.74-.35,1.21-.86,1.45-1.55.14-.4.19-1.01.11-1.3-.12-.45-1.14-1.71-2.32-2.84l-.74-.72v-.38c0-.9-.33-2.56-.7-3.53-.23-.61-.62-1.04-1.19-1.31-.4-.2-.44-.21-.96-.2-.46,0-.61.02-.92.15-.51.2-1.01.53-1.65,1.11-.68.61-.99,1.07-1.44,2.1-.4.93-.7,1.43-1.11,1.86-.27.28-.42.37-1.46.88-.64.31-2.09,1.02-3.22,1.58l-2.06,1.01.21-.26c.5-.61.84-1.25,1.13-2.1.39-1.18.55-2.35.5-3.77-.03-.86-.06-1.12-.27-2.16l-.23-1.18.21-.21c.33-.32,1.17-1.31,1.52-1.79,1.73-2.41,2.69-4.99,2.99-8.06.13-1.29.01-3.72-.25-5.12-.82-4.38-3.12-8.11-6.79-10.94-.63-.49-1.12-.8-1.83-1.15-2.59-1.3-7.1-2.51-10.77-2.9-.75-.08-4.18-.15-4.82-.1ZM567.2,284.11c3.91.49,8.51,1.82,10.57,3.06.99.6,2.69,2.12,3.6,3.22,2.1,2.52,3.27,5.35,3.62,8.72.09.9.08,2.87-.02,3.71-.29,2.28-1.03,4.32-2.23,6.16-.39.59-1.06,1.47-1.1,1.43-.01-.01-.06-.42-.11-.92-.11-1.06-.09-2.68.05-3.44.05-.26.26-.97.47-1.58.21-.61.45-1.35.52-1.65.29-1.17.38-3.62.16-4.42-.13-.49-.44-1.07-.72-1.39l-.25-.28-.54.53c-.68.67-.69.69-.51.88.37.39.49,1.08.41,2.43-.09,1.48-.12,1.62-.75,3.49-.46,1.36-.53,1.67-.62,2.91-.05.74-.05,1.15,0,1.91.09,1.42.21,2.15.8,5.16.23,1.19.25,1.3.25,2.19,0,1.6-.23,2.72-.8,3.8-.49.93-1.17,1.34-3.53,2.16-.54.19-1.25.47-1.58.63-.6.29-1.64.95-2.21,1.41-.7.56-1.46,1.76-1.68,2.68-.06.24-.13.7-.15,1.02l-.03.58-.36.11c-1.55.46-3.22.64-6.38.69-3.29.05-5.38-.13-7-.59l-.43-.13-.02-.49c-.05-1.16-.41-2.14-1.14-3.09-.39-.51-.71-.81-1.39-1.29-.9-.65-1.5-.94-2.61-1.29-1.71-.54-2.1-.69-2.75-1.07-1.05-.61-1.59-1.5-1.95-3.22-.11-.55-.13-.78-.13-1.77v-1.14l.31-1.53c.56-2.76.69-3.67.74-5.18.03-1.2-.04-2.26-.2-3.03-.06-.26-.28-.96-.49-1.58-.21-.61-.43-1.25-.47-1.43-.11-.43-.24-1.77-.24-2.55,0-.93.13-1.41.46-1.74l.15-.14-.61-.62-.6-.62-.27.29c-.32.34-.61.92-.74,1.46-.12.47-.13,2.02-.03,3.03.09.9.25,1.55.71,2.87.44,1.28.53,1.67.61,2.75.07,1.02-.06,3.18-.22,3.48-.03.05-.14-.07-.37-.38-1.94-2.73-3.12-6.65-3.13-10.38,0-1.71.28-3.27.9-4.93,1.17-3.12,3.4-5.93,6.03-7.58,2.77-1.73,7.16-2.97,11.79-3.33.42-.03.87-.07,1.01-.08s1.2-.01,2.37,0c1.53.02,2.33.04,2.83.1ZM592.89,315.18c.12.1.2.27.34.68.29.92.39,1.47.43,2.53.02.61.07,1.03.1,1.11.04.07.59.64,1.23,1.28.64.63,1.3,1.35,1.47,1.58.29.39.32.44.28.63-.09.48-.7.79-1.77.9-1.04.11-1.41.09-2.23-.12-.65-.17-.81-.19-1.42-.19-.84,0-1.31.12-2.26.55-.37.16-3.27,1.53-6.46,3.04l-5.81,2.74-.02-.19c-.02-.25.13-1.22.3-1.89.15-.59.57-1.86.75-2.28l.11-.26,5.04-2.47,5.04-2.47.46-.43c.58-.55.92-1.02,1.32-1.88.82-1.72.78-1.66,1.17-2.01,1.01-.95,1.53-1.18,1.92-.85ZM535.32,315.45c.47.24,1.04.74,1.31,1.19.12.19.41.74.66,1.24.49.99.93,1.6,1.47,2.05.37.31,1.49.92,3.8,2.08,2.21,1.1,6.66,3.23,6.75,3.23.04,0,.09.04.11.09.02.05.17.49.34.97.46,1.3.7,2.32.77,3.23l.03.46-.62-.3c-.34-.16-1.56-.75-2.72-1.31-2.3-1.12-5.63-2.71-8.11-3.87-1.43-.67-1.65-.75-2.1-.83-.66-.11-1.55-.07-2.65.11-1.02.17-1.85.19-2.52.04-.92-.21-1.36-.45-1.36-.75,0-.2.28-.71.63-1.13.16-.2.71-.72,1.22-1.18s.98-.91,1.04-1.01c.14-.22.18-.53.27-1.92.05-.89.22-1.72.4-2.08.04-.09.17-.26.28-.37.17-.19.21-.2.39-.17.11.02.38.12.59.22ZM576.33,324.64c-.77,1.91-1.25,3.8-1.27,4.99,0,.28.04.76.1,1.12.08.47.1.89.1,1.69,0,1.85-.29,3.33-.9,4.54-.83,1.65-2.23,3.17-3.73,4.03-.71.41-2.15.93-3.3,1.18-1.11.25-3.04.35-4.93.27-1.67-.08-2.78-.27-4.33-.77-1.33-.43-2.02-.86-3.13-1.98-1.35-1.35-2.15-2.69-2.53-4.22-.43-1.76-.5-3.56-.19-5.14.21-1.06-.28-3.35-1.23-5.7-.13-.31-.22-.58-.2-.59.05-.05.63.17.65.25.02.05.18.45.37.9,1.05,2.58,1.62,4.76,2,7.65l.09.72.67.65c1.79,1.73,3.86,2.54,7.28,2.85,1.17.1,3.6.09,4.42-.02,3.19-.45,5.91-1.74,6.91-3.29.2-.3.23-.4.28-.87.28-2.26.64-3.89,1.34-5.93.31-.9.96-2.61,1.03-2.68.04-.04.66-.29.72-.29.03,0-.06.29-.2.65ZM553.22,325.23c1.06.78,1.59,1.68,1.68,2.9l.03.44.27.15.27.15-.03,1.58c-.02.87-.03,2-.03,2.51v.92l-.33-.32c-.18-.18-.34-.36-.35-.41-.01-.04-.1-.61-.19-1.25s-.23-1.47-.31-1.83c-.27-1.28-.84-3.17-1.38-4.57-.15-.38-.25-.69-.22-.68.02.01.29.2.59.41ZM574.35,325.55c-.29.77-.82,2.43-1.03,3.24-.29,1.1-.4,1.7-.61,3.09-.19,1.35-.22,1.46-.59,1.81l-.19.18-.03-1.76c-.02-.97-.04-2.1-.04-2.53v-.76l.32-.16c.35-.16.39-.23.39-.7,0-.58.32-1.37.76-1.92.23-.29,1.13-1.04,1.18-.98.02.01-.06.24-.16.51ZM571.2,330.39v.87s-.23.14-.23.14c-.29.19-.89.49-.96.49-.04,0-.05-.39-.04-1.21l.02-1.21.57-.17.57-.16.04.19c.02.1.04.58.04,1.06ZM556.81,329.36l.5.15v2.43l-.39-.2c-.22-.11-.49-.26-.6-.33l-.21-.13v-1.06c.02-.96.03-1.06.11-1.04.05.01.32.09.59.18ZM569.3,330.94v1.27l-.26.08c-.27.09-.75.22-1.01.28l-.15.03v-1.39c0-1.07.02-1.39.07-1.4.03,0,.34-.05.67-.1.33-.05.62-.08.64-.07.02.01.04.59.04,1.29ZM558.69,329.76c.18.03.41.05.51.05h.18v1.39c0,.76-.02,1.39-.04,1.39-.05,0-.72-.18-1.05-.28l-.25-.08-.02-1.29v-1.3s.16.03.16.03c.1.02.33.05.5.09ZM567.19,331.27c.01.77.01,1.42,0,1.42,0,.01-.26.05-.56.09l-.55.07v-2.86s.19-.05.42-.07c.23-.02.48-.03.55-.04h.12s.02,1.39.02,1.39ZM561.22,330s.01.67,0,1.46l-.02,1.44-.57-.07c-.32-.04-.58-.08-.59-.09s0-.65.02-1.42l.04-1.41.55.04c.3.02.56.05.56.05ZM562.82,330.04h.54v2.94h-1.42v-3.01l.17.04c.09.02.41.03.71.03ZM565.38,331.43c0,1.11-.02,1.46-.07,1.47-.04.01-.33.03-.66.04l-.58.02v-2.97h1.31v1.44ZM557.31,333.89c0,.67-.02,1.22-.04,1.22-.05,0-.72-.38-.97-.55l-.22-.15.02-1.15.02-1.14.59.28.59.28v1.21ZM571.2,333.29l-.02,1.19-.44.26c-.24.14-.5.28-.58.31l-.15.05-.02-1.2-.02-1.2.57-.29c.32-.16.59-.29.62-.3.02,0,.03.53.03,1.18ZM569.3,334.18v1.25l-.67.21c-.37.12-.68.21-.68.21,0,0-.03-.57-.04-1.27l-.04-1.26.24-.05c.21-.05,1.14-.31,1.18-.33,0,0,.01.56.01,1.25ZM558.73,333.16c.49.14.63.2.62.27,0,.05,0,.61-.01,1.24v1.15s-.16-.03-.16-.03c-.09-.02-.39-.11-.69-.21l-.53-.16.02-1.22c.02-.77.04-1.22.08-1.22.03,0,.34.08.68.18ZM567.23,334.71v1.3l-.39.07c-.22.04-.48.08-.57.1l-.18.03v-2.67l.45-.05c.25-.03.5-.05.57-.06h.12s0,1.29,0,1.29ZM560.9,333.56l.34.04v1.27c0,.99-.02,1.28-.07,1.28-.07,0-.57-.07-.95-.14l-.18-.03v-2.52l.26.03c.14.02.41.05.6.07ZM565.38,334.91c0,1.16-.01,1.34-.09,1.36-.05.02-.34.03-.65.03h-.57v-2.67l.53-.02c.29,0,.58-.02.65-.03h.12s0,1.32,0,1.32ZM563.35,334.99v1.3s-.57-.02-.57-.02c-.33-.01-.64-.03-.71-.05l-.13-.02v-2.55l.7.02.69.02.02,1.3ZM550.66,335.6c.16.76.39,1.43.72,2.13.15.32.28.59.29.61s-1.83,1.01-4.08,2.2c-2.26,1.19-4.22,2.24-4.36,2.33-.38.23-.96,1.04-1.86,2.55-.52.88-1.32,1.86-1.74,2.14-.28.19-.67.26-.84.16-.07-.03-.18-.17-.26-.31-.13-.23-.16-.37-.27-1.46-.14-1.35-.32-2.43-.44-2.69-.04-.09-.68-.74-1.41-1.43-1.45-1.38-1.59-1.55-1.54-1.99.03-.28.22-.56.42-.63.34-.14,1.16-.27,1.64-.27.43,0,.65.04,1.25.2,1.38.37,2.51.31,3.73-.16.95-.38,2.3-.96,3.46-1.5.98-.46,4.54-2.27,4.93-2.51.21-.13.19-.16.37.66ZM578.49,335.67c5.43,2.52,7.29,3.37,7.63,3.47.79.25,1.76.23,2.85-.05.35-.09.82-.18,1.03-.2.92-.08,2.38.4,2.62.87.08.15.08.18-.03.39-.17.35-.64.84-1.64,1.7-1.14.98-1.35,1.19-1.41,1.44-.03.11-.1.76-.17,1.44-.16,1.82-.33,2.5-.69,2.86-.16.16-.21.18-.38.15-.26-.04-.8-.41-1.36-.94-.44-.4-.46-.45-.94-1.38-.59-1.17-.9-1.63-1.56-2.27l-.49-.49-4.1-2.13c-2.26-1.17-4.13-2.14-4.16-2.15-.03-.02.08-.32.27-.71.39-.82.57-1.35.73-2.16.07-.34.13-.62.13-.62,0,0,.76.35,1.69.78Z"/><path class="cls-7" d="M557.53,307.21s-.68.11-1.47.2c-1.51.18-3.39.44-4.06.57-1.16.22-2.12.93-2.59,1.91-.25.52-.33.87-.33,1.44s.09.84.72,2.34c.27.65.54,1.31.61,1.48.27.74,1.33,1.82,2.23,2.27,1.19.6,2.34.64,3.34.11,1.19-.63,4.09-4.66,4.5-6.26.12-.46.09-1.41-.05-1.92-.27-.95-.76-1.6-1.48-1.95-.31-.15-.43-.18-.88-.2-.28-.01-.53-.01-.55,0Z"/><path class="cls-7" d="M568.79,307.26c-.81.19-1.52.95-1.84,1.98-.15.49-.2,1.34-.11,1.87.17,1.01,1.61,3.36,3.24,5.27.76.89,1.37,1.3,2.21,1.48.47.1.88.07,1.52-.1,1.5-.39,2.67-1.47,3.31-3.05.9-2.21,1.05-2.61,1.11-2.87.29-1.53-.66-3.09-2.24-3.68-.49-.19-1.84-.4-4.9-.77-1.59-.2-1.95-.22-2.31-.13Z"/><path class="cls-7" d="M562.54,316.25c-.67.55-1.13,1.05-1.59,1.73-.87,1.28-1.24,2.41-1.34,4.11-.1,1.54.23,2.93.79,3.36.5.37,1.24-.03,2.32-1.24l.41-.46.02-3.95c.01-2.6,0-3.95-.04-3.96-.03-.01-.29.17-.58.41Z"/><path class="cls-7" d="M564.15,315.86s-.02,1.82,0,3.97l.04,3.91.26.32c.45.56,1.18,1.21,1.56,1.4.49.24.73.21,1.04-.14.5-.55.7-1.46.66-2.92-.05-1.55-.2-2.22-.75-3.36-.49-1.02-1.13-1.88-1.85-2.49-.79-.66-.92-.75-.95-.69Z"/><path class="cls-11" d="M114.56,39.57c-.7-1.48-1.39-3.01-2.07-4.6s-1.33-3.16-1.94-4.71c-.61-1.55-1.18-3.04-1.69-4.46s-.96-2.69-1.33-3.81h4.36c.33,1.02.69,2.11,1.1,3.29.4,1.17.81,2.34,1.23,3.51.42,1.17.82,2.28,1.2,3.35.38,1.07.75,1.99,1.1,2.77.33-.77.69-1.69,1.08-2.76.39-1.07.8-2.18,1.21-3.35s.83-2.33,1.23-3.51c.4-1.17.77-2.27,1.1-3.29h4.21c-.39,1.12-.85,2.39-1.36,3.81-.51,1.42-1.07,2.91-1.68,4.46-.61,1.56-1.25,3.13-1.93,4.72-.68,1.59-1.36,3.12-2.06,4.59h-3.77Z"/><path class="cls-11" d="M131.5,22.37c0,.69-.22,1.24-.67,1.64s-.98.6-1.58.6-1.14-.2-1.59-.6-.67-.94-.67-1.64.22-1.24.67-1.64c.45-.4.98-.6,1.59-.6s1.14.2,1.58.6c.45.4.67.94.67,1.64ZM131.14,39.57h-3.78v-13.34h3.78v13.34Z"/><path class="cls-11" d="M134.06,32.9c0-.96.16-1.87.47-2.73.31-.85.76-1.6,1.36-2.23.59-.63,1.31-1.14,2.16-1.51s1.81-.56,2.89-.56c.71,0,1.36.06,1.95.19.59.13,1.17.31,1.72.54l-.79,3.02c-.36-.13-.74-.25-1.17-.35s-.9-.15-1.42-.15c-1.12,0-1.95.35-2.5,1.04-.55.69-.82,1.61-.82,2.74,0,1.2.26,2.13.77,2.79s1.42.99,2.7.99c.46,0,.95-.04,1.47-.13.52-.08,1.01-.22,1.45-.41l.53,3.09c-.44.19-.99.35-1.65.48-.66.13-1.39.2-2.18.2-1.22,0-2.27-.18-3.15-.55-.88-.36-1.6-.86-2.17-1.48-.57-.62-.98-1.37-1.24-2.22-.26-.85-.39-1.78-.39-2.78Z"/><path class="cls-11" d="M147.25,22.9l3.78-.61v3.93h4.54v3.15h-4.54v4.69c0,.79.14,1.43.42,1.9.28.47.84.71,1.69.71.41,0,.82-.04,1.25-.11.43-.08.82-.18,1.18-.32l.53,2.94c-.46.19-.96.35-1.52.48-.56.14-1.24.2-2.05.2-1.03,0-1.89-.14-2.56-.42-.68-.28-1.22-.67-1.62-1.17-.41-.5-.69-1.1-.85-1.81-.16-.71-.24-1.5-.24-2.36v-11.21Z"/><path class="cls-11" d="M162.77,22.37c0,.69-.22,1.24-.67,1.64s-.98.6-1.58.6-1.14-.2-1.58-.6c-.45-.4-.67-.94-.67-1.64s.22-1.24.67-1.64c.45-.4.98-.6,1.58-.6s1.14.2,1.58.6c.45.4.67.94.67,1.64ZM162.42,39.57h-3.78v-13.34h3.78v13.34Z"/><path class="cls-11" d="M173.3,32.49c0-1.22-.16-2.08-.47-2.59-.31-.51-.85-.76-1.61-.76-.24,0-.48.01-.74.04-.25.03-.5.06-.74.09v10.3h-3.78v-12.89c.32-.08.7-.17,1.13-.27.43-.09.89-.18,1.37-.25.48-.08.98-.13,1.48-.18.51-.04,1.01-.06,1.5-.06.96,0,1.75.12,2.35.37.6.25,1.09.54,1.48.88.54-.39,1.16-.69,1.87-.91.7-.22,1.35-.33,1.94-.33,1.06,0,1.94.15,2.62.44s1.23.71,1.64,1.26c.41.54.69,1.18.84,1.93.15.74.23,1.57.23,2.49v7.53h-3.78v-7.08c0-1.22-.16-2.08-.47-2.59-.31-.51-.85-.76-1.61-.76-.2,0-.49.05-.85.15-.36.1-.66.23-.9.38.12.39.19.8.23,1.23.03.43.05.89.05,1.38v7.28h-3.78v-7.08Z"/><path class="cls-11" d="M543.1,21.99h3.96v17.58h-3.96v-7.46h-6.65v7.46h-3.96v-17.58h3.96v6.72h6.65v-6.72Z"/><path class="cls-11" d="M564.16,21.99v3.37h-5.3v14.2h-3.96v-14.2h-5.3v-3.37h14.56Z"/><path class="cls-11" d="M580.39,21.99v3.37h-5.3v14.2h-3.96v-14.2h-5.3v-3.37h14.56Z"/><path class="cls-11" d="M588.2,21.79c2.62,0,4.63.46,6.04,1.38,1.4.92,2.11,2.43,2.11,4.53s-.71,3.64-2.13,4.58c-1.42.94-3.45,1.41-6.09,1.41h-1.24v5.88h-3.96v-17.32c.86-.17,1.78-.29,2.74-.35.96-.07,1.81-.1,2.54-.1ZM588.46,25.16c-.29,0-.57,0-.85.03-.28.02-.52.03-.72.05v5.07h1.24c1.37,0,2.4-.19,3.09-.56.69-.37,1.04-1.07,1.04-2.08,0-.49-.09-.9-.27-1.22-.18-.32-.43-.58-.76-.77-.33-.19-.73-.33-1.2-.41-.47-.08-1-.11-1.57-.11Z"/><path class="cls-11" d="M604.46,32.9c0-.96.16-1.87.47-2.73.31-.85.77-1.6,1.36-2.23.59-.63,1.31-1.14,2.16-1.51.84-.37,1.81-.56,2.89-.56.71,0,1.36.06,1.95.19.59.13,1.17.31,1.72.54l-.79,3.02c-.36-.13-.74-.25-1.17-.35s-.9-.15-1.42-.15c-1.12,0-1.95.35-2.5,1.04-.55.69-.82,1.61-.82,2.74,0,1.2.26,2.13.77,2.79s1.42.99,2.7.99c.46,0,.95-.04,1.47-.13.52-.08,1.01-.22,1.45-.41l.53,3.09c-.44.19-.99.35-1.65.48-.66.13-1.39.2-2.18.2-1.22,0-2.27-.18-3.15-.55-.88-.36-1.6-.86-2.17-1.48-.57-.62-.98-1.37-1.24-2.22-.26-.85-.39-1.78-.39-2.78Z"/><path class="cls-11" d="M629.62,32.87c0,1.05-.15,2.01-.46,2.88-.3.87-.74,1.61-1.32,2.23-.58.62-1.26,1.1-2.07,1.43-.8.34-1.7.51-2.7.51s-1.87-.17-2.68-.51c-.8-.34-1.49-.82-2.07-1.43-.58-.62-1.02-1.36-1.34-2.23-.32-.87-.48-1.83-.48-2.88s.17-2,.49-2.87c.33-.86.79-1.6,1.37-2.21s1.28-1.08,2.08-1.42c.8-.34,1.68-.51,2.62-.51s1.85.17,2.65.51c.8.34,1.49.81,2.07,1.42s1.02,1.34,1.34,2.21c.32.86.48,1.82.48,2.87ZM625.77,32.87c0-1.17-.23-2.08-.7-2.75-.46-.67-1.13-1-1.99-1s-1.53.33-2,1c-.47.67-.71,1.59-.71,2.75s.24,2.09.71,2.78,1.14,1.03,2,1.03,1.53-.34,1.99-1.03.7-1.61.7-2.78Z"/><path class="cls-11" d="M632.54,26.68c.64-.19,1.47-.36,2.49-.52,1.01-.16,2.08-.24,3.2-.24s2.08.15,2.83.44c.75.3,1.35.71,1.79,1.26.44.54.75,1.18.94,1.93.19.74.28,1.57.28,2.49v7.53h-3.78v-7.08c0-1.22-.16-2.08-.48-2.59s-.92-.76-1.8-.76c-.27,0-.56.01-.86.04-.3.03-.58.06-.81.09v10.3h-3.78v-12.89Z"/><path class="cls-11" d="M647.48,26.68c.64-.19,1.47-.36,2.49-.52,1.01-.16,2.08-.24,3.2-.24s2.08.15,2.83.44c.75.3,1.35.71,1.79,1.26.44.54.75,1.18.94,1.93.19.74.28,1.57.28,2.49v7.53h-3.78v-7.08c0-1.22-.16-2.08-.48-2.59s-.92-.76-1.8-.76c-.27,0-.56.01-.86.04-.3.03-.58.06-.81.09v10.3h-3.78v-12.89Z"/><path class="cls-11" d="M661.79,33c0-1.18.18-2.22.54-3.11s.84-1.63,1.43-2.22c.59-.59,1.27-1.04,2.04-1.34.77-.3,1.56-.46,2.37-.46,1.89,0,3.39.58,4.49,1.74,1.1,1.16,1.65,2.86,1.65,5.11,0,.22,0,.46-.03.72-.02.26-.03.49-.05.7h-8.57c.08.78.45,1.4,1.09,1.85.64.46,1.5.69,2.59.69.69,0,1.37-.06,2.04-.19.67-.13,1.21-.28,1.64-.47l.51,3.07c-.2.1-.47.2-.81.3-.34.1-.71.19-1.13.27-.42.08-.86.14-1.33.19-.47.05-.95.08-1.42.08-1.2,0-2.25-.18-3.13-.53-.89-.35-1.62-.84-2.21-1.46-.58-.62-1.01-1.35-1.29-2.19-.28-.85-.42-1.76-.42-2.74ZM670.66,31.55c-.02-.32-.07-.63-.17-.94-.09-.3-.24-.57-.43-.81s-.44-.43-.74-.58-.66-.23-1.1-.23-.79.07-1.09.22c-.3.14-.56.33-.76.57s-.36.51-.47.82c-.11.31-.19.63-.24.95h5Z"/><path class="cls-11" d="M676.6,32.9c0-.96.16-1.87.47-2.73.31-.85.77-1.6,1.36-2.23.59-.63,1.31-1.14,2.16-1.51.84-.37,1.81-.56,2.89-.56.71,0,1.36.06,1.95.19.59.13,1.17.31,1.72.54l-.79,3.02c-.36-.13-.74-.25-1.17-.35s-.9-.15-1.42-.15c-1.12,0-1.95.35-2.5,1.04-.55.69-.82,1.61-.82,2.74,0,1.2.26,2.13.77,2.79s1.42.99,2.7.99c.46,0,.95-.04,1.47-.13.52-.08,1.01-.22,1.45-.41l.53,3.09c-.44.19-.99.35-1.65.48-.66.13-1.39.2-2.18.2-1.22,0-2.27-.18-3.15-.55-.88-.36-1.6-.86-2.17-1.48-.57-.62-.98-1.37-1.24-2.22-.26-.85-.39-1.78-.39-2.78Z"/><path class="cls-11" d="M689.79,22.9l3.78-.61v3.93h4.54v3.15h-4.54v4.69c0,.79.14,1.43.42,1.9.28.47.84.71,1.69.71.41,0,.82-.04,1.26-.11s.82-.18,1.18-.32l.53,2.94c-.46.19-.96.35-1.52.48-.56.14-1.24.2-2.05.2-1.03,0-1.89-.14-2.56-.42-.68-.28-1.22-.67-1.62-1.17-.41-.5-.69-1.1-.85-1.81-.16-.71-.24-1.5-.24-2.36v-11.21Z"/><path class="cls-11" d="M705.31,22.37c0,.69-.22,1.24-.67,1.64-.45.4-.98.6-1.59.6s-1.14-.2-1.58-.6c-.45-.4-.67-.94-.67-1.64s.22-1.24.67-1.64c.45-.4.98-.6,1.58-.6s1.14.2,1.59.6c.45.4.67.94.67,1.64ZM704.96,39.57h-3.78v-13.34h3.78v13.34Z"/><path class="cls-11" d="M720.99,32.87c0,1.05-.15,2.01-.46,2.88-.3.87-.74,1.61-1.32,2.23-.58.62-1.26,1.1-2.07,1.43-.8.34-1.7.51-2.7.51s-1.87-.17-2.68-.51c-.8-.34-1.49-.82-2.07-1.43-.58-.62-1.02-1.36-1.34-2.23-.32-.87-.48-1.83-.48-2.88s.17-2,.49-2.87c.33-.86.79-1.6,1.37-2.21s1.28-1.08,2.08-1.42c.8-.34,1.68-.51,2.62-.51s1.85.17,2.65.51c.8.34,1.49.81,2.07,1.42s1.02,1.34,1.34,2.21c.32.86.48,1.82.48,2.87ZM717.13,32.87c0-1.17-.23-2.08-.7-2.75-.46-.67-1.13-1-1.99-1s-1.53.33-2,1c-.47.67-.71,1.59-.71,2.75s.24,2.09.71,2.78,1.14,1.03,2,1.03,1.53-.34,1.99-1.03.7-1.61.7-2.78Z"/><path class="cls-11" d="M723.9,26.68c.64-.19,1.47-.36,2.49-.52,1.01-.16,2.08-.24,3.2-.24s2.08.15,2.83.44c.75.3,1.35.71,1.79,1.26.44.54.75,1.18.94,1.93.19.74.28,1.57.28,2.49v7.53h-3.78v-7.08c0-1.22-.16-2.08-.48-2.59s-.92-.76-1.8-.76c-.27,0-.56.01-.86.04-.3.03-.58.06-.81.09v10.3h-3.78v-12.89Z"/><path class="cls-11" d="M931.38,39.57c-.87-1.69-1.74-3.67-2.63-5.94-.89-2.27-1.74-4.73-2.53-7.41h4.01c.17.66.37,1.37.6,2.14.23.77.47,1.55.71,2.33s.49,1.55.74,2.3c.25.74.49,1.42.73,2.03.22-.61.46-1.28.71-2.03.25-.74.5-1.51.75-2.3s.48-1.56.71-2.33c.23-.77.43-1.48.6-2.14h3.91c-.8,2.67-1.64,5.14-2.53,7.41-.89,2.27-1.77,4.24-2.63,5.94h-3.14Z"/><path class="cls-11" d="M953.08,39.11c-.64.19-1.47.36-2.49.52s-2.08.24-3.2.24-2.08-.15-2.83-.46c-.75-.3-1.35-.73-1.79-1.28-.44-.55-.75-1.21-.94-1.97-.19-.76-.28-1.6-.28-2.51v-7.43h3.78v6.98c0,1.22.16,2.1.48,2.64s.92.81,1.8.81c.27,0,.56-.01.86-.04.3-.03.58-.05.81-.09v-10.3h3.78v12.89Z"/><path class="cls-11" d="M961.96,39.82c-1.1-.02-1.99-.14-2.68-.35-.68-.22-1.23-.53-1.62-.93-.4-.4-.67-.88-.81-1.45-.14-.57-.22-1.2-.22-1.92v-14.69l3.78-.61v14.53c0,.34.03.64.08.91s.15.5.29.68c.14.19.35.34.62.46.27.12.63.19,1.09.23l-.53,3.12Z"/><path class="cls-11" d="M964.64,26.68c.64-.19,1.47-.36,2.49-.52,1.01-.16,2.08-.24,3.2-.24s2.08.15,2.83.44c.75.3,1.35.71,1.79,1.26.44.54.75,1.18.94,1.93.19.74.28,1.57.28,2.49v7.53h-3.78v-7.08c0-1.22-.16-2.08-.48-2.59s-.92-.76-1.8-.76c-.27,0-.56.01-.86.04-.3.03-.58.06-.81.09v10.3h-3.78v-12.89Z"/><path class="cls-11" d="M978.95,33c0-1.18.18-2.22.54-3.11s.84-1.63,1.43-2.22c.59-.59,1.27-1.04,2.04-1.34.77-.3,1.56-.46,2.37-.46,1.89,0,3.39.58,4.49,1.74,1.1,1.16,1.65,2.86,1.65,5.11,0,.22,0,.46-.03.72-.02.26-.03.49-.05.7h-8.57c.08.78.45,1.4,1.09,1.85.64.46,1.5.69,2.59.69.69,0,1.37-.06,2.04-.19.67-.13,1.21-.28,1.64-.47l.51,3.07c-.2.1-.47.2-.81.3-.34.1-.71.19-1.13.27-.42.08-.86.14-1.33.19-.47.05-.95.08-1.42.08-1.2,0-2.25-.18-3.13-.53-.89-.35-1.62-.84-2.21-1.46-.58-.62-1.01-1.35-1.29-2.19-.28-.85-.42-1.76-.42-2.74ZM987.83,31.55c-.02-.32-.07-.63-.17-.94-.09-.3-.24-.57-.43-.81s-.44-.43-.74-.58-.66-.23-1.1-.23-.79.07-1.09.22c-.3.14-.56.33-.76.57s-.36.51-.47.82c-.11.31-.19.63-.24.95h5Z"/><path class="cls-11" d="M1002.44,29.57c-.34-.08-.74-.17-1.19-.27-.46-.09-.95-.14-1.47-.14-.24,0-.52.02-.85.06-.33.04-.58.09-.75.14v10.2h-3.78v-12.63c.68-.24,1.48-.46,2.4-.67.92-.21,1.95-.32,3.08-.32.2,0,.45.01.74.04.29.03.57.06.86.1.29.04.57.09.86.15.29.06.53.13.74.22l-.63,3.12Z"/><path class="cls-11" d="M1009.64,25.87c1.12,0,2.05.13,2.79.38.74.25,1.34.62,1.79,1.09.45.47.76,1.05.95,1.72.19.68.28,1.43.28,2.26v7.86c-.54.12-1.29.26-2.26.42s-2.13.24-3.5.24c-.86,0-1.64-.08-2.35-.23-.7-.15-1.31-.4-1.81-.75-.51-.35-.9-.8-1.17-1.36-.27-.56-.41-1.24-.41-2.05s.16-1.44.47-1.98c.31-.54.73-.97,1.25-1.29.52-.32,1.12-.55,1.8-.7.68-.14,1.38-.22,2.11-.22.49,0,.93.02,1.31.06.38.04.69.1.93.16v-.35c0-.64-.19-1.16-.58-1.55-.39-.39-1.07-.58-2.03-.58-.64,0-1.28.05-1.9.14-.63.09-1.17.22-1.62.39l-.48-3.04c.22-.07.49-.14.82-.22s.69-.14,1.08-.2c.39-.06.8-.11,1.23-.15.43-.04.87-.06,1.31-.06ZM1009.95,36.93c.37,0,.73,0,1.07-.03.34-.02.61-.04.81-.08v-2.87c-.15-.03-.38-.07-.68-.1-.3-.03-.58-.05-.84-.05-.36,0-.69.02-1,.06-.31.04-.59.12-.83.24-.24.12-.42.28-.56.48-.14.2-.2.46-.2.76,0,.59.2,1,.6,1.23.4.23.94.34,1.64.34Z"/><path class="cls-11" d="M1031.28,32.9c0,1.06-.16,2.03-.47,2.89-.31.86-.77,1.6-1.36,2.21s-1.32,1.08-2.18,1.41c-.86.33-1.84.49-2.94.49-.46,0-.93-.02-1.43-.06s-.99-.1-1.47-.16c-.48-.07-.94-.15-1.38-.24-.44-.09-.83-.19-1.17-.29v-18.64l3.78-.61v6.65c.42-.19.86-.33,1.32-.43.46-.1.95-.15,1.47-.15.95,0,1.78.16,2.51.49.73.33,1.34.8,1.83,1.41s.86,1.34,1.12,2.19c.25.85.38,1.81.38,2.85ZM1027.42,32.79c0-2.44-.9-3.65-2.69-3.65-.39,0-.77.05-1.15.15-.38.1-.69.23-.93.38v6.87c.19.03.42.06.71.09.29.03.6.04.94.04,1.03,0,1.81-.35,2.33-1.07.52-.71.79-1.65.79-2.82Z"/><path class="cls-11" d="M1039.52,39.82c-1.1-.02-1.99-.14-2.68-.35-.68-.22-1.23-.53-1.62-.93-.4-.4-.67-.88-.81-1.45-.14-.57-.22-1.2-.22-1.92v-14.69l3.78-.61v14.53c0,.34.03.64.08.91s.15.5.29.68c.14.19.35.34.62.46.27.12.63.19,1.09.23l-.53,3.12Z"/><path class="cls-11" d="M1041.58,33c0-1.18.18-2.22.54-3.11s.84-1.63,1.43-2.22c.59-.59,1.27-1.04,2.04-1.34.77-.3,1.56-.46,2.37-.46,1.89,0,3.39.58,4.49,1.74,1.1,1.16,1.65,2.86,1.65,5.11,0,.22,0,.46-.03.72-.02.26-.03.49-.05.7h-8.57c.08.78.45,1.4,1.09,1.85.64.46,1.5.69,2.59.69.69,0,1.37-.06,2.04-.19.67-.13,1.21-.28,1.64-.47l.51,3.07c-.2.1-.47.2-.81.3-.34.1-.71.19-1.13.27-.42.08-.86.14-1.33.19-.47.05-.95.08-1.42.08-1.2,0-2.25-.18-3.13-.53-.89-.35-1.62-.84-2.21-1.46-.58-.62-1.01-1.35-1.29-2.19-.28-.85-.42-1.76-.42-2.74ZM1050.46,31.55c-.02-.32-.07-.63-.17-.94-.09-.3-.24-.57-.43-.81s-.44-.43-.74-.58-.66-.23-1.1-.23-.79.07-1.09.22c-.3.14-.56.33-.76.57s-.36.51-.47.82c-.11.31-.19.63-.24.95h5Z"/><path class="cls-11" d="M1060.73,37.56c0,.76-.24,1.34-.72,1.74-.48.4-1.03.6-1.64.6s-1.15-.2-1.64-.6c-.48-.4-.72-.98-.72-1.74s.24-1.34.72-1.74c.48-.4,1.03-.6,1.64-.6s1.15.2,1.64.6c.48.4.72.98.72,1.74Z"/><path class="cls-11" d="M1061.87,32.9c0-.96.16-1.87.47-2.73.31-.85.77-1.6,1.36-2.23.59-.63,1.31-1.14,2.16-1.51.84-.37,1.81-.56,2.89-.56.71,0,1.36.06,1.95.19.59.13,1.17.31,1.72.54l-.79,3.02c-.36-.13-.74-.25-1.17-.35s-.9-.15-1.42-.15c-1.12,0-1.95.35-2.5,1.04-.55.69-.82,1.61-.82,2.74,0,1.2.26,2.13.77,2.79s1.42.99,2.7.99c.46,0,.95-.04,1.47-.13.52-.08,1.01-.22,1.45-.41l.53,3.09c-.44.19-.99.35-1.65.48-.66.13-1.39.2-2.18.2-1.22,0-2.27-.18-3.15-.55-.88-.36-1.6-.86-2.17-1.48-.57-.62-.98-1.37-1.24-2.22-.26-.85-.39-1.78-.39-2.78Z"/><path class="cls-11" d="M1087.03,32.87c0,1.05-.15,2.01-.46,2.88-.3.87-.74,1.61-1.32,2.23-.58.62-1.26,1.1-2.07,1.43-.8.34-1.7.51-2.7.51s-1.87-.17-2.68-.51c-.8-.34-1.49-.82-2.07-1.43-.58-.62-1.02-1.36-1.34-2.23-.32-.87-.48-1.83-.48-2.88s.17-2,.49-2.87c.33-.86.79-1.6,1.37-2.21s1.28-1.08,2.08-1.42c.8-.34,1.68-.51,2.62-.51s1.85.17,2.65.51c.8.34,1.49.81,2.07,1.42s1.02,1.34,1.34,2.21c.32.86.48,1.82.48,2.87ZM1083.17,32.87c0-1.17-.23-2.08-.7-2.75-.46-.67-1.13-1-1.99-1s-1.53.33-2,1c-.47.67-.71,1.59-.71,2.75s.24,2.09.71,2.78,1.14,1.03,2,1.03,1.53-.34,1.99-1.03.7-1.61.7-2.78Z"/><path class="cls-11" d="M1097.28,32.49c0-1.22-.16-2.08-.47-2.59s-.85-.76-1.61-.76c-.24,0-.48.01-.74.04-.25.03-.5.06-.74.09v10.3h-3.78v-12.89c.32-.08.7-.17,1.13-.27.43-.09.89-.18,1.37-.25.48-.08.98-.13,1.48-.18.51-.04,1.01-.06,1.5-.06.96,0,1.75.12,2.35.37.6.25,1.09.54,1.48.88.54-.39,1.16-.69,1.86-.91.7-.22,1.35-.33,1.94-.33,1.07,0,1.94.15,2.62.44s1.23.71,1.64,1.26c.41.54.69,1.18.84,1.93.15.74.23,1.57.23,2.49v7.53h-3.78v-7.08c0-1.22-.16-2.08-.47-2.59-.31-.51-.85-.76-1.61-.76-.2,0-.49.05-.85.15s-.66.23-.9.38c.12.39.19.8.23,1.23.03.43.05.89.05,1.38v7.28h-3.78v-7.08Z"/><path class="cls-11" d="M77.78,254.01c1.12,0,2.05.13,2.79.38.74.25,1.34.62,1.79,1.09.45.47.77,1.05.95,1.73.19.68.28,1.43.28,2.26v7.86c-.54.12-1.29.26-2.26.42s-2.13.24-3.5.24c-.86,0-1.64-.08-2.35-.23-.7-.15-1.31-.4-1.81-.75-.51-.35-.9-.8-1.17-1.36-.27-.56-.41-1.24-.41-2.05s.16-1.44.47-1.98c.31-.54.73-.97,1.26-1.29s1.12-.55,1.8-.7c.68-.14,1.38-.22,2.11-.22.49,0,.93.02,1.31.06.38.04.69.1.93.17v-.35c0-.64-.19-1.16-.58-1.55s-1.06-.58-2.03-.58c-.64,0-1.28.05-1.9.14-.62.09-1.17.22-1.62.39l-.48-3.04c.22-.07.49-.14.82-.21.33-.08.69-.14,1.08-.2.39-.06.8-.11,1.23-.15.43-.04.87-.06,1.31-.06ZM78.08,265.07c.37,0,.73,0,1.07-.03.34-.02.61-.04.81-.08v-2.87c-.15-.03-.38-.07-.68-.1-.3-.03-.58-.05-.84-.05-.35,0-.69.02-1,.06-.31.04-.59.12-.82.24-.24.12-.42.28-.56.48-.14.2-.2.46-.2.76,0,.59.2,1,.6,1.23s.94.34,1.64.34Z"/><path class="cls-11" d="M86.89,251.04l3.78-.61v3.93h4.54v3.14h-4.54v4.69c0,.79.14,1.43.42,1.9.28.47.84.71,1.69.71.41,0,.82-.04,1.25-.11.43-.08.82-.18,1.18-.32l.53,2.94c-.46.19-.96.35-1.52.48-.56.13-1.24.2-2.05.2-1.03,0-1.89-.14-2.56-.42-.68-.28-1.22-.67-1.62-1.17-.41-.5-.69-1.1-.85-1.81-.16-.71-.24-1.5-.24-2.36v-11.21Z"/><path class="cls-11" d="M98.15,251.04l3.78-.61v3.93h4.54v3.14h-4.54v4.69c0,.79.14,1.43.42,1.9.28.47.84.71,1.69.71.41,0,.82-.04,1.25-.11.43-.08.82-.18,1.18-.32l.53,2.94c-.46.19-.96.35-1.52.48-.56.13-1.24.2-2.05.2-1.03,0-1.89-.14-2.56-.42-.68-.28-1.22-.67-1.62-1.17-.41-.5-.69-1.1-.85-1.81-.16-.71-.24-1.5-.24-2.36v-11.21Z"/><path class="cls-11" d="M113.82,254.01c1.12,0,2.05.13,2.79.38.74.25,1.34.62,1.79,1.09.45.47.76,1.05.95,1.73.19.68.28,1.43.28,2.26v7.86c-.54.12-1.29.26-2.26.42s-2.13.24-3.5.24c-.86,0-1.64-.08-2.35-.23-.7-.15-1.31-.4-1.81-.75-.51-.35-.9-.8-1.17-1.36-.27-.56-.41-1.24-.41-2.05s.16-1.44.47-1.98c.31-.54.73-.97,1.26-1.29.52-.32,1.12-.55,1.8-.7.68-.14,1.38-.22,2.11-.22.49,0,.93.02,1.31.06.38.04.69.1.93.17v-.35c0-.64-.19-1.16-.58-1.55-.39-.39-1.07-.58-2.03-.58-.64,0-1.28.05-1.9.14-.63.09-1.17.22-1.62.39l-.48-3.04c.22-.07.5-.14.82-.21.33-.08.69-.14,1.08-.2s.8-.11,1.23-.15c.43-.04.87-.06,1.31-.06ZM114.13,265.07c.37,0,.73,0,1.07-.03s.61-.04.81-.08v-2.87c-.15-.03-.38-.07-.68-.1s-.58-.05-.84-.05c-.36,0-.69.02-1,.06-.31.04-.59.12-.82.24-.24.12-.42.28-.56.48-.13.2-.2.46-.2.76,0,.59.2,1,.6,1.23s.94.34,1.64.34Z"/><path class="cls-11" d="M122.42,261.03c0-.96.16-1.87.47-2.73.31-.85.76-1.6,1.36-2.23.59-.63,1.31-1.14,2.16-1.51.84-.37,1.81-.56,2.89-.56.71,0,1.36.06,1.95.19.59.13,1.17.31,1.72.54l-.79,3.02c-.36-.13-.75-.25-1.17-.35-.42-.1-.9-.15-1.42-.15-1.12,0-1.95.35-2.5,1.04-.55.69-.82,1.61-.82,2.74,0,1.2.26,2.13.77,2.79.52.66,1.42.99,2.7.99.46,0,.95-.04,1.47-.13.52-.08,1.01-.22,1.45-.41l.53,3.09c-.44.19-.99.35-1.65.48-.66.13-1.39.2-2.18.2-1.22,0-2.27-.18-3.14-.55-.88-.36-1.6-.86-2.17-1.48s-.98-1.37-1.24-2.22c-.26-.85-.39-1.78-.39-2.78Z"/><path class="cls-11" d="M139.52,259.15c.37-.4.76-.82,1.15-1.26.4-.44.78-.87,1.15-1.3.37-.43.72-.84,1.05-1.22.33-.39.61-.72.85-1.01h4.49c-.9,1.03-1.77,2.01-2.62,2.95-.85.94-1.79,1.9-2.8,2.9.51.46,1.03,1,1.57,1.64s1.07,1.29,1.57,1.97c.51.68.97,1.36,1.39,2.03s.78,1.3,1.07,1.85h-4.35c-.27-.44-.58-.93-.92-1.46-.35-.53-.71-1.07-1.1-1.6-.39-.53-.8-1.05-1.23-1.54-.43-.49-.86-.91-1.28-1.25v5.85h-3.78v-19.08l3.78-.61v11.13Z"/><path class="cls-11" d="M148.88,261.13c0-1.18.18-2.22.54-3.11.36-.89.84-1.63,1.43-2.22.59-.59,1.27-1.04,2.04-1.34.77-.3,1.56-.46,2.37-.46,1.89,0,3.39.58,4.49,1.74,1.1,1.16,1.65,2.86,1.65,5.11,0,.22,0,.46-.03.72-.02.26-.03.5-.05.7h-8.57c.08.78.45,1.39,1.09,1.85.64.46,1.5.68,2.59.68.69,0,1.37-.06,2.04-.19s1.21-.28,1.64-.47l.51,3.07c-.2.1-.47.2-.81.3-.34.1-.71.19-1.13.27-.42.08-.86.14-1.33.19s-.95.08-1.42.08c-1.2,0-2.24-.18-3.13-.53-.89-.35-1.62-.84-2.21-1.46-.58-.62-1.01-1.35-1.29-2.19s-.42-1.76-.42-2.74ZM157.76,259.69c-.02-.32-.07-.63-.17-.94-.09-.3-.24-.57-.43-.81-.19-.24-.44-.43-.74-.58-.3-.15-.66-.23-1.1-.23s-.79.07-1.09.22-.56.33-.76.57c-.2.24-.36.51-.47.82-.11.31-.19.63-.24.95h5Z"/><path class="cls-11" d="M172.37,257.71c-.34-.08-.74-.17-1.19-.27-.46-.09-.95-.14-1.47-.14-.24,0-.52.02-.85.06-.33.04-.58.09-.75.14v10.2h-3.78v-12.63c.68-.24,1.47-.46,2.4-.67.92-.21,1.95-.32,3.08-.32.2,0,.45.01.74.04.29.03.57.06.86.1.29.04.57.09.86.15.29.06.53.13.74.21l-.63,3.12Z"/><path class="cls-11" d="M177.21,265.7c0,.76-.24,1.34-.72,1.74-.48.4-1.03.6-1.64.6s-1.15-.2-1.64-.6c-.48-.4-.72-.98-.72-1.74s.24-1.34.72-1.74c.48-.4,1.03-.6,1.64-.6s1.15.2,1.64.6c.48.4.72.98.72,1.74Z"/><path class="cls-11" d="M178.35,261.03c0-.96.16-1.87.47-2.73.31-.85.76-1.6,1.36-2.23s1.31-1.14,2.16-1.51c.85-.37,1.81-.56,2.89-.56.71,0,1.36.06,1.95.19s1.17.31,1.72.54l-.79,3.02c-.36-.13-.74-.25-1.17-.35-.42-.1-.9-.15-1.42-.15-1.12,0-1.95.35-2.5,1.04s-.82,1.61-.82,2.74c0,1.2.26,2.13.77,2.79s1.42.99,2.7.99c.46,0,.95-.04,1.47-.13.52-.08,1.01-.22,1.45-.41l.53,3.09c-.44.19-.99.35-1.65.48-.66.13-1.39.2-2.18.2-1.22,0-2.27-.18-3.15-.55s-1.6-.86-2.17-1.48-.98-1.37-1.24-2.22c-.26-.85-.39-1.78-.39-2.78Z"/><path class="cls-11" d="M203.52,261.01c0,1.05-.15,2.01-.46,2.88s-.74,1.62-1.32,2.23c-.58.62-1.26,1.09-2.07,1.43-.8.34-1.7.51-2.7.51s-1.87-.17-2.68-.51c-.8-.34-1.49-.82-2.07-1.43s-1.02-1.36-1.34-2.23c-.32-.87-.48-1.83-.48-2.88s.17-2,.5-2.87c.33-.86.79-1.6,1.37-2.21.58-.61,1.28-1.08,2.08-1.42.8-.34,1.68-.51,2.62-.51s1.85.17,2.65.51c.8.34,1.49.81,2.07,1.42.57.61,1.02,1.34,1.34,2.21s.48,1.82.48,2.87ZM199.66,261.01c0-1.17-.23-2.08-.7-2.75s-1.13-1-1.99-1-1.53.33-2,1-.71,1.58-.71,2.75.24,2.09.71,2.78,1.14,1.03,2,1.03,1.53-.34,1.99-1.03.7-1.61.7-2.78Z"/><path class="cls-11" d="M213.76,260.63c0-1.22-.16-2.08-.47-2.59-.31-.51-.85-.76-1.61-.76-.24,0-.48.01-.74.04s-.5.05-.74.09v10.3h-3.78v-12.89c.32-.08.7-.17,1.13-.27.43-.09.89-.18,1.37-.25.48-.08.98-.14,1.48-.18.51-.04,1.01-.06,1.5-.06.96,0,1.75.12,2.35.37.6.25,1.09.54,1.48.88.54-.39,1.16-.69,1.86-.91.7-.22,1.35-.33,1.94-.33,1.07,0,1.94.15,2.62.44.69.3,1.23.71,1.64,1.26.41.54.68,1.18.84,1.93s.23,1.57.23,2.49v7.53h-3.78v-7.08c0-1.22-.16-2.08-.47-2.59-.31-.51-.85-.76-1.61-.76-.2,0-.49.05-.85.15-.36.1-.66.23-.9.38.12.39.19.8.23,1.23.03.43.05.89.05,1.38v7.28h-3.78v-7.08Z"/></g><g id="Layer_2"><path id="path32" class="cls-7" d="M186.24,191.88v-1.91l-.48.37-.32-.44.86-.63h.56v2.6h-.61"/><path id="path34" class="cls-7" d="M188.76,190.57c0-.08,0-.17-.01-.27,0-.1-.03-.19-.06-.27-.03-.08-.07-.16-.12-.21-.05-.06-.12-.09-.2-.09s-.15.03-.2.09c-.05.06-.09.13-.12.21-.03.08-.05.18-.06.27,0,.1-.01.19-.01.27s0,.17.01.27c0,.1.03.19.06.28.03.08.07.16.12.21.05.06.12.09.2.09s.15-.03.2-.09c.05-.06.09-.13.12-.21.03-.08.05-.18.06-.28,0-.1.01-.19.01-.27ZM189.39,190.57c0,.18-.02.36-.06.53-.04.17-.1.31-.18.44-.08.13-.19.23-.31.3-.13.07-.29.11-.47.11s-.34-.04-.47-.11c-.13-.07-.24-.18-.32-.3-.08-.13-.14-.27-.18-.44-.04-.17-.05-.34-.05-.53s.02-.36.05-.52c.04-.17.1-.31.18-.43.08-.12.19-.22.32-.3.13-.07.29-.11.47-.11s.34.04.47.11c.13.07.23.17.31.3.08.12.14.27.18.43.04.17.06.34.06.52"/><path id="path36" class="cls-7" d="M192.84,191.88v-1.91l-.49.37-.32-.44.86-.63h.56v2.6h-.61"/><path id="path38" class="cls-7" d="M195.37,190.57c0-.08,0-.17-.01-.27-.01-.1-.03-.19-.06-.27-.03-.08-.07-.16-.12-.21-.05-.06-.12-.09-.2-.09s-.15.03-.2.09c-.05.06-.09.13-.12.21-.03.08-.05.18-.06.27,0,.1-.01.19-.01.27s0,.17.01.27c0,.1.03.19.06.28.03.08.07.16.12.21.05.06.12.09.2.09s.15-.03.2-.09c.05-.06.09-.13.12-.21.03-.08.05-.18.06-.28,0-.1.01-.19.01-.27ZM196,190.57c0,.18-.02.36-.06.53-.04.17-.1.31-.18.44-.08.13-.19.23-.31.3-.13.07-.29.11-.47.11s-.34-.04-.47-.11c-.13-.07-.24-.18-.32-.3-.08-.13-.14-.27-.18-.44-.04-.17-.05-.34-.05-.53s.02-.36.05-.52c.04-.17.1-.31.18-.43s.19-.22.32-.3c.13-.07.29-.11.47-.11s.34.04.47.11c.13.07.23.17.31.3.08.12.14.27.18.43.04.17.06.34.06.52"/><path id="path40" class="cls-7" d="M186.18,195.98v-1.91l-.49.38-.32-.44.86-.63h.56v2.6h-.61"/><path id="path42" class="cls-7" d="M188.35,195.98v-1.91l-.49.38-.32-.44.86-.63h.56v2.6h-.61"/><path id="path44" class="cls-7" d="M190.5,195.98v-1.91l-.49.38-.32-.44.86-.63h.56v2.6h-.61"/><path id="path46" class="cls-7" d="M193.14,194.67c0-.08,0-.17-.01-.27,0-.1-.03-.19-.05-.27-.03-.08-.07-.16-.12-.21-.05-.06-.12-.09-.2-.09s-.15.03-.2.09c-.05.06-.09.13-.12.21-.03.08-.05.18-.06.27-.01.1-.01.19-.01.27s0,.17.01.27c0,.1.03.19.06.28.03.08.07.16.12.21.05.06.12.09.2.09s.15-.03.2-.09c.05-.06.09-.13.12-.21.03-.08.05-.18.05-.28,0-.1.01-.19.01-.27ZM193.77,194.67c0,.18-.02.36-.06.53-.04.17-.1.31-.18.44-.08.13-.19.23-.31.3-.13.08-.28.11-.47.11s-.34-.04-.47-.11c-.13-.07-.24-.18-.32-.3-.08-.13-.14-.27-.18-.44-.04-.17-.06-.34-.06-.53s.02-.36.06-.52c.04-.17.1-.31.18-.43.08-.12.19-.22.32-.3.13-.07.29-.11.47-.11s.34.04.47.11c.13.07.23.17.31.3.08.12.14.27.18.43.04.17.06.34.06.52"/><path id="path48" class="cls-7" d="M187.43,198.9v-1.39l-.35.27-.23-.32.62-.46h.41v1.89h-.45"/><path id="path50" class="cls-7" d="M190.55,198.9v-1.39l-.35.27-.23-.32.62-.46h.41v1.89h-.45"/><path id="path52" class="cls-7" d="M186.18,197.95c0-.06,0-.12-.01-.2,0-.07-.02-.14-.04-.2-.02-.06-.05-.11-.08-.15-.04-.04-.08-.06-.14-.06s-.11.02-.14.06c-.04.04-.07.09-.09.15-.02.06-.03.13-.04.2,0,.07-.01.14-.01.2s0,.13.01.2c0,.07.02.14.04.2.02.06.05.11.09.15.04.04.09.06.14.06s.11-.02.14-.06c.04-.04.06-.09.08-.15.02-.06.03-.13.04-.2,0-.07.01-.14.01-.2ZM186.64,197.95c0,.13-.01.26-.04.38-.03.12-.07.23-.13.32-.06.09-.13.17-.23.22-.09.05-.21.08-.34.08s-.25-.03-.34-.08c-.09-.05-.17-.13-.23-.22-.06-.09-.1-.2-.13-.32-.03-.12-.04-.25-.04-.38s.01-.26.04-.38c.03-.12.07-.23.13-.32.06-.09.14-.16.23-.21.09-.05.21-.08.34-.08s.25.03.34.08c.09.05.17.13.23.21.06.09.1.2.13.32.03.12.04.25.04.38"/><path id="path54" class="cls-7" d="M189.32,197.95c0-.06,0-.12-.01-.2,0-.07-.02-.14-.04-.2-.02-.06-.05-.11-.08-.15-.04-.04-.08-.06-.14-.06s-.11.02-.14.06c-.04.04-.07.09-.09.15-.02.06-.03.13-.04.2,0,.07-.01.14-.01.2s0,.13.01.2c0,.07.02.14.04.2.02.06.05.11.09.15.04.04.09.06.14.06s.11-.02.14-.06c.04-.04.06-.09.08-.15.02-.06.03-.13.04-.2,0-.07.01-.14.01-.2ZM189.78,197.95c0,.13-.01.26-.04.38-.03.12-.07.23-.13.32-.06.09-.13.17-.23.22-.09.05-.21.08-.34.08s-.25-.03-.34-.08c-.09-.05-.17-.13-.23-.22-.06-.09-.1-.2-.13-.32-.03-.12-.04-.25-.04-.38s.01-.26.04-.38c.03-.12.07-.23.13-.32.06-.09.14-.16.23-.21.09-.05.21-.08.34-.08s.25.03.34.08c.09.05.17.13.23.21.06.09.1.2.13.32.03.12.04.25.04.38"/><path id="path56" class="cls-7" d="M195.75,198.9v-1.39l-.35.27-.23-.32.62-.46h.41v1.89h-.45"/><path id="path58" class="cls-7" d="M194.52,197.95c0-.06,0-.12-.01-.2,0-.07-.02-.14-.04-.2-.02-.06-.05-.11-.08-.15-.04-.04-.08-.06-.14-.06s-.11.02-.14.06c-.04.04-.07.09-.09.15-.02.06-.03.13-.04.2,0,.07-.01.14-.01.2s0,.13.01.2c0,.07.02.14.04.2.02.06.05.11.09.15.04.04.09.06.14.06s.11-.02.14-.06c.04-.04.06-.09.08-.15.02-.06.03-.13.04-.2,0-.07.01-.14.01-.2ZM194.98,197.95c0,.13-.01.26-.04.38-.03.12-.07.23-.13.32-.06.09-.13.17-.23.22-.09.05-.21.08-.34.08s-.25-.03-.34-.08c-.09-.05-.17-.13-.23-.22-.06-.09-.1-.2-.13-.32-.03-.12-.04-.25-.04-.38s.01-.26.04-.38c.03-.12.07-.23.13-.32.06-.09.14-.16.23-.21.09-.05.21-.08.34-.08s.25.03.34.08c.09.05.17.13.23.21.06.09.1.2.13.32.03.12.04.25.04.38"/><path id="path60" class="cls-7" d="M194.04,201.13v-1.39l-.35.27-.23-.32.62-.46h.41v1.89h-.45"/><path id="path62" class="cls-7" d="M192.81,200.18c0-.06,0-.12-.01-.2,0-.07-.02-.14-.04-.2-.02-.06-.05-.11-.08-.15-.04-.04-.08-.06-.14-.06s-.11.02-.14.06c-.04.04-.07.09-.09.15-.02.06-.03.13-.04.2,0,.07-.01.14-.01.2s0,.13.01.2c0,.07.02.14.04.2.02.06.05.11.09.15.04.04.09.06.14.06s.11-.02.14-.06c.04-.04.06-.09.08-.15.02-.06.03-.13.04-.2,0-.07.01-.14.01-.2ZM193.27,200.18c0,.13-.01.26-.04.38-.03.12-.07.23-.13.32-.06.09-.13.16-.23.22-.09.05-.21.08-.34.08s-.25-.03-.34-.08c-.09-.05-.17-.13-.23-.22-.06-.09-.1-.2-.13-.32-.03-.12-.04-.25-.04-.38s.01-.26.04-.38c.03-.12.07-.23.13-.32.06-.09.14-.16.23-.21.09-.05.21-.08.34-.08s.25.03.34.08c.09.05.17.13.23.21.06.09.1.2.13.32.03.12.04.25.04.38"/><path id="path64" class="cls-7" d="M186.8,201.1v-.96l-.24.19-.16-.22.43-.32h.28v1.31h-.31"/><path id="path66" class="cls-7" d="M185.95,200.44s0-.09,0-.14c0-.05-.01-.1-.03-.14-.01-.04-.03-.08-.06-.11-.03-.03-.06-.04-.1-.04s-.07.01-.1.04c-.03.03-.05.06-.06.11-.01.04-.02.09-.03.14,0,.05,0,.09,0,.14s0,.09,0,.14c0,.05.01.1.03.14.01.04.03.08.06.11.03.03.06.04.1.04s.07-.01.1-.04c.03-.03.04-.06.06-.11.01-.04.02-.09.03-.14,0-.05,0-.1,0-.14ZM186.27,200.44c0,.09,0,.18-.03.26-.02.08-.05.16-.09.22-.04.06-.09.11-.16.15-.06.04-.14.06-.24.06s-.17-.02-.24-.06c-.07-.04-.12-.09-.16-.15-.04-.06-.07-.14-.09-.22-.02-.08-.03-.17-.03-.26s0-.18.03-.26c.02-.08.05-.16.09-.22.04-.06.09-.11.16-.15.07-.04.14-.06.24-.06s.17.02.24.06c.07.04.12.09.16.15.04.06.07.14.09.22.02.08.03.17.03.26"/><path id="path68" class="cls-7" d="M190.65,202.78v-.96l-.24.19-.16-.22.43-.32h.28v1.31h-.31"/><path id="path70" class="cls-7" d="M189.79,202.12s0-.09,0-.14c0-.05-.01-.1-.03-.14s-.03-.08-.06-.11c-.03-.03-.06-.04-.1-.04s-.07.01-.1.04c-.03.03-.05.06-.06.11-.01.04-.02.09-.03.14,0,.05,0,.09,0,.14s0,.09,0,.14c0,.05.01.1.03.14.01.04.03.08.06.11.03.03.06.04.1.04s.07-.01.1-.04c.02-.03.04-.06.06-.11.01-.04.02-.09.03-.14,0-.05,0-.1,0-.14ZM190.11,202.12c0,.09,0,.18-.03.26-.02.08-.05.16-.09.22-.04.06-.09.11-.16.15-.06.04-.14.06-.24.06s-.17-.02-.24-.06c-.07-.04-.12-.09-.16-.15-.04-.06-.07-.14-.09-.22-.02-.08-.03-.17-.03-.26s0-.18.03-.26c.02-.08.05-.16.09-.22.04-.06.09-.11.16-.15.07-.04.14-.06.24-.06s.17.02.24.06c.07.04.12.09.16.15.04.06.07.13.09.22.02.08.03.17.03.26"/><path id="path72" class="cls-7" d="M195.93,200.18c0-.06,0-.12-.01-.2,0-.07-.02-.14-.04-.2-.02-.06-.05-.11-.08-.15-.04-.04-.08-.06-.14-.06s-.11.02-.14.06c-.04.04-.07.09-.09.15-.02.06-.03.13-.04.2,0,.07-.01.14-.01.2s0,.13.01.2c0,.07.02.14.04.2.02.06.05.11.09.15.04.04.09.06.14.06s.11-.02.14-.06c.04-.04.06-.09.08-.15.02-.06.03-.13.04-.2,0-.07.01-.14.01-.2ZM196.39,200.18c0,.13-.01.26-.04.38-.03.12-.07.23-.13.32-.06.09-.13.16-.23.22-.09.05-.21.08-.34.08s-.25-.03-.34-.08c-.09-.05-.17-.13-.23-.22-.06-.09-.1-.2-.13-.32-.03-.12-.04-.25-.04-.38s.01-.26.04-.38c.03-.12.07-.23.13-.32.06-.09.14-.16.23-.21.09-.05.21-.08.34-.08s.25.03.34.08c.09.05.17.13.23.21.06.09.1.2.13.32.03.12.04.25.04.38"/><path id="path74" class="cls-7" d="M195.07,187.42c-.44-2.13-2.33-3.68-4.51-3.68-.33,0-.66.04-.98.11-.53-3.1-3.24-5.48-6.49-5.48s-5.91,2.33-6.47,5.39c-2.34.21-4.18,2.19-4.18,4.58,0,2.54,2.07,4.6,4.6,4.6h6.89c.35,0,.64-.28.64-.64s-.29-.64-.64-.64h-6.89c-1.84,0-3.33-1.49-3.33-3.33s1.49-3.33,3.33-3.33c.67,0,1.31.2,1.86.57.29.2.69.12.88-.17.2-.29.12-.69-.17-.88-.52-.35-1.1-.59-1.71-.7.52-2.39,2.65-4.18,5.19-4.18,2.71,0,4.95,2.04,5.27,4.66-.17.09-.34.19-.5.31-.29.21-.35.6-.14.89.21.29.6.35.89.14.57-.41,1.24-.63,1.95-.63,1.58,0,2.95,1.12,3.26,2.66.06.3.33.51.62.51.04,0,.09,0,.13-.01.34-.07.57-.41.5-.75"/><circle class="cls-11" cx="86.89" cy="93.51" r="24.29"/><path class="cls-7" d="M86.89,96.34c-4.89,0-8.86-3.97-8.86-8.86s3.97-8.86,8.86-8.86,8.86,3.97,8.86,8.86-3.97,8.86-8.86,8.86ZM86.89,81.62c-3.23,0-5.86,2.63-5.86,5.86s2.63,5.86,5.86,5.86,5.86-2.63,5.86-5.86-2.63-5.86-5.86-5.86Z"/><path class="cls-7" d="M98.79,107.02h-3c0-2.36-.93-4.6-2.62-6.29-1.69-1.69-3.92-2.62-6.28-2.62h0c-4.9,0-8.89,4-8.9,8.9h-3c0-6.56,5.34-11.9,11.9-11.9h0c3.16,0,6.14,1.24,8.4,3.5,2.26,2.26,3.5,5.25,3.5,8.41Z"/></g></svg>