<?xml version="1.0" encoding="UTF-8"?><svg xmlns="http://www.w3.org/2000/svg" xmlns:xlink="http://www.w3.org/1999/xlink" viewBox="0 0 628.68 553.63"><defs><style>.cls-1{fill:url(#linear-gradient);}.cls-1,.cls-2,.cls-3,.cls-4,.cls-5,.cls-6,.cls-7{stroke-width:0px;}.cls-2{fill:#223654;}.cls-3{fill:#151c2b;}.cls-8,.cls-9,.cls-10,.cls-11{fill:none;stroke:#a3ea2a;stroke-miterlimit:10;stroke-width:2px;}.cls-9{stroke-dasharray:0 0 11.73 11.73;}.cls-4{fill:#fff;}.cls-5{fill:url(#linear-gradient-2);}.cls-6{fill:url(#linear-gradient-3);}.cls-10{stroke-dasharray:0 0 12.27 12.27;}.cls-7{fill:#a3ea2a;}.cls-11{stroke-dasharray:0 12;}</style><linearGradient id="linear-gradient" x1="514.97" y1="52.3" x2="1175.5" y2="52.3" gradientTransform="translate(-682.65 104.4)" gradientUnits="userSpaceOnUse"><stop offset=".41" stop-color="#223654"/><stop offset=".45" stop-color="#38554c"/><stop offset=".54" stop-color="#5e8940"/><stop offset=".62" stop-color="#7bb336"/><stop offset=".7" stop-color="#91d12f"/><stop offset=".76" stop-color="#9ee32b"/><stop offset=".81" stop-color="#a3ea2a"/></linearGradient><linearGradient id="linear-gradient-2" x1="-423.48" y1="-450.34" x2="237.04" y2="-450.34" gradientTransform="translate(341.85 -137.38) rotate(-180)" xlink:href="#linear-gradient"/><linearGradient id="linear-gradient-3" x1="-423.48" y1="-552.1" x2="237.04" y2="-552.1" gradientTransform="translate(341.85 -137.38) rotate(-180)" xlink:href="#linear-gradient"/></defs><g id="Layer_4"><rect class="cls-2" x="169.55" y="282.61" width="257.37" height="21.46" rx="4.33" ry="4.33"/><rect class="cls-2" x="79.07" y="73.53" width="10.21" height="397.02"/><rect class="cls-2" x="508.38" y="73.53" width="10.21" height="397.02"/><rect class="cls-2" x="437.83" y="7.67" width="151.3" height="80.85" rx="9.56" ry="9.56"/><g id="arrow_styles_for_diagrams_etc"><g id="arrow_styles_for_diagrams_etc-2"><path class="cls-1" d="M513.09,157.38l-17.86,10.27c-.53.3-1.19-.08-1.19-.69v-5.3H87.04c-1.58,0-2.87-1.28-2.87-2.87v-4.21c0-1.58,1.28-2.86,2.86-2.86h407.01v-5.3c0-.61.66-.99,1.19-.69l17.86,10.27c.53.3.53,1.06,0,1.36Z"/></g></g><g id="arrow_styles_for_diagrams_etc-3"><g id="arrow_styles_for_diagrams_etc-4"><path class="cls-5" d="M84.57,312.28l17.86-10.27c.53-.3,1.19.08,1.19.69v5.3s407.01,0,407.01,0c1.58,0,2.87,1.28,2.87,2.87v4.21c0,1.58-1.28,2.86-2.86,2.86H103.61s0,5.3,0,5.3c0,.61-.66.99-1.19.69l-17.86-10.27c-.53-.3-.53-1.06,0-1.36Z"/></g></g><g id="arrow_styles_for_diagrams_etc-5"><g id="arrow_styles_for_diagrams_etc-6"><path class="cls-6" d="M84.57,414.04l17.86-10.27c.53-.3,1.19.08,1.19.69v5.3s407.01,0,407.01,0c1.58,0,2.87,1.28,2.87,2.87v4.21c0,1.58-1.28,2.86-2.86,2.86H103.61s0,5.3,0,5.3c0,.61-.66.99-1.19.69l-17.86-10.27c-.53-.3-.53-1.06,0-1.36Z"/></g></g><polyline class="cls-8" points="545.34 430.55 545.34 436.55 539.34 436.55"/><line class="cls-9" x1="527.61" y1="436.55" x2="64.18" y2="436.55"/><polyline class="cls-8" points="58.32 436.55 52.32 436.55 52.32 430.55"/><line class="cls-10" x1="52.32" y1="418.28" x2="52.32" y2="252.67"/><polyline class="cls-8" points="52.32 246.54 52.32 240.54 58.32 240.54"/><line class="cls-9" x1="70.05" y1="240.54" x2="533.47" y2="240.54"/><polyline class="cls-8" points="539.34 240.54 545.34 240.54 545.34 246.54"/><line class="cls-10" x1="545.34" y1="258.81" x2="545.34" y2="424.42"/><polygon class="cls-7" points="106.48 271.05 51.01 271.05 51.01 239.48 119.85 239.48 119.85 258.22 106.48 271.05"/><path class="cls-7" d="M177.64,289.09c1.25,0,2.2.22,2.87.67s1,1.13,1,2.07c0,.58-.13,1.06-.4,1.42-.27.36-.65.65-1.16.86.17.21.34.45.53.71.18.27.37.55.55.84.18.29.35.6.52.91.17.32.32.63.47.93h-2.09c-.15-.27-.31-.55-.46-.83s-.32-.55-.48-.82c-.17-.26-.33-.51-.49-.75-.16-.24-.32-.45-.48-.64h-.92v3.04h-1.87v-8.2c.41-.08.83-.14,1.27-.17.44-.03.83-.05,1.17-.05ZM177.75,290.69c-.14,0-.26,0-.37.01s-.21.02-.31.02v2.26h.53c.7,0,1.21-.09,1.51-.26.3-.18.46-.48.46-.9s-.15-.7-.46-.87c-.31-.17-.76-.26-1.36-.26Z"/><path class="cls-7" d="M182.49,294.39c0-.56.09-1.05.26-1.47s.4-.77.68-1.05.6-.49.97-.64c.36-.14.74-.22,1.12-.22.9,0,1.6.27,2.12.82.52.55.78,1.35.78,2.42,0,.1,0,.22-.01.34,0,.12-.02.23-.02.33h-4.06c.04.37.21.66.52.88.3.22.71.32,1.22.32.33,0,.65-.03.97-.09.32-.06.57-.13.77-.22l.24,1.45c-.1.05-.22.1-.38.14s-.34.09-.53.13-.41.07-.63.09c-.22.02-.45.04-.67.04-.57,0-1.06-.08-1.48-.25s-.77-.4-1.04-.69c-.28-.29-.48-.64-.61-1.04-.13-.4-.2-.83-.2-1.3ZM186.69,293.71c0-.15-.03-.3-.08-.44-.04-.14-.11-.27-.2-.38-.09-.11-.21-.2-.35-.28-.14-.07-.31-.11-.52-.11s-.37.03-.52.1c-.14.07-.26.16-.36.27s-.17.24-.22.39c-.05.15-.09.3-.11.45h2.36Z"/><path class="cls-7" d="M191.61,296.22c.33,0,.56-.03.7-.1s.2-.19.2-.37c0-.14-.09-.27-.26-.38-.18-.11-.44-.23-.8-.37-.28-.1-.53-.21-.76-.32-.23-.11-.42-.25-.58-.4-.16-.16-.28-.34-.37-.56s-.13-.48-.13-.78c0-.59.22-1.06.66-1.4.44-.34,1.04-.52,1.81-.52.38,0,.75.03,1.1.1.35.07.63.14.84.22l-.31,1.39c-.21-.07-.43-.14-.68-.19s-.52-.08-.82-.08c-.56,0-.84.16-.84.47,0,.07.01.14.04.19.02.06.07.11.14.16.07.05.17.11.29.17s.28.13.47.2c.39.15.72.29.97.43.26.14.46.29.61.46.15.16.25.34.31.54.06.2.09.43.09.69,0,.62-.23,1.09-.7,1.41-.47.32-1.13.48-1.99.48-.56,0-1.03-.05-1.4-.14-.37-.1-.63-.18-.77-.24l.3-1.45c.3.12.62.21.94.28.32.07.64.1.95.1Z"/><path class="cls-7" d="M201.49,294.35c0,.49-.06.93-.18,1.33-.12.4-.3.74-.53,1.03-.23.29-.52.51-.86.67-.34.16-.74.24-1.19.24-.25,0-.48-.02-.7-.07s-.42-.12-.62-.2v2.38h-1.79v-8.32c.16-.05.34-.09.55-.14.21-.04.43-.08.65-.11.23-.03.46-.06.7-.08.24-.02.46-.03.68-.03.52,0,.98.08,1.39.23.41.16.75.38,1.03.66.28.28.49.63.64,1.04.15.41.22.86.22,1.37ZM199.66,294.39c0-.55-.12-.99-.37-1.33-.25-.33-.62-.5-1.1-.5-.16,0-.31,0-.44.02-.14.01-.25.03-.34.04v3.23c.11.07.26.13.44.18s.36.07.55.07c.85,0,1.27-.57,1.27-1.72Z"/><path class="cls-7" d="M208.77,294.33c0,.5-.07.95-.22,1.36-.14.41-.35.76-.62,1.06-.27.29-.6.52-.98.68s-.81.24-1.28.24-.89-.08-1.27-.24-.71-.39-.98-.68c-.27-.29-.48-.64-.64-1.06-.15-.41-.23-.87-.23-1.36s.08-.95.23-1.36c.16-.41.37-.76.65-1.04.28-.29.6-.51.98-.67s.79-.24,1.24-.24.87.08,1.25.24.71.38.98.67c.27.29.48.64.64,1.04.15.41.23.86.23,1.36ZM206.95,294.33c0-.55-.11-.99-.33-1.3-.22-.32-.53-.47-.94-.47s-.72.16-.95.47c-.22.32-.34.75-.34,1.3s.11.99.34,1.31c.22.32.54.49.95.49s.72-.16.94-.49c.22-.32.33-.76.33-1.31Z"/><path class="cls-7" d="M210.15,291.41c.3-.09.7-.17,1.18-.25.48-.08.98-.11,1.51-.11s.98.07,1.34.21c.36.14.64.34.85.59.21.26.36.56.44.91.09.35.13.74.13,1.18v3.56h-1.79v-3.35c0-.58-.08-.98-.23-1.22-.15-.24-.44-.36-.85-.36-.13,0-.26,0-.41.02s-.27.03-.38.04v4.87h-1.79v-6.1Z"/><path class="cls-7" d="M219.03,296.22c.33,0,.56-.03.7-.1.14-.06.2-.19.2-.37,0-.14-.09-.27-.26-.38-.18-.11-.44-.23-.8-.37-.28-.1-.53-.21-.76-.32-.23-.11-.42-.25-.58-.4-.16-.16-.28-.34-.37-.56-.09-.22-.13-.48-.13-.78,0-.59.22-1.06.66-1.4.44-.34,1.04-.52,1.81-.52.38,0,.75.03,1.1.1.35.07.63.14.84.22l-.31,1.39c-.21-.07-.43-.14-.68-.19s-.52-.08-.82-.08c-.56,0-.84.16-.84.47,0,.07.01.14.04.19.02.06.07.11.14.16s.17.11.29.17.28.13.47.2c.39.15.72.29.97.43.26.14.46.29.61.46.15.16.25.34.31.54.06.2.09.43.09.69,0,.62-.23,1.09-.7,1.41-.47.32-1.13.48-1.99.48-.56,0-1.03-.05-1.4-.14-.37-.1-.63-.18-.77-.24l.3-1.45c.3.12.62.21.94.28.32.07.64.1.95.1Z"/><path class="cls-7" d="M222.74,294.39c0-.56.09-1.05.26-1.47s.4-.77.68-1.05.6-.49.97-.64c.36-.14.74-.22,1.12-.22.9,0,1.6.27,2.12.82.52.55.78,1.35.78,2.42,0,.1,0,.22-.01.34,0,.12-.02.23-.02.33h-4.06c.04.37.21.66.52.88.3.22.71.32,1.22.32.33,0,.65-.03.97-.09.32-.06.57-.13.77-.22l.24,1.45c-.1.05-.22.1-.38.14s-.34.09-.53.13-.41.07-.63.09c-.22.02-.45.04-.67.04-.57,0-1.06-.08-1.48-.25s-.77-.4-1.04-.69c-.28-.29-.48-.64-.61-1.04-.13-.4-.2-.83-.2-1.3ZM226.94,293.71c0-.15-.03-.3-.08-.44-.04-.14-.11-.27-.2-.38-.09-.11-.21-.2-.35-.28-.14-.07-.31-.11-.52-.11s-.37.03-.52.1c-.14.07-.26.16-.36.27s-.17.24-.22.39c-.05.15-.09.3-.11.45h2.36Z"/><path class="cls-7" d="M236.77,293.88c-.16.61-.33,1.21-.51,1.81-.18.6-.37,1.2-.57,1.81h-1.39c-.14-.34-.3-.74-.47-1.2-.17-.46-.34-.97-.52-1.52-.18-.55-.37-1.13-.55-1.74s-.37-1.23-.55-1.85h1.88c.06.29.13.6.21.94.08.34.16.69.24,1.05.08.36.17.72.27,1.09.09.36.19.71.28,1.05.1-.35.21-.71.31-1.08.1-.37.2-.73.29-1.09.09-.36.18-.7.26-1.03s.16-.64.22-.93h1.3c.06.29.14.6.22.93.08.33.16.68.25,1.03.09.36.18.72.28,1.09.1.37.2.73.3,1.08.1-.34.19-.69.29-1.05.1-.36.19-.73.27-1.09.08-.36.17-.71.24-1.05.08-.34.15-.65.21-.94h1.86c-.18.62-.36,1.24-.55,1.85-.19.61-.37,1.19-.55,1.74s-.36,1.05-.53,1.52c-.17.46-.33.86-.48,1.2h-1.39c-.2-.61-.4-1.21-.59-1.81-.19-.6-.37-1.2-.53-1.81Z"/><path class="cls-7" d="M244.29,289.37c0,.33-.11.59-.32.77-.21.19-.46.28-.75.28s-.54-.09-.75-.28c-.21-.19-.32-.45-.32-.77s.11-.59.32-.77c.21-.19.46-.28.75-.28s.54.09.75.28c.21.19.32.45.32.77ZM244.12,297.5h-1.79v-6.31h1.79v6.31Z"/><path class="cls-7" d="M245.74,289.62l1.79-.29v1.86h2.15v1.49h-2.15v2.22c0,.38.07.68.2.9.13.22.4.34.8.34.19,0,.39-.02.59-.05.2-.04.39-.09.56-.15l.25,1.39c-.22.09-.46.16-.72.23-.26.06-.59.1-.97.1-.49,0-.89-.07-1.21-.2-.32-.13-.58-.32-.77-.55-.19-.24-.33-.52-.4-.86s-.11-.71-.11-1.12v-5.3Z"/><path class="cls-7" d="M251.13,297.5v-9.02l1.79-.29v3.02c.12-.04.27-.08.46-.11.19-.04.37-.05.55-.05.51,0,.94.07,1.28.21.34.14.61.34.82.59.2.26.35.56.43.91.08.35.13.74.13,1.18v3.56h-1.79v-3.35c0-.58-.07-.98-.22-1.22-.15-.24-.42-.36-.82-.36-.16,0-.31.01-.45.04-.14.03-.27.06-.38.09v4.8h-1.79Z"/><path class="cls-7" d="M266.78,297.5c-.09-.29-.19-.59-.3-.89-.11-.3-.21-.61-.32-.91h-3.25c-.11.3-.21.61-.32.91s-.2.6-.29.89h-1.94c.31-.9.61-1.72.89-2.48.28-.76.56-1.48.82-2.15.27-.67.53-1.31.79-1.91s.53-1.19.81-1.77h1.77c.27.58.54,1.17.81,1.77.27.6.53,1.24.8,1.91s.54,1.39.83,2.15c.28.76.58,1.59.89,2.48h-2ZM264.53,291.07c-.04.12-.1.29-.18.49-.08.21-.17.45-.27.72s-.22.57-.34.9c-.13.33-.26.67-.39,1.03h2.38c-.13-.36-.25-.71-.37-1.03-.12-.33-.23-.63-.34-.9s-.2-.51-.28-.72-.15-.37-.2-.49Z"/><path class="cls-7" d="M269.3,294.35c0-.46.07-.89.22-1.29.15-.4.36-.76.64-1.06.28-.3.62-.54,1.02-.71.4-.18.86-.26,1.37-.26.34,0,.64.03.92.09.28.06.55.15.82.26l-.37,1.43c-.17-.06-.35-.12-.55-.17s-.42-.07-.67-.07c-.53,0-.92.16-1.18.49s-.39.76-.39,1.3c0,.57.12,1.01.37,1.32.24.31.67.47,1.28.47.22,0,.45-.02.7-.06.25-.04.48-.1.68-.19l.25,1.46c-.21.09-.47.16-.78.23-.31.06-.66.1-1.03.1-.58,0-1.07-.09-1.49-.26s-.76-.41-1.03-.7c-.27-.3-.46-.65-.59-1.05s-.19-.84-.19-1.31Z"/><path class="cls-7" d="M275,294.35c0-.46.07-.89.22-1.29.15-.4.36-.76.64-1.06s.62-.54,1.02-.71c.4-.18.86-.26,1.37-.26.34,0,.64.03.92.09.28.06.55.15.82.26l-.37,1.43c-.17-.06-.35-.12-.55-.17s-.42-.07-.67-.07c-.53,0-.92.16-1.18.49s-.39.76-.39,1.3c0,.57.12,1.01.37,1.32.24.31.67.47,1.28.47.22,0,.45-.02.7-.06s.48-.1.68-.19l.25,1.46c-.21.09-.47.16-.78.23-.31.06-.66.1-1.03.1-.58,0-1.07-.09-1.49-.26s-.76-.41-1.03-.7c-.27-.3-.46-.65-.59-1.05s-.19-.84-.19-1.31Z"/><path class="cls-7" d="M280.7,294.39c0-.56.09-1.05.26-1.47s.4-.77.68-1.05c.28-.28.6-.49.97-.64.36-.14.74-.22,1.12-.22.9,0,1.6.27,2.12.82.52.55.78,1.35.78,2.42,0,.1,0,.22-.01.34,0,.12-.02.23-.02.33h-4.06c.04.37.21.66.52.88.3.22.71.32,1.22.32.33,0,.65-.03.97-.09.32-.06.57-.13.77-.22l.24,1.45c-.1.05-.22.1-.38.14s-.34.09-.53.13c-.2.04-.41.07-.63.09-.22.02-.45.04-.67.04-.57,0-1.06-.08-1.48-.25s-.77-.4-1.04-.69c-.28-.29-.48-.64-.61-1.04-.13-.4-.2-.83-.2-1.3ZM284.9,293.71c0-.15-.03-.3-.08-.44-.04-.14-.11-.27-.2-.38s-.21-.2-.35-.28c-.14-.07-.31-.11-.52-.11s-.37.03-.52.1c-.14.07-.26.16-.36.27-.1.11-.17.24-.22.39-.05.15-.09.3-.11.45h2.36Z"/><path class="cls-7" d="M289.82,296.22c.33,0,.56-.03.7-.1s.2-.19.2-.37c0-.14-.09-.27-.26-.38-.18-.11-.44-.23-.8-.37-.28-.1-.53-.21-.76-.32-.23-.11-.42-.25-.58-.4-.16-.16-.28-.34-.37-.56s-.13-.48-.13-.78c0-.59.22-1.06.66-1.4.44-.34,1.04-.52,1.81-.52.38,0,.75.03,1.1.1.35.07.63.14.84.22l-.31,1.39c-.21-.07-.43-.14-.68-.19s-.52-.08-.82-.08c-.56,0-.84.16-.84.47,0,.07.01.14.04.19.02.06.07.11.14.16.07.05.17.11.29.17s.28.13.47.2c.39.15.72.29.97.43.26.14.46.29.61.46.15.16.25.34.31.54.06.2.09.43.09.69,0,.62-.23,1.09-.7,1.41-.47.32-1.13.48-1.99.48-.56,0-1.03-.05-1.4-.14-.37-.1-.63-.18-.77-.24l.3-1.45c.3.12.62.21.94.28.32.07.64.1.95.1Z"/><path class="cls-7" d="M295.64,296.22c.33,0,.56-.03.7-.1.14-.06.2-.19.2-.37,0-.14-.09-.27-.26-.38-.18-.11-.44-.23-.8-.37-.28-.1-.53-.21-.76-.32-.23-.11-.42-.25-.58-.4-.16-.16-.28-.34-.37-.56-.09-.22-.13-.48-.13-.78,0-.59.22-1.06.66-1.4.44-.34,1.04-.52,1.81-.52.38,0,.75.03,1.1.1.35.07.63.14.84.22l-.31,1.39c-.21-.07-.43-.14-.68-.19s-.52-.08-.82-.08c-.56,0-.84.16-.84.47,0,.07.01.14.04.19.02.06.07.11.14.16s.17.11.29.17.28.13.47.2c.39.15.72.29.97.43.26.14.46.29.61.46.15.16.25.34.31.54.06.2.09.43.09.69,0,.62-.23,1.09-.7,1.41-.47.32-1.13.48-1.99.48-.56,0-1.03-.05-1.4-.14-.37-.1-.63-.18-.77-.24l.3-1.45c.3.12.62.21.94.28.32.07.64.1.95.1Z"/><path class="cls-7" d="M299.1,293.11h3.48v1.62h-3.48v-1.62Z"/><path class="cls-7" d="M307.88,297.67c-1.35,0-2.38-.38-3.09-1.13s-1.06-1.82-1.06-3.2c0-.69.11-1.3.32-1.84.22-.54.51-1,.89-1.37s.82-.65,1.34-.85c.52-.19,1.08-.29,1.69-.29.35,0,.67.03.96.08.29.05.54.11.76.18s.4.14.54.21c.14.07.25.13.31.17l-.54,1.51c-.26-.14-.55-.25-.89-.35s-.73-.14-1.16-.14c-.29,0-.57.05-.85.14-.28.1-.52.25-.73.46s-.38.49-.51.82-.19.74-.19,1.22c0,.38.04.74.13,1.07s.22.62.41.86c.19.24.43.43.74.57.3.14.67.21,1.1.21.27,0,.52-.02.73-.05s.41-.07.58-.11c.17-.04.32-.09.44-.15s.24-.11.35-.16l.52,1.5c-.26.16-.64.3-1.12.43-.48.13-1.04.19-1.67.19Z"/><path class="cls-7" d="M317.5,294.33c0,.5-.07.95-.22,1.36-.14.41-.35.76-.62,1.06-.27.29-.6.52-.98.68s-.81.24-1.28.24-.89-.08-1.27-.24-.71-.39-.98-.68c-.27-.29-.48-.64-.64-1.06-.15-.41-.23-.87-.23-1.36s.08-.95.23-1.36c.16-.41.37-.76.65-1.04.28-.29.6-.51.98-.67s.79-.24,1.24-.24.87.08,1.25.24.71.38.98.67c.27.29.48.64.64,1.04.15.41.23.86.23,1.36ZM315.68,294.33c0-.55-.11-.99-.33-1.3-.22-.32-.53-.47-.94-.47s-.72.16-.95.47c-.22.32-.34.75-.34,1.3s.11.99.34,1.31c.22.32.54.49.95.49s.72-.16.94-.49c.22-.32.33-.76.33-1.31Z"/><path class="cls-7" d="M318.88,291.41c.3-.09.7-.17,1.18-.25.48-.08.98-.11,1.51-.11s.98.07,1.34.21c.36.14.64.34.85.59.21.26.36.56.44.91.09.35.13.74.13,1.18v3.56h-1.79v-3.35c0-.58-.08-.98-.23-1.22-.15-.24-.44-.36-.85-.36-.13,0-.26,0-.41.02-.14.01-.27.03-.38.04v4.87h-1.79v-6.1Z"/><path class="cls-7" d="M325.89,289.62l1.79-.29v1.86h2.15v1.49h-2.15v2.22c0,.38.07.68.2.9.13.22.4.34.8.34.19,0,.39-.02.59-.05s.39-.09.56-.15l.25,1.39c-.22.09-.46.16-.72.23-.26.06-.59.1-.97.1-.49,0-.89-.07-1.21-.2-.32-.13-.58-.32-.77-.55-.19-.24-.33-.52-.4-.86-.08-.34-.11-.71-.11-1.12v-5.3Z"/><path class="cls-7" d="M335.08,292.77c-.16-.04-.35-.08-.56-.13s-.45-.07-.7-.07c-.11,0-.25,0-.4.03-.16.02-.27.04-.35.07v4.82h-1.79v-5.98c.32-.11.7-.22,1.13-.32.44-.1.92-.15,1.46-.15.1,0,.21,0,.35.02.14.01.27.03.41.05.14.02.27.04.41.07.14.03.25.06.35.1l-.3,1.48Z"/><path class="cls-7" d="M342.12,294.33c0,.5-.07.95-.22,1.36-.14.41-.35.76-.62,1.06-.27.29-.6.52-.98.68s-.81.24-1.28.24-.89-.08-1.27-.24-.71-.39-.98-.68c-.27-.29-.48-.64-.64-1.06s-.23-.87-.23-1.36.08-.95.23-1.36c.16-.41.37-.76.65-1.04s.6-.51.98-.67.79-.24,1.24-.24.87.08,1.25.24.71.38.98.67c.27.29.48.64.64,1.04.15.41.23.86.23,1.36ZM340.3,294.33c0-.55-.11-.99-.33-1.3-.22-.32-.53-.47-.94-.47s-.72.16-.95.47c-.22.32-.34.75-.34,1.3s.11.99.34,1.31c.22.32.54.49.95.49s.72-.16.94-.49c.22-.32.33-.76.33-1.31Z"/><path class="cls-7" d="M346.02,297.62c-.52,0-.94-.06-1.27-.17-.32-.1-.58-.25-.77-.44-.19-.19-.32-.42-.38-.68-.07-.27-.1-.57-.1-.91v-6.95l1.79-.29v6.88c0,.16.01.3.04.43.02.13.07.24.14.32s.17.16.29.22.3.09.52.11l-.25,1.48Z"/><path class="cls-7" d="M346.76,293.11h3.48v1.62h-3.48v-1.62Z"/><path class="cls-7" d="M357.07,297.5c-.09-.29-.19-.59-.3-.89-.11-.3-.21-.61-.32-.91h-3.25c-.11.3-.21.61-.32.91s-.2.6-.29.89h-1.94c.31-.9.61-1.72.89-2.48.28-.76.56-1.48.82-2.15.27-.67.53-1.31.79-1.91s.53-1.19.81-1.77h1.77c.27.58.54,1.17.81,1.77.27.6.53,1.24.8,1.91s.54,1.39.83,2.15c.28.76.58,1.59.89,2.48h-2ZM354.83,291.07c-.04.12-.1.29-.18.49-.08.21-.17.45-.27.72s-.22.57-.34.9c-.13.33-.26.67-.39,1.03h2.38c-.13-.36-.25-.71-.37-1.03-.12-.33-.23-.63-.34-.9s-.2-.51-.28-.72-.15-.37-.2-.49Z"/><path class="cls-7" d="M362.55,297.62c-.52,0-.94-.06-1.27-.17-.32-.1-.58-.25-.77-.44-.19-.19-.32-.42-.38-.68-.07-.27-.1-.57-.1-.91v-6.95l1.79-.29v6.88c0,.16.01.3.04.43.02.13.07.24.14.32.07.09.17.16.29.22.13.06.3.09.52.11l-.25,1.48Z"/><path class="cls-7" d="M366.34,297.62c-.52,0-.94-.06-1.27-.17-.32-.1-.58-.25-.77-.44-.19-.19-.32-.42-.38-.68-.07-.27-.1-.57-.1-.91v-6.95l1.79-.29v6.88c0,.16.01.3.04.43.02.13.07.24.14.32s.17.16.29.22.3.09.52.11l-.25,1.48Z"/><path class="cls-7" d="M373.52,294.33c0,.5-.07.95-.22,1.36-.14.41-.35.76-.62,1.06-.27.29-.6.52-.98.68s-.81.24-1.28.24-.89-.08-1.27-.24-.71-.39-.98-.68c-.27-.29-.48-.64-.64-1.06s-.23-.87-.23-1.36.08-.95.23-1.36c.16-.41.37-.76.65-1.04s.6-.51.98-.67.79-.24,1.24-.24.87.08,1.25.24.71.38.98.67c.27.29.48.64.64,1.04.15.41.23.86.23,1.36ZM371.69,294.33c0-.55-.11-.99-.33-1.3-.22-.32-.53-.47-.94-.47s-.72.16-.95.47c-.22.32-.34.75-.34,1.3s.11.99.34,1.31c.22.32.54.49.95.49s.72-.16.94-.49c.22-.32.33-.76.33-1.31Z"/><path class="cls-7" d="M378.6,293.88c-.16.61-.33,1.21-.51,1.81-.18.6-.37,1.2-.57,1.81h-1.39c-.14-.34-.3-.74-.47-1.2-.17-.46-.34-.97-.52-1.52-.18-.55-.37-1.13-.55-1.74s-.37-1.23-.55-1.85h1.88c.06.29.13.6.21.94.08.34.16.69.24,1.05.08.36.17.72.27,1.09.09.36.19.71.28,1.05.1-.35.21-.71.31-1.08.1-.37.2-.73.29-1.09.09-.36.18-.7.26-1.03s.16-.64.22-.93h1.3c.06.29.14.6.22.93.08.33.16.68.25,1.03.09.36.18.72.28,1.09.1.37.2.73.3,1.08.1-.34.19-.69.29-1.05.1-.36.19-.73.27-1.09.08-.36.17-.71.24-1.05.08-.34.15-.65.21-.94h1.86c-.18.62-.36,1.24-.55,1.85-.19.61-.37,1.19-.55,1.74s-.36,1.05-.53,1.52c-.17.46-.33.86-.48,1.2h-1.39c-.2-.61-.4-1.21-.59-1.81-.19-.6-.37-1.2-.53-1.81Z"/><path class="cls-7" d="M383.71,293.11h3.48v1.62h-3.48v-1.62Z"/><path class="cls-7" d="M396.62,293.34c0,.71-.11,1.34-.32,1.88s-.5.99-.87,1.36-.81.64-1.31.82c-.51.18-1.05.28-1.64.28s-1.1-.09-1.61-.28c-.5-.18-.94-.46-1.32-.82s-.67-.82-.89-1.36-.32-1.17-.32-1.88.11-1.34.34-1.88.53-.99.91-1.36c.38-.37.82-.64,1.32-.83.5-.18,1.03-.28,1.58-.28s1.1.09,1.61.28c.5.18.94.46,1.32.83.38.37.67.82.89,1.36s.32,1.17.32,1.88ZM390.27,293.34c0,.41.05.78.15,1.1s.24.61.43.85c.19.24.42.42.69.55.27.13.58.19.94.19s.65-.06.93-.19c.28-.13.51-.31.7-.55.19-.24.33-.52.43-.85.1-.33.15-.7.15-1.1s-.05-.78-.15-1.11c-.1-.33-.24-.62-.43-.85-.19-.24-.42-.42-.7-.55-.28-.13-.59-.19-.93-.19s-.67.07-.94.2c-.27.13-.5.32-.69.55-.19.24-.33.52-.43.85s-.15.7-.15,1.1Z"/><path class="cls-7" d="M401.86,292.77c-.16-.04-.35-.08-.56-.13s-.45-.07-.7-.07c-.11,0-.25,0-.4.03-.16.02-.27.04-.35.07v4.82h-1.79v-5.98c.32-.11.7-.22,1.13-.32.44-.1.92-.15,1.46-.15.1,0,.21,0,.35.02.14.01.27.03.41.05.14.02.27.04.41.07.14.03.25.06.35.1l-.3,1.48Z"/><path class="cls-7" d="M405.08,289.37c0,.33-.11.59-.32.77-.21.19-.46.28-.75.28s-.54-.09-.75-.28c-.21-.19-.32-.45-.32-.77s.11-.59.32-.77c.21-.19.46-.28.75-.28s.54.09.75.28c.21.19.32.45.32.77ZM404.91,297.5h-1.79v-6.31h1.79v6.31Z"/><path class="cls-7" d="M412.04,296.71c0,1.03-.26,1.8-.79,2.3-.52.5-1.33.75-2.43.75-.38,0-.77-.03-1.15-.1-.38-.07-.74-.16-1.07-.27l.31-1.5c.28.11.57.2.88.26.31.06.66.1,1.05.1.51,0,.87-.11,1.09-.34.21-.22.32-.51.32-.86v-.23c-.19.09-.39.15-.59.2-.2.04-.43.07-.67.07-.87,0-1.54-.26-2-.77-.46-.52-.7-1.24-.7-2.17,0-.46.07-.89.22-1.27.14-.38.35-.71.63-.98.28-.27.61-.48,1.01-.63.4-.15.85-.22,1.36-.22.22,0,.44,0,.67.03.23.02.45.05.68.08.22.03.44.07.64.11.2.04.39.09.55.14v5.3ZM408.11,294.14c0,1,.4,1.5,1.21,1.5.18,0,.36-.02.52-.07.16-.05.3-.1.41-.17v-2.86c-.09-.02-.19-.03-.31-.04s-.26-.02-.42-.02c-.47,0-.82.16-1.06.47-.23.31-.35.71-.35,1.19Z"/><path class="cls-7" d="M415.67,289.37c0,.33-.11.59-.32.77-.21.19-.46.28-.75.28s-.54-.09-.75-.28c-.21-.19-.32-.45-.32-.77s.11-.59.32-.77c.21-.19.46-.28.75-.28s.54.09.75.28c.21.19.32.45.32.77ZM415.5,297.5h-1.79v-6.31h1.79v6.31Z"/><path class="cls-7" d="M417.18,291.41c.3-.09.7-.17,1.18-.25.48-.08.98-.11,1.51-.11s.98.07,1.34.21c.36.14.64.34.85.59.21.26.36.56.44.91.09.35.13.74.13,1.18v3.56h-1.79v-3.35c0-.58-.08-.98-.23-1.22-.15-.24-.44-.36-.85-.36-.13,0-.26,0-.41.02s-.27.03-.38.04v4.87h-1.79v-6.1Z"/><rect class="cls-2" x="185.33" y="127.35" width="225.83" height="21.46" rx="4.33" ry="4.33"/><rect class="cls-2" x="241.07" y="244.99" width="114.35" height="21.46" rx="4.33" ry="4.33"/><rect class="cls-2" x="229.17" y="350.54" width="138.14" height="21.46" rx="4.33" ry="4.33"/><rect class="cls-2" x="245.8" y="384.65" width="104.87" height="21.46" rx="4.33" ry="4.33"/><rect class="cls-2" x="405.63" y="174.79" width="215.7" height="26.44"/><path class="cls-7" d="M417.89,193.09c-1.35,0-2.38-.38-3.09-1.13s-1.06-1.82-1.06-3.2c0-.69.11-1.3.32-1.84s.51-1,.89-1.37.82-.65,1.34-.85c.52-.19,1.08-.29,1.69-.29.35,0,.67.03.96.08.29.05.54.11.76.18s.4.14.54.21c.14.07.25.13.31.17l-.54,1.51c-.26-.14-.55-.25-.89-.35s-.73-.14-1.16-.14c-.29,0-.57.05-.85.14-.28.1-.52.25-.73.46s-.38.49-.51.82-.19.74-.19,1.22c0,.38.04.74.13,1.07s.22.62.41.86c.19.24.43.43.74.57.3.14.67.21,1.1.21.27,0,.52-.02.73-.05.22-.03.41-.07.58-.11.17-.04.32-.09.44-.15s.24-.11.35-.16l.52,1.5c-.26.16-.64.3-1.12.43-.48.13-1.04.19-1.67.19Z"/><path class="cls-7" d="M421.75,192.92v-9.02l1.79-.29v3.02c.12-.04.27-.08.46-.11.19-.04.37-.05.55-.05.51,0,.94.07,1.28.21.34.14.61.34.82.59.2.26.35.56.43.91.08.35.13.74.13,1.18v3.56h-1.79v-3.35c0-.58-.07-.98-.22-1.22-.15-.24-.42-.36-.82-.36-.16,0-.31.01-.45.04-.14.03-.27.06-.38.09v4.8h-1.79Z"/><path class="cls-7" d="M428.52,189.81c0-.56.09-1.05.26-1.47s.4-.77.68-1.05.6-.49.97-.64c.36-.14.74-.22,1.12-.22.9,0,1.6.27,2.12.82.52.55.78,1.35.78,2.42,0,.1,0,.22-.01.34,0,.12-.02.23-.02.33h-4.06c.04.37.21.66.52.88.3.22.71.32,1.22.32.33,0,.65-.03.97-.09.32-.06.57-.13.77-.22l.24,1.45c-.1.05-.22.1-.38.14s-.34.09-.53.13-.41.07-.63.09c-.22.02-.45.04-.67.04-.57,0-1.06-.08-1.48-.25s-.77-.4-1.04-.69c-.28-.29-.48-.64-.61-1.04-.13-.4-.2-.83-.2-1.3ZM432.72,189.13c0-.15-.03-.3-.08-.44-.04-.14-.11-.27-.2-.38-.09-.11-.21-.2-.35-.28-.14-.07-.31-.11-.52-.11s-.37.03-.52.1c-.14.07-.26.16-.36.27s-.17.24-.22.39c-.05.15-.09.3-.11.45h2.36Z"/><path class="cls-7" d="M435.53,189.77c0-.46.07-.89.22-1.29.15-.4.36-.76.64-1.06.28-.3.62-.54,1.02-.71.4-.18.86-.26,1.37-.26.34,0,.64.03.92.09.28.06.55.15.82.26l-.37,1.43c-.17-.06-.35-.12-.55-.17s-.42-.07-.67-.07c-.53,0-.92.16-1.18.49s-.39.76-.39,1.3c0,.57.12,1.01.37,1.32.24.31.67.47,1.28.47.22,0,.45-.02.7-.06.25-.04.48-.1.68-.19l.25,1.46c-.21.09-.47.16-.78.23-.31.06-.66.1-1.03.1-.58,0-1.07-.09-1.49-.26s-.76-.41-1.03-.7c-.27-.3-.46-.65-.59-1.05s-.19-.84-.19-1.31Z"/><path class="cls-7" d="M443.61,188.88c.18-.19.36-.39.54-.6.19-.21.37-.41.55-.61.18-.2.34-.4.5-.58.16-.18.29-.34.4-.48h2.13c-.42.49-.84.95-1.24,1.39-.4.44-.85.9-1.33,1.37.24.22.49.47.74.78s.5.61.74.93c.24.32.46.64.66.96.2.32.37.61.5.88h-2.06c-.13-.21-.27-.44-.44-.69-.16-.25-.34-.51-.52-.76-.18-.25-.38-.5-.58-.73-.2-.23-.41-.43-.6-.59v2.77h-1.79v-9.02l1.79-.29v5.27Z"/><path class="cls-7" d="M450.58,191.64c.33,0,.56-.03.7-.1s.2-.19.2-.37c0-.14-.09-.27-.26-.38-.18-.11-.44-.23-.8-.37-.28-.1-.53-.21-.76-.32-.23-.11-.42-.25-.58-.4-.16-.16-.28-.34-.37-.56s-.13-.48-.13-.78c0-.59.22-1.06.66-1.4.44-.34,1.04-.52,1.81-.52.38,0,.75.03,1.1.1.35.07.63.14.84.22l-.31,1.39c-.21-.07-.43-.14-.68-.19s-.52-.08-.82-.08c-.56,0-.84.16-.84.47,0,.07.01.14.04.19.02.06.07.11.14.16.07.05.17.11.29.17s.28.13.47.2c.39.15.72.29.97.43.26.14.46.29.61.46.15.16.25.34.31.54.06.2.09.43.09.69,0,.62-.23,1.09-.7,1.41-.47.32-1.13.48-1.99.48-.56,0-1.03-.05-1.4-.14-.37-.1-.63-.18-.77-.24l.3-1.45c.3.12.62.21.94.28.32.07.64.1.95.1Z"/><path class="cls-7" d="M465.51,188.76c0,.71-.11,1.34-.32,1.88s-.5.99-.87,1.36-.81.64-1.31.82c-.51.18-1.05.28-1.64.28s-1.1-.09-1.61-.28c-.5-.18-.94-.46-1.32-.82s-.67-.82-.89-1.36c-.22-.54-.32-1.17-.32-1.88s.11-1.34.34-1.88c.22-.54.53-.99.91-1.36.38-.37.82-.64,1.32-.83.5-.18,1.03-.28,1.58-.28s1.1.09,1.61.28c.5.18.94.46,1.32.83.38.37.67.82.89,1.36.22.54.32,1.17.32,1.88ZM459.17,188.76c0,.41.05.78.15,1.1.1.33.24.61.43.85.19.24.42.42.69.55.27.13.58.19.94.19s.65-.06.93-.19c.28-.13.51-.31.7-.55.19-.24.33-.52.43-.85.1-.33.15-.7.15-1.1s-.05-.78-.15-1.11c-.1-.33-.24-.62-.43-.85-.19-.24-.42-.42-.7-.55-.28-.13-.59-.19-.93-.19s-.66.07-.94.2c-.27.13-.5.32-.69.55-.19.24-.33.52-.43.85-.1.33-.15.7-.15,1.1Z"/><path class="cls-7" d="M470.76,188.2c-.16-.04-.35-.08-.56-.13-.22-.04-.45-.07-.7-.07-.11,0-.25,0-.4.03-.16.02-.27.04-.35.07v4.82h-1.79v-5.98c.32-.11.7-.22,1.13-.32.44-.1.92-.15,1.46-.15.1,0,.21,0,.35.02.14.01.27.03.41.05s.27.04.41.07c.14.03.25.06.35.1l-.3,1.48Z"/><path class="cls-7" d="M473.97,184.79c0,.33-.11.59-.32.77-.21.19-.46.28-.75.28s-.54-.09-.75-.28c-.21-.19-.32-.45-.32-.77s.11-.59.32-.77c.21-.19.46-.28.75-.28s.54.09.75.28c.21.19.32.45.32.77ZM473.8,192.92h-1.79v-6.31h1.79v6.31Z"/><path class="cls-7" d="M480.93,192.13c0,1.03-.26,1.8-.79,2.3-.52.5-1.33.75-2.43.75-.38,0-.77-.03-1.15-.1-.38-.07-.74-.16-1.07-.27l.31-1.5c.28.11.57.2.88.26.31.06.66.1,1.05.1.51,0,.87-.11,1.09-.34.21-.22.32-.51.32-.86v-.23c-.19.09-.39.15-.59.2s-.43.07-.67.07c-.87,0-1.54-.26-2-.77-.46-.52-.7-1.24-.7-2.17,0-.46.07-.89.22-1.27.14-.38.35-.71.63-.98.28-.27.61-.48,1.01-.63.4-.15.85-.22,1.36-.22.22,0,.44,0,.67.03.23.02.45.05.68.08.22.03.44.07.64.11.2.04.39.09.55.14v5.3ZM477.01,189.56c0,1,.4,1.5,1.21,1.5.18,0,.36-.02.52-.07.16-.05.3-.1.41-.17v-2.86c-.09-.02-.19-.03-.31-.04s-.26-.02-.42-.02c-.47,0-.82.16-1.06.47-.23.31-.35.71-.35,1.19Z"/><path class="cls-7" d="M484.57,184.79c0,.33-.11.59-.32.77-.21.19-.46.28-.75.28s-.54-.09-.75-.28c-.21-.19-.32-.45-.32-.77s.11-.59.32-.77c.21-.19.46-.28.75-.28s.54.09.75.28c.21.19.32.45.32.77ZM484.4,192.92h-1.79v-6.31h1.79v6.31Z"/><path class="cls-7" d="M486.08,186.83c.3-.09.7-.17,1.18-.25.48-.08.98-.11,1.51-.11s.98.07,1.34.21c.36.14.64.34.85.59.21.26.36.56.44.91.09.35.13.74.13,1.18v3.56h-1.79v-3.35c0-.58-.08-.98-.23-1.22-.15-.24-.44-.36-.85-.36-.13,0-.26,0-.41.02-.14.01-.27.03-.38.04v4.87h-1.79v-6.1Z"/><path class="cls-7" d="M501.73,192.92c-.09-.29-.19-.59-.3-.89-.11-.3-.21-.61-.32-.91h-3.25c-.1.3-.21.61-.32.91s-.2.6-.29.89h-1.94c.31-.9.61-1.72.89-2.48.28-.76.56-1.48.82-2.15s.53-1.31.79-1.91.53-1.19.81-1.77h1.78c.27.58.54,1.17.81,1.77.26.6.53,1.24.8,1.91.27.67.54,1.39.83,2.15.28.76.58,1.59.89,2.48h-2ZM499.48,186.49c-.04.12-.1.29-.18.49-.08.21-.17.45-.27.72-.1.27-.22.57-.34.9-.13.33-.26.67-.39,1.03h2.38c-.13-.36-.25-.71-.37-1.03-.12-.33-.23-.63-.34-.9s-.2-.51-.28-.72c-.08-.21-.15-.37-.2-.49Z"/><path class="cls-7" d="M510,192.13c0,1.03-.26,1.8-.79,2.3-.52.5-1.33.75-2.43.75-.38,0-.77-.03-1.15-.1-.38-.07-.74-.16-1.07-.27l.31-1.5c.28.11.57.2.88.26.31.06.66.1,1.05.1.51,0,.87-.11,1.09-.34.21-.22.32-.51.32-.86v-.23c-.19.09-.39.15-.59.2s-.43.07-.67.07c-.87,0-1.54-.26-2-.77-.46-.52-.7-1.24-.7-2.17,0-.46.07-.89.22-1.27.14-.38.35-.71.63-.98.28-.27.61-.48,1.01-.63.4-.15.85-.22,1.36-.22.22,0,.44,0,.67.03.23.02.45.05.68.08.22.03.44.07.64.11.2.04.39.09.55.14v5.3ZM506.07,189.56c0,1,.4,1.5,1.21,1.5.18,0,.36-.02.52-.07.16-.05.3-.1.41-.17v-2.86c-.09-.02-.19-.03-.31-.04s-.26-.02-.42-.02c-.47,0-.82.16-1.06.47-.23.31-.35.71-.35,1.19Z"/><path class="cls-7" d="M513.94,186.44c.53,0,.97.06,1.32.18.35.12.63.29.85.52.21.22.36.5.45.82.09.32.13.68.13,1.07v3.72c-.26.06-.61.12-1.07.2-.46.08-1.01.11-1.66.11-.41,0-.78-.04-1.11-.11-.33-.07-.62-.19-.86-.35s-.42-.38-.55-.64c-.13-.26-.19-.59-.19-.97s.07-.68.22-.94c.15-.26.35-.46.59-.61.25-.15.53-.26.85-.33.32-.07.65-.1,1-.1.23,0,.44,0,.62.03.18.02.33.05.44.08v-.17c0-.3-.09-.55-.28-.73s-.5-.28-.96-.28c-.3,0-.6.02-.9.07s-.55.11-.77.19l-.23-1.44c.1-.03.23-.07.39-.1s.33-.07.51-.1c.18-.03.38-.05.58-.07.2-.02.41-.03.62-.03ZM514.09,191.67c.18,0,.34,0,.5-.01s.29-.02.38-.04v-1.36c-.07-.02-.18-.03-.32-.05-.14-.02-.28-.02-.4-.02-.17,0-.33,0-.47.03-.15.02-.28.06-.39.11-.11.06-.2.13-.26.23-.06.1-.1.22-.1.36,0,.28.09.47.28.58.19.11.45.16.77.16Z"/><path class="cls-7" d="M520.27,184.79c0,.33-.11.59-.32.77-.21.19-.46.28-.75.28s-.54-.09-.75-.28c-.21-.19-.32-.45-.32-.77s.11-.59.32-.77c.21-.19.46-.28.75-.28s.54.09.75.28c.21.19.32.45.32.77ZM520.1,192.92h-1.79v-6.31h1.79v6.31Z"/><path class="cls-7" d="M521.78,186.83c.3-.09.7-.17,1.18-.25.48-.08.98-.11,1.51-.11s.98.07,1.34.21c.36.14.64.34.85.59.21.26.36.56.44.91.09.35.13.74.13,1.18v3.56h-1.79v-3.35c0-.58-.08-.98-.23-1.22-.15-.24-.44-.36-.85-.36-.13,0-.26,0-.41.02s-.27.03-.38.04v4.87h-1.79v-6.1Z"/><path class="cls-7" d="M530.66,191.64c.33,0,.56-.03.7-.1.14-.06.2-.19.2-.37,0-.14-.09-.27-.26-.38-.18-.11-.44-.23-.8-.37-.28-.1-.53-.21-.76-.32-.23-.11-.42-.25-.58-.4-.16-.16-.28-.34-.37-.56-.09-.22-.13-.48-.13-.78,0-.59.22-1.06.66-1.4.44-.34,1.04-.52,1.81-.52.38,0,.75.03,1.1.1.35.07.63.14.84.22l-.31,1.39c-.21-.07-.43-.14-.68-.19s-.52-.08-.82-.08c-.56,0-.84.16-.84.47,0,.07.01.14.04.19.02.06.07.11.14.16s.17.11.29.17.28.13.47.2c.39.15.72.29.97.43.26.14.46.29.61.46.15.16.25.34.31.54.06.2.09.43.09.69,0,.62-.23,1.09-.7,1.41-.47.32-1.13.48-1.99.48-.56,0-1.03-.05-1.4-.14-.37-.1-.63-.18-.77-.24l.3-1.45c.3.12.62.21.94.28.32.07.64.1.95.1Z"/><path class="cls-7" d="M534.61,185.04l1.79-.29v1.86h2.15v1.49h-2.15v2.22c0,.38.07.68.2.9.13.22.4.34.8.34.19,0,.39-.02.59-.05.2-.04.39-.09.56-.15l.25,1.39c-.22.09-.46.16-.72.23-.26.06-.59.1-.97.1-.49,0-.89-.07-1.21-.2-.32-.13-.58-.32-.77-.55-.19-.24-.33-.52-.4-.86s-.11-.71-.11-1.12v-5.3Z"/><path class="cls-7" d="M548.57,192.92c-.09-.29-.19-.59-.3-.89-.11-.3-.21-.61-.32-.91h-3.25c-.11.3-.21.61-.32.91s-.2.6-.29.89h-1.94c.31-.9.61-1.72.89-2.48.28-.76.56-1.48.82-2.15.27-.67.53-1.31.79-1.91s.53-1.19.81-1.77h1.77c.27.58.54,1.17.81,1.77.27.6.53,1.24.8,1.91s.54,1.39.83,2.15c.28.76.58,1.59.89,2.48h-2ZM546.33,186.49c-.04.12-.1.29-.18.49-.08.21-.17.45-.27.72s-.22.57-.34.9c-.13.33-.26.67-.39,1.03h2.38c-.13-.36-.25-.71-.37-1.03-.12-.33-.23-.63-.34-.9s-.2-.51-.28-.72-.15-.37-.2-.49Z"/><path class="cls-7" d="M554.05,193.04c-.52,0-.94-.06-1.27-.17-.32-.1-.58-.25-.77-.44-.19-.19-.32-.42-.38-.68-.07-.27-.1-.57-.1-.91v-6.95l1.79-.29v6.88c0,.16.01.3.04.43.02.13.07.24.14.32s.17.16.29.22.3.09.52.11l-.25,1.48Z"/><path class="cls-7" d="M557.84,193.04c-.52,0-.94-.06-1.27-.17-.32-.1-.58-.25-.77-.44-.19-.19-.32-.42-.38-.68-.07-.27-.1-.57-.1-.91v-6.95l1.79-.29v6.88c0,.16.01.3.04.43.02.13.07.24.14.32s.17.16.29.22.3.09.52.11l-.25,1.48Z"/><path class="cls-7" d="M565.02,189.75c0,.5-.07.95-.22,1.36-.14.41-.35.76-.62,1.06-.27.29-.6.52-.98.68s-.81.24-1.28.24-.89-.08-1.27-.24-.71-.39-.98-.68c-.27-.29-.48-.64-.64-1.06s-.23-.87-.23-1.36.08-.95.23-1.36c.16-.41.37-.76.65-1.04s.6-.51.98-.67.79-.24,1.24-.24.87.08,1.25.24.71.38.98.67c.27.29.48.64.64,1.04.15.41.23.86.23,1.36ZM563.19,189.75c0-.55-.11-.99-.33-1.3-.22-.32-.53-.47-.94-.47s-.72.16-.95.47c-.22.32-.34.75-.34,1.3s.11.99.34,1.31c.22.32.54.49.95.49s.72-.16.94-.49c.22-.32.33-.76.33-1.31Z"/><path class="cls-7" d="M570.1,189.3c-.16.61-.33,1.21-.51,1.81-.18.6-.37,1.2-.57,1.81h-1.39c-.14-.34-.3-.74-.47-1.2-.17-.46-.34-.97-.52-1.52-.18-.55-.37-1.13-.55-1.74s-.37-1.23-.55-1.85h1.88c.06.29.13.6.21.94.08.34.16.69.24,1.05.08.36.17.72.27,1.09.09.36.19.71.28,1.05.1-.35.21-.71.31-1.08.1-.37.2-.73.29-1.09.09-.36.18-.7.26-1.03s.16-.64.22-.93h1.3c.06.29.14.6.22.93.08.33.16.68.25,1.03.09.36.18.72.28,1.09.1.37.2.73.3,1.08.1-.34.19-.69.29-1.05.1-.36.19-.73.27-1.09.08-.36.17-.71.24-1.05.08-.34.15-.65.21-.94h1.86c-.18.62-.36,1.24-.55,1.85-.19.61-.37,1.19-.55,1.74s-.36,1.05-.53,1.52c-.17.46-.33.86-.48,1.2h-1.39c-.2-.61-.4-1.21-.59-1.81-.19-.6-.37-1.2-.53-1.81Z"/><path class="cls-7" d="M575.21,189.81c0-.56.09-1.05.26-1.47s.4-.77.68-1.05c.28-.28.6-.49.97-.64.36-.14.74-.22,1.12-.22.9,0,1.6.27,2.12.82.52.55.78,1.35.78,2.42,0,.1,0,.22-.01.34,0,.12-.02.23-.02.33h-4.06c.04.37.21.66.52.88.3.22.71.32,1.22.32.33,0,.65-.03.97-.09.32-.06.57-.13.77-.22l.24,1.45c-.1.05-.22.1-.38.14s-.34.09-.53.13c-.2.04-.41.07-.63.09-.22.02-.45.04-.67.04-.57,0-1.06-.08-1.48-.25s-.77-.4-1.04-.69c-.28-.29-.48-.64-.61-1.04-.13-.4-.2-.83-.2-1.3ZM579.42,189.13c0-.15-.03-.3-.08-.44-.04-.14-.11-.27-.2-.38s-.21-.2-.35-.28c-.14-.07-.31-.11-.52-.11s-.37.03-.52.1c-.14.07-.26.16-.36.27-.1.11-.17.24-.22.39-.05.15-.09.3-.11.45h2.36Z"/><path class="cls-7" d="M588.09,192.72c-.16.05-.34.09-.55.14-.21.04-.43.08-.65.11-.23.03-.46.06-.7.08-.24.02-.46.03-.68.03-.52,0-.98-.08-1.39-.23-.41-.15-.75-.37-1.03-.65-.28-.28-.49-.63-.64-1.03s-.22-.86-.22-1.36.06-.97.19-1.39.31-.76.55-1.05c.24-.29.53-.51.88-.66.35-.15.75-.23,1.19-.23.25,0,.47.02.67.07.2.05.39.12.59.2v-2.86l1.79-.29v9.11ZM584.05,189.72c0,.55.12,1,.37,1.33s.62.5,1.1.5c.16,0,.31,0,.44-.02.14-.01.25-.03.34-.04v-3.25c-.11-.07-.26-.13-.44-.18-.18-.05-.36-.07-.55-.07-.85,0-1.27.58-1.27,1.73Z"/><path class="cls-7" d="M598.33,191.31v1.61h-5.56v-8.32h1.87v6.71h3.68Z"/><path class="cls-7" d="M601.36,184.79c0,.33-.11.59-.32.77-.21.19-.46.28-.75.28s-.54-.09-.75-.28c-.21-.19-.32-.45-.32-.77s.11-.59.32-.77c.21-.19.46-.28.75-.28s.54.09.75.28c.21.19.32.45.32.77ZM601.19,192.92h-1.79v-6.31h1.79v6.31Z"/><path class="cls-7" d="M604.69,191.64c.33,0,.56-.03.7-.1s.2-.19.2-.37c0-.14-.09-.27-.26-.38-.18-.11-.44-.23-.8-.37-.28-.1-.53-.21-.76-.32-.23-.11-.42-.25-.58-.4-.16-.16-.28-.34-.37-.56s-.13-.48-.13-.78c0-.59.22-1.06.66-1.4.44-.34,1.04-.52,1.81-.52.38,0,.75.03,1.1.1.35.07.63.14.84.22l-.31,1.39c-.21-.07-.43-.14-.68-.19s-.52-.08-.82-.08c-.56,0-.84.16-.84.47,0,.07.01.14.04.19.02.06.07.11.14.16.07.05.17.11.29.17s.28.13.47.2c.39.15.72.29.97.43.26.14.46.29.61.46.15.16.25.34.31.54.06.2.09.43.09.69,0,.62-.23,1.09-.7,1.41-.47.32-1.13.48-1.99.48-.56,0-1.03-.05-1.4-.14-.37-.1-.63-.18-.77-.24l.3-1.45c.3.12.62.21.94.28.32.07.64.1.95.1Z"/><path class="cls-7" d="M608.63,185.04l1.79-.29v1.86h2.15v1.49h-2.15v2.22c0,.38.07.68.2.9.13.22.4.34.8.34.19,0,.39-.02.59-.05.2-.04.39-.09.56-.15l.25,1.39c-.22.09-.46.16-.72.23-.26.06-.59.1-.97.1-.49,0-.89-.07-1.21-.2-.32-.13-.58-.32-.77-.55-.19-.24-.33-.52-.4-.86s-.11-.71-.11-1.12v-5.3Z"/><path class="cls-7" d="M197.73,140.76c.24,0,.43-.02.59-.06.15-.04.28-.09.37-.16.09-.07.16-.15.19-.24.04-.09.05-.2.05-.31,0-.25-.12-.45-.35-.61-.23-.16-.62-.34-1.19-.52-.25-.09-.49-.18-.73-.3-.25-.11-.46-.25-.66-.42s-.35-.37-.48-.62c-.12-.24-.18-.53-.18-.88s.06-.66.19-.93c.13-.28.31-.51.55-.71s.53-.34.86-.45c.34-.1.72-.16,1.14-.16.5,0,.94.05,1.31.16.37.11.67.23.91.36l-.49,1.33c-.21-.11-.44-.2-.7-.29-.25-.08-.56-.12-.92-.12-.4,0-.69.06-.87.17-.18.11-.26.28-.26.51,0,.14.03.25.1.34.06.09.16.18.28.25.12.08.25.14.41.21.15.06.33.12.51.19.39.14.73.29,1.01.43.29.14.53.3.72.49.19.19.33.41.43.66.09.25.14.56.14.92,0,.7-.25,1.24-.73,1.62-.49.38-1.23.58-2.21.58-.33,0-.63-.02-.9-.06-.27-.04-.5-.09-.71-.15s-.38-.12-.53-.18-.27-.13-.37-.18l.47-1.34c.22.12.5.23.83.33.33.1.73.15,1.2.15Z"/><path class="cls-7" d="M201.6,139.25c0-.5.08-.94.23-1.32.15-.38.36-.69.61-.94s.54-.44.87-.57c.33-.13.66-.19,1.01-.19.81,0,1.44.25,1.91.74.47.49.7,1.22.7,2.17,0,.09,0,.2-.01.31s-.01.21-.02.3h-3.65c.04.33.19.59.46.79.27.19.64.29,1.1.29.29,0,.58-.03.87-.08.28-.05.52-.12.7-.2l.22,1.31c-.09.04-.2.09-.35.13-.14.04-.3.08-.48.11-.18.03-.36.06-.57.08-.2.02-.4.03-.6.03-.51,0-.96-.08-1.33-.23-.38-.15-.69-.36-.94-.62-.25-.26-.43-.57-.55-.93-.12-.36-.18-.75-.18-1.17ZM205.37,138.64c0-.14-.03-.27-.07-.4-.04-.13-.1-.25-.18-.35-.08-.1-.19-.18-.31-.25s-.28-.1-.47-.1-.33.03-.46.09c-.13.06-.24.14-.32.24-.09.1-.15.22-.2.35-.05.13-.08.27-.1.4h2.13Z"/><path class="cls-7" d="M208.17,136.56c.27-.08.63-.15,1.06-.22.43-.07.88-.1,1.36-.1s.88.06,1.2.19c.32.13.57.3.76.53.19.23.32.5.4.82s.12.67.12,1.06v3.21h-1.61v-3.01c0-.52-.07-.88-.21-1.1s-.39-.32-.77-.32c-.12,0-.24,0-.37.02-.13.01-.25.02-.35.04v4.38h-1.61v-5.48Z"/><path class="cls-7" d="M219.53,141.86c-.14.04-.31.08-.5.12-.19.04-.38.07-.59.1-.21.03-.41.05-.63.07s-.42.03-.61.03c-.47,0-.88-.07-1.25-.21-.37-.14-.68-.33-.93-.59-.25-.26-.44-.57-.58-.93-.13-.36-.2-.77-.2-1.22s.06-.88.17-1.25c.12-.37.28-.69.5-.94.21-.26.48-.46.79-.59.31-.14.67-.21,1.07-.21.22,0,.42.02.6.06.18.04.35.1.53.18v-2.57l1.61-.26v8.19ZM215.89,139.16c0,.5.11.9.33,1.2.22.3.55.45.99.45.14,0,.28,0,.4-.02.12-.01.22-.02.3-.04v-2.92c-.1-.06-.23-.12-.39-.16s-.33-.06-.49-.06c-.76,0-1.14.52-1.14,1.55Z"/><path class="cls-7" d="M222.67,140.89c.29,0,.5-.03.62-.09.12-.06.18-.17.18-.33,0-.13-.08-.24-.24-.34-.16-.1-.4-.21-.72-.33-.25-.09-.48-.19-.69-.29-.21-.1-.38-.22-.52-.36-.14-.14-.25-.31-.33-.5-.08-.19-.12-.43-.12-.7,0-.53.2-.95.59-1.26.4-.31.94-.46,1.63-.46.35,0,.68.03.99.09.32.06.57.13.75.2l-.28,1.25c-.19-.06-.39-.12-.61-.17-.22-.05-.47-.08-.74-.08-.5,0-.75.14-.75.42,0,.07.01.12.03.17.02.05.06.1.13.15.07.05.15.1.26.15.11.05.25.11.43.18.35.13.64.26.87.39.23.13.41.26.54.41.13.15.23.31.28.49.05.18.08.39.08.62,0,.56-.21.98-.63,1.27s-1.02.43-1.79.43c-.5,0-.92-.04-1.26-.13-.33-.09-.57-.16-.7-.22l.27-1.31c.27.11.55.19.84.25.29.06.57.09.85.09Z"/><path class="cls-7" d="M233.48,134.57h1.68v7.48h-1.68v-3.17h-2.83v3.17h-1.68v-7.48h1.68v2.86h2.83v-2.86Z"/><path class="cls-7" d="M242.44,134.57v1.43h-2.25v6.04h-1.68v-6.04h-2.25v-1.43h6.19Z"/><path class="cls-7" d="M249.34,134.57v1.43h-2.25v6.04h-1.68v-6.04h-2.25v-1.43h6.19Z"/><path class="cls-7" d="M252.66,134.48c1.12,0,1.97.2,2.57.59.6.39.9,1.03.9,1.93s-.3,1.55-.91,1.95c-.6.4-1.47.6-2.59.6h-.53v2.5h-1.68v-7.37c.37-.07.76-.12,1.17-.15.41-.03.77-.04,1.08-.04ZM252.77,135.92c-.12,0-.24,0-.36.01-.12,0-.22.01-.31.02v2.16h.53c.58,0,1.02-.08,1.32-.24s.44-.45.44-.88c0-.21-.04-.38-.11-.52-.08-.14-.18-.25-.32-.33-.14-.08-.31-.14-.51-.17s-.42-.05-.67-.05Z"/><path class="cls-7" d="M262.15,134.48c1.12,0,1.98.2,2.58.6.6.4.9,1.02.9,1.86,0,.53-.12.95-.36,1.28s-.59.58-1.04.77c.15.19.31.4.47.64.17.24.33.49.49.75s.32.54.47.82c.15.28.29.56.42.84h-1.88c-.14-.24-.28-.49-.42-.74-.14-.25-.29-.5-.43-.73s-.29-.46-.44-.67-.29-.41-.43-.58h-.83v2.73h-1.68v-7.37c.37-.07.75-.12,1.14-.15.39-.03.74-.04,1.05-.04ZM262.25,135.92c-.12,0-.23,0-.33.01-.1,0-.19.01-.28.02v2.03h.48c.63,0,1.09-.08,1.36-.24.27-.16.41-.43.41-.81s-.14-.63-.42-.78c-.28-.16-.68-.23-1.22-.23Z"/><path class="cls-7" d="M266.51,139.25c0-.5.08-.94.23-1.32.15-.38.36-.69.61-.94s.54-.44.87-.57c.33-.13.66-.19,1.01-.19.81,0,1.44.25,1.91.74.47.49.7,1.22.7,2.17,0,.09,0,.2-.01.31,0,.11-.01.21-.02.3h-3.65c.04.33.19.59.46.79s.64.29,1.1.29c.29,0,.58-.03.87-.08.28-.05.52-.12.7-.2l.22,1.31c-.09.04-.2.09-.34.13-.14.04-.3.08-.48.11-.18.03-.37.06-.57.08-.2.02-.4.03-.6.03-.51,0-.96-.08-1.33-.23-.38-.15-.69-.36-.94-.62-.25-.26-.43-.57-.55-.93-.12-.36-.18-.75-.18-1.17ZM270.29,138.64c0-.14-.03-.27-.07-.4-.04-.13-.1-.25-.18-.35s-.19-.18-.31-.25c-.13-.06-.28-.1-.47-.1s-.33.03-.46.09c-.13.06-.24.14-.32.24-.09.1-.15.22-.2.35-.05.13-.08.27-.1.4h2.13Z"/><path class="cls-7" d="M272.81,139.21c0-.44.07-.84.2-1.2.13-.36.33-.68.58-.94.25-.26.56-.47.93-.61.37-.14.78-.22,1.25-.22.19,0,.4,0,.61.03.21.02.42.04.63.07.2.03.4.06.59.1.19.04.35.08.5.12v7.48h-1.61v-2.14c-.18.08-.37.14-.56.18s-.4.06-.63.06c-.81,0-1.42-.26-1.84-.79-.42-.53-.64-1.25-.64-2.15ZM274.45,139.25c0,1.03.38,1.54,1.14,1.54.17,0,.33-.02.49-.06.16-.04.29-.1.39-.16v-2.9c-.08-.01-.18-.03-.3-.04s-.25-.02-.4-.02c-.44,0-.77.15-.99.45-.22.3-.33.7-.33,1.19Z"/><path class="cls-7" d="M284.44,141.85c-.27.08-.63.15-1.06.22s-.88.1-1.36.1-.88-.07-1.2-.19c-.32-.13-.57-.31-.76-.54-.19-.23-.32-.51-.4-.84-.08-.32-.12-.68-.12-1.07v-3.16h1.61v2.97c0,.52.07.89.21,1.12s.39.34.77.34c.12,0,.24,0,.37-.02.13-.01.24-.02.34-.04v-4.38h1.61v5.48Z"/><path class="cls-7" d="M285.68,139.25c0-.5.08-.94.23-1.32.15-.38.36-.69.61-.94s.54-.44.87-.57c.33-.13.66-.19,1.01-.19.81,0,1.44.25,1.91.74.47.49.7,1.22.7,2.17,0,.09,0,.2-.01.31,0,.11-.01.21-.02.3h-3.65c.04.33.19.59.46.79s.64.29,1.1.29c.29,0,.58-.03.87-.08.28-.05.52-.12.7-.2l.22,1.31c-.09.04-.2.09-.34.13-.14.04-.3.08-.48.11-.18.03-.37.06-.57.08-.2.02-.4.03-.6.03-.51,0-.96-.08-1.33-.23-.38-.15-.69-.36-.94-.62-.25-.26-.43-.57-.55-.93-.12-.36-.18-.75-.18-1.17ZM289.46,138.64c0-.14-.03-.27-.07-.4-.04-.13-.1-.25-.18-.35s-.19-.18-.31-.25c-.13-.06-.28-.1-.47-.1s-.33.03-.46.09c-.13.06-.24.14-.32.24-.09.1-.15.22-.2.35-.05.13-.08.27-.1.4h2.13Z"/><path class="cls-7" d="M293.88,140.89c.29,0,.5-.03.62-.09.12-.06.18-.17.18-.33,0-.13-.08-.24-.24-.34-.16-.1-.4-.21-.72-.33-.25-.09-.48-.19-.69-.29-.21-.1-.38-.22-.52-.36-.14-.14-.25-.31-.33-.5-.08-.19-.12-.43-.12-.7,0-.53.2-.95.59-1.26.4-.31.94-.46,1.63-.46.35,0,.68.03.99.09.32.06.57.13.75.2l-.28,1.25c-.19-.06-.39-.12-.61-.17-.22-.05-.47-.08-.74-.08-.5,0-.75.14-.75.42,0,.07.01.12.03.17.02.05.06.1.13.15.07.05.15.1.26.15.11.05.25.11.43.18.35.13.64.26.87.39.23.13.41.26.54.41.13.15.23.31.28.49.05.18.08.39.08.62,0,.56-.21.98-.63,1.27s-1.02.43-1.79.43c-.5,0-.92-.04-1.26-.13-.33-.09-.57-.16-.7-.22l.27-1.31c.27.11.55.19.84.25.29.06.57.09.85.09Z"/><path class="cls-7" d="M297.43,134.96l1.61-.26v1.67h1.93v1.34h-1.93v2c0,.34.06.61.18.81.12.2.36.3.72.3.17,0,.35-.02.53-.05s.35-.08.5-.13l.23,1.25c-.19.08-.41.15-.65.21s-.53.09-.87.09c-.44,0-.8-.06-1.09-.18-.29-.12-.52-.28-.69-.5s-.29-.47-.36-.77-.1-.64-.1-1v-4.77Z"/><path class="cls-7" d="M308.32,138.79c-.14.55-.3,1.09-.46,1.63-.16.54-.33,1.08-.51,1.63h-1.25c-.13-.3-.27-.66-.42-1.08s-.31-.87-.47-1.37c-.16-.49-.33-1.01-.5-1.56-.17-.55-.33-1.11-.49-1.67h1.69c.06.26.12.54.19.85.07.31.14.62.22.94.08.32.16.65.24.98.08.33.17.64.26.94.09-.32.18-.64.27-.97s.18-.66.26-.98c.08-.32.16-.63.24-.93.08-.3.14-.58.2-.84h1.17c.06.26.12.54.19.84.07.3.15.61.23.93s.16.65.25.98c.09.33.18.65.27.97.09-.3.17-.62.26-.94.09-.33.17-.65.24-.98.08-.32.15-.64.22-.94.07-.31.13-.59.19-.85h1.67c-.16.56-.32,1.12-.49,1.67-.17.55-.34,1.07-.5,1.56-.16.49-.32.95-.48,1.37-.15.42-.3.78-.43,1.08h-1.25c-.18-.55-.36-1.09-.53-1.63-.17-.54-.33-1.08-.48-1.63Z"/><path class="cls-7" d="M315.08,134.73c0,.29-.1.53-.29.7-.19.17-.42.25-.67.25s-.48-.08-.67-.25c-.19-.17-.29-.4-.29-.7s.09-.53.29-.7c.19-.17.42-.25.67-.25s.48.08.67.25.29.4.29.7ZM314.93,142.05h-1.61v-5.68h1.61v5.68Z"/><path class="cls-7" d="M316.39,134.96l1.61-.26v1.67h1.93v1.34h-1.93v2c0,.34.06.61.18.81.12.2.36.3.72.3.17,0,.35-.02.53-.05s.35-.08.5-.13l.23,1.25c-.19.08-.41.15-.65.21s-.53.09-.87.09c-.44,0-.8-.06-1.09-.18-.29-.12-.52-.28-.69-.5-.17-.21-.29-.47-.36-.77s-.1-.64-.1-1v-4.77Z"/><path class="cls-7" d="M321.23,142.05v-8.11l1.61-.26v2.72c.11-.04.25-.07.42-.1s.33-.05.49-.05c.46,0,.84.06,1.15.19s.55.3.73.53.31.5.39.82c.08.32.11.67.11,1.06v3.21h-1.61v-3.01c0-.52-.07-.88-.2-1.1-.13-.22-.38-.32-.74-.32-.14,0-.28.01-.4.04-.13.03-.24.05-.34.08v4.32h-1.61Z"/><path class="cls-7" d="M337.41,138.3c0,.64-.1,1.2-.29,1.69s-.45.89-.78,1.22c-.33.33-.72.57-1.18.74-.46.17-.95.25-1.47.25s-.99-.08-1.45-.25c-.45-.17-.85-.41-1.19-.74-.34-.33-.6-.73-.8-1.22s-.29-1.05-.29-1.69.1-1.2.3-1.69.47-.89.81-1.22.74-.58,1.19-.75c.45-.17.92-.25,1.42-.25s.99.08,1.45.25c.45.17.85.41,1.19.75.34.33.6.74.8,1.22s.29,1.05.29,1.69ZM331.7,138.3c0,.37.04.7.13.99.09.3.22.55.39.76.17.21.38.38.62.49.24.12.52.17.84.17s.59-.06.84-.17.46-.28.63-.49c.17-.21.3-.46.39-.76.09-.29.13-.62.13-.99s-.04-.7-.13-1c-.09-.3-.22-.55-.39-.77-.17-.21-.38-.38-.63-.49s-.53-.17-.84-.17-.6.06-.84.18c-.25.12-.45.28-.62.5-.17.21-.3.47-.39.77s-.13.63-.13.99Z"/><path class="cls-7" d="M342.12,137.79c-.14-.04-.31-.07-.51-.11-.19-.04-.4-.06-.63-.06-.1,0-.22,0-.36.03-.14.02-.25.04-.32.06v4.34h-1.61v-5.37c.29-.1.63-.2,1.02-.29.39-.09.83-.13,1.31-.13.09,0,.19,0,.31.02.12.01.24.03.37.04.12.02.25.04.37.07s.23.06.31.09l-.27,1.33Z"/><path class="cls-7" d="M345.02,134.73c0,.29-.1.53-.29.7-.19.17-.42.25-.67.25s-.48-.08-.67-.25c-.19-.17-.29-.4-.29-.7s.1-.53.29-.7.42-.25.67-.25.48.08.67.25.29.4.29.7ZM344.87,142.05h-1.61v-5.68h1.61v5.68Z"/><path class="cls-7" d="M351.27,141.33c0,.93-.24,1.62-.71,2.07-.47.45-1.2.67-2.19.67-.34,0-.69-.03-1.04-.09-.35-.06-.67-.14-.96-.24l.28-1.35c.25.1.52.18.79.24.28.06.59.09.94.09.46,0,.79-.1.98-.3.19-.2.29-.46.29-.78v-.21c-.17.08-.35.14-.53.18-.18.04-.38.06-.6.06-.78,0-1.38-.23-1.8-.7s-.63-1.11-.63-1.95c0-.42.06-.8.19-1.14.13-.34.32-.63.57-.88.25-.24.55-.43.91-.57.36-.13.77-.2,1.22-.2.19,0,.39,0,.6.03.21.02.41.04.61.07.2.03.39.06.58.1.18.04.35.08.49.12v4.77ZM347.75,139.02c0,.9.36,1.35,1.09,1.35.17,0,.32-.02.46-.06.14-.04.27-.09.37-.15v-2.57c-.08-.01-.17-.03-.28-.04-.11-.01-.23-.02-.38-.02-.42,0-.74.14-.95.42-.21.28-.31.64-.31,1.07Z"/><path class="cls-7" d="M354.54,134.73c0,.29-.1.53-.29.7-.19.17-.42.25-.67.25s-.48-.08-.67-.25c-.19-.17-.29-.4-.29-.7s.09-.53.29-.7c.19-.17.42-.25.67-.25s.48.08.67.25.29.4.29.7ZM354.39,142.05h-1.61v-5.68h1.61v5.68Z"/><path class="cls-7" d="M355.9,136.56c.27-.08.63-.15,1.06-.22.43-.07.88-.1,1.36-.1s.88.06,1.2.19c.32.13.57.3.76.53.19.23.32.5.4.82s.12.67.12,1.06v3.21h-1.61v-3.01c0-.52-.07-.88-.21-1.1s-.39-.32-.77-.32c-.12,0-.24,0-.37.02-.13.01-.25.02-.35.04v4.38h-1.61v-5.48Z"/><path class="cls-7" d="M369.47,134.57h1.68v7.48h-1.68v-3.17h-2.83v3.17h-1.68v-7.48h1.68v2.86h2.83v-2.86Z"/><path class="cls-7" d="M372.5,139.25c0-.5.08-.94.23-1.32.15-.38.36-.69.61-.94s.54-.44.87-.57c.33-.13.66-.19,1.01-.19.81,0,1.44.25,1.91.74.47.49.7,1.22.7,2.17,0,.09,0,.2-.01.31s-.01.21-.02.3h-3.65c.04.33.19.59.46.79.27.19.64.29,1.1.29.29,0,.58-.03.87-.08.28-.05.52-.12.7-.2l.22,1.31c-.09.04-.2.09-.35.13-.14.04-.3.08-.48.11-.18.03-.36.06-.57.08-.2.02-.4.03-.6.03-.51,0-.96-.08-1.33-.23-.38-.15-.69-.36-.94-.62-.25-.26-.43-.57-.55-.93-.12-.36-.18-.75-.18-1.17ZM376.27,138.64c0-.14-.03-.27-.07-.4-.04-.13-.1-.25-.18-.35-.08-.1-.19-.18-.31-.25s-.28-.1-.47-.1-.33.03-.46.09c-.13.06-.24.14-.32.24-.09.1-.15.22-.2.35-.05.13-.08.27-.1.4h2.13Z"/><path class="cls-7" d="M381.11,136.22c.47,0,.87.05,1.19.16.32.11.57.26.76.46.19.2.33.45.41.73.08.29.12.61.12.96v3.34c-.23.05-.55.11-.96.18-.41.07-.91.1-1.49.1-.37,0-.7-.03-1-.1s-.56-.17-.77-.32-.38-.34-.5-.58c-.12-.24-.17-.53-.17-.87s.07-.61.2-.84c.13-.23.31-.41.53-.55.22-.14.48-.24.77-.3.29-.06.59-.09.9-.09.21,0,.39,0,.56.03.16.02.29.04.39.07v-.15c0-.27-.08-.49-.25-.66-.17-.17-.45-.25-.86-.25-.27,0-.54.02-.81.06-.27.04-.5.1-.69.17l-.21-1.29c.09-.03.21-.06.35-.09.14-.03.29-.06.46-.09.17-.02.34-.05.52-.06.18-.02.37-.03.56-.03ZM381.24,140.92c.16,0,.31,0,.45-.01.14,0,.26-.02.34-.03v-1.22c-.06-.01-.16-.03-.29-.04-.13-.01-.25-.02-.36-.02-.15,0-.29,0-.43.03-.13.02-.25.05-.35.1-.1.05-.18.12-.24.21-.06.09-.09.19-.09.32,0,.25.08.43.25.52.17.1.4.15.7.15Z"/><path class="cls-7" d="M390.04,141.86c-.14.04-.31.08-.5.12-.19.04-.38.07-.59.1-.21.03-.41.05-.63.07s-.42.03-.61.03c-.47,0-.88-.07-1.25-.21-.37-.14-.68-.33-.93-.59-.25-.26-.44-.57-.58-.93-.13-.36-.2-.77-.2-1.22s.06-.88.17-1.25c.12-.37.28-.69.5-.94.21-.26.48-.46.79-.59.31-.14.67-.21,1.07-.21.22,0,.42.02.6.06.18.04.35.1.53.18v-2.57l1.61-.26v8.19ZM386.41,139.16c0,.5.11.9.33,1.2.22.3.55.45.99.45.14,0,.28,0,.4-.02.12-.01.22-.02.3-.04v-2.92c-.1-.06-.23-.12-.39-.16s-.33-.06-.49-.06c-.76,0-1.14.52-1.14,1.55Z"/><path class="cls-7" d="M391.28,139.25c0-.5.08-.94.23-1.32.15-.38.36-.69.61-.94s.54-.44.87-.57c.33-.13.66-.19,1.01-.19.81,0,1.44.25,1.91.74.47.49.7,1.22.7,2.17,0,.09,0,.2-.01.31s-.01.21-.02.3h-3.65c.04.33.19.59.46.79.27.19.64.29,1.1.29.29,0,.58-.03.87-.08.28-.05.52-.12.7-.2l.22,1.31c-.09.04-.2.09-.35.13-.14.04-.3.08-.48.11-.18.03-.36.06-.57.08-.2.02-.4.03-.6.03-.51,0-.96-.08-1.33-.23-.38-.15-.69-.36-.94-.62-.25-.26-.43-.57-.55-.93-.12-.36-.18-.75-.18-1.17ZM395.06,138.64c0-.14-.03-.27-.07-.4-.04-.13-.1-.25-.18-.35-.08-.1-.19-.18-.31-.25s-.28-.1-.47-.1-.33.03-.46.09c-.13.06-.24.14-.32.24-.09.1-.15.22-.2.35-.05.13-.08.27-.1.4h2.13Z"/><path class="cls-7" d="M401.27,137.79c-.14-.04-.31-.07-.51-.11-.19-.04-.4-.06-.63-.06-.1,0-.22,0-.36.03-.14.02-.25.04-.32.06v4.34h-1.61v-5.37c.29-.1.63-.2,1.02-.29.39-.09.83-.13,1.31-.13.09,0,.19,0,.31.02.12.01.24.03.37.04.12.02.25.04.37.07s.23.06.31.09l-.27,1.33Z"/><path class="cls-7" d="M484.64,53.68c.48,0,.88-.04,1.2-.12.32-.08.57-.19.76-.33s.32-.3.4-.5.11-.4.11-.64c0-.5-.23-.91-.7-1.24-.47-.33-1.28-.69-2.42-1.07-.5-.18-1-.38-1.5-.6-.5-.23-.95-.51-1.34-.86-.4-.34-.72-.76-.97-1.25-.25-.49-.37-1.09-.37-1.79s.13-1.34.4-1.9c.26-.56.64-1.04,1.12-1.44.48-.4,1.07-.7,1.76-.91.69-.21,1.47-.32,2.33-.32,1.03,0,1.91.11,2.66.33.75.22,1.36.46,1.85.73l-.99,2.71c-.43-.22-.9-.41-1.42-.58-.52-.17-1.15-.25-1.88-.25-.82,0-1.41.11-1.77.34-.36.23-.54.58-.54,1.04,0,.28.07.51.2.7.13.19.32.36.56.52.24.15.52.29.83.42.32.12.66.25,1.04.38.79.29,1.48.58,2.07.87.59.29,1.07.62,1.46,1,.39.38.68.83.87,1.34.19.51.29,1.14.29,1.87,0,1.42-.5,2.53-1.5,3.31s-2.5,1.18-4.51,1.18c-.67,0-1.28-.04-1.83-.12-.54-.08-1.02-.18-1.44-.3s-.78-.24-1.08-.37c-.3-.13-.55-.26-.76-.37l.97-2.73c.45.25,1.01.47,1.68.67.67.2,1.48.3,2.45.3Z"/><path class="cls-7" d="M492.52,50.6c0-1.03.16-1.92.47-2.69.32-.77.73-1.41,1.24-1.92.51-.51,1.1-.9,1.77-1.17s1.35-.4,2.06-.4c1.64,0,2.94.5,3.89,1.51s1.43,2.48,1.43,4.43c0,.19,0,.4-.02.63s-.03.43-.04.6h-7.43c.07.67.39,1.21.95,1.61.56.4,1.3.59,2.24.59.6,0,1.19-.05,1.77-.17.58-.11,1.05-.25,1.42-.41l.44,2.66c-.18.09-.41.18-.7.26s-.62.17-.98.23c-.36.07-.74.12-1.15.17-.41.04-.82.07-1.23.07-1.04,0-1.95-.15-2.72-.46-.77-.31-1.41-.73-1.91-1.26s-.88-1.17-1.12-1.9c-.24-.73-.36-1.52-.36-2.38ZM500.21,49.35c-.01-.28-.06-.55-.14-.81-.08-.26-.21-.5-.37-.7-.17-.21-.38-.37-.64-.51s-.58-.2-.96-.2-.68.06-.95.19c-.26.12-.48.29-.66.49-.18.21-.31.44-.41.71s-.17.55-.21.82h4.33Z"/><path class="cls-7" d="M512.88,47.63c-.29-.07-.64-.15-1.03-.23-.4-.08-.82-.12-1.28-.12-.21,0-.45.02-.74.05-.29.04-.5.08-.65.12v8.84h-3.28v-10.95c.59-.21,1.28-.4,2.08-.58.8-.18,1.69-.27,2.67-.27.18,0,.39.01.64.03.25.02.5.05.75.09.25.04.5.08.75.13.25.05.46.11.64.19l-.55,2.71Z"/><path class="cls-7" d="M519.03,56.3c-.75-1.47-1.51-3.18-2.28-5.15s-1.5-4.1-2.2-6.42h3.47c.15.57.32,1.19.52,1.86.2.67.4,1.34.62,2.02s.43,1.35.64,1.99c.21.65.42,1.23.63,1.76.19-.53.4-1.11.62-1.76.22-.64.44-1.31.65-1.99.21-.68.42-1.36.62-2.02.2-.67.37-1.29.52-1.86h3.39c-.69,2.32-1.42,4.46-2.19,6.42s-1.53,3.68-2.28,5.15h-2.72Z"/><path class="cls-7" d="M527.11,50.6c0-1.03.16-1.92.47-2.69.32-.77.73-1.41,1.24-1.92.51-.51,1.1-.9,1.77-1.17s1.35-.4,2.06-.4c1.64,0,2.94.5,3.89,1.51s1.43,2.48,1.43,4.43c0,.19,0,.4-.02.63s-.03.43-.04.6h-7.43c.07.67.39,1.21.95,1.61.56.4,1.3.59,2.24.59.6,0,1.19-.05,1.77-.17.58-.11,1.05-.25,1.42-.41l.44,2.66c-.18.09-.41.18-.7.26s-.62.17-.98.23c-.36.07-.74.12-1.15.17-.41.04-.82.07-1.23.07-1.04,0-1.95-.15-2.72-.46-.77-.31-1.41-.73-1.91-1.26s-.88-1.17-1.12-1.9c-.24-.73-.36-1.52-.36-2.38ZM534.8,49.35c-.01-.28-.06-.55-.14-.81-.08-.26-.21-.5-.37-.7-.17-.21-.38-.37-.64-.51s-.58-.2-.96-.2-.68.06-.95.19c-.26.12-.48.29-.66.49-.18.21-.31.44-.41.71s-.17.55-.21.82h4.33Z"/><path class="cls-7" d="M547.47,47.63c-.29-.07-.64-.15-1.03-.23-.4-.08-.82-.12-1.28-.12-.21,0-.45.02-.74.05-.29.04-.5.08-.65.12v8.84h-3.28v-10.95c.59-.21,1.28-.4,2.08-.58.8-.18,1.69-.27,2.67-.27.18,0,.39.01.64.03.25.02.5.05.75.09.25.04.5.08.75.13.25.05.46.11.64.19l-.55,2.71Z"/><rect class="cls-2" x="437.83" y="465.12" width="151.3" height="80.85" rx="9.56" ry="9.56"/><path class="cls-7" d="M484.64,511.13c.48,0,.88-.04,1.2-.12.32-.08.57-.19.76-.33s.32-.3.4-.5.11-.4.11-.64c0-.5-.23-.91-.7-1.24-.47-.33-1.28-.69-2.42-1.07-.5-.18-1-.38-1.5-.6-.5-.23-.95-.51-1.34-.86-.4-.34-.72-.76-.97-1.25-.25-.49-.37-1.09-.37-1.79s.13-1.34.4-1.9c.26-.56.64-1.04,1.12-1.44.48-.4,1.07-.7,1.76-.91.69-.21,1.47-.32,2.33-.32,1.03,0,1.91.11,2.66.33.75.22,1.36.46,1.85.73l-.99,2.71c-.43-.22-.9-.41-1.42-.58-.52-.17-1.15-.25-1.88-.25-.82,0-1.41.11-1.77.34-.36.23-.54.58-.54,1.04,0,.28.07.51.2.7.13.19.32.36.56.52.24.15.52.29.83.42.32.12.66.25,1.04.38.79.29,1.48.58,2.07.87.59.29,1.07.62,1.46,1,.39.38.68.83.87,1.34.19.51.29,1.14.29,1.87,0,1.42-.5,2.53-1.5,3.31s-2.5,1.18-4.51,1.18c-.67,0-1.28-.04-1.83-.12-.54-.08-1.02-.18-1.44-.3s-.78-.24-1.08-.37c-.3-.13-.55-.26-.76-.37l.97-2.73c.45.25,1.01.47,1.68.67.67.2,1.48.3,2.45.3Z"/><path class="cls-7" d="M492.52,508.05c0-1.03.16-1.92.47-2.69.32-.77.73-1.41,1.24-1.92.51-.51,1.1-.9,1.77-1.17s1.35-.4,2.06-.4c1.64,0,2.94.5,3.89,1.51s1.43,2.48,1.43,4.43c0,.19,0,.4-.02.63s-.03.43-.04.6h-7.43c.07.67.39,1.21.95,1.61.56.4,1.3.59,2.24.59.6,0,1.19-.05,1.77-.17.58-.11,1.05-.25,1.42-.41l.44,2.66c-.18.09-.41.18-.7.26s-.62.17-.98.23c-.36.07-.74.12-1.15.17-.41.04-.82.07-1.23.07-1.04,0-1.95-.15-2.72-.46-.77-.31-1.41-.73-1.91-1.26s-.88-1.17-1.12-1.9c-.24-.73-.36-1.52-.36-2.38ZM500.21,506.79c-.01-.28-.06-.55-.14-.81-.08-.26-.21-.5-.37-.7-.17-.21-.38-.37-.64-.51s-.58-.2-.96-.2-.68.06-.95.19c-.26.12-.48.29-.66.49-.18.21-.31.44-.41.71s-.17.55-.21.82h4.33Z"/><path class="cls-7" d="M512.88,505.08c-.29-.07-.64-.15-1.03-.23-.4-.08-.82-.12-1.28-.12-.21,0-.45.02-.74.05-.29.04-.5.08-.65.12v8.84h-3.28v-10.95c.59-.21,1.28-.4,2.08-.58.8-.18,1.69-.27,2.67-.27.18,0,.39.01.64.03.25.02.5.05.75.09.25.04.5.08.75.13.25.05.46.11.64.19l-.55,2.71Z"/><path class="cls-7" d="M519.03,513.74c-.75-1.47-1.51-3.18-2.28-5.15s-1.5-4.1-2.2-6.42h3.47c.15.57.32,1.19.52,1.86.2.67.4,1.34.62,2.02s.43,1.35.64,1.99c.21.65.42,1.23.63,1.76.19-.53.4-1.11.62-1.76.22-.64.44-1.31.65-1.99.21-.68.42-1.36.62-2.02.2-.67.37-1.29.52-1.86h3.39c-.69,2.32-1.42,4.46-2.19,6.42s-1.53,3.68-2.28,5.15h-2.72Z"/><path class="cls-7" d="M527.11,508.05c0-1.03.16-1.92.47-2.69.32-.77.73-1.41,1.24-1.92.51-.51,1.1-.9,1.77-1.17s1.35-.4,2.06-.4c1.64,0,2.94.5,3.89,1.51s1.43,2.48,1.43,4.43c0,.19,0,.4-.02.63s-.03.43-.04.6h-7.43c.07.67.39,1.21.95,1.61.56.4,1.3.59,2.24.59.6,0,1.19-.05,1.77-.17.58-.11,1.05-.25,1.42-.41l.44,2.66c-.18.09-.41.18-.7.26s-.62.17-.98.23c-.36.07-.74.12-1.15.17-.41.04-.82.07-1.23.07-1.04,0-1.95-.15-2.72-.46-.77-.31-1.41-.73-1.91-1.26s-.88-1.17-1.12-1.9c-.24-.73-.36-1.52-.36-2.38ZM534.8,506.79c-.01-.28-.06-.55-.14-.81-.08-.26-.21-.5-.37-.7-.17-.21-.38-.37-.64-.51s-.58-.2-.96-.2-.68.06-.95.19c-.26.12-.48.29-.66.49-.18.21-.31.44-.41.71s-.17.55-.21.82h4.33Z"/><path class="cls-7" d="M547.47,505.08c-.29-.07-.64-.15-1.03-.23-.4-.08-.82-.12-1.28-.12-.21,0-.45.02-.74.05-.29.04-.5.08-.65.12v8.84h-3.28v-10.95c.59-.21,1.28-.4,2.08-.58.8-.18,1.69-.27,2.67-.27.18,0,.39.01.64.03.25.02.5.05.75.09.25.04.5.08.75.13.25.05.46.11.64.19l-.55,2.71Z"/><rect class="cls-2" x="7.35" y="7.67" width="151.3" height="80.85" rx="9.56" ry="9.56"/><path class="cls-7" d="M46.36,56.49c-.84,0-1.67-.03-2.5-.08-.83-.05-1.69-.17-2.58-.36v-14.78c.7-.13,1.47-.23,2.31-.3.84-.07,1.61-.1,2.33-.1.97,0,1.86.07,2.67.21.81.14,1.51.38,2.1.71.59.34,1.04.78,1.37,1.33.33.55.49,1.23.49,2.03,0,1.22-.59,2.18-1.76,2.88.97.37,1.63.87,1.98,1.5.35.63.53,1.34.53,2.13,0,1.6-.58,2.8-1.75,3.61-1.17.81-2.9,1.21-5.2,1.21ZM44.63,47.04h1.67c1.06,0,1.81-.14,2.27-.41.45-.27.68-.71.68-1.31s-.23-1.05-.7-1.3c-.47-.25-1.16-.37-2.07-.37-.29,0-.61,0-.95.01-.34,0-.64.03-.9.05v3.32ZM44.63,49.66v3.94c.25.03.52.05.81.07.29.01.62.02.97.02,1.03,0,1.85-.15,2.48-.44.63-.29.95-.84.95-1.63,0-.7-.26-1.21-.79-1.51-.53-.3-1.28-.45-2.26-.45h-2.16Z"/><path class="cls-7" d="M62.81,47.63c-.29-.07-.64-.15-1.03-.23-.4-.08-.82-.12-1.28-.12-.21,0-.45.02-.74.05-.29.04-.5.08-.65.12v8.84h-3.28v-10.95c.59-.21,1.28-.4,2.08-.58.8-.18,1.69-.27,2.67-.27.18,0,.39.01.64.03.25.02.5.05.75.09.25.04.5.08.75.13.25.05.46.11.64.19l-.55,2.71Z"/><path class="cls-7" d="M75.72,50.49c0,.91-.13,1.74-.4,2.5-.26.75-.65,1.4-1.14,1.94s-1.1.95-1.79,1.24-1.48.44-2.34.44-1.62-.15-2.32-.44c-.7-.29-1.29-.71-1.79-1.24-.5-.54-.89-1.18-1.17-1.94s-.42-1.59-.42-2.5.14-1.74.43-2.48c.29-.75.68-1.39,1.19-1.91.51-.53,1.11-.94,1.8-1.23.7-.29,1.45-.44,2.28-.44s1.6.15,2.3.44,1.29.7,1.79,1.23c.5.53.89,1.17,1.17,1.91.28.75.42,1.58.42,2.48ZM72.38,50.49c0-1.01-.2-1.81-.6-2.39-.4-.58-.98-.87-1.73-.87s-1.33.29-1.74.87c-.41.58-.62,1.38-.62,2.39s.21,1.81.62,2.41c.41.59.99.89,1.74.89s1.32-.3,1.73-.89c.4-.59.6-1.4.6-2.41Z"/><path class="cls-7" d="M85.03,49.66c-.29,1.11-.6,2.22-.93,3.32-.33,1.1-.68,2.21-1.04,3.32h-2.55c-.26-.62-.55-1.35-.86-2.2-.31-.85-.63-1.78-.96-2.78-.33-1-.67-2.07-1.01-3.19-.35-1.12-.68-2.25-1-3.4h3.45c.12.53.25,1.1.39,1.73.14.62.29,1.26.44,1.92.15.66.32,1.32.49,1.99.17.67.34,1.31.52,1.92.19-.65.38-1.3.56-1.98.18-.67.36-1.34.53-1.99.17-.65.33-1.28.48-1.89.15-.61.29-1.18.41-1.7h2.37c.12.53.25,1.1.4,1.7.15.61.3,1.24.46,1.89.16.65.33,1.32.51,1.99.18.67.36,1.33.55,1.98.18-.62.35-1.26.53-1.92.18-.67.34-1.33.5-1.99.15-.66.3-1.3.44-1.92.14-.62.27-1.2.39-1.73h3.41c-.32,1.14-.66,2.28-1,3.4-.35,1.12-.68,2.18-1.01,3.19-.33,1-.65,1.93-.97,2.78-.32.85-.61,1.58-.87,2.2h-2.55c-.37-1.11-.73-2.22-1.08-3.32-.35-1.1-.67-2.21-.97-3.32Z"/><path class="cls-7" d="M98.54,53.94c.6,0,1.03-.06,1.28-.18.25-.12.37-.34.37-.68,0-.26-.16-.49-.48-.69-.32-.2-.81-.42-1.47-.67-.51-.19-.98-.39-1.4-.59-.42-.21-.77-.45-1.07-.74s-.52-.63-.68-1.02-.24-.87-.24-1.43c0-1.08.4-1.94,1.21-2.57.81-.63,1.91-.95,3.32-.95.7,0,1.38.06,2.02.19.65.12,1.16.26,1.54.41l-.57,2.55c-.38-.13-.8-.25-1.24-.35s-.95-.15-1.51-.15c-1.03,0-1.54.29-1.54.86,0,.13.02.25.07.35s.13.2.26.3c.13.1.31.2.54.31.23.11.52.23.87.37.72.27,1.31.53,1.78.79.47.26.84.54,1.11.84.27.3.46.63.57,1,.11.37.17.79.17,1.27,0,1.14-.43,2-1.29,2.59-.86.58-2.07.88-3.64.88-1.03,0-1.88-.09-2.56-.26s-1.15-.32-1.42-.44l.55-2.66c.56.22,1.13.39,1.72.52.59.12,1.17.19,1.74.19Z"/><path class="cls-7" d="M105.34,50.6c0-1.03.16-1.92.47-2.69.31-.77.73-1.41,1.24-1.92.51-.51,1.1-.9,1.77-1.17.67-.26,1.35-.4,2.06-.4,1.64,0,2.94.5,3.89,1.51.95,1,1.43,2.48,1.43,4.43,0,.19,0,.4-.02.63s-.03.43-.04.6h-7.43c.07.67.39,1.21.95,1.61.56.4,1.3.59,2.24.59.6,0,1.19-.05,1.77-.17.58-.11,1.05-.25,1.42-.41l.44,2.66c-.18.09-.41.18-.7.26-.29.09-.62.17-.98.23-.36.07-.74.12-1.15.17-.41.04-.82.07-1.23.07-1.04,0-1.95-.15-2.72-.46-.77-.31-1.41-.73-1.91-1.26-.51-.54-.88-1.17-1.12-1.9-.24-.73-.36-1.52-.36-2.38ZM113.04,49.35c-.01-.28-.06-.55-.14-.81s-.21-.5-.37-.7c-.17-.21-.38-.37-.64-.51-.26-.13-.58-.2-.96-.2s-.68.06-.95.19c-.26.12-.48.29-.66.49-.18.21-.31.44-.41.71-.1.27-.17.55-.21.82h4.33Z"/><path class="cls-7" d="M125.7,47.63c-.29-.07-.64-.15-1.03-.23-.4-.08-.82-.12-1.28-.12-.21,0-.45.02-.74.05-.29.04-.5.08-.65.12v8.84h-3.28v-10.95c.59-.21,1.28-.4,2.08-.58.8-.18,1.69-.27,2.67-.27.18,0,.39.01.64.03.25.02.5.05.75.09.25.04.5.08.75.13.25.05.46.11.64.19l-.55,2.71Z"/><rect class="cls-2" x="7.35" y="465.12" width="151.3" height="80.85" rx="9.56" ry="9.56"/><path class="cls-7" d="M46.36,513.94c-.84,0-1.67-.03-2.5-.08-.83-.05-1.69-.17-2.58-.36v-14.78c.7-.13,1.47-.23,2.31-.3.84-.07,1.61-.1,2.33-.1.97,0,1.86.07,2.67.21.81.14,1.51.38,2.1.71.59.34,1.04.78,1.37,1.33.33.55.49,1.23.49,2.03,0,1.22-.59,2.18-1.76,2.88.97.37,1.63.87,1.98,1.5.35.63.53,1.34.53,2.13,0,1.6-.58,2.8-1.75,3.61-1.17.81-2.9,1.21-5.2,1.21ZM44.63,504.49h1.67c1.06,0,1.81-.14,2.27-.41.45-.27.68-.71.68-1.31s-.23-1.05-.7-1.3c-.47-.25-1.16-.37-2.07-.37-.29,0-.61,0-.95.01-.34,0-.64.03-.9.05v3.32ZM44.63,507.1v3.94c.25.03.52.05.81.07.29.01.62.02.97.02,1.03,0,1.85-.15,2.48-.44.63-.29.95-.84.95-1.63,0-.7-.26-1.21-.79-1.51-.53-.3-1.28-.45-2.26-.45h-2.16Z"/><path class="cls-7" d="M62.81,505.08c-.29-.07-.64-.15-1.03-.23-.4-.08-.82-.12-1.28-.12-.21,0-.45.02-.74.05-.29.04-.5.08-.65.12v8.84h-3.28v-10.95c.59-.21,1.28-.4,2.08-.58.8-.18,1.69-.27,2.67-.27.18,0,.39.01.64.03.25.02.5.05.75.09.25.04.5.08.75.13.25.05.46.11.64.19l-.55,2.71Z"/><path class="cls-7" d="M75.72,507.94c0,.91-.13,1.74-.4,2.5-.26.75-.65,1.4-1.14,1.94s-1.1.95-1.79,1.24-1.48.44-2.34.44-1.62-.15-2.32-.44c-.7-.29-1.29-.71-1.79-1.24-.5-.54-.89-1.18-1.17-1.94s-.42-1.59-.42-2.5.14-1.74.43-2.48c.29-.75.68-1.39,1.19-1.91.51-.53,1.11-.94,1.8-1.23.7-.29,1.45-.44,2.28-.44s1.6.15,2.3.44,1.29.7,1.79,1.23c.5.53.89,1.17,1.17,1.91.28.75.42,1.58.42,2.48ZM72.38,507.94c0-1.01-.2-1.81-.6-2.39-.4-.58-.98-.87-1.73-.87s-1.33.29-1.74.87c-.41.58-.62,1.38-.62,2.39s.21,1.81.62,2.41c.41.59.99.89,1.74.89s1.32-.3,1.73-.89c.4-.59.6-1.4.6-2.41Z"/><path class="cls-7" d="M85.03,507.1c-.29,1.11-.6,2.22-.93,3.32-.33,1.1-.68,2.21-1.04,3.32h-2.55c-.26-.62-.55-1.35-.86-2.2-.31-.85-.63-1.78-.96-2.78-.33-1-.67-2.07-1.01-3.19-.35-1.12-.68-2.25-1-3.4h3.45c.12.53.25,1.1.39,1.73.14.62.29,1.26.44,1.92.15.66.32,1.32.49,1.99.17.67.34,1.31.52,1.92.19-.65.38-1.3.56-1.98.18-.67.36-1.34.53-1.99.17-.65.33-1.28.48-1.89.15-.61.29-1.18.41-1.7h2.37c.12.53.25,1.1.4,1.7.15.61.3,1.24.46,1.89.16.65.33,1.32.51,1.99.18.67.36,1.33.55,1.98.18-.62.35-1.26.53-1.92.18-.67.34-1.33.5-1.99.15-.66.3-1.3.44-1.92.14-.62.27-1.2.39-1.73h3.41c-.32,1.14-.66,2.28-1,3.4-.35,1.12-.68,2.18-1.01,3.19-.33,1-.65,1.93-.97,2.78-.32.85-.61,1.58-.87,2.2h-2.55c-.37-1.11-.73-2.22-1.08-3.32-.35-1.1-.67-2.21-.97-3.32Z"/><path class="cls-7" d="M98.54,511.39c.6,0,1.03-.06,1.28-.18.25-.12.37-.34.37-.68,0-.26-.16-.49-.48-.69-.32-.2-.81-.42-1.47-.67-.51-.19-.98-.39-1.4-.59-.42-.21-.77-.45-1.07-.74s-.52-.63-.68-1.02-.24-.87-.24-1.43c0-1.08.4-1.94,1.21-2.57.81-.63,1.91-.95,3.32-.95.7,0,1.38.06,2.02.19.65.12,1.16.26,1.54.41l-.57,2.55c-.38-.13-.8-.25-1.24-.35s-.95-.15-1.51-.15c-1.03,0-1.54.29-1.54.86,0,.13.02.25.07.35s.13.2.26.3c.13.1.31.2.54.31.23.11.52.23.87.37.72.27,1.31.53,1.78.79.47.26.84.54,1.11.84.27.3.46.63.57,1,.11.37.17.79.17,1.27,0,1.14-.43,2-1.29,2.59-.86.58-2.07.88-3.64.88-1.03,0-1.88-.09-2.56-.26s-1.15-.32-1.42-.44l.55-2.66c.56.22,1.13.39,1.72.52.59.12,1.17.19,1.74.19Z"/><path class="cls-7" d="M105.34,508.05c0-1.03.16-1.92.47-2.69.31-.77.73-1.41,1.24-1.92.51-.51,1.1-.9,1.77-1.17.67-.26,1.35-.4,2.06-.4,1.64,0,2.94.5,3.89,1.51.95,1,1.43,2.48,1.43,4.43,0,.19,0,.4-.02.63s-.03.43-.04.6h-7.43c.07.67.39,1.21.95,1.61.56.4,1.3.59,2.24.59.6,0,1.19-.05,1.77-.17.58-.11,1.05-.25,1.42-.41l.44,2.66c-.18.09-.41.18-.7.26-.29.09-.62.17-.98.23-.36.07-.74.12-1.15.17-.41.04-.82.07-1.23.07-1.04,0-1.95-.15-2.72-.46-.77-.31-1.41-.73-1.91-1.26-.51-.54-.88-1.17-1.12-1.9-.24-.73-.36-1.52-.36-2.38ZM113.04,506.79c-.01-.28-.06-.55-.14-.81s-.21-.5-.37-.7c-.17-.21-.38-.37-.64-.51-.26-.13-.58-.2-.96-.2s-.68.06-.95.19c-.26.12-.48.29-.66.49-.18.21-.31.44-.41.71-.1.27-.17.55-.21.82h4.33Z"/><path class="cls-7" d="M125.7,505.08c-.29-.07-.64-.15-1.03-.23-.4-.08-.82-.12-1.28-.12-.21,0-.45.02-.74.05-.29.04-.5.08-.65.12v8.84h-3.28v-10.95c.59-.21,1.28-.4,2.08-.58.8-.18,1.69-.27,2.67-.27.18,0,.39.01.64.03.25.02.5.05.75.09.25.04.5.08.75.13.25.05.46.11.64.19l-.55,2.71Z"/><path class="cls-7" d="M246.97,250.3h3.25v1.43h-1.55v8.76h1.55v1.43h-3.25v-11.62Z"/><path class="cls-7" d="M258.98,255.53c0,.71-.11,1.34-.32,1.88s-.5.99-.87,1.36-.81.64-1.31.82c-.51.18-1.05.28-1.64.28s-1.1-.09-1.61-.28c-.5-.18-.94-.46-1.32-.82s-.67-.82-.89-1.36-.32-1.17-.32-1.88.11-1.34.34-1.88.53-.99.91-1.36c.38-.37.82-.64,1.32-.83.5-.18,1.03-.28,1.58-.28s1.1.09,1.61.28c.5.18.94.46,1.32.83.38.37.67.82.89,1.36s.32,1.17.32,1.88ZM252.64,255.53c0,.41.05.78.15,1.1s.24.61.43.85c.19.24.42.42.69.55.27.13.58.19.94.19s.65-.06.93-.19c.28-.13.51-.31.7-.55.19-.24.33-.52.43-.85.1-.33.15-.7.15-1.1s-.05-.78-.15-1.11c-.1-.33-.24-.62-.43-.85-.19-.24-.42-.42-.7-.55-.28-.13-.59-.19-.93-.19s-.67.07-.94.2c-.27.13-.5.32-.69.55-.19.24-.33.52-.43.85s-.15.7-.15,1.1Z"/><path class="cls-7" d="M264.23,254.97c-.16-.04-.35-.08-.56-.13s-.45-.07-.7-.07c-.11,0-.25,0-.4.03-.16.02-.27.04-.35.07v4.82h-1.79v-5.98c.32-.11.7-.22,1.13-.32.44-.1.92-.15,1.46-.15.1,0,.21,0,.35.02.14.01.27.03.41.05.14.02.27.04.41.07.14.03.25.06.35.1l-.3,1.48Z"/><path class="cls-7" d="M267.44,251.56c0,.33-.11.59-.32.77-.21.19-.46.28-.75.28s-.54-.09-.75-.28c-.21-.19-.32-.45-.32-.77s.11-.59.32-.77c.21-.19.46-.28.75-.28s.54.09.75.28c.21.19.32.45.32.77ZM267.28,259.7h-1.79v-6.31h1.79v6.31Z"/><path class="cls-7" d="M274.4,258.91c0,1.03-.26,1.8-.79,2.3-.52.5-1.33.75-2.43.75-.38,0-.77-.03-1.15-.1-.38-.07-.74-.16-1.07-.27l.31-1.5c.28.11.57.2.88.26.31.06.66.1,1.05.1.51,0,.87-.11,1.09-.34.21-.22.32-.51.32-.86v-.23c-.19.09-.39.15-.59.2-.2.04-.43.07-.67.07-.87,0-1.54-.26-2-.77-.46-.52-.7-1.24-.7-2.17,0-.46.07-.89.22-1.27.14-.38.35-.71.63-.98.28-.27.61-.48,1.01-.63.4-.15.85-.22,1.36-.22.22,0,.44,0,.67.03.23.02.45.05.68.08.22.03.44.07.64.11.2.04.39.09.55.14v5.3ZM270.48,256.34c0,1,.4,1.5,1.21,1.5.18,0,.36-.02.52-.07.16-.05.3-.1.41-.17v-2.86c-.09-.02-.19-.03-.31-.04s-.26-.02-.42-.02c-.47,0-.82.16-1.06.47-.23.31-.35.71-.35,1.19Z"/><path class="cls-7" d="M278.04,251.56c0,.33-.11.59-.32.77-.21.19-.46.28-.75.28s-.54-.09-.75-.28c-.21-.19-.32-.45-.32-.77s.11-.59.32-.77c.21-.19.46-.28.75-.28s.54.09.75.28c.21.19.32.45.32.77ZM277.87,259.7h-1.79v-6.31h1.79v6.31Z"/><path class="cls-7" d="M279.55,253.6c.3-.09.7-.17,1.18-.25.48-.08.98-.11,1.51-.11s.98.07,1.34.21c.36.14.64.34.85.59.21.26.36.56.44.91.09.35.13.74.13,1.18v3.56h-1.79v-3.35c0-.58-.08-.98-.23-1.22-.15-.24-.44-.36-.85-.36-.13,0-.26,0-.41.02s-.27.03-.38.04v4.87h-1.79v-6.1Z"/><path class="cls-7" d="M291.45,251.56c0,.33-.11.59-.32.77-.21.19-.46.28-.75.28s-.54-.09-.75-.28c-.21-.19-.32-.45-.32-.77s.11-.59.32-.77c.21-.19.46-.28.75-.28s.54.09.75.28c.21.19.32.45.32.77ZM291.29,259.7h-1.79v-6.31h1.79v6.31Z"/><path class="cls-7" d="M294.78,258.41c.33,0,.56-.03.7-.1.14-.06.2-.19.2-.37,0-.14-.09-.27-.26-.38-.18-.11-.44-.23-.8-.37-.28-.1-.53-.21-.76-.32-.23-.11-.42-.25-.58-.4-.16-.16-.28-.34-.37-.56-.09-.22-.13-.48-.13-.78,0-.59.22-1.06.66-1.4.44-.34,1.04-.52,1.81-.52.38,0,.75.03,1.1.1.35.07.63.14.84.22l-.31,1.39c-.21-.07-.43-.14-.68-.19s-.52-.08-.82-.08c-.56,0-.84.16-.84.47,0,.07.01.14.04.19.02.06.07.11.14.16s.17.11.29.17.28.13.47.2c.39.15.72.29.97.43.26.14.46.29.61.46.15.16.25.34.31.54.06.2.09.43.09.69,0,.62-.23,1.09-.7,1.41-.47.32-1.13.48-1.99.48-.56,0-1.03-.05-1.4-.14-.37-.1-.63-.18-.77-.24l.3-1.45c.3.12.62.21.94.28.32.07.64.1.95.1Z"/><path class="cls-7" d="M307.37,259.7c-.09-.29-.19-.59-.3-.89-.11-.3-.21-.61-.32-.91h-3.25c-.1.3-.21.61-.32.91s-.2.6-.29.89h-1.94c.31-.9.61-1.72.89-2.48.28-.76.56-1.48.82-2.15s.53-1.31.79-1.91.53-1.19.81-1.77h1.78c.27.58.54,1.17.81,1.77.26.6.53,1.24.8,1.91.27.67.54,1.39.83,2.15.28.76.58,1.59.89,2.48h-2ZM305.12,253.27c-.04.12-.1.29-.18.49-.08.21-.17.45-.27.72-.1.27-.22.57-.34.9-.13.33-.26.67-.39,1.03h2.38c-.13-.36-.25-.71-.37-1.03-.12-.33-.23-.63-.34-.9s-.2-.51-.28-.72c-.08-.21-.15-.37-.2-.49Z"/><path class="cls-7" d="M312.84,259.82c-.52,0-.94-.06-1.27-.17-.32-.1-.58-.25-.77-.44-.19-.19-.32-.42-.38-.68-.07-.27-.1-.57-.1-.91v-6.95l1.79-.29v6.88c0,.16.01.3.04.43.02.13.07.24.14.32.07.09.17.16.29.22.13.06.3.09.52.11l-.25,1.48Z"/><path class="cls-7" d="M316.63,259.82c-.52,0-.94-.06-1.27-.17-.32-.1-.58-.25-.77-.44-.19-.19-.32-.42-.38-.68-.07-.27-.1-.57-.1-.91v-6.95l1.79-.29v6.88c0,.16.01.3.04.43.02.13.07.24.14.32.07.09.17.16.29.22.13.06.3.09.52.11l-.25,1.48Z"/><path class="cls-7" d="M323.81,256.53c0,.5-.07.95-.22,1.36-.14.41-.35.76-.62,1.06-.27.29-.6.52-.98.68s-.81.24-1.28.24-.89-.08-1.27-.24-.71-.39-.98-.68c-.27-.29-.48-.64-.64-1.06-.15-.41-.23-.87-.23-1.36s.08-.95.23-1.36c.16-.41.37-.76.65-1.04.28-.29.6-.51.98-.67s.79-.24,1.24-.24.87.08,1.25.24.71.38.98.67c.27.29.48.64.64,1.04.15.41.23.86.23,1.36ZM321.98,256.53c0-.55-.11-.99-.33-1.3-.22-.32-.53-.47-.94-.47s-.72.16-.95.47c-.22.32-.34.75-.34,1.3s.11.99.34,1.31c.22.32.54.49.95.49s.72-.16.94-.49c.22-.32.33-.76.33-1.31Z"/><path class="cls-7" d="M328.89,256.07c-.16.61-.33,1.21-.51,1.81-.18.6-.37,1.2-.57,1.81h-1.39c-.14-.34-.3-.74-.47-1.2-.17-.46-.34-.97-.52-1.52s-.37-1.13-.55-1.74-.37-1.23-.55-1.85h1.88c.06.29.13.6.21.94s.16.69.24,1.05c.08.36.17.72.27,1.09.09.36.19.71.28,1.05.1-.35.21-.71.31-1.08.1-.37.2-.73.29-1.09.09-.36.18-.7.26-1.03.08-.33.16-.64.22-.93h1.3c.06.29.14.6.22.93s.16.68.25,1.03c.09.36.18.72.28,1.09.1.37.2.73.3,1.08.1-.34.19-.69.29-1.05.1-.36.19-.73.27-1.09.08-.36.17-.71.24-1.05s.15-.65.21-.94h1.86c-.18.62-.36,1.24-.55,1.85s-.37,1.19-.55,1.74-.36,1.05-.53,1.52-.33.86-.48,1.2h-1.39c-.2-.61-.4-1.21-.59-1.81-.19-.6-.37-1.2-.53-1.81Z"/><path class="cls-7" d="M334.01,256.59c0-.56.09-1.05.26-1.47s.4-.77.68-1.05c.28-.28.6-.49.97-.64.36-.14.74-.22,1.12-.22.9,0,1.6.27,2.12.82.52.55.78,1.35.78,2.42,0,.1,0,.22-.01.34,0,.12-.02.23-.02.33h-4.06c.04.37.21.66.52.88.3.22.71.32,1.22.32.33,0,.65-.03.97-.09.32-.06.57-.13.77-.22l.24,1.45c-.1.05-.22.1-.38.14s-.34.09-.53.13c-.2.04-.41.07-.63.09-.22.02-.45.04-.67.04-.57,0-1.06-.08-1.48-.25s-.77-.4-1.04-.69c-.28-.29-.48-.64-.61-1.04-.13-.4-.2-.83-.2-1.3ZM338.21,255.91c0-.15-.03-.3-.08-.44-.04-.14-.11-.27-.2-.38s-.21-.2-.35-.28c-.14-.07-.31-.11-.52-.11s-.37.03-.52.1c-.14.07-.26.16-.36.27-.1.11-.17.24-.22.39-.05.15-.09.3-.11.45h2.36Z"/><path class="cls-7" d="M346.88,259.49c-.16.05-.34.09-.55.14-.21.04-.43.08-.65.11-.23.03-.46.06-.7.08-.24.02-.46.03-.68.03-.52,0-.98-.08-1.39-.23-.41-.15-.75-.37-1.03-.65-.28-.28-.49-.63-.64-1.03-.15-.4-.22-.86-.22-1.36s.06-.97.19-1.39.31-.76.55-1.05.53-.51.88-.66c.35-.15.75-.23,1.19-.23.25,0,.47.02.67.07s.39.12.59.2v-2.86l1.79-.29v9.11ZM342.84,256.49c0,.55.12,1,.37,1.33s.62.5,1.1.5c.16,0,.31,0,.44-.02.14-.01.25-.03.34-.04v-3.25c-.11-.07-.26-.13-.44-.18-.18-.05-.36-.07-.55-.07-.85,0-1.27.58-1.27,1.73Z"/><path class="cls-7" d="M350.69,261.92h-3.25v-1.43h1.55v-8.76h-1.55v-1.43h3.25v11.62Z"/><path class="cls-3" d="M75.85,252.6c.79,0,1.45.09,1.98.27.53.18.95.44,1.27.77.32.34.54.74.67,1.22.13.48.2,1.01.2,1.6v5.58c-.38.08-.92.18-1.6.3-.68.11-1.51.17-2.48.17-.61,0-1.17-.05-1.66-.16-.5-.11-.93-.29-1.29-.53-.36-.25-.64-.57-.83-.96s-.29-.88-.29-1.46.11-1.02.33-1.4c.22-.38.52-.69.89-.92.37-.23.8-.39,1.28-.49.48-.1.98-.15,1.49-.15.35,0,.66.02.93.04.27.03.49.07.66.12v-.25c0-.46-.14-.82-.41-1.1-.28-.28-.76-.41-1.44-.41-.46,0-.91.03-1.35.1-.44.07-.83.16-1.15.28l-.34-2.16c.16-.05.35-.1.58-.15.23-.05.49-.1.76-.14s.57-.08.87-.11c.31-.03.61-.04.93-.04ZM76.06,260.44c.26,0,.52,0,.76-.02.24-.01.43-.03.58-.05v-2.03c-.11-.02-.27-.05-.49-.07-.22-.02-.41-.04-.59-.04-.25,0-.49.02-.71.04-.22.03-.42.09-.58.17-.17.08-.3.2-.4.34-.1.14-.14.32-.14.54,0,.42.14.71.42.87.28.16.67.24,1.16.24Z"/><path class="cls-3" d="M86.17,262.49c-.78-.01-1.41-.1-1.9-.25-.49-.16-.87-.37-1.15-.66-.28-.28-.47-.62-.58-1.03-.1-.4-.15-.85-.15-1.36v-10.42l2.68-.43v10.31c0,.24.02.46.05.65.04.19.1.35.21.49.1.13.25.24.44.32.19.08.45.14.77.16l-.38,2.21Z"/><path class="cls-3" d="M87.99,250.49l2.68-.43v2.79h3.22v2.23h-3.22v3.33c0,.56.1,1.01.3,1.35.2.34.6.5,1.2.5.29,0,.58-.03.89-.08s.58-.13.84-.22l.38,2.09c-.32.13-.68.25-1.08.34-.4.1-.88.14-1.46.14-.73,0-1.34-.1-1.82-.3-.48-.2-.86-.47-1.15-.83-.29-.35-.49-.78-.6-1.29-.11-.5-.17-1.06-.17-1.67v-7.95Z"/><path class="cls-7" d="M255.9,399.66c-.46,0-.91-.01-1.36-.04-.45-.03-.92-.09-1.41-.2v-8.06c.38-.07.8-.13,1.26-.16.46-.04.88-.05,1.27-.05.53,0,1.01.04,1.46.11.44.08.83.21,1.15.39.32.18.57.43.75.73.18.3.27.67.27,1.11,0,.66-.32,1.19-.96,1.57.53.2.89.47,1.08.82.19.34.29.73.29,1.16,0,.87-.32,1.53-.95,1.97-.64.44-1.58.66-2.84.66ZM254.95,394.5h.91c.58,0,.99-.07,1.24-.22.25-.15.37-.39.37-.71s-.13-.57-.38-.71c-.26-.14-.63-.2-1.13-.2-.16,0-.33,0-.52,0-.18,0-.35.01-.49.03v1.81ZM254.95,395.92v2.15c.14.02.28.03.44.04.16,0,.34.01.53.01.56,0,1.01-.08,1.36-.24.34-.16.52-.46.52-.89,0-.38-.14-.66-.43-.82-.29-.16-.7-.25-1.24-.25h-1.18Z"/><path class="cls-7" d="M263.59,399.67c-.52,0-.94-.06-1.27-.17-.32-.1-.58-.25-.77-.44-.19-.19-.32-.42-.38-.68-.07-.27-.1-.57-.1-.91v-6.95l1.79-.29v6.88c0,.16.01.3.04.43.02.13.07.24.14.32.07.09.17.16.29.22.13.06.3.09.52.11l-.25,1.48Z"/><path class="cls-7" d="M270.77,396.38c0,.5-.07.95-.22,1.36-.14.41-.35.76-.62,1.06-.27.29-.6.52-.98.68s-.81.24-1.28.24-.89-.08-1.27-.24-.71-.39-.98-.68c-.27-.29-.48-.64-.64-1.06-.15-.41-.23-.87-.23-1.36s.08-.95.23-1.36c.16-.41.37-.76.65-1.04.28-.29.6-.51.98-.67s.79-.24,1.24-.24.87.08,1.25.24.71.38.98.67c.27.29.48.64.64,1.04.15.41.23.86.23,1.36ZM268.94,396.38c0-.55-.11-.99-.33-1.3-.22-.32-.53-.47-.94-.47s-.72.16-.95.47c-.22.32-.34.75-.34,1.3s.11.99.34,1.31c.22.32.54.49.95.49s.72-.16.94-.49c.22-.32.33-.76.33-1.31Z"/><path class="cls-7" d="M271.85,396.39c0-.46.07-.89.22-1.29.15-.4.36-.76.64-1.06.28-.3.62-.54,1.02-.71.4-.18.86-.26,1.37-.26.34,0,.64.03.92.09.28.06.55.15.82.26l-.37,1.43c-.17-.06-.35-.12-.55-.17s-.42-.07-.67-.07c-.53,0-.92.16-1.18.49s-.39.76-.39,1.3c0,.57.12,1.01.37,1.32.24.31.67.47,1.28.47.22,0,.45-.02.7-.06.25-.04.48-.1.68-.19l.25,1.46c-.21.09-.47.16-.78.23-.31.06-.66.1-1.03.1-.58,0-1.07-.09-1.49-.26s-.76-.41-1.03-.7c-.27-.3-.46-.65-.59-1.05s-.19-.84-.19-1.31Z"/><path class="cls-7" d="M279.93,395.5c.18-.19.36-.39.54-.6.19-.21.37-.41.55-.61.18-.2.34-.4.5-.58.16-.18.29-.34.4-.48h2.13c-.42.49-.84.95-1.24,1.39-.4.44-.85.9-1.33,1.37.24.22.49.47.74.78s.5.61.74.93c.24.32.46.64.66.96.2.32.37.61.5.88h-2.06c-.13-.21-.27-.44-.44-.69-.16-.25-.34-.51-.52-.76-.18-.25-.38-.5-.58-.73-.2-.23-.41-.43-.6-.59v2.77h-1.79v-9.02l1.79-.29v5.27Z"/><path class="cls-7" d="M286.91,398.26c.33,0,.56-.03.7-.1s.2-.19.2-.37c0-.14-.09-.27-.26-.38-.18-.11-.44-.23-.8-.37-.28-.1-.53-.21-.76-.32-.23-.11-.42-.25-.58-.4-.16-.16-.28-.34-.37-.56s-.13-.48-.13-.78c0-.59.22-1.06.66-1.4.44-.34,1.04-.52,1.81-.52.38,0,.75.03,1.1.1.35.07.63.14.84.22l-.31,1.39c-.21-.07-.43-.14-.68-.19s-.52-.08-.82-.08c-.56,0-.84.16-.84.47,0,.07.01.14.04.19.02.06.07.11.14.16.07.05.17.11.29.17s.28.13.47.2c.39.15.72.29.97.43.26.14.46.29.61.46.15.16.25.34.31.54.06.2.09.43.09.69,0,.62-.23,1.09-.7,1.41-.47.32-1.13.48-1.99.48-.56,0-1.03-.05-1.4-.14-.37-.1-.63-.18-.77-.24l.3-1.45c.3.12.62.21.94.28.32.07.64.1.95.1Z"/><path class="cls-7" d="M296.35,391.14c1.25,0,2.2.22,2.87.67.66.44,1,1.13,1,2.07,0,.58-.13,1.06-.4,1.42-.27.36-.65.65-1.16.86.17.21.34.45.53.71.18.27.37.55.55.84s.35.6.52.91c.17.32.32.63.47.93h-2.09c-.15-.27-.31-.55-.46-.83-.16-.28-.32-.55-.48-.82-.16-.26-.33-.51-.49-.75-.16-.24-.32-.45-.48-.64h-.92v3.04h-1.87v-8.2c.41-.08.83-.14,1.27-.17.44-.03.83-.05,1.17-.05ZM296.46,392.73c-.14,0-.26,0-.37.01-.11,0-.21.02-.31.02v2.26h.53c.7,0,1.21-.09,1.51-.26s.46-.48.46-.9-.15-.7-.46-.87-.76-.26-1.36-.26Z"/><path class="cls-7" d="M301.2,396.44c0-.56.09-1.05.26-1.47s.4-.77.68-1.05c.28-.28.6-.49.97-.64.36-.14.74-.22,1.12-.22.9,0,1.6.27,2.12.82.52.55.78,1.35.78,2.42,0,.1,0,.22-.01.34,0,.12-.02.23-.02.33h-4.06c.04.37.21.66.52.88.3.22.71.32,1.22.32.33,0,.65-.03.97-.09.32-.06.57-.13.77-.22l.24,1.45c-.1.05-.22.1-.38.14s-.34.09-.53.13c-.2.04-.41.07-.63.09-.22.02-.45.04-.67.04-.57,0-1.06-.08-1.48-.25s-.77-.4-1.04-.69c-.28-.29-.48-.64-.61-1.04-.13-.4-.2-.83-.2-1.3ZM305.4,395.76c0-.15-.03-.3-.08-.44-.04-.14-.11-.27-.2-.38s-.21-.2-.35-.28c-.14-.07-.31-.11-.52-.11s-.37.03-.52.1c-.14.07-.26.16-.36.27-.1.11-.17.24-.22.39-.05.15-.09.3-.11.45h2.36Z"/><path class="cls-7" d="M310.32,398.26c.33,0,.56-.03.7-.1.14-.06.2-.19.2-.37,0-.14-.09-.27-.26-.38-.18-.11-.44-.23-.8-.37-.28-.1-.53-.21-.76-.32-.23-.11-.42-.25-.58-.4-.16-.16-.28-.34-.37-.56-.09-.22-.13-.48-.13-.78,0-.59.22-1.06.66-1.4.44-.34,1.04-.52,1.81-.52.38,0,.75.03,1.1.1.35.07.63.14.84.22l-.31,1.39c-.21-.07-.43-.14-.68-.19s-.52-.08-.82-.08c-.56,0-.84.16-.84.47,0,.07.01.14.04.19.02.06.07.11.14.16s.17.11.29.17.28.13.47.2c.39.15.72.29.97.43.26.14.46.29.61.46.15.16.25.34.31.54.06.2.09.43.09.69,0,.62-.23,1.09-.7,1.41-.47.32-1.13.48-1.99.48-.56,0-1.03-.05-1.4-.14-.37-.1-.63-.18-.77-.24l.3-1.45c.3.12.62.21.94.28.32.07.64.1.95.1Z"/><path class="cls-7" d="M320.23,396.38c0,.5-.07.95-.22,1.36-.14.41-.35.76-.62,1.06-.27.29-.6.52-.98.68s-.81.24-1.28.24-.89-.08-1.27-.24-.71-.39-.98-.68c-.27-.29-.48-.64-.64-1.06s-.23-.87-.23-1.36.08-.95.23-1.36c.16-.41.37-.76.65-1.04s.6-.51.98-.67.79-.24,1.24-.24.87.08,1.25.24.71.38.98.67c.27.29.48.64.64,1.04.15.41.23.86.23,1.36ZM318.41,396.38c0-.55-.11-.99-.33-1.3-.22-.32-.53-.47-.94-.47s-.72.16-.95.47c-.22.32-.34.75-.34,1.3s.11.99.34,1.31c.22.32.54.49.95.49s.72-.16.94-.49c.22-.32.33-.76.33-1.31Z"/><path class="cls-7" d="M327,399.33c-.3.09-.7.17-1.18.25-.48.08-.98.11-1.51.11s-.98-.07-1.34-.22c-.36-.14-.64-.35-.85-.61s-.36-.57-.44-.93c-.09-.36-.13-.76-.13-1.19v-3.52h1.79v3.3c0,.58.08.99.23,1.25.15.26.44.38.85.38.13,0,.26,0,.41-.02.14-.01.27-.03.38-.04v-4.87h1.79v6.1Z"/><path class="cls-7" d="M332.48,394.82c-.16-.04-.35-.08-.56-.13-.22-.04-.45-.07-.7-.07-.11,0-.25,0-.4.03-.16.02-.27.04-.35.07v4.82h-1.79v-5.98c.32-.11.7-.22,1.13-.32.44-.1.92-.15,1.46-.15.1,0,.21,0,.35.02.14.01.27.03.41.05s.27.04.41.07c.14.03.25.06.35.1l-.3,1.48Z"/><path class="cls-7" d="M333.32,396.39c0-.46.07-.89.22-1.29.15-.4.36-.76.64-1.06.28-.3.62-.54,1.02-.71.4-.18.86-.26,1.37-.26.34,0,.64.03.92.09.28.06.55.15.82.26l-.37,1.43c-.17-.06-.35-.12-.55-.17s-.42-.07-.67-.07c-.53,0-.92.16-1.18.49s-.39.76-.39,1.3c0,.57.12,1.01.37,1.32.24.31.67.47,1.28.47.22,0,.45-.02.7-.06.25-.04.48-.1.68-.19l.25,1.46c-.21.09-.47.16-.78.23-.31.06-.66.1-1.03.1-.58,0-1.07-.09-1.49-.26s-.76-.41-1.03-.7c-.27-.3-.46-.65-.59-1.05s-.19-.84-.19-1.31Z"/><path class="cls-7" d="M339.02,396.44c0-.56.09-1.05.26-1.47s.4-.77.68-1.05c.28-.28.6-.49.97-.64.36-.14.74-.22,1.12-.22.9,0,1.6.27,2.12.82.52.55.78,1.35.78,2.42,0,.1,0,.22-.01.34,0,.12-.02.23-.02.33h-4.06c.04.37.21.66.52.88.3.22.71.32,1.22.32.33,0,.65-.03.97-.09.32-.06.57-.13.77-.22l.24,1.45c-.1.05-.22.1-.38.14s-.34.09-.53.13c-.2.04-.41.07-.63.09-.22.02-.45.04-.67.04-.57,0-1.06-.08-1.48-.25s-.77-.4-1.04-.69c-.28-.29-.48-.64-.61-1.04-.13-.4-.2-.83-.2-1.3ZM343.22,395.76c0-.15-.03-.3-.08-.44-.04-.14-.11-.27-.2-.38s-.21-.2-.35-.28c-.14-.07-.31-.11-.52-.11s-.37.03-.52.1c-.14.07-.26.16-.36.27-.1.11-.17.24-.22.39-.05.15-.09.3-.11.45h2.36Z"/><line class="cls-11" x1="52.7" y1="343.69" x2="546.16" y2="343.69"/><path class="cls-7" d="M235.69,356.06h3.25v1.43h-1.55v8.76h1.55v1.43h-3.25v-11.62Z"/><path class="cls-7" d="M247.7,361.29c0,.71-.11,1.34-.32,1.88s-.5.99-.87,1.36-.81.64-1.31.82c-.51.18-1.05.28-1.64.28s-1.1-.09-1.61-.28c-.5-.18-.94-.46-1.32-.82s-.67-.82-.89-1.36c-.22-.54-.32-1.17-.32-1.88s.11-1.34.34-1.88c.22-.54.53-.99.91-1.36.38-.37.82-.64,1.32-.83.5-.18,1.03-.28,1.58-.28s1.1.09,1.61.28c.5.18.94.46,1.32.83.38.37.67.82.89,1.36.22.54.32,1.17.32,1.88ZM241.36,361.29c0,.41.05.78.15,1.1.1.33.24.61.43.85.19.24.42.42.69.55.27.13.58.19.94.19s.65-.06.93-.19c.28-.13.51-.31.7-.55.19-.24.33-.52.43-.85.1-.33.15-.7.15-1.1s-.05-.78-.15-1.11c-.1-.33-.24-.62-.43-.85-.19-.24-.42-.42-.7-.55-.28-.13-.59-.19-.93-.19s-.66.07-.94.2c-.27.13-.5.32-.69.55-.19.24-.33.52-.43.85-.1.33-.15.7-.15,1.1Z"/><path class="cls-7" d="M252.95,360.73c-.16-.04-.35-.08-.56-.13-.22-.04-.45-.07-.7-.07-.11,0-.25,0-.4.03-.16.02-.27.04-.35.07v4.82h-1.79v-5.98c.32-.11.7-.22,1.13-.32.44-.1.92-.15,1.46-.15.1,0,.21,0,.35.02.14.01.27.03.41.05s.27.04.41.07c.14.03.25.06.35.1l-.3,1.48Z"/><path class="cls-7" d="M256.16,357.32c0,.33-.11.59-.32.77-.21.19-.46.28-.75.28s-.54-.09-.75-.28c-.21-.19-.32-.45-.32-.77s.11-.59.32-.77c.21-.19.46-.28.75-.28s.54.09.75.28c.21.19.32.45.32.77ZM256,365.46h-1.79v-6.31h1.79v6.31Z"/><path class="cls-7" d="M263.12,364.66c0,1.03-.26,1.8-.79,2.3-.52.5-1.33.75-2.43.75-.38,0-.77-.03-1.15-.1-.38-.07-.74-.16-1.07-.27l.31-1.5c.28.11.57.2.88.26.31.06.66.1,1.05.1.51,0,.87-.11,1.09-.34.21-.22.32-.51.32-.86v-.23c-.19.09-.39.15-.59.2s-.43.07-.67.07c-.87,0-1.54-.26-2-.77-.46-.52-.7-1.24-.7-2.17,0-.46.07-.89.22-1.27.14-.38.35-.71.63-.98.28-.27.61-.48,1.01-.63.4-.15.85-.22,1.36-.22.22,0,.44,0,.67.03.23.02.45.05.68.08.22.03.44.07.64.11.2.04.39.09.55.14v5.3ZM259.2,362.1c0,1,.4,1.5,1.21,1.5.18,0,.36-.02.52-.07.16-.05.3-.1.41-.17v-2.86c-.09-.02-.19-.03-.31-.04s-.26-.02-.42-.02c-.47,0-.82.16-1.06.47-.23.31-.35.71-.35,1.19Z"/><path class="cls-7" d="M266.76,357.32c0,.33-.11.59-.32.77-.21.19-.46.28-.75.28s-.54-.09-.75-.28c-.21-.19-.32-.45-.32-.77s.11-.59.32-.77c.21-.19.46-.28.75-.28s.54.09.75.28c.21.19.32.45.32.77ZM266.59,365.46h-1.79v-6.31h1.79v6.31Z"/><path class="cls-7" d="M268.27,359.36c.3-.09.7-.17,1.18-.25.48-.08.98-.11,1.51-.11s.98.07,1.34.21c.36.14.64.34.85.59.21.26.36.56.44.91.09.35.13.74.13,1.18v3.56h-1.79v-3.35c0-.58-.08-.98-.23-1.22-.15-.24-.44-.36-.85-.36-.13,0-.26,0-.41.02-.14.01-.27.03-.38.04v4.87h-1.79v-6.1Z"/><path class="cls-7" d="M280.17,357.32c0,.33-.11.59-.32.77-.21.19-.46.28-.75.28s-.54-.09-.75-.28c-.21-.19-.32-.45-.32-.77s.11-.59.32-.77c.21-.19.46-.28.75-.28s.54.09.75.28c.21.19.32.45.32.77ZM280.01,365.46h-1.79v-6.31h1.79v6.31Z"/><path class="cls-7" d="M283.5,364.17c.33,0,.56-.03.7-.1s.2-.19.2-.37c0-.14-.09-.27-.26-.38-.18-.11-.44-.23-.8-.37-.28-.1-.53-.21-.76-.32-.23-.11-.42-.25-.58-.4-.16-.16-.28-.34-.37-.56s-.13-.48-.13-.78c0-.59.22-1.06.66-1.4.44-.34,1.04-.52,1.81-.52.38,0,.75.03,1.1.1.35.07.63.14.84.22l-.31,1.39c-.21-.07-.43-.14-.68-.19s-.52-.08-.82-.08c-.56,0-.84.16-.84.47,0,.07.01.14.04.19.02.06.07.11.14.16.07.05.17.11.29.17s.28.13.47.2c.39.15.72.29.97.43.26.14.46.29.61.46.15.16.25.34.31.54.06.2.09.43.09.69,0,.62-.23,1.09-.7,1.41-.47.32-1.13.48-1.99.48-.56,0-1.03-.05-1.4-.14-.37-.1-.63-.18-.77-.24l.3-1.45c.3.12.62.21.94.28.32.07.64.1.95.1Z"/><path class="cls-7" d="M290.39,359.36c.3-.09.7-.17,1.18-.25.48-.08.98-.11,1.51-.11s.98.07,1.34.21c.36.14.64.34.85.59.21.26.36.56.44.91.09.35.13.74.13,1.18v3.56h-1.79v-3.35c0-.58-.08-.98-.23-1.22-.15-.24-.44-.36-.85-.36-.13,0-.26,0-.41.02-.14.01-.27.03-.38.04v4.87h-1.79v-6.1Z"/><path class="cls-7" d="M303.36,362.29c0,.5-.07.95-.22,1.36-.14.41-.35.76-.62,1.06-.27.29-.6.52-.98.68s-.81.24-1.28.24-.89-.08-1.27-.24-.71-.39-.98-.68c-.27-.29-.48-.64-.64-1.06s-.23-.87-.23-1.36.08-.95.23-1.36c.16-.41.37-.76.65-1.04s.6-.51.98-.67.79-.24,1.24-.24.87.08,1.25.24.71.38.98.67c.27.29.48.64.64,1.04.15.41.23.86.23,1.36ZM301.53,362.29c0-.55-.11-.99-.33-1.3-.22-.32-.53-.47-.94-.47s-.72.16-.95.47c-.22.32-.34.75-.34,1.3s.11.99.34,1.31c.22.32.54.49.95.49s.72-.16.94-.49c.22-.32.33-.76.33-1.31Z"/><path class="cls-7" d="M304.68,357.57l1.79-.29v1.86h2.15v1.49h-2.15v2.22c0,.38.07.68.2.9.13.22.4.34.8.34.19,0,.39-.02.59-.05.2-.04.39-.09.56-.15l.25,1.39c-.22.09-.46.16-.72.23-.26.06-.59.1-.97.1-.49,0-.89-.07-1.21-.2-.32-.13-.58-.32-.77-.55-.19-.24-.33-.52-.4-.86s-.11-.71-.11-1.12v-5.3Z"/><path class="cls-7" d="M318.64,365.46c-.09-.29-.19-.59-.3-.89-.11-.3-.21-.61-.32-.91h-3.25c-.11.3-.21.61-.32.91s-.2.6-.29.89h-1.94c.31-.9.61-1.72.89-2.48.28-.76.56-1.48.82-2.15.27-.67.53-1.31.79-1.91s.53-1.19.81-1.77h1.77c.27.58.54,1.17.81,1.77.27.6.53,1.24.8,1.91s.54,1.39.83,2.15c.28.76.58,1.59.89,2.48h-2ZM316.4,359.03c-.04.12-.1.29-.18.49-.08.21-.17.45-.27.72s-.22.57-.34.9c-.13.33-.26.67-.39,1.03h2.38c-.13-.36-.25-.71-.37-1.03-.12-.33-.23-.63-.34-.9s-.2-.51-.28-.72-.15-.37-.2-.49Z"/><path class="cls-7" d="M324.12,365.58c-.52,0-.94-.06-1.27-.17-.32-.1-.58-.25-.77-.44-.19-.19-.32-.42-.38-.68-.07-.27-.1-.57-.1-.91v-6.95l1.79-.29v6.88c0,.16.01.3.04.43.02.13.07.24.14.32s.17.16.29.22.3.09.52.11l-.25,1.48Z"/><path class="cls-7" d="M327.91,365.58c-.52,0-.94-.06-1.27-.17-.32-.1-.58-.25-.77-.44-.19-.19-.32-.42-.38-.68-.07-.27-.1-.57-.1-.91v-6.95l1.79-.29v6.88c0,.16.01.3.04.43.02.13.07.24.14.32s.17.16.29.22.3.09.52.11l-.25,1.48Z"/><path class="cls-7" d="M335.09,362.29c0,.5-.07.95-.22,1.36-.14.41-.35.76-.62,1.06-.27.29-.6.52-.98.68s-.81.24-1.28.24-.89-.08-1.27-.24-.71-.39-.98-.68c-.27-.29-.48-.64-.64-1.06s-.23-.87-.23-1.36.08-.95.23-1.36c.16-.41.37-.76.65-1.04s.6-.51.98-.67.79-.24,1.24-.24.87.08,1.25.24.71.38.98.67c.27.29.48.64.64,1.04.15.41.23.86.23,1.36ZM333.26,362.29c0-.55-.11-.99-.33-1.3-.22-.32-.53-.47-.94-.47s-.72.16-.95.47c-.22.32-.34.75-.34,1.3s.11.99.34,1.31c.22.32.54.49.95.49s.72-.16.94-.49c.22-.32.33-.76.33-1.31Z"/><path class="cls-7" d="M340.17,361.83c-.16.61-.33,1.21-.51,1.81-.18.6-.37,1.2-.57,1.81h-1.39c-.14-.34-.3-.74-.47-1.2-.17-.46-.34-.97-.52-1.52-.18-.55-.37-1.13-.55-1.74s-.37-1.23-.55-1.85h1.88c.06.29.13.6.21.94.08.34.16.69.24,1.05.08.36.17.72.27,1.09.09.36.19.71.28,1.05.1-.35.21-.71.31-1.08.1-.37.2-.73.29-1.09.09-.36.18-.7.26-1.03s.16-.64.22-.93h1.3c.06.29.14.6.22.93.08.33.16.68.25,1.03.09.36.18.72.28,1.09.1.37.2.73.3,1.08.1-.34.19-.69.29-1.05.1-.36.19-.73.27-1.09.08-.36.17-.71.24-1.05.08-.34.15-.65.21-.94h1.86c-.18.62-.36,1.24-.55,1.85-.19.61-.37,1.19-.55,1.74s-.36,1.05-.53,1.52c-.17.46-.33.86-.48,1.2h-1.39c-.2-.61-.4-1.21-.59-1.81-.19-.6-.37-1.2-.53-1.81Z"/><path class="cls-7" d="M345.29,362.35c0-.56.09-1.05.26-1.47s.4-.77.68-1.05.6-.49.97-.64c.36-.14.74-.22,1.12-.22.9,0,1.6.27,2.12.82.52.55.78,1.35.78,2.42,0,.1,0,.22-.01.34,0,.12-.02.23-.02.33h-4.06c.04.37.21.66.52.88.3.22.71.32,1.22.32.33,0,.65-.03.97-.09.32-.06.57-.13.77-.22l.24,1.45c-.1.05-.22.1-.38.14s-.34.09-.53.13-.41.07-.63.09c-.22.02-.45.04-.67.04-.57,0-1.06-.08-1.48-.25s-.77-.4-1.04-.69c-.28-.29-.48-.64-.61-1.04-.13-.4-.2-.83-.2-1.3ZM349.49,361.66c0-.15-.03-.3-.08-.44-.04-.14-.11-.27-.2-.38-.09-.11-.21-.2-.35-.28-.14-.07-.31-.11-.52-.11s-.37.03-.52.1c-.14.07-.26.16-.36.27s-.17.24-.22.39c-.05.15-.09.3-.11.45h2.36Z"/><path class="cls-7" d="M358.16,365.25c-.16.05-.34.09-.55.14-.21.04-.43.08-.65.11-.23.03-.46.06-.7.08-.24.02-.46.03-.68.03-.52,0-.98-.08-1.39-.23-.41-.15-.75-.37-1.03-.65-.28-.28-.49-.63-.64-1.03s-.22-.86-.22-1.36.06-.97.19-1.39.31-.76.55-1.05c.24-.29.53-.51.88-.66.35-.15.75-.23,1.19-.23.25,0,.47.02.67.07.2.05.39.12.59.2v-2.86l1.79-.29v9.11ZM354.12,362.25c0,.55.12,1,.37,1.33s.62.5,1.1.5c.16,0,.31,0,.44-.02.14-.01.25-.03.34-.04v-3.25c-.11-.07-.26-.13-.44-.18-.18-.05-.36-.07-.55-.07-.85,0-1.27.58-1.27,1.73Z"/><path class="cls-7" d="M361.97,367.68h-3.25v-1.43h1.55v-8.76h-1.55v-1.43h3.25v11.62Z"/></g><g id="Layer_5"><path id="path32" class="cls-4" d="M572.07,528.44v-2.04l-.52.4-.34-.47.91-.67h.6v2.77h-.65"/><path id="path34" class="cls-4" d="M574.75,527.04c0-.09,0-.18-.02-.29-.01-.1-.03-.2-.06-.29-.03-.09-.07-.17-.12-.23-.05-.06-.12-.09-.21-.09s-.16.03-.21.09c-.06.06-.1.14-.13.23-.03.09-.05.19-.06.29-.01.1-.02.2-.02.29s0,.19.02.29c.01.11.03.2.06.29.03.09.07.17.13.23.05.06.13.09.21.09s.16-.03.21-.09c.05-.06.09-.14.12-.23.03-.09.05-.19.06-.29,0-.11.02-.2.02-.29ZM575.43,527.04c0,.2-.02.38-.06.56-.04.18-.1.33-.19.47-.09.13-.2.24-.33.32-.14.08-.3.12-.5.12s-.36-.04-.5-.12c-.14-.08-.25-.19-.34-.32-.09-.13-.15-.29-.19-.47-.04-.18-.06-.36-.06-.56s.02-.38.06-.56c.04-.18.1-.33.19-.46.09-.13.2-.24.34-.32.14-.08.31-.12.5-.12s.36.04.5.12c.14.08.25.18.33.32.09.13.15.29.19.46.04.18.06.36.06.56"/><path id="path36" class="cls-4" d="M579.1,528.44v-2.04l-.52.4-.34-.47.91-.67h.6v2.77h-.65"/><path id="path38" class="cls-4" d="M581.79,527.04c0-.09,0-.18-.02-.29-.01-.1-.03-.2-.06-.29-.03-.09-.07-.17-.12-.23-.05-.06-.12-.09-.21-.09s-.16.03-.21.09c-.06.06-.1.14-.13.23-.03.09-.05.19-.06.29-.01.1-.02.2-.02.29s0,.19.02.29c.01.11.03.2.06.29.03.09.07.17.13.23.05.06.13.09.21.09s.16-.03.21-.09c.05-.06.09-.14.12-.23.03-.09.05-.19.06-.29,0-.11.02-.2.02-.29ZM582.46,527.04c0,.2-.02.38-.06.56-.04.18-.1.33-.19.47-.09.13-.2.24-.33.32-.14.08-.3.12-.5.12s-.36-.04-.5-.12c-.14-.08-.25-.19-.34-.32-.09-.13-.15-.29-.19-.47-.04-.18-.06-.36-.06-.56s.02-.38.06-.56c.04-.18.1-.33.19-.46s.2-.24.34-.32c.14-.08.31-.12.5-.12s.36.04.5.12c.14.08.25.18.33.32.09.13.15.29.19.46.04.18.06.36.06.56"/><path id="path40" class="cls-4" d="M572.01,532.8v-2.04l-.52.4-.34-.47.91-.67h.6v2.77h-.65"/><path id="path42" class="cls-4" d="M574.31,532.8v-2.04l-.52.4-.34-.47.91-.67h.6v2.77h-.65"/><path id="path44" class="cls-4" d="M576.61,532.8v-2.04l-.52.4-.34-.47.91-.67h.6v2.77h-.65"/><path id="path46" class="cls-4" d="M579.41,531.41c0-.09,0-.18-.02-.29-.01-.1-.03-.2-.06-.29-.03-.09-.07-.17-.12-.23-.05-.06-.12-.09-.21-.09s-.16.03-.21.09c-.05.06-.1.14-.13.23-.03.09-.05.19-.06.29-.01.1-.02.2-.02.29s0,.19.02.29c.01.11.03.2.06.29.03.09.07.17.13.23.06.06.13.09.21.09s.16-.03.21-.09c.05-.06.09-.14.12-.23.03-.09.05-.19.06-.29.01-.11.02-.2.02-.29ZM580.09,531.41c0,.2-.02.38-.06.56-.04.18-.1.33-.19.47-.09.13-.2.24-.33.32-.14.08-.3.12-.5.12s-.36-.04-.5-.12c-.14-.08-.25-.19-.34-.32-.09-.13-.15-.29-.19-.47-.04-.18-.06-.36-.06-.56s.02-.38.06-.56c.04-.18.1-.33.19-.46.09-.13.2-.24.34-.32.14-.08.31-.12.5-.12s.36.04.5.12c.14.08.25.18.33.32.09.13.15.29.19.46.04.18.06.36.06.56"/><path id="path48" class="cls-4" d="M573.33,535.91v-1.48l-.38.29-.25-.34.66-.49h.43v2.01h-.47"/><path id="path50" class="cls-4" d="M576.66,535.91v-1.48l-.38.29-.25-.34.66-.49h.44v2.01h-.47"/><path id="path52" class="cls-4" d="M572,534.9c0-.06,0-.13-.01-.21,0-.08-.02-.15-.04-.21-.02-.07-.05-.12-.09-.16-.04-.04-.09-.07-.15-.07s-.11.02-.15.07c-.04.04-.07.1-.09.16-.02.07-.04.14-.04.21,0,.08-.01.15-.01.21s0,.14.01.21c0,.08.02.15.04.21.02.07.05.12.09.16.04.04.09.07.15.07s.11-.02.15-.07c.04-.04.07-.1.09-.16.02-.07.04-.14.04-.21,0-.08.01-.15.01-.21ZM572.49,534.9c0,.14-.01.28-.04.41-.03.13-.07.24-.14.34-.06.1-.14.18-.24.23-.1.06-.22.09-.36.09s-.26-.03-.36-.09c-.1-.06-.18-.14-.25-.23-.06-.1-.11-.21-.14-.34-.03-.13-.04-.26-.04-.41s.01-.28.04-.4c.03-.13.07-.24.14-.34.06-.1.15-.17.25-.23.1-.06.22-.09.36-.09s.26.03.36.09c.1.06.18.13.24.23.06.1.11.21.14.34.03.13.04.26.04.4"/><path id="path54" class="cls-4" d="M575.35,534.9c0-.06,0-.13-.01-.21,0-.08-.02-.15-.04-.21-.02-.07-.05-.12-.09-.16-.04-.04-.09-.07-.15-.07s-.11.02-.15.07c-.04.04-.07.1-.09.16-.02.07-.04.14-.04.21,0,.08-.01.15-.01.21s0,.14.01.21c0,.08.02.15.04.21.02.07.05.12.09.16.04.04.09.07.15.07s.11-.02.15-.07c.04-.04.07-.1.09-.16.02-.07.04-.14.04-.21,0-.08.01-.15.01-.21ZM575.84,534.9c0,.14-.01.28-.04.41-.03.13-.07.24-.14.34-.06.1-.14.18-.24.23-.1.06-.22.09-.36.09s-.26-.03-.36-.09c-.1-.06-.18-.14-.25-.23-.06-.1-.11-.21-.14-.34-.03-.13-.04-.26-.04-.41s.01-.28.04-.4c.03-.13.07-.24.14-.34.06-.1.15-.17.25-.23.1-.06.22-.09.36-.09s.26.03.36.09c.1.06.18.13.24.23.06.1.11.21.14.34.03.13.04.26.04.4"/><path id="path56" class="cls-4" d="M582.2,535.91v-1.48l-.38.29-.25-.34.66-.49h.44v2.01h-.47"/><path id="path58" class="cls-4" d="M580.89,534.9c0-.06,0-.13-.01-.21,0-.08-.02-.15-.04-.21-.02-.07-.05-.12-.09-.16-.04-.04-.09-.07-.15-.07s-.11.02-.15.07c-.04.04-.07.1-.09.16-.02.07-.04.14-.04.21,0,.08-.01.15-.01.21s0,.14.01.21c0,.08.02.15.04.21.02.07.05.12.09.16.04.04.09.07.15.07s.11-.02.15-.07c.04-.04.07-.1.09-.16.02-.07.04-.14.04-.21,0-.08.01-.15.01-.21ZM581.38,534.9c0,.14-.01.28-.04.41-.03.13-.07.24-.14.34-.06.1-.14.18-.24.23-.1.06-.22.09-.36.09s-.26-.03-.36-.09c-.1-.06-.18-.14-.25-.23-.06-.1-.11-.21-.14-.34-.03-.13-.04-.26-.04-.41s.01-.28.04-.4c.03-.13.07-.24.14-.34.06-.1.15-.17.25-.23.1-.06.22-.09.36-.09s.26.03.36.09c.1.06.18.13.24.23.06.1.11.21.14.34.03.13.04.26.04.4"/><path id="path60" class="cls-4" d="M580.37,538.28v-1.48l-.38.29-.25-.34.66-.49h.44v2.01h-.47"/><path id="path62" class="cls-4" d="M579.06,537.27c0-.06,0-.13-.01-.21,0-.08-.02-.15-.04-.21-.02-.07-.05-.12-.09-.16-.04-.04-.09-.07-.15-.07s-.11.02-.15.07c-.04.04-.07.1-.09.16-.02.07-.04.14-.04.21,0,.08-.01.15-.01.21s0,.14.01.21c0,.08.02.15.04.21.02.07.05.12.09.16.04.04.09.07.15.07s.11-.02.15-.07c.04-.04.07-.1.09-.16.02-.07.04-.14.04-.21,0-.08.01-.15.01-.21ZM579.55,537.27c0,.14-.01.28-.04.41-.03.13-.07.24-.14.34-.06.1-.14.18-.24.23-.1.06-.22.09-.36.09s-.26-.03-.36-.09c-.1-.06-.18-.14-.25-.23-.06-.1-.11-.21-.14-.34-.03-.13-.04-.26-.04-.41s.01-.28.04-.4c.03-.13.07-.24.14-.34.06-.1.15-.17.25-.23.1-.06.22-.09.36-.09s.26.03.36.09c.1.06.18.13.24.23.06.1.11.21.14.34.03.13.04.26.04.4"/><path id="path64" class="cls-4" d="M572.67,538.25v-1.02l-.26.2-.17-.23.46-.34h.3v1.39h-.33"/><path id="path66" class="cls-4" d="M571.76,537.55s0-.09,0-.14c0-.05-.02-.1-.03-.15-.01-.05-.03-.08-.06-.11-.03-.03-.06-.05-.11-.05s-.08.02-.11.05c-.03.03-.05.07-.06.11-.02.05-.03.09-.03.15,0,.05,0,.1,0,.14s0,.09,0,.15c0,.05.02.1.03.15.02.05.04.08.06.11.03.03.06.05.11.05s.08-.02.11-.05c.03-.03.05-.07.06-.11.01-.05.02-.09.03-.15,0-.05,0-.1,0-.15ZM572.1,537.55c0,.1-.01.19-.03.28-.02.09-.05.17-.09.24-.04.07-.1.12-.17.16-.07.04-.15.06-.25.06s-.18-.02-.25-.06c-.07-.04-.13-.09-.17-.16-.04-.07-.08-.15-.1-.24-.02-.09-.03-.18-.03-.28s0-.19.03-.28c.02-.09.05-.17.1-.23.04-.07.1-.12.17-.16.07-.04.15-.06.25-.06s.18.02.25.06c.07.04.13.09.17.16.04.07.07.14.09.23.02.09.03.18.03.28"/><path id="path68" class="cls-4" d="M576.76,540.04v-1.02l-.26.2-.17-.23.46-.34h.3v1.39h-.33"/><path id="path70" class="cls-4" d="M575.85,539.34s0-.09,0-.14c0-.05-.01-.1-.03-.15s-.04-.08-.06-.11c-.03-.03-.06-.05-.11-.05s-.08.02-.11.05c-.03.03-.05.07-.06.11-.02.05-.03.09-.03.15,0,.05,0,.1,0,.14s0,.09,0,.15c0,.05.02.1.03.15.01.05.04.08.06.11.03.03.06.05.11.05s.08-.02.11-.05c.03-.03.05-.07.06-.11.01-.05.02-.09.03-.15,0-.05,0-.1,0-.15ZM576.19,539.34c0,.1,0,.19-.03.28-.02.09-.05.17-.09.24-.04.07-.1.12-.17.16-.07.04-.15.06-.25.06s-.18-.02-.25-.06c-.07-.04-.13-.09-.17-.16-.04-.07-.08-.15-.1-.24-.02-.09-.03-.18-.03-.28s0-.19.03-.28c.02-.09.05-.17.1-.23.04-.07.1-.12.17-.16.07-.04.15-.06.25-.06s.18.02.25.06c.07.04.13.09.17.16.04.07.07.14.09.23.02.09.03.18.03.28"/><path id="path72" class="cls-4" d="M582.38,537.27c0-.06,0-.13-.01-.21,0-.08-.02-.15-.04-.21-.02-.07-.05-.12-.09-.16-.04-.04-.09-.07-.15-.07s-.11.02-.15.07c-.04.04-.07.1-.09.16-.02.07-.04.14-.04.21,0,.08-.01.15-.01.21s0,.14.01.21c0,.08.02.15.04.21.02.07.05.12.09.16.04.04.09.07.15.07s.11-.02.15-.07c.04-.04.07-.1.09-.16.02-.07.04-.14.04-.21,0-.08.01-.15.01-.21ZM582.87,537.27c0,.14-.01.28-.04.41-.03.13-.07.24-.14.34-.06.1-.14.18-.24.23-.1.06-.22.09-.36.09s-.26-.03-.36-.09c-.1-.06-.18-.14-.25-.23-.06-.1-.11-.21-.14-.34-.03-.13-.04-.26-.04-.41s.01-.28.04-.4c.03-.13.07-.24.14-.34.06-.1.15-.17.25-.23.1-.06.22-.09.36-.09s.26.03.36.09c.1.06.18.13.24.23.06.1.11.21.14.34.03.13.04.26.04.4"/><path id="path74" class="cls-4" d="M581.47,523.68c-.46-2.27-2.48-3.91-4.8-3.91-.35,0-.7.04-1.04.11-.56-3.31-3.45-5.83-6.91-5.83s-6.29,2.48-6.89,5.74c-2.49.23-4.45,2.33-4.45,4.88,0,2.7,2.2,4.9,4.9,4.9h7.33c.37,0,.68-.3.68-.68s-.3-.68-.68-.68h-7.33c-1.96,0-3.55-1.59-3.55-3.55s1.59-3.55,3.55-3.55c.71,0,1.4.21,1.98.6.31.21.73.13.94-.18.21-.31.13-.73-.18-.94-.55-.37-1.17-.62-1.82-.75.55-2.54,2.82-4.45,5.53-4.45,2.88,0,5.27,2.17,5.61,4.96-.18.1-.36.21-.53.33-.3.22-.37.64-.15.95.22.3.64.37.95.15.61-.44,1.32-.67,2.07-.67,1.68,0,3.14,1.19,3.47,2.83.07.32.35.54.66.54.04,0,.09,0,.14-.01.37-.07.6-.43.53-.8"/></g></svg>