<?xml version="1.0" encoding="UTF-8"?><svg id="Layer_1" xmlns="http://www.w3.org/2000/svg" xmlns:xlink="http://www.w3.org/1999/xlink" viewBox="0 0 1087.97 418.99"><defs><style>.cls-1{fill:#727c92;}.cls-1,.cls-2,.cls-3,.cls-4,.cls-5,.cls-6,.cls-7,.cls-8,.cls-9,.cls-10,.cls-11,.cls-12,.cls-13,.cls-14,.cls-15,.cls-16,.cls-17{stroke-width:0px;}.cls-2{fill:#d4d8df;}.cls-18{clip-path:url(#clippath-11);}.cls-3{fill:url(#linear-gradient);}.cls-19{clip-path:url(#clippath-2);}.cls-20{clip-path:url(#clippath-13);}.cls-21{clip-path:url(#clippath-6);}.cls-4{fill:#223654;}.cls-5{fill:#2e3d5b;}.cls-6{fill:url(#linear-gradient-5);}.cls-7,.cls-22{fill:none;}.cls-8{fill:#eb0037;}.cls-23{clip-path:url(#clippath-7);}.cls-24{clip-path:url(#clippath-1);}.cls-25{clip-path:url(#clippath-4);}.cls-9{fill:#dbdcdd;}.cls-10{fill:#151c2b;}.cls-26{clip-path:url(#clippath-12);}.cls-22{stroke:#223654;stroke-miterlimit:10;stroke-width:.84px;}.cls-11{fill:url(#linear-gradient-2);}.cls-12{fill:#a3ea2a;}.cls-13{fill:url(#linear-gradient-3);}.cls-27{clip-path:url(#clippath-9);}.cls-28{clip-path:url(#clippath);}.cls-29{opacity:.11;}.cls-14{fill:#ecbb0a;}.cls-30{clip-path:url(#clippath-3);}.cls-31{clip-path:url(#clippath-8);}.cls-15{fill:#fff;}.cls-32{clip-path:url(#clippath-14);}.cls-33{clip-path:url(#clippath-5);}.cls-16{fill:#3bc81e;}.cls-34{clip-path:url(#clippath-10);}.cls-35{opacity:.29;}.cls-17{fill:url(#linear-gradient-4);}</style><clipPath id="clippath"><rect class="cls-7" x="803" y="117.28" width="272.89" height="287.14"/></clipPath><clipPath id="clippath-1"><rect class="cls-7" x="803" y="117.28" width="272.89" height="287.14"/></clipPath><clipPath id="clippath-2"><rect class="cls-7" x="803" y="117.28" width="272.88" height="287.14"/></clipPath><clipPath id="clippath-3"><polygon class="cls-7" points="811.35 212.35 811.35 320.69 951.94 355.95 1070.91 316.29 1068.71 206.13 811.35 212.35"/></clipPath><linearGradient id="linear-gradient" x1="-25.28" y1="-790.94" x2="-25.04" y2="-790.94" gradientTransform="translate(28230.8 -857697.65) scale(1084.75 -1084.75)" gradientUnits="userSpaceOnUse"><stop offset="0" stop-color="#a3ea2a"/><stop offset=".51" stop-color="#74a517"/><stop offset=".99" stop-color="#a3ea2a"/><stop offset="1" stop-color="#a3ea2a"/></linearGradient><clipPath id="clippath-4"><path class="cls-7" d="M804.22,208.67c.05,2.72,1.67,5.17,4.15,6.29,15.39,7.01,72.99,30.68,146.8,29.56,65.6-.99,106.04-23.38,117.4-30.58,2.06-1.31,3.28-3.59,3.25-6.02l-.69-61.9-272.14-.53,1.23,63.19Z"/></clipPath><linearGradient id="linear-gradient-2" x1="-25.76" y1="-790.19" x2="-25.52" y2="-790.19" gradientTransform="translate(68306.13 -2069270.04) scale(2618.94 -2618.94)" gradientUnits="userSpaceOnUse"><stop offset="0" stop-color="#9da8c4"/><stop offset=".17" stop-color="#51586b"/><stop offset=".36" stop-color="#828ca5"/><stop offset="1" stop-color="#828ca5"/></linearGradient><clipPath id="clippath-5"><path class="cls-7" d="M939.14,117.28c-75.08,0-136.14,12.63-136.14,28.2s61.07,28.2,136.14,28.2,135.94-12.63,135.94-28.2-60.86-28.2-135.94-28.2Z"/></clipPath><linearGradient id="linear-gradient-3" x1="-26.36" y1="-789.6" x2="-26.12" y2="-789.6" gradientTransform="translate(-2335977.86 -77546.7) rotate(-90) scale(2959.62 -2959.62)" gradientUnits="userSpaceOnUse"><stop offset="0" stop-color="#7c89a5"/><stop offset=".57" stop-color="#4f5669"/><stop offset="1" stop-color="#444b5c"/></linearGradient><clipPath id="clippath-6"><rect class="cls-7" x="803" y="117.28" width="272.88" height="287.14"/></clipPath><clipPath id="clippath-7"><path class="cls-7" d="M943.36,336.04c-31.48-2.62-78.71-2.62-139.06-30.17v52.55c0,9.08,5.52,17.23,13.94,20.62,22.8,9.17,71.61,25.38,131.85,25.38h.01c1.68,0,3.36-.01,5.06-.04,54.22-.82,91.25-16.25,108.88-25.65,7.26-3.87,11.81-11.4,11.81-19.64v-57.16c-23.61,22.3-95.76,36.73-132.5,34.11"/></clipPath><linearGradient id="linear-gradient-4" x1="-25.66" y1="-790.06" x2="-25.42" y2="-790.06" gradientTransform="translate(60587.64 -1840156.5) scale(2329.57 -2329.57)" gradientUnits="userSpaceOnUse"><stop offset="0" stop-color="#9da8c4"/><stop offset=".28" stop-color="#51586b"/><stop offset=".53" stop-color="#828ca5"/><stop offset="1" stop-color="#828ca5"/></linearGradient><clipPath id="clippath-8"><rect class="cls-7" x="803" y="117.28" width="272.88" height="287.14"/></clipPath><clipPath id="clippath-9"><path class="cls-7" d="M1075.68,223.33c-23.79,22.21-95.68,36.56-132.32,33.94-31.48-2.62-78.71-2.62-139.06-30.17v67.03s64.28,32.8,150.86,31.48c76.76-1.16,119.07-31.61,120.64-32.76.03-.02.05-.05.05-.09v-69.35c0-.06-.05-.1-.1-.1-.02,0-.05,0-.07.03"/></clipPath><linearGradient id="linear-gradient-5" x1="-25.64" y1="-790.22" x2="-25.4" y2="-790.22" gradientTransform="translate(56791.04 -1725277.72) scale(2183.64 -2183.64)" xlink:href="#linear-gradient-4"/><clipPath id="clippath-10"><rect class="cls-7" x="803" y="117.28" width="272.88" height="287.14"/></clipPath><clipPath id="clippath-11"><rect class="cls-7" x="807.16" y="158.73" width="97.79" height="33.45"/></clipPath><clipPath id="clippath-12"><rect class="cls-7" x="929.14" y="123.62" width="133.17" height="43.54"/></clipPath><clipPath id="clippath-13"><rect class="cls-7" x="29.77" y="182.94" width="231.42" height="155.81"/></clipPath><clipPath id="clippath-14"><rect class="cls-7" x="29.77" y="182.94" width="231.42" height="155.81"/></clipPath></defs><g id="arrow_styles_for_diagrams_etc"><g id="arrow_styles_for_diagrams_etc-2"><g id="arrow_styles_for_diagrams_etc-3"><g id="arrow_styles_for_diagrams_etc-4"><path class="cls-12" d="M802.3,165.7l-31.57,18.15c-.93.53-2.1-.14-2.1-1.21v-9.36h-497.98c-2.8,0-5.07-2.27-5.07-5.07v-7.43c0-2.79,2.26-5.05,5.05-5.05h497.99v-9.36c0-1.08,1.17-1.75,2.1-1.21l31.57,18.15c.93.53.93,1.87,0,2.4Z"/></g></g></g></g><rect class="cls-4" x="12.09" y="132.14" width="266.79" height="257.41" rx="22.12" ry="22.12"/><rect class="cls-4" x="419.22" y="278.39" width="239.87" height="37.71" rx="10.53" ry="10.53"/><rect class="cls-4" x="464.08" y="207" width="150.15" height="37.71" rx="10.53" ry="10.53"/><rect class="cls-4" x="354.95" y="12.78" width="369.2" height="50.21" rx="10.53" ry="10.53"/><rect class="cls-4" x="120.93" y="67.44" width="49.11" height="37.71" rx="10.53" ry="10.53"/><rect class="cls-4" x="876.01" y="67.44" width="126.86" height="37.71" rx="10.53" ry="10.53"/><g id="arrow_styles_for_diagrams_etc-5"><g id="arrow_styles_for_diagrams_etc-6"><g id="arrow_styles_for_diagrams_etc-7"><g id="arrow_styles_for_diagrams_etc-8"><path class="cls-12" d="M266.29,355.99l31.57-18.15c.93-.53,2.1.14,2.1,1.21v9.36h509.84c2.8,0,5.07,2.27,5.07,5.07v7.43c0,2.79-2.26,5.05-5.05,5.05h-509.86v9.36c0,1.08-1.17,1.75-2.1,1.21l-31.57-18.15c-.93-.53-.93-1.87,0-2.4Z"/></g></g></g></g><g id="Database"><g class="cls-28"><g class="cls-24"><g class="cls-19"><path class="cls-5" d="M804.87,302.26s3.2-2.4,8.01-2.4l-.8,7.21-7.21-4.8Z"/><path class="cls-5" d="M804.46,221.91s3.53-2.16,8.33-2.16l-.8,7.21-7.53-5.05Z"/></g><g class="cls-30"><rect class="cls-3" x="811.35" y="206.13" width="259.56" height="149.82"/></g><g class="cls-25"><rect class="cls-11" x="802.79" y="144.91" width="273.27" height="101.3" transform="translate(-.81 3.93) rotate(-.24)"/></g><g class="cls-33"><rect class="cls-13" x="802.4" y="114.26" width="273.27" height="62.44" transform="translate(-3 20.9) rotate(-1.27)"/></g><g class="cls-21"><path class="cls-9" d="M1001.08,203.42c0,4.88-3.96,8.84-8.84,8.84-2.45,0-4.67-1-6.28-2.61,1.31.76,2.82,1.19,4.44,1.19,4.88,0,8.84-3.96,8.84-8.84,0-2.43-.98-4.63-2.57-6.23,2.63,1.53,4.4,4.38,4.4,7.65"/><path class="cls-15" d="M999.24,202c0,4.88-3.96,8.84-8.84,8.84-1.62,0-3.13-.43-4.44-1.19-1.59-1.6-2.57-3.8-2.57-6.23,0-4.88,3.96-8.84,8.84-8.84,1.62,0,3.13.43,4.44,1.19,1.59,1.6,2.57,3.8,2.57,6.23"/><path class="cls-15" d="M1001.08,363.54c0,4.88-3.96,8.84-8.84,8.84s-8.84-3.96-8.84-8.84,3.96-8.84,8.84-8.84,8.84,3.96,8.84,8.84"/><path class="cls-5" d="M805.31,302.24s6.49,4.78,14.44,7.44c13.22,4.41,57.27,20.23,125.58,22.03,83.72,2.2,126.14-29.11,126.14-29.11l4.39-.67-55.62,51.81-185.07-17.63-28.64-24.23-2.2-4.41s-.24-6.06.98-5.23"/></g><g class="cls-23"><rect class="cls-17" x="804.31" y="301.93" width="271.55" height="102.49"/></g><g class="cls-31"><path class="cls-15" d="M1001.08,363.89c0,4.88-3.96,8.84-8.84,8.84s-8.84-3.96-8.84-8.84,3.96-8.84,8.84-8.84,8.84,3.96,8.84,8.84"/><path class="cls-5" d="M804.51,221.89s7.29,4.78,15.24,7.44c13.22,4.41,57.27,20.23,125.58,22.03,83.72,2.2,124.01-27.8,124.01-27.8l4.39,4.14-53.5,45.69-185.07-17.63-28.64-24.23-2.2-4.41s-.26-4.93.18-5.23"/><path class="cls-5" d="M1075.86,301.93s.64-2.94-5.31-4.18v.96l.11,4.72,2.36-.52,2.83-.97Z"/><path class="cls-5" d="M1075.85,223.41s-.97-4.87-6.92-6.11v1.31l.15,10.91,2.68-.45,4.09-5.66Z"/></g><g class="cls-27"><rect class="cls-6" x="804.31" y="223.3" width="271.55" height="103.62"/></g><g class="cls-34"><path class="cls-15" d="M1001.08,284.58c0,4.88-3.96,8.84-8.84,8.84s-8.84-3.96-8.84-8.84,3.96-8.84,8.84-8.84,8.84,3.96,8.84,8.84"/><path class="cls-9" d="M1001.08,284.58c0,4.88-3.96,8.84-8.84,8.84-2.45,0-4.67-1-6.28-2.61,1.31.76,2.82,1.19,4.44,1.19,4.88,0,8.84-3.96,8.84-8.84,0-2.43-.98-4.63-2.57-6.23,2.63,1.53,4.4,4.38,4.4,7.65"/><path class="cls-9" d="M1001.08,363.82c0,4.88-3.96,8.84-8.84,8.84-2.45,0-4.67-1-6.28-2.61,1.31.76,2.82,1.19,4.44,1.19,4.88,0,8.84-3.96,8.84-8.84,0-2.43-.98-4.63-2.57-6.23,2.63,1.53,4.4,4.38,4.4,7.65"/><g class="cls-35"><g class="cls-18"><path class="cls-15" d="M807.16,158.73v19.47s59.09,17.99,97.79,13.16c0,0-79.47-16.87-97.79-32.62"/></g></g><g class="cls-29"><g class="cls-26"><path class="cls-15" d="M929.14,167.17s130.79-4.6,133.13-21.65c2.34-17.05-94.42-21.89-94.42-21.89,0,0,86.85,14.75,72.45,21.89-14.39,7.14-111.16,21.65-111.16,21.65"/></g></g></g></g></g></g><path class="cls-12" d="M782.77,259.64l-31.71-18.24c-.94-.53-2.11.14-2.11,1.22v9.41h-419.58v-9.41c0-1.08-1.17-1.76-2.11-1.22l-31.71,18.23c-.94.53-.94,1.88,0,2.41l31.71,18.23c.94.53,2.11-.14,2.11-1.22v-9.41h419.58v9.41c0,1.08,1.17,1.76,2.11,1.22l31.71-18.24c.94-.53.94-1.88,0-2.41Z"/><path class="cls-15" d="M495.62,132.66l1.34-1.65c.75.65,1.78,1.01,2.68,1.01.96,0,1.41-.36,1.41-.93,0-.62-.57-.82-1.5-1.19l-1.36-.59c-1.13-.44-2.16-1.37-2.16-2.91,0-1.78,1.6-3.22,3.86-3.22,1.27,0,2.53.47,3.45,1.32l-1.32,1.65c-.72-.51-1.45-.78-2.12-.78-.78,0-1.29.31-1.29.87,0,.62.67.83,1.62,1.21l1.32.54c1.32.52,2.11,1.41,2.11,2.89,0,1.78-1.49,3.33-4.05,3.33-1.44,0-2.86-.49-3.97-1.55Z"/><path class="cls-15" d="M508.63,134.1c-2.24-.49-3.71-2.45-3.71-5.44,0-3.5,1.98-5.47,4.87-5.47s4.87,1.99,4.87,5.47c0,2.83-1.31,4.72-3.35,5.34.49.74,1.44,1,2.32,1,.46,0,.87-.07,1.19-.16l.44,1.81c-.41.21-1.08.38-1.93.38-2.32,0-3.92-1.23-4.71-2.92ZM512.06,128.66c0-2.08-.87-3.28-2.27-3.28s-2.27,1.21-2.27,3.28c0,2.21.88,3.48,2.27,3.48s2.27-1.28,2.27-3.48Z"/><path class="cls-15" d="M516.63,123.38h2.55v8.51h4.13v2.12h-6.68v-10.64Z"/><path class="cls-15" d="M531.65,134.1c-2.24-.49-3.71-2.45-3.71-5.44,0-3.5,1.98-5.47,4.87-5.47s4.87,1.99,4.87,5.47c0,2.83-1.31,4.72-3.35,5.34.49.74,1.44,1,2.32,1,.46,0,.87-.07,1.19-.16l.44,1.81c-.41.21-1.08.38-1.93.38-2.32,0-3.92-1.23-4.71-2.92ZM535.08,128.66c0-2.08-.87-3.28-2.27-3.28s-2.27,1.21-2.27,3.28c0,2.21.88,3.48,2.27,3.48s2.27-1.28,2.27-3.48Z"/><path class="cls-15" d="M539.38,130.93v-5.03h2.53v4.71c0,1.13.29,1.45.95,1.45.57,0,.92-.23,1.36-.83v-5.33h2.53v8.12h-2.06l-.18-1.11h-.07c-.67.8-1.44,1.31-2.53,1.31-1.78,0-2.53-1.26-2.53-3.29Z"/><path class="cls-15" d="M548.35,129.95c0-2.63,1.9-4.25,3.84-4.25,2.35,0,3.5,1.7,3.5,3.91,0,.46-.05.88-.1,1.11h-4.79c.23,1.09,1,1.57,2.03,1.57.59,0,1.18-.18,1.75-.51l.82,1.52c-.85.6-1.96.92-2.92.92-2.32,0-4.12-1.55-4.12-4.27ZM553.53,129.02c0-.8-.36-1.41-1.28-1.41-.72,0-1.32.46-1.49,1.41h2.76Z"/><path class="cls-15" d="M557.3,125.9h2.06l.18,1.41h.07c.59-1.09,1.49-1.6,2.3-1.6.47,0,.75.05.98.16l-.47,2.14c-.29-.07-.47-.1-.83-.1-.61,0-1.34.39-1.77,1.47v4.64h-2.52v-8.12Z"/><path class="cls-15" d="M563.76,123.45c0-.78.59-1.29,1.42-1.29s1.42.51,1.42,1.29-.59,1.31-1.42,1.31-1.42-.51-1.42-1.31ZM563.92,125.9h2.52v8.12h-2.52v-8.12Z"/><path class="cls-15" d="M568.04,129.95c0-2.63,1.9-4.25,3.84-4.25,2.35,0,3.5,1.7,3.5,3.91,0,.46-.05.88-.1,1.11h-4.79c.23,1.09,1,1.57,2.03,1.57.59,0,1.18-.18,1.75-.51l.82,1.52c-.85.6-1.96.92-2.92.92-2.32,0-4.12-1.55-4.12-4.27ZM573.22,129.02c0-.8-.36-1.41-1.28-1.41-.72,0-1.32.46-1.49,1.41h2.76Z"/><path class="cls-15" d="M576.29,132.99l1.06-1.42c.75.59,1.49.78,2.12.78.69,0,.96-.25.96-.64,0-.49-.69-.7-1.55-1.03-1.16-.42-2.14-1.16-2.14-2.42,0-1.54,1.24-2.57,3.14-2.57,1.19,0,2.21.44,2.91,1.03l-1.08,1.42c-.59-.42-1.19-.59-1.75-.59-.59,0-.87.23-.87.59,0,.42.46.62,1.49.95,1.24.39,2.22,1.13,2.22,2.47,0,1.49-1.18,2.65-3.38,2.65-1.08,0-2.32-.42-3.14-1.23Z"/><rect class="cls-4" x="481.51" y="373.93" width="115.3" height="37.71" rx="10.53" ry="10.53"/><path class="cls-15" d="M495.62,396.53l1.34-1.65c.75.65,1.78,1.01,2.68,1.01.96,0,1.41-.36,1.41-.93,0-.62-.57-.82-1.5-1.19l-1.36-.59c-1.13-.44-2.16-1.37-2.16-2.91,0-1.78,1.6-3.22,3.86-3.22,1.27,0,2.53.47,3.45,1.32l-1.32,1.65c-.72-.51-1.45-.78-2.12-.78-.78,0-1.29.31-1.29.87,0,.62.67.83,1.62,1.21l1.32.54c1.32.52,2.11,1.41,2.11,2.89,0,1.78-1.49,3.33-4.05,3.33-1.44,0-2.86-.49-3.97-1.55Z"/><path class="cls-15" d="M508.63,397.97c-2.24-.49-3.71-2.45-3.71-5.44,0-3.5,1.98-5.47,4.87-5.47s4.87,1.99,4.87,5.47c0,2.83-1.31,4.72-3.35,5.34.49.74,1.44,1,2.32,1,.46,0,.87-.07,1.19-.16l.44,1.81c-.41.21-1.08.38-1.93.38-2.32,0-3.92-1.23-4.71-2.92ZM512.06,392.53c0-2.08-.87-3.28-2.27-3.28s-2.27,1.21-2.27,3.28c0,2.21.88,3.48,2.27,3.48s2.27-1.28,2.27-3.48Z"/><path class="cls-15" d="M516.63,387.25h2.55v8.51h4.13v2.12h-6.68v-10.64Z"/><path class="cls-15" d="M531.65,397.97c-2.24-.49-3.71-2.45-3.71-5.44,0-3.5,1.98-5.47,4.87-5.47s4.87,1.99,4.87,5.47c0,2.83-1.31,4.72-3.35,5.34.49.74,1.44,1,2.32,1,.46,0,.87-.07,1.19-.16l.44,1.81c-.41.21-1.08.38-1.93.38-2.32,0-3.92-1.23-4.71-2.92ZM535.08,392.53c0-2.08-.87-3.28-2.27-3.28s-2.27,1.21-2.27,3.28c0,2.21.88,3.48,2.27,3.48s2.27-1.28,2.27-3.48Z"/><path class="cls-15" d="M539.38,394.8v-5.03h2.53v4.71c0,1.13.29,1.45.95,1.45.57,0,.92-.23,1.36-.83v-5.33h2.53v8.12h-2.06l-.18-1.11h-.07c-.67.8-1.44,1.31-2.53,1.31-1.78,0-2.53-1.26-2.53-3.29Z"/><path class="cls-15" d="M548.35,393.82c0-2.63,1.9-4.25,3.84-4.25,2.35,0,3.5,1.7,3.5,3.91,0,.46-.05.88-.1,1.11h-4.79c.23,1.09,1,1.57,2.03,1.57.59,0,1.18-.18,1.75-.51l.82,1.52c-.85.6-1.96.92-2.92.92-2.32,0-4.12-1.55-4.12-4.27ZM553.53,392.89c0-.8-.36-1.41-1.28-1.41-.72,0-1.32.46-1.49,1.41h2.76Z"/><path class="cls-15" d="M557.3,389.77h2.06l.18,1.41h.07c.59-1.09,1.49-1.6,2.3-1.6.47,0,.75.05.98.16l-.47,2.14c-.29-.07-.47-.1-.83-.1-.6,0-1.34.39-1.77,1.47v4.64h-2.52v-8.12Z"/><path class="cls-15" d="M563.76,387.31c0-.78.59-1.29,1.42-1.29s1.42.51,1.42,1.29-.59,1.31-1.42,1.31-1.42-.51-1.42-1.31ZM563.92,389.77h2.52v8.12h-2.52v-8.12Z"/><path class="cls-15" d="M568.04,393.82c0-2.63,1.9-4.25,3.84-4.25,2.35,0,3.5,1.7,3.5,3.91,0,.46-.05.88-.1,1.11h-4.79c.23,1.09,1,1.57,2.03,1.57.59,0,1.18-.18,1.75-.51l.82,1.52c-.85.6-1.96.92-2.92.92-2.32,0-4.12-1.55-4.12-4.27ZM573.22,392.89c0-.8-.36-1.41-1.28-1.41-.72,0-1.32.46-1.49,1.41h2.76Z"/><path class="cls-15" d="M576.29,396.86l1.06-1.42c.75.59,1.49.78,2.12.78.69,0,.96-.25.96-.64,0-.49-.69-.7-1.55-1.03-1.16-.42-2.14-1.16-2.14-2.42,0-1.54,1.24-2.57,3.14-2.57,1.19,0,2.21.44,2.91,1.03l-1.08,1.42c-.59-.42-1.19-.59-1.75-.59-.59,0-.87.23-.87.59,0,.42.46.62,1.49.95,1.24.39,2.22,1.13,2.22,2.47,0,1.49-1.18,2.65-3.38,2.65-1.08,0-2.32-.42-3.14-1.23Z"/><path class="cls-15" d="M887.72,78.32h4.89c5.2,0,8.62,2.54,8.62,8.44s-3.42,8.57-8.39,8.57h-5.12v-17.02ZM892.38,92.07c2.74,0,4.71-1.28,4.71-5.31s-1.96-5.18-4.71-5.18h-.58v10.48h.58Z"/><path class="cls-15" d="M903.49,91.71c0-2.75,2.12-4.23,7.24-4.76-.1-1.07-.65-1.7-1.99-1.7-1.04,0-2.09.37-3.4,1.1l-1.41-2.61c1.7-1.05,3.56-1.7,5.59-1.7,3.35,0,5.23,1.86,5.23,5.93v7.37h-3.29l-.29-1.31h-.1c-1.07.97-2.25,1.62-3.71,1.62-2.38,0-3.87-1.78-3.87-3.95ZM910.73,91.5v-2.06c-2.59.34-3.37,1.05-3.37,1.96,0,.76.5,1.12,1.38,1.12.81,0,1.36-.39,1.99-1.02Z"/><path class="cls-15" d="M917.95,90.53v-5.02h-1.75v-3.03l1.99-.13.47-3.97h3.35v3.97h3.06v3.16h-3.06v4.97c0,1.46.68,2.01,1.65,2.01.42,0,.86-.05,1.2-.18l.63,2.82c-.68.26-1.67.52-2.95.52-3.24,0-4.57-2.06-4.57-5.12Z"/><path class="cls-15" d="M926.47,91.71c0-2.75,2.12-4.23,7.24-4.76-.1-1.07-.65-1.7-1.99-1.7-1.04,0-2.09.37-3.4,1.1l-1.41-2.61c1.7-1.05,3.56-1.7,5.59-1.7,3.35,0,5.23,1.86,5.23,5.93v7.37h-3.29l-.29-1.31h-.1c-1.07.97-2.25,1.62-3.71,1.62-2.38,0-3.87-1.78-3.87-3.95ZM933.71,91.5v-2.06c-2.59.34-3.37,1.05-3.37,1.96,0,.76.5,1.12,1.38,1.12.81,0,1.36-.39,1.99-1.02Z"/><path class="cls-15" d="M944.48,93.95h-.1l-.31,1.39h-3.16v-18.27h4.03v4.39l-.08,1.96c.97-.86,2.14-1.39,3.35-1.39,3.14,0,5.1,2.59,5.1,6.59,0,4.47-2.64,7.03-5.44,7.03-1.18,0-2.35-.58-3.37-1.7ZM949.13,88.68c0-2.27-.68-3.35-2.12-3.35-.76,0-1.38.34-2.09,1.1v5.15c.65.58,1.33.76,1.96.76,1.25,0,2.25-1.02,2.25-3.66Z"/><path class="cls-15" d="M955.07,91.71c0-2.75,2.12-4.23,7.24-4.76-.1-1.07-.65-1.7-1.99-1.7-1.04,0-2.09.37-3.4,1.1l-1.41-2.61c1.7-1.05,3.56-1.7,5.59-1.7,3.35,0,5.23,1.86,5.23,5.93v7.37h-3.29l-.29-1.31h-.1c-1.07.97-2.25,1.62-3.71,1.62-2.38,0-3.87-1.78-3.87-3.95ZM962.31,91.5v-2.06c-2.59.34-3.37,1.05-3.37,1.96,0,.76.5,1.12,1.38,1.12.81,0,1.36-.39,1.99-1.02Z"/><path class="cls-15" d="M968.38,93.69l1.7-2.27c1.2.94,2.38,1.25,3.4,1.25,1.1,0,1.54-.39,1.54-1.02,0-.78-1.1-1.12-2.48-1.65-1.86-.68-3.42-1.86-3.42-3.87,0-2.46,1.99-4.1,5.02-4.1,1.91,0,3.53.71,4.65,1.65l-1.73,2.27c-.94-.68-1.91-.94-2.8-.94-.94,0-1.39.37-1.39.94,0,.68.73.99,2.38,1.52,1.99.63,3.55,1.8,3.55,3.95,0,2.38-1.88,4.23-5.41,4.23-1.72,0-3.71-.68-5.02-1.96Z"/><path class="cls-15" d="M980.43,88.83c0-4.21,3.03-6.8,6.14-6.8,3.76,0,5.59,2.72,5.59,6.25,0,.73-.08,1.41-.16,1.78h-7.66c.37,1.75,1.59,2.51,3.24,2.51.94,0,1.88-.29,2.8-.81l1.31,2.43c-1.36.97-3.14,1.46-4.68,1.46-3.71,0-6.59-2.48-6.59-6.82ZM988.72,87.34c0-1.28-.57-2.25-2.04-2.25-1.15,0-2.12.73-2.38,2.25h4.42Z"/><path class="cls-15" d="M134.64,87.34v-9.02h4.05v9.46c0,3.24.97,4.37,2.82,4.37s2.9-1.12,2.9-4.37v-9.46h3.89v9.02c0,5.75-2.27,8.31-6.8,8.31s-6.87-2.56-6.87-8.31Z"/><path class="cls-15" d="M152.16,78.33h4.08v17.02h-4.08v-17.02Z"/><path class="cls-15" d="M476.64,230.54l1.34-1.65c.75.65,1.78,1.01,2.68,1.01.96,0,1.41-.36,1.41-.93,0-.62-.57-.82-1.5-1.19l-1.36-.59c-1.13-.44-2.16-1.37-2.16-2.91,0-1.78,1.6-3.22,3.86-3.22,1.27,0,2.53.47,3.45,1.32l-1.32,1.65c-.72-.51-1.45-.78-2.12-.78-.78,0-1.29.31-1.29.87,0,.62.67.83,1.62,1.21l1.32.54c1.32.52,2.11,1.41,2.11,2.89,0,1.78-1.49,3.33-4.05,3.33-1.44,0-2.86-.49-3.97-1.55Z"/><path class="cls-15" d="M486.09,228.89v-3.14h-1.09v-1.9l1.24-.08.29-2.48h2.09v2.48h1.91v1.98h-1.91v3.1c0,.92.42,1.26,1.03,1.26.26,0,.54-.03.75-.11l.39,1.76c-.42.16-1.05.33-1.85.33-2.03,0-2.86-1.29-2.86-3.2Z"/><path class="cls-15" d="M491.33,227.83c0-2.7,1.91-4.25,3.97-4.25s3.99,1.55,3.99,4.25-1.91,4.27-3.99,4.27-3.97-1.57-3.97-4.27ZM496.69,227.83c0-1.34-.44-2.22-1.39-2.22s-1.39.88-1.39,2.22.44,2.22,1.39,2.22,1.39-.87,1.39-2.22Z"/><path class="cls-15" d="M500.89,223.78h2.06l.18,1.41h.07c.59-1.09,1.49-1.6,2.3-1.6.47,0,.75.05.98.16l-.47,2.14c-.29-.07-.47-.1-.83-.1-.6,0-1.34.39-1.76,1.47v4.64h-2.52v-8.12Z"/><path class="cls-15" d="M506.89,227.83c0-2.63,1.9-4.25,3.84-4.25,2.35,0,3.5,1.7,3.5,3.91,0,.46-.05.88-.1,1.11h-4.79c.23,1.09,1,1.57,2.03,1.57.59,0,1.18-.18,1.75-.51l.82,1.52c-.85.6-1.96.92-2.92.92-2.32,0-4.12-1.55-4.12-4.27ZM512.07,226.9c0-.8-.36-1.41-1.27-1.41-.72,0-1.32.46-1.49,1.41h2.76Z"/><path class="cls-15" d="M515.43,227.83c0-2.65,1.67-4.25,3.35-4.25.9,0,1.44.33,1.96.83l-.08-1.21v-2.73h2.53v11.42h-2.08l-.18-.78h-.05c-.57.57-1.37.98-2.14.98-2.01,0-3.32-1.62-3.32-4.27ZM520.66,229.35v-3.24c-.39-.34-.87-.47-1.27-.47-.72,0-1.36.65-1.36,2.17s.52,2.21,1.39,2.21c.49,0,.87-.16,1.24-.67Z"/><path class="cls-15" d="M528.7,221.26h3.74c2.34,0,4.25.83,4.25,3.45s-1.94,3.66-4.18,3.66h-1.26v3.53h-2.55v-10.64ZM532.36,226.36c1.26,0,1.85-.59,1.85-1.65s-.67-1.44-1.91-1.44h-1.05v3.09h1.11Z"/><path class="cls-15" d="M538.31,223.78h2.06l.18,1.41h.07c.59-1.09,1.49-1.6,2.3-1.6.47,0,.75.05.98.16l-.47,2.14c-.29-.07-.47-.1-.83-.1-.6,0-1.34.39-1.76,1.47v4.64h-2.52v-8.12Z"/><path class="cls-15" d="M544.31,227.83c0-2.7,1.91-4.25,3.97-4.25s3.99,1.55,3.99,4.25-1.91,4.27-3.99,4.27-3.97-1.57-3.97-4.27ZM549.67,227.83c0-1.34-.44-2.22-1.39-2.22s-1.39.88-1.39,2.22.44,2.22,1.39,2.22,1.39-.87,1.39-2.22Z"/><path class="cls-15" d="M553.41,227.83c0-2.7,2.01-4.25,4.26-4.25,1,0,1.77.34,2.37.87l-1.18,1.55c-.38-.28-.69-.39-1.05-.39-1.13,0-1.83.88-1.83,2.22s.75,2.22,1.75,2.22c.54,0,1-.2,1.41-.51l.98,1.58c-.79.72-1.81.96-2.68.96-2.29,0-4.04-1.57-4.04-4.27Z"/><path class="cls-15" d="M560.61,227.83c0-2.63,1.9-4.25,3.84-4.25,2.35,0,3.5,1.7,3.5,3.91,0,.46-.05.88-.1,1.11h-4.79c.23,1.09,1,1.57,2.03,1.57.59,0,1.18-.18,1.75-.51l.82,1.52c-.85.6-1.96.92-2.92.92-2.32,0-4.12-1.55-4.12-4.27ZM565.79,226.9c0-.8-.36-1.41-1.28-1.41-.72,0-1.32.46-1.49,1.41h2.76Z"/><path class="cls-15" d="M569.16,227.83c0-2.65,1.67-4.25,3.35-4.25.9,0,1.44.33,1.96.83l-.08-1.21v-2.73h2.53v11.42h-2.08l-.18-.78h-.05c-.57.57-1.37.98-2.14.98-2.01,0-3.32-1.62-3.32-4.27ZM574.39,229.35v-3.24c-.39-.34-.87-.47-1.27-.47-.72,0-1.36.65-1.36,2.17s.52,2.21,1.39,2.21c.49,0,.87-.16,1.24-.67Z"/><path class="cls-15" d="M578.88,228.81v-5.03h2.53v4.71c0,1.13.29,1.45.95,1.45.57,0,.92-.23,1.36-.83v-5.33h2.53v8.12h-2.06l-.18-1.11h-.07c-.67.8-1.44,1.31-2.53,1.31-1.78,0-2.53-1.26-2.53-3.29Z"/><path class="cls-15" d="M588.31,223.78h2.06l.18,1.41h.07c.59-1.09,1.49-1.6,2.3-1.6.47,0,.75.05.98.16l-.47,2.14c-.29-.07-.47-.1-.83-.1-.61,0-1.34.39-1.77,1.47v4.64h-2.52v-8.12Z"/><path class="cls-15" d="M594.3,227.83c0-2.63,1.9-4.25,3.84-4.25,2.35,0,3.5,1.7,3.5,3.91,0,.46-.05.88-.1,1.11h-4.79c.23,1.09,1,1.57,2.03,1.57.59,0,1.18-.18,1.75-.51l.82,1.52c-.85.6-1.96.92-2.92.92-2.32,0-4.12-1.55-4.12-4.27ZM599.48,226.9c0-.8-.36-1.41-1.27-1.41-.72,0-1.32.46-1.49,1.41h2.76Z"/><path class="cls-15" d="M433.06,297.98c0-2.88.78-5.23,2.16-7.47l1.59.65c-1.19,2.11-1.72,4.51-1.72,6.81s.52,4.71,1.72,6.81l-1.59.65c-1.37-2.24-2.16-4.59-2.16-7.47Z"/><path class="cls-15" d="M438.82,291.89h3.91c2.26,0,4.15.78,4.15,3.35,0,1.55-.74,2.55-1.83,3.07l2.37,4.22h-2.84l-1.96-3.74h-1.24v3.74h-2.55v-10.64ZM442.53,296.77c1.21,0,1.86-.52,1.86-1.54s-.65-1.34-1.86-1.34h-1.16v2.88h1.16Z"/><path class="cls-15" d="M448.1,298.46c0-2.63,1.9-4.25,3.84-4.25,2.35,0,3.5,1.7,3.5,3.91,0,.46-.05.88-.1,1.11h-4.79c.23,1.09,1,1.57,2.03,1.57.59,0,1.18-.18,1.75-.51l.82,1.52c-.85.6-1.96.92-2.92.92-2.32,0-4.12-1.55-4.12-4.27ZM453.29,297.52c0-.8-.36-1.41-1.27-1.41-.72,0-1.32.46-1.49,1.41h2.76Z"/><path class="cls-15" d="M456.52,300.25c0-1.72,1.32-2.65,4.53-2.97-.07-.67-.41-1.06-1.24-1.06-.65,0-1.31.23-2.12.69l-.88-1.63c1.06-.65,2.22-1.06,3.5-1.06,2.09,0,3.27,1.16,3.27,3.71v4.61h-2.06l-.18-.82h-.07c-.67.6-1.41,1.01-2.32,1.01-1.49,0-2.42-1.11-2.42-2.47ZM461.05,300.12v-1.29c-1.62.21-2.11.65-2.11,1.23,0,.47.31.7.87.7.51,0,.85-.25,1.24-.64Z"/><path class="cls-15" d="M465.13,298.46c0-2.65,1.67-4.25,3.35-4.25.9,0,1.44.33,1.96.83l-.08-1.21v-2.73h2.53v11.42h-2.08l-.18-.78h-.05c-.57.57-1.37.98-2.14.98-2.01,0-3.32-1.62-3.32-4.27ZM470.36,299.98v-3.24c-.39-.34-.87-.47-1.27-.47-.72,0-1.36.65-1.36,2.17s.52,2.21,1.39,2.21c.49,0,.87-.16,1.24-.67Z"/><path class="cls-15" d="M474.66,304.4c1.26-.41,1.9-1.19,1.88-1.98h-.11c-.78,0-1.52-.52-1.52-1.42,0-.85.7-1.42,1.57-1.42,1.11,0,1.73.88,1.73,2.35,0,1.83-1.06,3.24-3.02,3.82l-.52-1.36Z"/><path class="cls-15" d="M483.42,291.89h2.55v10.64h-2.55v-10.64Z"/><path class="cls-15" d="M488.22,294.4h2.06l.18,1.01h.07c.67-.65,1.49-1.21,2.6-1.21,1.77,0,2.52,1.26,2.52,3.29v5.03h-2.53v-4.71c0-1.13-.29-1.47-.95-1.47-.57,0-.92.28-1.42.74v5.44h-2.52v-8.12Z"/><path class="cls-15" d="M496.91,301.5l1.06-1.42c.75.59,1.49.78,2.12.78.69,0,.96-.25.96-.64,0-.49-.69-.7-1.55-1.03-1.16-.42-2.14-1.16-2.14-2.42,0-1.54,1.24-2.57,3.14-2.57,1.19,0,2.21.44,2.91,1.03l-1.08,1.42c-.59-.42-1.19-.59-1.75-.59-.59,0-.87.23-.87.59,0,.42.46.62,1.49.95,1.24.39,2.22,1.13,2.22,2.47,0,1.49-1.18,2.65-3.38,2.65-1.08,0-2.32-.42-3.14-1.23Z"/><path class="cls-15" d="M504.44,298.46c0-2.63,1.9-4.25,3.84-4.25,2.35,0,3.5,1.7,3.5,3.91,0,.46-.05.88-.1,1.11h-4.79c.23,1.09,1,1.57,2.03,1.57.59,0,1.18-.18,1.75-.51l.82,1.52c-.85.6-1.96.92-2.92.92-2.32,0-4.12-1.55-4.12-4.27ZM509.63,297.52c0-.8-.36-1.41-1.27-1.41-.72,0-1.32.46-1.49,1.41h2.76Z"/><path class="cls-15" d="M513.4,294.4h2.06l.18,1.41h.07c.59-1.09,1.49-1.6,2.3-1.6.47,0,.75.05.98.16l-.47,2.14c-.29-.07-.47-.1-.83-.1-.6,0-1.34.39-1.76,1.47v4.64h-2.52v-8.12Z"/><path class="cls-15" d="M520.34,299.52v-3.14h-1.09v-1.9l1.24-.08.29-2.48h2.09v2.48h1.91v1.98h-1.91v3.1c0,.92.42,1.26,1.03,1.26.26,0,.54-.03.75-.11l.39,1.76c-.42.16-1.05.33-1.85.33-2.03,0-2.86-1.29-2.86-3.2Z"/><path class="cls-15" d="M525.83,304.4c1.26-.41,1.9-1.19,1.88-1.98h-.11c-.78,0-1.52-.52-1.52-1.42,0-.85.7-1.42,1.57-1.42,1.11,0,1.73.88,1.73,2.35,0,1.83-1.06,3.24-3.02,3.82l-.52-1.36Z"/><path class="cls-15" d="M534.54,297.52v-5.64h2.53v5.92c0,2.03.6,2.73,1.77,2.73s1.81-.7,1.81-2.73v-5.92h2.43v5.64c0,3.6-1.42,5.2-4.25,5.2s-4.3-1.6-4.3-5.2Z"/><path class="cls-15" d="M545.29,294.4h2.06l.18.78h.07c.62-.57,1.44-.98,2.27-.98,1.96,0,3.17,1.62,3.17,4.12,0,2.79-1.65,4.4-3.4,4.4-.7,0-1.34-.29-1.91-.83l.08,1.26v2.35h-2.52v-11.1ZM550.44,298.36c0-1.42-.42-2.09-1.32-2.09-.47,0-.87.21-1.31.69v3.22c.41.36.83.47,1.23.47.79,0,1.41-.64,1.41-2.29Z"/><path class="cls-15" d="M554.28,298.46c0-2.65,1.67-4.25,3.35-4.25.9,0,1.44.33,1.96.83l-.08-1.21v-2.73h2.53v11.42h-2.08l-.18-.78h-.05c-.57.57-1.37.98-2.14.98-2.01,0-3.32-1.62-3.32-4.27ZM559.51,299.98v-3.24c-.39-.34-.87-.47-1.27-.47-.72,0-1.36.65-1.36,2.17s.52,2.21,1.39,2.21c.49,0,.87-.16,1.24-.67Z"/><path class="cls-15" d="M563.72,300.25c0-1.72,1.32-2.65,4.53-2.97-.07-.67-.41-1.06-1.24-1.06-.65,0-1.31.23-2.12.69l-.88-1.63c1.06-.65,2.22-1.06,3.5-1.06,2.09,0,3.27,1.16,3.27,3.71v4.61h-2.06l-.18-.82h-.07c-.67.6-1.41,1.01-2.32,1.01-1.49,0-2.42-1.11-2.42-2.47ZM568.25,300.12v-1.29c-1.62.21-2.11.65-2.11,1.23,0,.47.31.7.87.7.51,0,.85-.25,1.24-.64Z"/><path class="cls-15" d="M572.76,299.52v-3.14h-1.09v-1.9l1.24-.08.29-2.48h2.09v2.48h1.91v1.98h-1.91v3.1c0,.92.42,1.26,1.03,1.26.26,0,.54-.03.75-.11l.39,1.76c-.42.16-1.05.33-1.85.33-2.03,0-2.86-1.29-2.86-3.2Z"/><path class="cls-15" d="M578.01,298.46c0-2.63,1.9-4.25,3.84-4.25,2.35,0,3.5,1.7,3.5,3.91,0,.46-.05.88-.1,1.11h-4.79c.23,1.09,1,1.57,2.03,1.57.59,0,1.18-.18,1.75-.51l.82,1.52c-.85.6-1.96.92-2.92.92-2.32,0-4.12-1.55-4.12-4.27ZM583.19,297.52c0-.8-.36-1.41-1.27-1.41-.72,0-1.32.46-1.49,1.41h2.76Z"/><path class="cls-15" d="M586.68,304.4c1.26-.41,1.9-1.19,1.88-1.98h-.11c-.78,0-1.52-.52-1.52-1.42,0-.85.7-1.42,1.57-1.42,1.11,0,1.73.88,1.73,2.35,0,1.83-1.06,3.24-3.02,3.82l-.52-1.36Z"/><path class="cls-15" d="M595.44,291.89h3.06c3.25,0,5.39,1.58,5.39,5.28s-2.14,5.36-5.25,5.36h-3.2v-10.64ZM598.35,300.48c1.72,0,2.94-.8,2.94-3.32s-1.23-3.24-2.94-3.24h-.36v6.55h.36Z"/><path class="cls-15" d="M605.2,298.46c0-2.63,1.9-4.25,3.84-4.25,2.35,0,3.5,1.7,3.5,3.91,0,.46-.05.88-.1,1.11h-4.79c.23,1.09,1,1.57,2.03,1.57.59,0,1.18-.18,1.75-.51l.82,1.52c-.85.6-1.96.92-2.92.92-2.32,0-4.12-1.55-4.12-4.27ZM610.38,297.52c0-.8-.36-1.41-1.27-1.41-.72,0-1.32.46-1.49,1.41h2.76Z"/><path class="cls-15" d="M614.15,299.89v-8.79h2.52v8.89c0,.52.26.69.46.69.1,0,.16,0,.29-.03l.29,1.86c-.28.11-.7.21-1.26.21-1.73,0-2.3-1.13-2.3-2.83Z"/><path class="cls-15" d="M618.43,298.46c0-2.63,1.9-4.25,3.84-4.25,2.35,0,3.5,1.7,3.5,3.91,0,.46-.05.88-.1,1.11h-4.79c.23,1.09,1,1.57,2.03,1.57.59,0,1.18-.18,1.75-.51l.82,1.52c-.85.6-1.96.92-2.92.92-2.32,0-4.12-1.55-4.12-4.27ZM623.61,297.52c0-.8-.36-1.41-1.28-1.41-.72,0-1.32.46-1.49,1.41h2.76Z"/><path class="cls-15" d="M627.55,299.52v-3.14h-1.09v-1.9l1.24-.08.29-2.48h2.09v2.48h1.91v1.98h-1.91v3.1c0,.92.42,1.26,1.03,1.26.26,0,.54-.03.75-.11l.39,1.76c-.42.16-1.05.33-1.85.33-2.03,0-2.86-1.29-2.86-3.2Z"/><path class="cls-15" d="M632.79,298.46c0-2.63,1.9-4.25,3.84-4.25,2.35,0,3.5,1.7,3.5,3.91,0,.46-.05.88-.1,1.11h-4.79c.23,1.09,1,1.57,2.03,1.57.59,0,1.18-.18,1.75-.51l.82,1.52c-.85.6-1.96.92-2.92.92-2.32,0-4.12-1.55-4.12-4.27ZM637.97,297.52c0-.8-.36-1.41-1.27-1.41-.72,0-1.32.46-1.49,1.41h2.76Z"/><path class="cls-15" d="M641.52,304.8c1.19-2.11,1.72-4.51,1.72-6.81s-.52-4.71-1.72-6.81l1.6-.65c1.36,2.24,2.16,4.59,2.16,7.47s-.8,5.23-2.16,7.47l-1.6-.65Z"/><path class="cls-15" d="M405.97,46.06l2.86-3.53c1.61,1.4,3.81,2.16,5.73,2.16,2.06,0,3-.77,3-1.99,0-1.33-1.22-1.75-3.21-2.55l-2.9-1.26c-2.41-.94-4.61-2.93-4.61-6.21,0-3.8,3.42-6.88,8.24-6.88,2.72,0,5.41,1.01,7.37,2.83l-2.83,3.53c-1.54-1.08-3.11-1.68-4.54-1.68-1.68,0-2.76.66-2.76,1.85,0,1.33,1.43,1.78,3.46,2.58l2.83,1.15c2.83,1.12,4.5,3,4.5,6.18,0,3.81-3.18,7.12-8.66,7.12-3.07,0-6.11-1.05-8.48-3.32Z"/><path class="cls-15" d="M426.16,42.53v-6.7h-2.34v-4.05l2.65-.17.63-5.31h4.47v5.31h4.08v4.22h-4.08v6.63c0,1.96.91,2.69,2.2,2.69.56,0,1.15-.07,1.61-.24l.84,3.77c-.91.35-2.23.7-3.95.7-4.33,0-6.11-2.76-6.11-6.84Z"/><path class="cls-15" d="M437.36,40.26c0-5.76,4.08-9.08,8.48-9.08s8.52,3.32,8.52,9.08-4.08,9.11-8.52,9.11-8.48-3.35-8.48-9.11ZM448.81,40.26c0-2.86-.94-4.75-2.97-4.75s-2.97,1.89-2.97,4.75.94,4.75,2.97,4.75,2.97-1.85,2.97-4.75Z"/><path class="cls-15" d="M457.79,31.61h4.4l.38,3h.14c1.26-2.34,3.18-3.42,4.92-3.42,1.01,0,1.61.1,2.09.35l-1.01,4.57c-.63-.14-1.01-.21-1.78-.21-1.29,0-2.86.84-3.77,3.14v9.92h-5.38v-17.35Z"/><path class="cls-15" d="M470.6,40.26c0-5.62,4.05-9.08,8.2-9.08,5.03,0,7.47,3.63,7.47,8.34,0,.98-.1,1.88-.21,2.37h-10.23c.49,2.34,2.13,3.35,4.33,3.35,1.26,0,2.51-.38,3.74-1.08l1.75,3.25c-1.82,1.29-4.19,1.96-6.25,1.96-4.96,0-8.8-3.32-8.8-9.11ZM481.67,38.27c0-1.71-.77-3-2.72-3-1.54,0-2.83.98-3.18,3h5.9Z"/><path class="cls-15" d="M488.86,40.26c0-5.66,3.56-9.08,7.16-9.08,1.92,0,3.07.7,4.19,1.78l-.17-2.58v-5.83h5.41v24.4h-4.43l-.38-1.68h-.1c-1.22,1.22-2.93,2.09-4.57,2.09-4.29,0-7.09-3.46-7.09-9.11ZM500.03,43.51v-6.91c-.84-.73-1.85-1.01-2.72-1.01-1.54,0-2.9,1.4-2.9,4.64s1.12,4.71,2.97,4.71c1.05,0,1.85-.35,2.65-1.43Z"/><path class="cls-15" d="M517.21,26.23h8c4.99,0,9.08,1.78,9.08,7.37s-4.15,7.82-8.94,7.82h-2.69v7.54h-5.45v-22.73ZM525.03,37.12c2.69,0,3.95-1.26,3.95-3.53s-1.43-3.07-4.08-3.07h-2.23v6.6h2.37Z"/><path class="cls-15" d="M537.74,31.61h4.4l.38,3h.14c1.26-2.34,3.18-3.42,4.92-3.42,1.01,0,1.61.1,2.09.35l-1.01,4.57c-.63-.14-1.01-.21-1.78-.21-1.29,0-2.86.84-3.77,3.14v9.92h-5.38v-17.35Z"/><path class="cls-15" d="M550.55,40.26c0-5.76,4.08-9.08,8.48-9.08s8.52,3.32,8.52,9.08-4.08,9.11-8.52,9.11-8.48-3.35-8.48-9.11ZM562,40.26c0-2.86-.94-4.75-2.97-4.75s-2.97,1.89-2.97,4.75.94,4.75,2.97,4.75,2.97-1.85,2.97-4.75Z"/><path class="cls-15" d="M570,40.26c0-5.76,4.29-9.08,9.11-9.08,2.13,0,3.77.73,5.06,1.85l-2.51,3.32c-.8-.59-1.47-.84-2.23-.84-2.41,0-3.91,1.89-3.91,4.75s1.61,4.75,3.74,4.75c1.15,0,2.13-.42,3-1.08l2.1,3.39c-1.68,1.54-3.88,2.06-5.73,2.06-4.89,0-8.62-3.35-8.62-9.11Z"/><path class="cls-15" d="M585.39,40.26c0-5.62,4.05-9.08,8.21-9.08,5.03,0,7.47,3.63,7.47,8.34,0,.98-.1,1.88-.21,2.37h-10.23c.49,2.34,2.13,3.35,4.33,3.35,1.26,0,2.51-.38,3.74-1.08l1.75,3.25c-1.81,1.29-4.19,1.96-6.25,1.96-4.96,0-8.8-3.32-8.8-9.11ZM596.46,38.27c0-1.71-.77-3-2.72-3-1.54,0-2.83.98-3.18,3h5.9Z"/><path class="cls-15" d="M603.65,40.26c0-5.66,3.56-9.08,7.16-9.08,1.92,0,3.07.7,4.19,1.78l-.17-2.58v-5.83h5.41v24.4h-4.43l-.38-1.68h-.1c-1.22,1.22-2.93,2.09-4.57,2.09-4.29,0-7.09-3.46-7.09-9.11ZM614.83,43.51v-6.91c-.84-.73-1.85-1.01-2.72-1.01-1.54,0-2.9,1.4-2.9,4.64s1.12,4.71,2.97,4.71c1.05,0,1.85-.35,2.65-1.43Z"/><path class="cls-15" d="M624.43,42.36v-10.75h5.41v10.05c0,2.41.63,3.11,2.02,3.11,1.22,0,1.96-.49,2.9-1.78v-11.38h5.41v17.35h-4.4l-.38-2.37h-.14c-1.43,1.71-3.07,2.79-5.41,2.79-3.81,0-5.41-2.69-5.41-7.02Z"/><path class="cls-15" d="M644.57,31.61h4.4l.38,3h.14c1.26-2.34,3.18-3.42,4.92-3.42,1.01,0,1.61.1,2.09.35l-1.01,4.57c-.63-.14-1.01-.21-1.78-.21-1.29,0-2.86.84-3.77,3.14v9.92h-5.38v-17.35Z"/><path class="cls-15" d="M657.38,40.26c0-5.62,4.05-9.08,8.2-9.08,5.03,0,7.47,3.63,7.47,8.34,0,.98-.1,1.88-.21,2.37h-10.23c.49,2.34,2.13,3.35,4.33,3.35,1.26,0,2.51-.38,3.74-1.08l1.75,3.25c-1.82,1.29-4.19,1.96-6.25,1.96-4.96,0-8.8-3.32-8.8-9.11ZM668.45,38.27c0-1.71-.77-3-2.72-3-1.54,0-2.83.98-3.18,3h5.9Z"/><g id="Browser"><g class="cls-20"><g class="cls-32"><path class="cls-2" d="M258.3,338.37H32.78c-1.45,0-2.62-1.12-2.62-2.49v-138.01c0-3.83,3.26-6.65,7.29-6.65l214.51-.3c4.03,0,8.77,3.13,8.77,6.96v138.19c0,1.28-.42,2.32-2.43,2.32"/><path class="cls-22" d="M258.3,338.37H32.78c-1.45,0-2.62-1.12-2.62-2.49v-138.01c0-3.83,3.26-6.65,7.29-6.65l214.51-.3c4.03,0,8.77,3.13,8.77,6.96v138.19c0,1.28-.42,2.32-2.43,2.32Z"/><path class="cls-15" d="M250.95,335.81H36.19c-.94,0-1.71-.76-1.71-1.71v-119.62c0-.94.76-1.71,1.71-1.71h214.76c.94,0,1.71.76,1.71,1.71v119.62c0,.94-.76,1.71-1.71,1.71"/><path class="cls-10" d="M261.1,198.13H29.77v-9.84c0-2.95,2.39-5.34,5.34-5.34h220.64c2.95,0,5.43,2.39,5.43,5.34l-.09,9.84Z"/><path class="cls-8" d="M41.32,190.01c0,1.51-1.22,2.74-2.74,2.74s-2.74-1.22-2.74-2.74,1.22-2.74,2.74-2.74,2.74,1.22,2.74,2.74"/><path class="cls-14" d="M49.38,190.01c0,1.51-1.22,2.74-2.74,2.74s-2.74-1.22-2.74-2.74,1.22-2.74,2.74-2.74,2.74,1.22,2.74,2.74"/><path class="cls-16" d="M57.44,190.01c0,1.51-1.22,2.74-2.74,2.74s-2.74-1.22-2.74-2.74,1.22-2.74,2.74-2.74,2.74,1.22,2.74,2.74"/><rect class="cls-1" x="30.55" y="198.18" width="229.75" height="11.82"/><path class="cls-15" d="M225.05,208.32H63.95c-.89,0-1.62-.72-1.62-1.62v-3.86c0-.89.72-1.62,1.62-1.62h161.1c.89,0,1.62.72,1.62,1.62v3.86c0,.89-.72,1.62-1.62,1.62"/><path class="cls-15" d="M253.67,188.79c-.22-1.12-1.21-1.97-2.41-1.97h-.43c-.32-1.6-1.73-2.77-3.38-2.77s-3.07,1.18-3.39,2.79c-1.23.13-2.19,1.16-2.19,2.41,0,1.34,1.1,2.43,2.45,2.43h3.63c.19,0,.34-.17.33-.36,0-.18-.15-.33-.33-.33h-3.63c-.97,0-1.76-.78-1.76-1.73s.79-1.73,1.76-1.73c.36,0,.71.11,1,.32.14.1.33.09.45-.03.14-.13.14-.35,0-.49h0s-.03-.03-.04-.04c-.29-.21-.62-.35-.97-.41.3-1.23,1.39-2.12,2.68-2.12,1.36,0,2.51,1,2.72,2.34-.11.06-.22.12-.31.19-.16.11-.19.33-.08.48.01.02.02.03.04.05.12.12.31.13.45.03.29-.21.64-.32,1-.32.86,0,1.57.61,1.72,1.41.03.16.17.28.34.28.19,0,.35-.15.35-.34,0-.02,0-.05,0-.07"/><path class="cls-15" d="M249.35,191.11h-.3v-.95s0-.15,0-.15c-.03.03-.07.07-.1.1l-.16.13-.14-.18.45-.36h.24v1.41Z"/><path class="cls-15" d="M250.73,190.41c0,.25-.04.43-.12.55-.08.12-.21.18-.37.18s-.29-.06-.37-.18c-.08-.12-.12-.3-.12-.54s.04-.43.12-.55c.08-.12.2-.18.37-.18s.29.06.37.19c.09.12.13.31.13.54M250.03,190.41c0,.17.02.3.05.37.03.08.08.11.15.11s.12-.04.15-.11c.03-.07.05-.2.05-.37s-.02-.3-.05-.37c-.03-.07-.08-.11-.15-.11s-.12.04-.15.11c-.03.07-.05.2-.05.37"/><path class="cls-15" d="M249.35,193.25h-.3v-.95s0-.15,0-.15c-.03.03-.07.07-.1.1l-.16.13-.14-.18.45-.36h.24v1.41Z"/><path class="cls-15" d="M250.48,193.25h-.3v-.95s0-.15,0-.15c-.03.03-.07.07-.1.1l-.16.13-.14-.18.45-.36h.24v1.41h0Z"/><path class="cls-15" d="M251.61,193.25h-.3v-.95s0-.15,0-.15c-.03.03-.07.07-.1.1l-.16.13-.14-.18.45-.36h.24v1.41Z"/><path class="cls-15" d="M252.98,192.55c0,.25-.04.43-.12.55-.08.12-.21.18-.37.18s-.29-.06-.37-.18c-.08-.12-.12-.3-.12-.54s.04-.43.12-.55c.08-.12.2-.18.37-.18s.29.06.37.19c.09.12.13.3.13.54M252.29,192.55c0,.17.02.3.05.37.03.08.08.11.15.11s.12-.04.15-.11c.03-.07.05-.2.05-.37s-.02-.3-.05-.37c-.03-.07-.08-.11-.15-.11s-.12.04-.15.11c-.03.07-.05.2-.05.37"/><path class="cls-15" d="M253.63,194.24c0,.18-.03.31-.09.4-.06.09-.15.13-.27.13s-.21-.05-.27-.13c-.06-.09-.09-.22-.09-.39s.03-.31.09-.4c.06-.09.15-.13.27-.13s.21.05.27.14c.06.09.09.22.09.39M253.13,194.24c0,.13.01.22.03.27.01.05.06.08.11.08s.09-.03.11-.08c.02-.06.03-.14.03-.27s-.01-.22-.03-.27c-.02-.05-.06-.08-.11-.08s-.09.03-.11.08c-.02.06-.03.14-.03.27"/><path class="cls-15" d="M254.28,194.76h-.22v-.69s0-.11,0-.11c-.04.04-.06.06-.07.07l-.12.1-.1-.13.33-.26h.18v1.03h0Z"/><path class="cls-15" d="M249.29,194.25c0,.18-.03.31-.09.39-.06.08-.15.13-.27.13s-.2-.04-.26-.13c-.06-.09-.09-.22-.09-.38s.03-.31.09-.39c.06-.08.14-.13.26-.13s.2.04.26.13c.06.09.09.22.09.39M248.8,194.25c0,.12.01.21.03.26.01.05.06.08.11.08.05,0,.09-.03.11-.08.02-.05.03-.14.03-.26s-.01-.21-.03-.26c-.02-.05-.06-.08-.11-.08s-.09.03-.11.08c-.02.05-.04.14-.03.27"/><path class="cls-15" d="M249.92,194.76h-.21v-.68s0-.1,0-.1c-.04.04-.06.06-.07.07l-.12.09-.1-.13.32-.26h.17v1Z"/><path class="cls-15" d="M250.9,194.25c0,.18-.03.31-.09.39-.06.08-.15.13-.27.13s-.2-.04-.26-.13c-.06-.09-.09-.22-.09-.38s.03-.31.09-.39c.06-.08.14-.13.26-.13s.2.04.26.13.09.22.09.39M250.41,194.25c0,.12.01.21.03.26.01.05.06.08.11.08.05,0,.09-.03.11-.08.02-.05.03-.14.03-.26s-.01-.21-.03-.26c-.02-.05-.06-.08-.11-.08s-.09.03-.11.08c-.02.05-.04.14-.03.27"/><path class="cls-15" d="M251.53,194.76h-.21v-.68s0-.1,0-.1c-.04.04-.06.06-.07.07l-.12.09-.1-.13.32-.26h.17v1Z"/><path class="cls-15" d="M249.08,195.54c0,.13-.02.22-.06.28-.04.06-.1.09-.19.09-.07,0-.15-.03-.19-.1-.04-.06-.06-.16-.06-.28,0-.13.02-.22.06-.28.04-.06.1-.09.19-.09.07,0,.15.03.19.1.04.07.06.16.06.28M248.72,195.54c0,.09,0,.15.02.19.01.04.05.07.1.05h0s.05-.03.05-.05c.02-.04.02-.1.02-.19,0-.07,0-.13-.02-.19-.01-.04-.05-.07-.1-.06h0s-.05.03-.05.05c-.02.07-.02.13-.02.19"/><path class="cls-15" d="M249.53,195.9h-.15v-.49s0-.07,0-.07c-.02.03-.04.04-.05.05l-.08.07-.07-.09.23-.19h.12v.72Z"/><path class="cls-15" d="M251.09,196.44c0,.13-.02.22-.06.28-.04.06-.11.09-.19.09-.07,0-.15-.03-.19-.1-.04-.06-.06-.16-.06-.28s.02-.22.06-.28c.04-.06.1-.09.19-.09.07,0,.15.03.19.1.05.07.07.16.07.28M250.74,196.44c0,.09,0,.15.02.19.01.04.05.07.1.06h0s.05-.03.05-.05c.02-.04.02-.1.02-.19,0-.07,0-.13-.02-.19,0-.03-.04-.06-.08-.06s-.07.02-.08.06c-.01.04-.02.1-.02.19"/><path class="cls-15" d="M251.55,196.8h-.15v-.49s0-.07,0-.07c-.02.02-.04.04-.05.05l-.08.07-.07-.09.23-.19h.13v.72Z"/><path class="cls-15" d="M252.75,195.4c0,.18-.03.31-.09.39-.06.08-.15.13-.27.13s-.2-.04-.26-.13c-.06-.09-.09-.22-.09-.38s.03-.31.09-.39c.06-.08.14-.13.26-.13s.2.04.26.13c.06.09.09.22.09.39M252.26,195.4c0,.12.01.21.03.26.01.05.06.08.11.08.05,0,.09-.03.11-.08.02-.05.03-.14.03-.26s-.01-.21-.03-.27c-.02-.05-.06-.08-.11-.08s-.09.03-.11.08c-.02.05-.03.15-.03.27"/><path class="cls-15" d="M253.38,195.9h-.21v-.68s0-.1,0-.1c-.04.04-.06.06-.07.07l-.12.09-.1-.13.32-.26h.17v1h0Z"/><path class="cls-15" d="M254.36,195.4c0,.18-.03.31-.09.39-.06.08-.15.13-.27.13s-.2-.04-.26-.13c-.06-.09-.09-.22-.09-.38s.03-.31.09-.39c.06-.08.14-.13.26-.13s.2.04.26.13c.06.09.09.22.09.39M253.87,195.4c0,.12.01.21.03.26.01.05.06.08.11.08.05,0,.09-.03.11-.08.02-.05.03-.14.03-.26s-.01-.21-.03-.27c-.02-.05-.06-.08-.11-.08s-.09.03-.11.08c-.02.05-.03.15-.03.27"/><path class="cls-15" d="M252.81,191.11h-.3v-.95s0-.15,0-.15c-.03.03-.07.07-.1.1l-.16.13-.14-.18.45-.36h.25v1.41h0Z"/><path class="cls-15" d="M254.19,190.41c0,.25-.04.43-.12.55-.08.12-.21.18-.37.18s-.29-.06-.37-.18c-.08-.12-.12-.3-.12-.54s.04-.43.12-.55c.08-.12.2-.18.37-.18s.29.06.37.19c.08.12.13.31.13.54M253.49,190.41c0,.17.02.3.05.37.03.08.08.11.15.11s.12-.04.15-.11c.03-.07.05-.2.05-.37s-.02-.3-.05-.37c-.03-.07-.08-.11-.15-.11s-.12.04-.15.11c-.03.07-.05.2-.05.37"/><path class="cls-1" d="M258.86,337.96h-2.09v-129.54h3.53v128.1c0,.79-.64,1.44-1.44,1.44"/><path class="cls-2" d="M259.23,232.55h-.88c-.58,0-1.05-.47-1.05-1.05v-6.91c0-.58.47-1.05,1.05-1.05h.88c.58,0,1.05.47,1.05,1.05v6.91c0,.58-.47,1.05-1.05,1.05"/></g></g></g></svg>