<?xml version="1.0" encoding="UTF-8"?>
<svg id="Layer_1" data-name="Layer 1" xmlns="http://www.w3.org/2000/svg" width="615.18" height="691.22" xmlns:xlink="http://www.w3.org/1999/xlink" viewBox="0 0 615.18 691.22">
  <defs>
    <linearGradient id="linear-gradient" x1="126.46" y1="150.51" x2="126.46" y2="106.56" gradientUnits="userSpaceOnUse">
      <stop offset=".42" stop-color="#9da8c4"/>
      <stop offset=".66" stop-color="#4f5669"/>
      <stop offset=".84" stop-color="#1a1a1a"/>
    </linearGradient>
    <linearGradient id="linear-gradient-2" x1="91.03" y1="69.01" x2="254.25" y2="186.96" gradientUnits="userSpaceOnUse">
      <stop offset="0" stop-color="#9da8c4"/>
      <stop offset=".57" stop-color="#4f5669"/>
      <stop offset="1" stop-color="#444b5c"/>
    </linearGradient>
    <linearGradient id="linear-gradient-3" x1="155.95" y1="115.95" x2="96.26" y2="68.08" gradientUnits="userSpaceOnUse">
      <stop offset=".12" stop-color="#525a6a"/>
      <stop offset=".29" stop-color="#586071"/>
      <stop offset=".55" stop-color="#687286"/>
      <stop offset=".66" stop-color="#727c92"/>
    </linearGradient>
    <linearGradient id="linear-gradient-4" x1="4963.64" y1="3342.37" x2="4963.48" y2="3353.02" gradientTransform="translate(-4837.09 -3223.46)" xlink:href="#linear-gradient"/>
    <linearGradient id="linear-gradient-5" x1="126.46" y1="123.24" x2="126.46" y2="40.77" gradientUnits="userSpaceOnUse">
      <stop offset=".12" stop-color="#1c2538"/>
      <stop offset=".34" stop-color="#1d293f"/>
      <stop offset=".66" stop-color="#223654"/>
    </linearGradient>
    <linearGradient id="linear-gradient-6" x1="126.46" y1="550.3" x2="126.46" y2="506.35" xlink:href="#linear-gradient"/>
    <linearGradient id="linear-gradient-7" y1="468.8" x2="254.25" y2="586.75" xlink:href="#linear-gradient-2"/>
    <linearGradient id="linear-gradient-8" x1="155.95" y1="515.74" x2="96.26" y2="467.87" xlink:href="#linear-gradient-3"/>
    <linearGradient id="linear-gradient-9" x1="4963.64" y1="2942.58" x2="4963.48" y2="2953.23" gradientTransform="translate(-4837.09 -2423.88)" xlink:href="#linear-gradient"/>
    <linearGradient id="linear-gradient-10" y1="523.03" y2="440.56" xlink:href="#linear-gradient-5"/>
    <linearGradient id="linear-gradient-11" x1="119.35" y1="227.47" x2="115.56" y2="280.55" xlink:href="#linear-gradient-2"/>
    <linearGradient id="linear-gradient-12" x1="85.26" y1="243.15" x2="95.29" y2="301.14" xlink:href="#linear-gradient-2"/>
    <linearGradient id="linear-gradient-13" x1="200.72" y1="195.73" x2="105.04" y2="349.64" xlink:href="#linear-gradient-2"/>
    <linearGradient id="linear-gradient-14" x1="176.23" y1="321.69" x2="191.32" y2="324.32" gradientTransform="translate(350.91 -34.27) rotate(-176.41) scale(1 -1)" gradientUnits="userSpaceOnUse">
      <stop offset="0" stop-color="#666"/>
      <stop offset=".57" stop-color="#4d4d4d"/>
      <stop offset="1" stop-color="#333"/>
    </linearGradient>
    <linearGradient id="linear-gradient-15" x1="168.76" y1="338.62" x2="206.68" y2="338.62" xlink:href="#linear-gradient-14"/>
    <linearGradient id="linear-gradient-16" x1="166.56" y1="353.3" x2="205.16" y2="353.3" gradientTransform="translate(350.91 -34.27) rotate(-176.41) scale(1 -1)" gradientUnits="userSpaceOnUse">
      <stop offset="0" stop-color="#666"/>
      <stop offset=".19" stop-color="#4d4d4d"/>
      <stop offset=".65" stop-color="#333"/>
    </linearGradient>
    <linearGradient id="linear-gradient-17" x1="245.45" y1="405.98" x2="332.14" y2="405.98" gradientTransform="translate(225.33 -114.03)" gradientUnits="userSpaceOnUse">
      <stop offset="0" stop-color="#1c2538"/>
      <stop offset=".46" stop-color="#1e2b42"/>
      <stop offset="1" stop-color="#223654"/>
    </linearGradient>
    <linearGradient id="linear-gradient-18" x1="245.46" y1="385.71" x2="340.09" y2="385.71" gradientTransform="translate(226.04 -114.56) rotate(.1)" gradientUnits="userSpaceOnUse">
      <stop offset="0" stop-color="#223654"/>
      <stop offset=".17" stop-color="#22395e"/>
      <stop offset=".45" stop-color="#244279"/>
      <stop offset=".82" stop-color="#2851a6"/>
      <stop offset="1" stop-color="#2a59be"/>
    </linearGradient>
    <linearGradient id="linear-gradient-19" x1="706.45" y1="-302.9" x2="709.71" y2="-295.88" gradientTransform="translate(-140.38 707.85) rotate(-12.06)" gradientUnits="userSpaceOnUse">
      <stop offset="0" stop-color="#2a59be"/>
      <stop offset=".89" stop-color="#1c2538"/>
    </linearGradient>
    <linearGradient id="linear-gradient-20" x1="753.63" y1="-289.76" x2="753.34" y2="-284.08" gradientTransform="translate(-140.38 707.85) rotate(-12.06)" gradientUnits="userSpaceOnUse">
      <stop offset="0" stop-color="#2a59be"/>
      <stop offset=".83" stop-color="#1c2538"/>
    </linearGradient>
    <linearGradient id="linear-gradient-21" x1="724.96" y1="-278.1" x2="731.24" y2="-275.24" gradientTransform="translate(-140.38 707.85) rotate(-12.06)" gradientUnits="userSpaceOnUse">
      <stop offset="0" stop-color="#2a59be"/>
      <stop offset=".89" stop-color="#1c2538"/>
    </linearGradient>
    <linearGradient id="linear-gradient-22" x1="731.9" y1="-304.31" x2="737.86" y2="-303.46" xlink:href="#linear-gradient-19"/>
  </defs>
  <rect x="29.54" y="25.45" width="556.86" height="556.86" rx="17.15" ry="17.15" style="fill: #727c92;"/>
  <line x1="523.16" y1="271.43" x2="151.75" y2="86.12" style="fill: none; stroke: #a3ea2a; stroke-miterlimit: 10; stroke-width: 5px;"/>
  <line x1="508.48" y1="280.6" x2="117.28" y2="280.6" style="fill: none; stroke: #a3ea2a; stroke-miterlimit: 10; stroke-width: 5px;"/>
  <line x1="120.87" y1="501.95" x2="509.97" y2="295.9" style="fill: none; stroke: #a3ea2a; stroke-miterlimit: 10; stroke-width: 5px;"/>
  <g id="Desktop_variation" data-name="Desktop variation">
    <g>
      <g id="Desktop_Computer" data-name="Desktop Computer">
        <g>
          <path d="m125.74,58.72v57.55c0,1.92-1.33,3.58-3.2,4l-7.95,1.79-16.06,3.62c.5-.16,1.99-.96,2.03-5.01.02-2.17-.24-17.33-.53-33.5-.3-16.6-.64-34.26-.75-39.96-.02-.78-.24-1.54-.65-2.19-.35-.56-.83-1.05-1.42-1.41-.09-.05-.17-.1-.26-.15-.31-.17-.64-.32-.98-.41l.74-.03,2.39-.1c2.22-.09,4.42.45,6.33,1.57l18.27,10.67c1.26.74,2.03,2.09,2.03,3.54Z" style="fill: #525a6a;"/>
          <path d="m114.58,122.06l-16.06,3.62c.5-.16,1.99-.96,2.03-5.01.02-2.17-.24-17.33-.53-33.5.96,5.01,6.06,29.64,14.57,34.89Z" style="fill: #525a6a;"/>
          <path d="m125.74,58.72v4.4c-3.65-7.87-20.19-16.68-22.8-17.24-1.75-.37-3.35-.67-4.31-.84-.59-.11-.94-.17-.94-.17l-.74-1.4-.54-.87,2.2.07c2.56.08,5.06.8,7.26,2.09l17.84,10.42c1.26.74,2.03,2.09,2.03,3.54Z" style="fill: #525a6a;"/>
          <path d="m98.51,125.68c-.1.03-.16.04-.16.04l.16-.04Z" style="fill: #2c2c2c;"/>
          <path d="m71.67,44.58l24.15-1.9c2.01-.16,3.73,1.3,3.76,3.16l.97,76.93c.02,1.87-1.68,3.36-3.69,3.24l-25.11-1.53c-1.82-.11-3.24-1.51-3.24-3.21V47.78c0-1.67,1.38-3.06,3.17-3.2Z" style="fill: #89bd27;"/>
          <path d="m99.12,121.94c.02,1.84-1.58,3.32-3.49,3.2l-23.74-1.51c-1.72-.11-3.07-1.49-3.07-3.16V47.94c0-1.65,1.31-3.02,3.01-3.16l6.01-.49,16.86-1.38c1.9-.16,3.54,1.28,3.56,3.12l.33,34.13.49,38.71.04,3.07Z" style="fill: #727c92;"/>
          <path d="m99.12,121.9c.02,1.84-1.58,3.32-3.49,3.2l-23.74-1.51c-1.72-.11-3.07-1.49-3.07-3.16V47.99c0-1.64,1.31-3.02,3-3.16l6-.49,21.25,74.49.04,3.06Z" style="fill: #525a6a; opacity: .65;"/>
          <path d="m69.8,48.71v4.27c0,.55.49.99,1.06.95l25.01-1.76c.52-.04.91-.45.91-.95v-4.71c0-.56-.5-1-1.08-.95l-25.01,2.2c-.51.04-.9.46-.9.95Z" style="fill: #d4d8df;"/>
          <path d="m69.8,57.27v4.27c0,.55.48.98,1.04.95l25.01-1.32c.52-.03.93-.45.93-.95v-4.71c0-.55-.49-.99-1.06-.95l-25.01,1.76c-.52.04-.91.45-.91.95Z" style="fill: #d4d8df;"/>
          <path d="m69.8,65.82v4.27c0,.54.46.97,1.02.95l25.01-.88c.53-.02.95-.44.95-.95v-4.71c0-.55-.48-.98-1.04-.95l-25.01,1.32c-.52.03-.93.45-.93.95Z" style="fill: #d4d8df;"/>
          <polygon points="92.54 87.38 92.54 88.68 74.55 88.68 74.55 79.2 75.2 79.18 75.2 87.38 92.54 87.38" style="fill: #1c2538;"/>
          <polygon points="92.54 78.74 92.54 87.38 75.2 87.38 75.2 79.2 92.54 78.74" style="fill: #d4d8df;"/>
          <polyline points="77.49 115.67 77.49 117.14 80.27 117.14 80.27 115.67 77.49 115.67" style="fill: #d4d8df;"/>
          <polyline points="84.2 115.84 84.2 117.31 87.47 117.31 87.47 115.84 84.2 115.84" style="fill: #d4d8df;"/>
          <polygon points="92.54 83.4 75.37 83.53 75.37 84.39 92.54 84.39 92.54 83.4" style="fill: #1c2538;"/>
          <path d="m99.09,121.9c.02,1.84-1.58,3.31-3.48,3.2l-23.72-1.51c-1.72-.11-3.06-1.49-3.06-3.16v-33.48c.46,5.44.05,29.13,3.99,33.32,3.19,3.4,17.46,3.27,21.97,2.24,4.44-1.02,3.66-29.42,3.8-42.31l.5,41.69Z" style="fill: #1c2538;"/>
          <polygon points="122.8 64.14 123.01 115.44 121.33 115.85 120.91 62.93 122.8 64.14" style="fill: #727c92; opacity: .65;"/>
          <path d="m72.83,120.31l-2.98,2.01-.3.14s.38.73,1.55,1.06l2.75-2.38s-.93-.6-1.02-.81Z" style="fill: #e8e8e8; opacity: .26;"/>
          <path d="m69.4,123.3s1.96,1.06,2.91,1.13l22.47,1.45c1.02.07,2.11-.1,2.97-.65l1.75-1.52-.09-.02-1.41.9c-1.13.72-2.53.97-3.87.89l-21.59-1.31c-1-.06-3.15-.86-3.15-.86h0Z" style="fill: #64930a;"/>
          <path d="m72.59,122.51s4.88,1.34,11.05,1.52c6.17.18,11.81-.4,13.38-.85,0,0-9.98.62-13.38.49-3.4-.13-11.28-1.25-11.28-1.25" style="fill: #e8e8e8; opacity: .26;"/>
          <path d="m97.64,43.43s1.09.91,1.09,2.09c0,1.18.36,27.56.36,27.56,0,0,.81-25.58.5-27.3-.32-1.73-1.95-2.35-1.95-2.35Z" style="fill: #a3ea2a; opacity: .36;"/>
        </g>
      </g>
      <rect x="119.4" y="114.15" width="14.14" height="11.39" style="fill: url(#linear-gradient);"/>
      <rect x="85.58" y="70.05" width="81.76" height="49.13" rx="1.38" ry="1.38" style="fill: url(#linear-gradient-2);"/>
      <path d="m167.34,71.43v42.41h-81.76v-42.41c0-.76.62-1.38,1.38-1.38h79.01c.76,0,1.38.62,1.38,1.38Z" style="fill: url(#linear-gradient-3);"/>
      <path d="m114.12,124.5h24.68v1.05c0,.6-.49,1.08-1.08,1.08h-22.51c-.6,0-1.08-.49-1.08-1.08v-1.05h0Z" transform="translate(252.93 251.13) rotate(180)" style="fill: url(#linear-gradient-4);"/>
      <circle cx="126.46" cy="117.09" r="1.41" style="fill: #1c2538;"/>
      <path d="m88.6,110.46v-37.14c0-.5.4-.9.9-.9h73.92c.5,0,.9.4.9.9v37.14c0,.68-.57,1.23-1.28,1.23h-73.17c-.71,0-1.28-.55-1.28-1.23Z" style="fill: url(#linear-gradient-5);"/>
      <rect x="100.01" y="80.11" width="36.62" height="1.18" style="fill: #a3ea2a;"/>
      <rect x="100.03" y="83.11" width="47.44" height="1.18" style="fill: #a3ea2a;"/>
      <rect x="100.03" y="86.12" width="51.72" height="1.18" style="fill: #a3ea2a;"/>
      <rect x="100.01" y="92.95" width="36.62" height="1.18" style="fill: #a3ea2a;"/>
      <rect x="100.03" y="95.95" width="47.44" height="1.18" style="fill: #a3ea2a;"/>
      <rect x="100.03" y="98.96" width="51.72" height="1.18" style="fill: #a3ea2a;"/>
    </g>
  </g>
  <g id="Desktop_variation-2" data-name="Desktop variation">
    <g>
      <g id="Desktop_Computer-2" data-name="Desktop Computer">
        <g>
          <path d="m125.74,458.51v57.55c0,1.92-1.33,3.58-3.2,4l-7.95,1.79-16.06,3.62c.5-.16,1.99-.96,2.03-5.01.02-2.17-.24-17.33-.53-33.5-.3-16.6-.64-34.26-.75-39.96-.02-.78-.24-1.54-.65-2.19-.35-.56-.83-1.05-1.42-1.41-.09-.05-.17-.1-.26-.15-.31-.17-.64-.32-.98-.41l.74-.03,2.39-.1c2.22-.09,4.42.45,6.33,1.57l18.27,10.67c1.26.74,2.03,2.09,2.03,3.54Z" style="fill: #525a6a;"/>
          <path d="m114.58,521.85l-16.06,3.62c.5-.16,1.99-.96,2.03-5.01.02-2.17-.24-17.33-.53-33.5.96,5.01,6.06,29.64,14.57,34.89Z" style="fill: #525a6a;"/>
          <path d="m125.74,458.51v4.4c-3.65-7.87-20.19-16.68-22.8-17.24-1.75-.37-3.35-.67-4.31-.84-.59-.11-.94-.17-.94-.17l-.74-1.4-.54-.87,2.2.07c2.56.08,5.06.8,7.26,2.09l17.84,10.42c1.26.74,2.03,2.09,2.03,3.54Z" style="fill: #525a6a;"/>
          <path d="m98.51,525.47c-.1.03-.16.04-.16.04l.16-.04Z" style="fill: #2c2c2c;"/>
          <path d="m71.67,444.37l24.15-1.9c2.01-.16,3.73,1.3,3.76,3.16l.97,76.93c.02,1.87-1.68,3.36-3.69,3.24l-25.11-1.53c-1.82-.11-3.24-1.51-3.24-3.21v-73.5c0-1.67,1.38-3.06,3.17-3.2Z" style="fill: #89bd27;"/>
          <path d="m99.12,521.73c.02,1.84-1.58,3.32-3.49,3.2l-23.74-1.51c-1.72-.11-3.07-1.49-3.07-3.16v-72.53c0-1.65,1.31-3.02,3.01-3.16l6.01-.49,16.86-1.38c1.9-.16,3.54,1.28,3.56,3.12l.33,34.13.49,38.71.04,3.07Z" style="fill: #727c92;"/>
          <path d="m99.12,521.69c.02,1.84-1.58,3.32-3.49,3.2l-23.74-1.51c-1.72-.11-3.07-1.49-3.07-3.16v-72.44c0-1.64,1.31-3.02,3-3.16l6-.49,21.25,74.49.04,3.06Z" style="fill: #525a6a; opacity: .65;"/>
          <path d="m69.8,448.5v4.27c0,.55.49.99,1.06.95l25.01-1.76c.52-.04.91-.45.91-.95v-4.71c0-.56-.5-1-1.08-.95l-25.01,2.2c-.51.04-.9.46-.9.95Z" style="fill: #d4d8df;"/>
          <path d="m69.8,457.06v4.27c0,.55.48.98,1.04.95l25.01-1.32c.52-.03.93-.45.93-.95v-4.71c0-.55-.49-.99-1.06-.95l-25.01,1.76c-.52.04-.91.45-.91.95Z" style="fill: #d4d8df;"/>
          <path d="m69.8,465.61v4.27c0,.54.46.97,1.02.95l25.01-.88c.53-.02.95-.44.95-.95v-4.71c0-.55-.48-.98-1.04-.95l-25.01,1.32c-.52.03-.93.45-.93.95Z" style="fill: #d4d8df;"/>
          <polygon points="92.54 487.17 92.54 488.47 74.55 488.47 74.55 478.99 75.2 478.97 75.2 487.17 92.54 487.17" style="fill: #1c2538;"/>
          <polygon points="92.54 478.53 92.54 487.17 75.2 487.17 75.2 478.99 92.54 478.53" style="fill: #d4d8df;"/>
          <polyline points="77.49 515.46 77.49 516.93 80.27 516.93 80.27 515.46 77.49 515.46" style="fill: #d4d8df;"/>
          <polyline points="84.2 515.62 84.2 517.1 87.47 517.1 87.47 515.62 84.2 515.62" style="fill: #d4d8df;"/>
          <polygon points="92.54 483.19 75.37 483.32 75.37 484.18 92.54 484.18 92.54 483.19" style="fill: #1c2538;"/>
          <path d="m99.09,521.69c.02,1.84-1.58,3.31-3.48,3.2l-23.72-1.51c-1.72-.11-3.06-1.49-3.06-3.16v-33.48c.46,5.44.05,29.13,3.99,33.32,3.19,3.4,17.46,3.27,21.97,2.24,4.44-1.02,3.66-29.42,3.8-42.31l.5,41.69Z" style="fill: #1c2538;"/>
          <polygon points="122.8 463.93 123.01 515.23 121.33 515.63 120.91 462.72 122.8 463.93" style="fill: #727c92; opacity: .65;"/>
          <path d="m72.83,520.09l-2.98,2.01-.3.14s.38.73,1.55,1.06l2.75-2.38s-.93-.6-1.02-.81Z" style="fill: #e8e8e8; opacity: .26;"/>
          <path d="m69.4,523.09s1.96,1.06,2.91,1.13l22.47,1.45c1.02.07,2.11-.1,2.97-.65l1.75-1.52-.09-.02-1.41.9c-1.13.72-2.53.97-3.87.89l-21.59-1.31c-1-.06-3.15-.86-3.15-.86h0Z" style="fill: #64930a;"/>
          <path d="m72.59,522.3s4.88,1.34,11.05,1.52c6.17.18,11.81-.4,13.38-.85,0,0-9.98.62-13.38.49-3.4-.13-11.28-1.25-11.28-1.25" style="fill: #e8e8e8; opacity: .26;"/>
          <path d="m97.64,443.22s1.09.91,1.09,2.09c0,1.18.36,27.56.36,27.56,0,0,.81-25.58.5-27.3-.32-1.73-1.95-2.35-1.95-2.35Z" style="fill: #a3ea2a; opacity: .36;"/>
        </g>
      </g>
      <rect x="119.4" y="513.94" width="14.14" height="11.39" style="fill: url(#linear-gradient-6);"/>
      <rect x="85.58" y="469.84" width="81.76" height="49.13" rx="1.38" ry="1.38" style="fill: url(#linear-gradient-7);"/>
      <path d="m167.34,471.21v42.41h-81.76v-42.41c0-.76.62-1.38,1.38-1.38h79.01c.76,0,1.38.62,1.38,1.38Z" style="fill: url(#linear-gradient-8);"/>
      <path d="m114.12,524.29h24.68v1.05c0,.6-.49,1.08-1.08,1.08h-22.51c-.6,0-1.08-.49-1.08-1.08v-1.05h0Z" transform="translate(252.93 1050.71) rotate(180)" style="fill: url(#linear-gradient-9);"/>
      <circle cx="126.46" cy="516.88" r="1.41" style="fill: #1c2538;"/>
      <path d="m88.6,510.25v-37.14c0-.5.4-.9.9-.9h73.92c.5,0,.9.4.9.9v37.14c0,.68-.57,1.23-1.28,1.23h-73.17c-.71,0-1.28-.55-1.28-1.23Z" style="fill: url(#linear-gradient-10);"/>
      <rect x="100.01" y="479.9" width="36.62" height="1.18" style="fill: #a3ea2a;"/>
      <rect x="100.03" y="482.9" width="47.44" height="1.18" style="fill: #a3ea2a;"/>
      <rect x="100.03" y="485.91" width="51.72" height="1.18" style="fill: #a3ea2a;"/>
      <rect x="100.01" y="492.74" width="36.62" height="1.18" style="fill: #a3ea2a;"/>
      <rect x="100.03" y="495.74" width="47.44" height="1.18" style="fill: #a3ea2a;"/>
      <rect x="100.03" y="498.74" width="51.72" height="1.18" style="fill: #a3ea2a;"/>
    </g>
  </g>
  <g id="Mail_Server" data-name="Mail Server">
    <g id="Server_-_small" data-name="Server - small">
      <g>
        <polygon points="122.82 323.06 117.87 327 113.02 323.06 113.02 275.65 122.82 275.65 122.82 323.06" style="fill: #1a1a1a;"/>
        <polygon points="68.14 256.78 118.84 234.54 166.33 257.29 117.05 278.38 68.14 256.78" style="fill: url(#linear-gradient-11);"/>
        <polyline points="117.47 277.66 117.87 327.04 69.84 305.7 68.15 256.78" style="fill: url(#linear-gradient-12);"/>
        <polygon points="117.47 277.68 117.91 327.04 165.5 304.36 166.39 257.22 117.47 277.68" style="fill: url(#linear-gradient-13);"/>
        <path d="m124.62,291.25l35.76-16.41c.46-.21.76-.65.79-1.16l.59-9.34c.06-1.02-.98-1.75-1.92-1.33l-36.27,16.14c-.49.22-.81.7-.81,1.24l-.08,9.6c0,1,1.03,1.67,1.93,1.25Z" style="fill: url(#linear-gradient-14);"/>
        <path d="m122.81,290.6c.31.64,1.09.97,1.81.65l35.76-16.41c.46-.21.76-.65.79-1.15l.59-9.33c.05-.86-.67-1.52-1.46-1.45.1.2.15.43.13.68l-.59,9.33c-.03.5-.34.95-.79,1.15l-35.76,16.41c-.16.07-.31.11-.47.12Z" style="fill: #1a1a1a;"/>
        <path d="m125.01,306.05l35.76-16.41c.46-.21.76-.65.79-1.16l.59-9.34c.06-1.02-.98-1.75-1.92-1.33l-36.27,16.14c-.49.22-.81.7-.81,1.24l-.08,9.6c0,1,1.03,1.67,1.93,1.25Z" style="fill: url(#linear-gradient-15);"/>
        <path d="m123.28,305.4c.31.64,1.09.97,1.81.65l35.76-16.41c.46-.21.76-.65.79-1.15l.59-9.33c.05-.86-.67-1.52-1.46-1.45.1.2.15.43.13.68l-.59,9.33c-.03.5-.34.95-.79,1.15l-35.76,16.41c-.16.07-.31.11-.47.12Z" style="fill: #1a1a1a;"/>
        <path d="m125.6,320.79l36.45-16.36c.46-.21.76-.65.79-1.16l.59-9.34c.06-1.02-.98-1.75-1.92-1.33l-36.96,16.1c-.49.22-.81.7-.81,1.24l-.08,9.6c0,1,1.03,1.67,1.93,1.25Z" style="fill: url(#linear-gradient-16);"/>
        <path d="m123.82,320.14c.31.64,1.09.97,1.81.65l36.45-16.36c.46-.21.76-.65.79-1.15l.59-9.33c.05-.86-.67-1.52-1.46-1.45.1.2.15.43.13.68l-.59,9.33c-.03.5-.34.95-.79,1.15l-36.45,16.36c-.16.07-.31.11-.47.12Z" style="fill: #1a1a1a;"/>
        <circle cx="126.8" cy="281.41" r="1.08" style="fill: #a3ea2a;"/>
        <circle cx="126.99" cy="285.72" r="1.08" style="fill: #a3ea2a;"/>
        <circle cx="131.89" cy="279.25" r="1.08" style="fill: #f2f2f2;"/>
        <circle cx="132.22" cy="283.17" r="1.08" style="fill: #a3ea2a;"/>
        <circle cx="137.18" cy="276.9" r="1.08" style="fill: #a3ea2a;"/>
        <circle cx="137.18" cy="281.21" r="1.08" style="fill: #a3ea2a;"/>
        <circle cx="142.28" cy="274.55" r="1.08" style="fill: #eb0037;"/>
        <circle cx="142.47" cy="278.66" r="1.08" style="fill: #a3ea2a;"/>
        <circle cx="147.37" cy="272.39" r="1.08" style="fill: #a3ea2a;"/>
        <circle cx="147.57" cy="276.42" r="1.08" style="fill: #1a1a1a;"/>
        <circle cx="152.47" cy="269.85" r="1.08" style="fill: #a3ea2a;"/>
        <circle cx="152.48" cy="274.17" r="1.08" style="fill: #a3ea2a;"/>
        <circle cx="157.36" cy="267.49" r="1.08" style="fill: #a3ea2a;"/>
        <circle cx="157.19" cy="271.61" r="1.08" style="fill: #a3ea2a;"/>
        <circle cx="127.39" cy="295.9" r="1.08" style="fill: #f2f2f2;"/>
        <circle cx="127.39" cy="300.02" r="1.08" style="fill: #eb0037;"/>
        <circle cx="132.48" cy="293.75" r="1.08" style="fill: #a3ea2a;"/>
        <circle cx="133.07" cy="297.67" r="1.08" style="fill: #eb0037;"/>
        <circle cx="137.57" cy="291.4" r="1.08" style="fill: #a3ea2a;"/>
        <circle cx="137.77" cy="295.71" r="1.08" style="fill: #eb0037;"/>
        <circle cx="142.67" cy="289.05" r="1.08" style="fill: #a3ea2a;"/>
        <circle cx="142.86" cy="293.16" r="1.08" style="fill: #eb0037;"/>
        <circle cx="147.96" cy="286.7" r="1.08" style="fill: #a3ea2a;"/>
        <circle cx="147.96" cy="291.01" r="1.08" style="fill: #eb0037;"/>
        <circle cx="153.05" cy="284.34" r="1.08" style="fill: #1a1a1a;"/>
        <circle cx="153.43" cy="288.58" r="1.08" style="fill: #eb0037;"/>
        <circle cx="157.95" cy="282.44" r="1.08" style="fill: #a3ea2a;"/>
        <circle cx="158.15" cy="286.57" r="1.08" style="fill: #eb0037;"/>
        <circle cx="128.56" cy="310.6" r="1.08" style="fill: #a3ea2a;"/>
        <circle cx="128.39" cy="314.71" r="1.08" style="fill: #a3ea2a;"/>
        <circle cx="133.66" cy="308.44" r="1.08" style="fill: #a3ea2a;"/>
        <circle cx="133.88" cy="312.36" r="1.08" style="fill: #a3ea2a;"/>
        <circle cx="138.75" cy="306.09" r="1.08" style="fill: #1a1a1a;"/>
        <circle cx="138.58" cy="310.4" r="1.08" style="fill: #a3ea2a;"/>
        <circle cx="144.04" cy="303.74" r="1.08" style="fill: #a3ea2a;"/>
        <circle cx="143.77" cy="307.86" r="1.08" style="fill: #a3ea2a;"/>
        <circle cx="149.13" cy="301.59" r="1.08" style="fill: #eb0037;"/>
        <circle cx="149.06" cy="305.7" r="1.08" style="fill: #a3ea2a;"/>
        <circle cx="154.23" cy="299.04" r="1.08" style="fill: #a3ea2a;"/>
        <circle cx="154.24" cy="303.55" r="1.08" style="fill: #1a1a1a;"/>
        <circle cx="159.13" cy="296.69" r="1.08" style="fill: #a3ea2a;"/>
        <circle cx="158.77" cy="301.54" r="1.08" style="fill: #a3ea2a;"/>
        <polygon points="70.98 260.11 73.19 303.94 114.92 323.04 114.92 278.57 70.98 260.11" style="fill: #272728;"/>
        <polygon points="70.89 260.11 72.62 260.76 74.47 303.53 73.1 303.94 70.89 260.11" style="fill: #1a1a1a;"/>
        <polygon points="74.56 303.53 114.92 322.15 114.92 323.04 73.19 303.94 74.56 303.53" style="fill: #1a1a1a;"/>
        <line x1="78.56" y1="302.81" x2="78.09" y2="285.68" style="fill: #eb0037; stroke: #000; stroke-linecap: round; stroke-linejoin: round; stroke-width: 1.17px;"/>
        <line x1="81.14" y1="303.98" x2="80.67" y2="286.86" style="fill: #eb0037; stroke: #000; stroke-linecap: round; stroke-linejoin: round; stroke-width: 1.17px;"/>
        <line x1="83.72" y1="305.39" x2="83.25" y2="288.26" style="fill: #eb0037; stroke: #000; stroke-linecap: round; stroke-linejoin: round; stroke-width: 1.17px;"/>
        <line x1="86.3" y1="306.8" x2="85.83" y2="289.67" style="fill: #eb0037; stroke: #000; stroke-linecap: round; stroke-linejoin: round; stroke-width: 1.17px;"/>
        <line x1="88.88" y1="307.97" x2="88.41" y2="290.84" style="fill: #eb0037; stroke: #000; stroke-linecap: round; stroke-linejoin: round; stroke-width: 1.17px;"/>
        <line x1="91.46" y1="309.14" x2="90.99" y2="292.02" style="fill: #eb0037; stroke: #000; stroke-linecap: round; stroke-linejoin: round; stroke-width: 1.17px;"/>
        <line x1="94.7" y1="310.34" x2="94.23" y2="293.21" style="fill: #eb0037; stroke: #000; stroke-linecap: round; stroke-linejoin: round; stroke-width: 1.17px;"/>
        <line x1="97.28" y1="311.51" x2="96.81" y2="294.39" style="fill: #eb0037; stroke: #000; stroke-linecap: round; stroke-linejoin: round; stroke-width: 1.17px;"/>
        <line x1="99.86" y1="312.92" x2="99.39" y2="295.79" style="fill: #eb0037; stroke: #000; stroke-linecap: round; stroke-linejoin: round; stroke-width: 1.17px;"/>
        <line x1="102.44" y1="314.33" x2="101.97" y2="297.2" style="fill: #eb0037; stroke: #000; stroke-linecap: round; stroke-linejoin: round; stroke-width: 1.17px;"/>
        <line x1="105.02" y1="315.5" x2="104.55" y2="298.37" style="fill: #eb0037; stroke: #000; stroke-linecap: round; stroke-linejoin: round; stroke-width: 1.17px;"/>
        <line x1="107.6" y1="316.67" x2="107.13" y2="299.55" style="fill: #eb0037; stroke: #000; stroke-linecap: round; stroke-linejoin: round; stroke-width: 1.17px;"/>
        <polygon points="76.4 256.05 117.28 275.41 158.16 257.13 117.28 273.26 76.4 256.05" style="fill: #97afbf; opacity: .25;"/>
        <polygon points="74.25 256.05 118.36 236.69 158.16 256.05 118.36 237.76 74.25 256.05" style="fill: #97afbf; opacity: .25;"/>
      </g>
    </g>
  </g>
  <rect x="175.13" y="229.06" width="236.24" height="37.96" rx="7.26" ry="7.26" style="fill: #223654;"/>
  <rect x="175.13" y="296.54" width="236.24" height="37.96" rx="7.26" ry="7.26" style="fill: #223654;"/>
  <g>
    <path d="m231.95,242.97c.42-.17.85-.37,1.3-.59s.89-.46,1.32-.73c.43-.26.84-.54,1.23-.84.39-.29.75-.6,1.06-.93h2.23v14.88h-3.2v-10.71c-.43.29-.91.55-1.44.78-.53.24-1.04.44-1.55.61l-.97-2.47Z" style="fill: #a3ea2a;"/>
    <path d="m250.42,248.85c-.3.14-.63.25-1,.31-.37.06-.68.1-.93.1-.93,0-1.73-.11-2.38-.33s-1.2-.54-1.62-.94c-.42-.41-.73-.9-.93-1.47-.2-.57-.3-1.2-.3-1.89,0-.57.1-1.16.29-1.76.19-.6.5-1.15.91-1.64.42-.49.94-.9,1.58-1.22.64-.32,1.41-.48,2.31-.48,1.85,0,3.24.57,4.18,1.71.94,1.14,1.41,2.77,1.41,4.91,0,1.4-.18,2.64-.55,3.71-.36,1.07-.93,1.98-1.7,2.71-.77.73-1.74,1.28-2.93,1.66-1.19.38-2.6.58-4.23.59-.01-.46-.04-.9-.06-1.33s-.06-.87-.09-1.33c.82-.01,1.55-.08,2.21-.18.66-.11,1.24-.29,1.74-.54.5-.25.93-.58,1.28-1s.63-.94.83-1.57Zm-1.57-2.08c.33,0,.67-.03,1.03-.1.36-.06.62-.15.79-.27v-.19c0-.06,0-.11.01-.17,0-.06.01-.11.01-.15-.01-.51-.06-1-.13-1.45-.07-.45-.19-.84-.37-1.18-.17-.34-.4-.6-.7-.79-.29-.19-.65-.29-1.08-.29-.34,0-.64.07-.9.21-.26.14-.47.33-.62.56-.16.23-.28.48-.35.75-.08.27-.12.54-.12.79,0,.77.19,1.35.57,1.72.38.37,1,.56,1.86.56Z" style="fill: #a3ea2a;"/>
    <path d="m265.49,243.79c0,.54-.11,1.07-.32,1.57-.21.5-.49.98-.84,1.45-.34.46-.73.91-1.16,1.34-.43.43-.85.84-1.27,1.22-.21.2-.45.43-.7.68-.25.25-.49.5-.72.76s-.43.5-.61.72c-.18.22-.29.41-.33.55h6.4v2.68h-9.92c-.03-.16-.04-.36-.04-.6v-.51c0-.69.11-1.32.33-1.89.22-.57.51-1.11.87-1.6.36-.49.76-.96,1.21-1.38s.9-.86,1.34-1.29c.34-.33.67-.64.97-.93.3-.29.56-.58.79-.86.23-.28.41-.56.54-.84s.19-.56.19-.85c0-.63-.18-1.07-.54-1.33-.36-.26-.8-.39-1.33-.39-.39,0-.75.06-1.08.18-.34.12-.64.26-.92.43-.28.17-.52.33-.72.49-.2.17-.35.3-.45.4l-1.59-2.23c.63-.59,1.36-1.07,2.2-1.45.84-.38,1.74-.57,2.69-.57.87,0,1.62.1,2.25.3.63.2,1.15.48,1.56.85.41.37.71.81.9,1.33.19.52.29,1.11.29,1.77Z" style="fill: #a3ea2a;"/>
    <path d="m271.67,253.06c0,.64-.2,1.13-.61,1.47-.41.34-.87.5-1.38.5s-.98-.17-1.38-.5c-.41-.34-.61-.83-.61-1.47s.2-1.13.61-1.47c.41-.34.87-.5,1.38-.5s.98.17,1.38.5c.41.34.61.83.61,1.47Z" style="fill: #a3ea2a;"/>
    <path d="m273.82,242.97c.42-.17.85-.37,1.3-.59s.89-.46,1.32-.73c.43-.26.84-.54,1.23-.84.39-.29.75-.6,1.06-.93h2.23v14.88h-3.2v-10.71c-.43.29-.91.55-1.44.78-.53.24-1.04.44-1.55.61l-.97-2.47Z" style="fill: #a3ea2a;"/>
    <path d="m290.8,245.27c.93,0,1.72.12,2.37.38.65.25,1.18.59,1.6,1.02.42.43.72.93.9,1.5s.28,1.18.28,1.82c0,.57-.1,1.16-.31,1.76-.21.6-.52,1.15-.94,1.63-.42.49-.96.89-1.61,1.2s-1.42.47-2.31.47c-1.79,0-3.15-.57-4.08-1.7-.93-1.13-1.4-2.69-1.4-4.68,0-1.43.22-2.7.67-3.8.44-1.1,1.08-2.03,1.9-2.78.82-.75,1.82-1.32,2.98-1.72s2.48-.6,3.94-.61c.03.44.06.88.09,1.3.03.42.06.86.09,1.32-.73.01-1.41.08-2.05.2-.64.12-1.22.31-1.74.57-.52.26-.98.59-1.36,1-.39.41-.69.91-.9,1.49.31-.14.64-.24.97-.3.33-.06.64-.09.92-.09Zm-.41,2.49c-.31,0-.65.03-1.01.09s-.64.14-.84.24c0,.06,0,.14-.01.26,0,.12-.01.21-.01.3,0,.52.04,1,.11,1.46s.19.86.37,1.2c.17.34.4.61.69.81.29.19.64.29,1.07.29.36,0,.66-.08.91-.23s.46-.34.62-.57c.16-.23.29-.48.37-.76.08-.28.12-.55.12-.81,0-.73-.18-1.29-.55-1.69-.36-.39-.98-.59-1.84-.59Z" style="fill: #a3ea2a;"/>
    <path d="m308.08,250.61c0,.64-.11,1.24-.33,1.77-.22.54-.56,1.01-1,1.41-.44.4-1,.71-1.66.94-.67.22-1.44.33-2.31.33-1,0-1.84-.14-2.5-.42s-1.2-.63-1.61-1.04c-.41-.42-.7-.87-.87-1.37-.17-.5-.26-.95-.26-1.37s.06-.82.17-1.18c.11-.36.27-.68.47-.98.2-.29.43-.56.68-.81.25-.24.52-.47.81-.69-.62-.5-1.07-.99-1.36-1.48-.29-.49-.44-1.11-.44-1.87,0-.57.12-1.12.35-1.65.24-.53.57-.99,1-1.38.43-.39.95-.71,1.56-.94.61-.24,1.28-.35,2.03-.35.87,0,1.62.12,2.24.38s1.13.57,1.54.95.69.82.87,1.3c.18.48.27.95.27,1.43,0,.69-.18,1.33-.55,1.92-.36.59-.82,1.06-1.36,1.4.82.53,1.4,1.09,1.75,1.67.35.58.53,1.26.53,2.03Zm-7.43.13c0,.17.04.36.12.57s.2.4.38.57c.17.17.39.32.67.43.27.12.6.17.99.17.74,0,1.29-.18,1.63-.54.34-.36.52-.76.52-1.21,0-.33-.07-.62-.23-.88-.15-.26-.35-.48-.61-.68-.26-.19-.56-.37-.91-.52-.35-.15-.73-.29-1.13-.42-.4.3-.74.65-1.01,1.05-.27.4-.41.88-.41,1.44Zm3.97-7.06c0-.16-.03-.32-.1-.5-.06-.18-.17-.35-.32-.5-.15-.16-.34-.29-.57-.4-.23-.11-.51-.16-.84-.16s-.59.05-.82.15c-.23.1-.42.23-.57.4-.15.16-.26.34-.33.52-.07.19-.11.36-.11.54,0,.46.17.88.5,1.29.34.4.91.74,1.73,1.03.46-.29.81-.61,1.05-.98.24-.37.37-.83.37-1.37Z" style="fill: #a3ea2a;"/>
    <path d="m313.54,253.06c0,.64-.2,1.13-.61,1.47-.41.34-.87.5-1.38.5s-.98-.17-1.38-.5c-.41-.34-.61-.83-.61-1.47s.2-1.13.61-1.47c.41-.34.87-.5,1.38-.5s.98.17,1.38.5c.41.34.61.83.61,1.47Z" style="fill: #a3ea2a;"/>
    <path d="m315.68,242.97c.42-.17.85-.37,1.3-.59s.89-.46,1.32-.73c.43-.26.84-.54,1.23-.84.39-.29.75-.6,1.06-.93h2.23v14.88h-3.2v-10.71c-.43.29-.91.55-1.44.78-.53.24-1.04.44-1.55.61l-.97-2.47Z" style="fill: #a3ea2a;"/>
    <path d="m331.01,253.06c0,.64-.2,1.13-.61,1.47-.41.34-.87.5-1.38.5s-.98-.17-1.38-.5c-.41-.34-.61-.83-.61-1.47s.2-1.13.61-1.47c.41-.34.87-.5,1.38-.5s.98.17,1.38.5c.41.34.61.83.61,1.47Z" style="fill: #a3ea2a;"/>
    <path d="m333.16,242.97c.42-.17.85-.37,1.3-.59s.89-.46,1.32-.73c.43-.26.84-.54,1.23-.84.39-.29.75-.6,1.06-.93h2.23v14.88h-3.2v-10.71c-.43.29-.91.55-1.44.78-.53.24-1.04.44-1.55.61l-.97-2.47Z" style="fill: #a3ea2a;"/>
    <path d="m355.31,247.29c0,2.5-.48,4.43-1.43,5.76-.95,1.34-2.27,2.01-3.94,2.01s-2.99-.67-3.94-2.01c-.95-1.34-1.43-3.26-1.43-5.76,0-1.25.12-2.35.38-3.31s.61-1.77,1.08-2.43c.47-.66,1.04-1.16,1.7-1.5.66-.34,1.4-.51,2.21-.51,1.67,0,2.99.67,3.94,2.01.95,1.34,1.43,3.25,1.43,5.74Zm-3.26,0c0-.74-.04-1.42-.11-2.03-.07-.61-.19-1.13-.34-1.58-.16-.44-.37-.79-.64-1.03-.27-.24-.61-.36-1.01-.36s-.73.12-1,.36c-.27.24-.48.59-.64,1.03-.17.44-.28.97-.35,1.58s-.11,1.28-.11,2.03.04,1.42.11,2.04.19,1.15.35,1.59c.16.44.38.79.64,1.03.26.24.6.37,1,.37s.74-.12,1.01-.37.49-.59.64-1.03c.16-.44.27-.97.34-1.59.07-.62.11-1.3.11-2.04Z" style="fill: #a3ea2a;"/>
  </g>
  <rect x="133.07" y="621.86" width="148.9" height="37.96" rx="5.76" ry="5.76" style="fill: #223654;"/>
  <g>
    <path d="m153.98,647.55c-.96-1.7-2-3.38-3.11-5.04-1.12-1.66-2.3-3.23-3.56-4.7v9.75h-3.31v-14.88h2.73c.47.47.99,1.05,1.57,1.74.57.69,1.16,1.42,1.75,2.2.59.78,1.18,1.59,1.77,2.43.59.84,1.14,1.64,1.65,2.42v-8.78h3.33v14.88h-2.81Z" style="fill: #a3ea2a;"/>
    <path d="m159.48,641.99c0-1,.15-1.88.46-2.63.31-.75.71-1.38,1.21-1.88s1.08-.88,1.73-1.14c.65-.26,1.32-.39,2.01-.39,1.6,0,2.87.49,3.8,1.47.93.98,1.4,2.42,1.4,4.33,0,.19,0,.39-.02.61-.01.22-.03.42-.04.59h-7.26c.07.66.38,1.18.92,1.57.54.39,1.27.58,2.19.58.59,0,1.16-.05,1.73-.16s1.03-.24,1.38-.4l.43,2.6c-.17.09-.4.17-.69.26-.29.09-.6.16-.96.23-.35.06-.73.12-1.13.16-.4.04-.8.06-1.2.06-1.02,0-1.9-.15-2.65-.45s-1.37-.71-1.87-1.23c-.49-.52-.86-1.14-1.1-1.86-.24-.71-.35-1.49-.35-2.32Zm7.51-1.22c-.01-.27-.06-.54-.14-.79s-.2-.49-.36-.69c-.16-.2-.37-.37-.62-.49-.25-.13-.56-.19-.93-.19s-.67.06-.92.18c-.26.12-.47.28-.64.48s-.3.43-.4.7c-.09.27-.16.53-.2.81h4.23Z" style="fill: #a3ea2a;"/>
    <path d="m172.45,633.45l3.2-.52v3.33h3.84v2.66h-3.84v3.97c0,.67.12,1.21.35,1.61.24.4.71.6,1.43.6.34,0,.7-.03,1.06-.1.36-.06.7-.15,1-.27l.45,2.49c-.39.16-.82.29-1.29.41-.47.11-1.05.17-1.74.17-.87,0-1.6-.12-2.17-.35-.57-.24-1.03-.57-1.37-.99-.34-.42-.58-.93-.72-1.54-.14-.6-.2-1.27-.2-2v-9.49Z" style="fill: #a3ea2a;"/>
    <path d="m189.18,641.07c-.29,1.09-.59,2.17-.91,3.24-.32,1.07-.66,2.15-1.02,3.24h-2.49c-.26-.6-.54-1.32-.84-2.15-.3-.83-.61-1.74-.94-2.72-.32-.98-.65-2.02-.99-3.11-.34-1.1-.66-2.2-.98-3.32h3.37c.12.52.24,1.08.38,1.69.14.61.28,1.23.43,1.88.15.64.31,1.29.48,1.94s.33,1.28.51,1.88c.19-.63.37-1.27.55-1.93.18-.66.35-1.31.52-1.94.16-.64.32-1.25.47-1.85.15-.59.28-1.15.4-1.66h2.32c.11.52.24,1.07.39,1.66s.29,1.21.45,1.85c.16.64.32,1.29.49,1.94.17.66.35,1.3.54,1.93.17-.6.35-1.23.52-1.88.17-.65.33-1.3.49-1.94.15-.64.29-1.27.43-1.88s.26-1.17.38-1.69h3.33c-.32,1.12-.64,2.22-.98,3.32-.34,1.09-.67,2.13-.99,3.11-.32.98-.64,1.89-.95,2.72s-.59,1.54-.85,2.15h-2.49c-.36-1.09-.71-2.17-1.05-3.24-.34-1.07-.66-2.15-.94-3.24Z" style="fill: #a3ea2a;"/>
    <path d="m209.44,641.88c0,.89-.13,1.7-.39,2.44-.26.74-.63,1.37-1.12,1.89-.49.52-1.07.93-1.75,1.21-.68.29-1.44.43-2.29.43s-1.59-.14-2.27-.43c-.68-.29-1.26-.69-1.75-1.21-.49-.52-.87-1.15-1.14-1.89-.27-.74-.41-1.55-.41-2.44s.14-1.7.42-2.43c.28-.73.67-1.35,1.16-1.87.49-.52,1.08-.92,1.76-1.2.68-.29,1.42-.43,2.22-.43s1.56.14,2.24.43c.68.29,1.26.69,1.75,1.2.49.52.87,1.14,1.14,1.87.27.73.41,1.54.41,2.43Zm-3.26,0c0-.99-.2-1.76-.59-2.33-.39-.57-.96-.85-1.69-.85s-1.3.28-1.7.85-.6,1.34-.6,2.33.2,1.77.6,2.35c.4.58.97.87,1.7.87s1.29-.29,1.69-.87c.39-.58.59-1.36.59-2.35Z" style="fill: #a3ea2a;"/>
    <path d="m218.71,639.09c-.29-.07-.62-.15-1.01-.23-.39-.08-.8-.12-1.25-.12-.2,0-.44.02-.72.05-.28.04-.49.08-.63.12v8.63h-3.2v-10.69c.57-.2,1.25-.39,2.03-.57.78-.18,1.65-.27,2.61-.27.17,0,.38.01.62.03.24.02.49.05.73.09.24.04.49.08.73.13.24.05.45.11.62.18l-.54,2.64Z" style="fill: #a3ea2a;"/>
    <path d="m224.17,640.31c.31-.34.64-.7.98-1.07s.66-.74.98-1.1c.31-.36.61-.71.89-1.04s.52-.61.72-.85h3.8c-.76.87-1.5,1.7-2.22,2.5-.72.79-1.51,1.61-2.37,2.45.43.39.87.85,1.33,1.39.46.54.9,1.09,1.33,1.67.43.57.82,1.15,1.18,1.72.36.57.66,1.1.9,1.57h-3.68c-.23-.37-.49-.79-.78-1.24-.29-.45-.6-.9-.93-1.36-.33-.45-.67-.89-1.04-1.3s-.73-.77-1.08-1.05v4.95h-3.2v-16.15l3.2-.51v9.42Z" style="fill: #a3ea2a;"/>
    <path d="m244.03,636.32h2.49l.7-3.65h2.79l-.7,3.65h1.56v2.47h-2.03l-.51,2.64h2.54v2.47h-3.01l-.7,3.65h-2.79l.7-3.65h-2.49l-.7,3.65h-2.79l.7-3.65h-1.56v-2.47h2.03l.51-2.64h-2.54v-2.47h3.01l.7-3.65h2.79l-.7,3.65Zm-.98,5.11h2.49l.51-2.64h-2.49l-.51,2.64Z" style="fill: #a3ea2a;"/>
    <path d="m253.56,635.76c.42-.17.85-.37,1.3-.59s.89-.46,1.32-.73c.43-.26.84-.54,1.23-.84.39-.29.75-.6,1.06-.93h2.23v14.88h-3.2v-10.71c-.43.29-.91.55-1.44.78-.53.24-1.04.44-1.55.61l-.97-2.47Z" style="fill: #a3ea2a;"/>
  </g>
  <g>
    <path d="m262.1,307.18c2.22,0,3.92.39,5.11,1.17s1.78,2.06,1.78,3.83-.6,3.08-1.8,3.88c-1.2.79-2.92,1.19-5.15,1.19h-1.05v4.98h-3.35v-14.66c.73-.14,1.5-.24,2.32-.3.82-.06,1.53-.08,2.15-.08Zm.21,2.86c-.24,0-.48,0-.72.02-.24.01-.44.03-.61.04v4.29h1.05c1.16,0,2.03-.16,2.62-.47.59-.31.88-.9.88-1.76,0-.42-.08-.76-.23-1.03s-.37-.49-.64-.66c-.28-.16-.62-.28-1.02-.34-.4-.06-.84-.1-1.33-.1Z" style="fill: #a3ea2a;"/>
    <path d="m281.48,316.57c0,.89-.13,1.7-.39,2.44-.26.74-.63,1.37-1.12,1.89-.49.52-1.07.93-1.75,1.21-.68.29-1.44.43-2.29.43s-1.59-.14-2.27-.43c-.68-.29-1.26-.69-1.75-1.21-.49-.52-.87-1.15-1.14-1.89-.27-.74-.41-1.55-.41-2.44s.14-1.7.42-2.43c.28-.73.67-1.35,1.16-1.87.49-.52,1.08-.92,1.76-1.2.68-.29,1.42-.43,2.22-.43s1.56.14,2.24.43c.68.29,1.26.69,1.75,1.2.49.52.87,1.14,1.14,1.87.27.73.41,1.54.41,2.43Zm-3.26,0c0-.99-.2-1.76-.59-2.33-.39-.57-.96-.85-1.69-.85s-1.3.28-1.7.85-.6,1.34-.6,2.33.2,1.77.6,2.35c.4.58.97.87,1.7.87s1.29-.29,1.69-.87c.39-.58.59-1.36.59-2.35Z" style="fill: #a3ea2a;"/>
    <path d="m290.76,313.78c-.29-.07-.62-.15-1.01-.23-.39-.08-.8-.12-1.25-.12-.2,0-.44.02-.72.05-.28.04-.49.08-.63.12v8.63h-3.2v-10.69c.57-.2,1.25-.39,2.03-.57.78-.18,1.65-.27,2.61-.27.17,0,.38.01.62.03.24.02.49.05.73.09.24.04.49.08.73.13.24.05.45.11.62.18l-.54,2.64Z" style="fill: #a3ea2a;"/>
    <path d="m292.9,308.13l3.2-.52v3.33h3.84v2.66h-3.84v3.97c0,.67.12,1.21.35,1.61.24.4.71.6,1.43.6.34,0,.7-.03,1.06-.1.36-.06.7-.15,1-.27l.45,2.49c-.39.16-.82.29-1.29.41-.47.11-1.05.17-1.74.17-.87,0-1.6-.12-2.17-.35-.57-.24-1.03-.57-1.37-.99-.34-.42-.58-.93-.72-1.54-.14-.6-.2-1.27-.2-2v-9.49Z" style="fill: #a3ea2a;"/>
    <path d="m317.57,318.09c0,.64-.11,1.24-.33,1.77-.22.54-.56,1.01-1,1.41-.44.4-1,.71-1.66.94-.67.22-1.44.33-2.31.33-1,0-1.84-.14-2.5-.42s-1.2-.63-1.61-1.04c-.41-.42-.7-.87-.87-1.37-.17-.5-.26-.95-.26-1.37s.06-.82.17-1.18c.11-.36.27-.68.47-.98.2-.29.43-.56.68-.81.25-.24.52-.47.81-.69-.62-.5-1.07-.99-1.36-1.48-.29-.49-.44-1.11-.44-1.87,0-.57.12-1.12.35-1.65.24-.53.57-.99,1-1.38.43-.39.95-.71,1.56-.94.61-.24,1.28-.35,2.03-.35.87,0,1.62.12,2.24.38s1.13.57,1.54.95.69.82.87,1.3c.18.48.27.95.27,1.43,0,.69-.18,1.33-.55,1.92-.36.59-.82,1.06-1.36,1.4.82.53,1.4,1.09,1.75,1.67.35.58.53,1.26.53,2.03Zm-7.43.13c0,.17.04.36.12.57s.2.4.38.57c.17.17.39.32.67.43.27.12.6.17.99.17.74,0,1.29-.18,1.63-.54.34-.36.52-.76.52-1.21,0-.33-.07-.62-.23-.88-.15-.26-.35-.48-.61-.68-.26-.19-.56-.37-.91-.52-.35-.15-.73-.29-1.13-.42-.4.3-.74.65-1.01,1.05-.27.4-.41.88-.41,1.44Zm3.97-7.06c0-.16-.03-.32-.1-.5-.06-.18-.17-.35-.32-.5-.15-.16-.34-.29-.57-.4-.23-.11-.51-.16-.84-.16s-.59.05-.82.15c-.23.1-.42.23-.57.4-.15.16-.26.34-.33.52-.07.19-.11.36-.11.54,0,.46.17.88.5,1.29.34.4.91.74,1.73,1.03.46-.29.81-.61,1.05-.98.24-.37.37-.83.37-1.37Z" style="fill: #a3ea2a;"/>
    <path d="m329.85,314.76c0,2.5-.48,4.43-1.43,5.76-.95,1.34-2.27,2.01-3.94,2.01s-2.99-.67-3.94-2.01c-.95-1.34-1.43-3.26-1.43-5.76,0-1.25.12-2.35.38-3.31s.61-1.77,1.08-2.43c.47-.66,1.04-1.16,1.7-1.5.66-.34,1.4-.51,2.21-.51,1.67,0,2.99.67,3.94,2.01.95,1.34,1.43,3.25,1.43,5.74Zm-3.26,0c0-.74-.04-1.42-.11-2.03-.07-.61-.19-1.13-.34-1.58-.16-.44-.37-.79-.64-1.03-.27-.24-.61-.36-1.01-.36s-.73.12-1,.36c-.27.24-.48.59-.64,1.03-.17.44-.28.97-.35,1.58s-.11,1.28-.11,2.03.04,1.42.11,2.04.19,1.15.35,1.59c.16.44.38.79.64,1.03.26.24.6.37,1,.37s.74-.12,1.01-.37.49-.59.64-1.03c.16-.44.27-.97.34-1.59.07-.62.11-1.3.11-2.04Z" style="fill: #a3ea2a;"/>
  </g>
  <rect x="44.15" y="604.18" width="73.31" height="73.31" style="fill: #727c92;"/>
  <g id="Router">
    <g>
      <path d="m557.46,286.44c-.01,14.24-19.43,25.8-43.36,25.82-23.94.02-43.33-11.51-43.32-25.75v-14.8s86.7-.08,86.7-.08c0,0,0,6.19-.01,14.8Z" style="fill: url(#linear-gradient-17);"/>
      <ellipse cx="514.14" cy="271.68" rx="43.34" ry="25.78" transform="translate(-.5 .94) rotate(-.1)" style="fill: url(#linear-gradient-18);"/>
      <polygon points="504.6 268.4 489.93 268.42 489.93 264.12 478.23 270.86 489.92 277.58 489.92 273.29 504.59 273.27 504.6 268.4" style="fill: url(#linear-gradient-19);"/>
      <polygon points="523.68 273.26 538.34 273.24 538.34 277.54 550.04 270.8 538.35 264.08 538.35 268.37 523.68 268.39 523.68 273.26" style="fill: url(#linear-gradient-20);"/>
      <polygon points="511.69 274.45 511.68 283.82 511.68 284.8 507.37 284.81 514.11 296.45 520.88 284.8 516.57 284.8 516.57 283.82 516.58 274.45 511.69 274.45" style="fill: url(#linear-gradient-21);"/>
      <polygon points="516.18 267.2 516.18 257.44 516.19 256.62 519.78 256.61 514.16 246.91 508.52 256.62 512.11 256.62 512.11 257.44 512.1 267.21 516.18 267.2" style="fill: url(#linear-gradient-22);"/>
    </g>
  </g>
</svg>