<?xml version="1.0" encoding="UTF-8"?>
<svg id="Layer_2" data-name="Layer 2" xmlns="http://www.w3.org/2000/svg" width="981.27" height="949.04" xmlns:xlink="http://www.w3.org/1999/xlink" viewBox="0 0 981.27 949.04">
  <defs>
    <radialGradient id="radial-gradient" cx="123.99" cy="79.34" fx="123.99" fy="79.34" r="64.07" gradientUnits="userSpaceOnUse">
      <stop offset="0" stop-color="#1c2538"/>
      <stop offset=".24" stop-color="#1f2437"/>
      <stop offset=".44" stop-color="#292235"/>
      <stop offset=".62" stop-color="#3a1e31"/>
      <stop offset=".79" stop-color="#52192b"/>
      <stop offset=".96" stop-color="#701325"/>
      <stop offset="1" stop-color="#7a1123"/>
    </radialGradient>
    <linearGradient id="linear-gradient" x1="119.54" y1="179.74" x2="123.83" y2="98.18" gradientUnits="userSpaceOnUse">
      <stop offset="0" stop-color="#995e28"/>
      <stop offset=".14" stop-color="#8b511e"/>
      <stop offset=".35" stop-color="#7c4314"/>
      <stop offset=".53" stop-color="#773f11"/>
      <stop offset=".64" stop-color="#5e310c"/>
    </linearGradient>
    <radialGradient id="radial-gradient-2" cx="121.44" cy="179.06" fx="121.44" fy="179.06" r="68.36" gradientUnits="userSpaceOnUse">
      <stop offset="0" stop-color="#223654"/>
      <stop offset=".41" stop-color="#213450"/>
      <stop offset=".73" stop-color="#1f2d46"/>
      <stop offset="1" stop-color="#1c2538"/>
    </radialGradient>
    <linearGradient id="linear-gradient-2" x1="125.61" y1="185.04" x2="123.97" y2="199.93" gradientUnits="userSpaceOnUse">
      <stop offset="0" stop-color="#223654"/>
      <stop offset=".76" stop-color="#2a59be"/>
    </linearGradient>
    <radialGradient id="radial-gradient-3" cx="145.74" cy="92.36" fx="145.74" fy="92.36" r="42.85" gradientUnits="userSpaceOnUse">
      <stop offset="0" stop-color="#995e28"/>
      <stop offset=".37" stop-color="#955b25"/>
      <stop offset=".68" stop-color="#8b511f"/>
      <stop offset=".95" stop-color="#7a4213"/>
      <stop offset="1" stop-color="#773f11"/>
    </radialGradient>
    <linearGradient id="linear-gradient-3" x1="62.33" y1="170.96" x2="58.86" y2="149.03" gradientUnits="userSpaceOnUse">
      <stop offset="0" stop-color="#1c2538"/>
      <stop offset=".76" stop-color="#2a59be"/>
    </linearGradient>
    <linearGradient id="linear-gradient-4" x1="183.15" y1="175.58" x2="183.15" y2="143.78" xlink:href="#linear-gradient-3"/>
    <radialGradient id="radial-gradient-4" cx="873.39" cy="180.29" fx="873.39" fy="180.29" r="72.24" gradientUnits="userSpaceOnUse">
      <stop offset="0" stop-color="#223654"/>
      <stop offset=".37" stop-color="#20324e"/>
      <stop offset=".82" stop-color="#1d293f"/>
      <stop offset=".98" stop-color="#1c2538"/>
    </radialGradient>
    <linearGradient id="linear-gradient-5" x1="927.2" y1="176.69" x2="960.11" y2="142.79" xlink:href="#linear-gradient-3"/>
    <linearGradient id="linear-gradient-6" x1="814.83" y1="175.92" x2="802.98" y2="137.42" gradientUnits="userSpaceOnUse">
      <stop offset=".02" stop-color="#1c2538"/>
      <stop offset=".76" stop-color="#2a59be"/>
    </linearGradient>
    <radialGradient id="radial-gradient-5" cx="872.62" cy="146.54" fx="872.62" fy="146.54" r="27.73" gradientUnits="userSpaceOnUse">
      <stop offset="0" stop-color="#2a59be"/>
      <stop offset=".16" stop-color="#2957b8"/>
      <stop offset=".37" stop-color="#2852a9"/>
      <stop offset=".6" stop-color="#26498f"/>
      <stop offset=".84" stop-color="#233d6b"/>
      <stop offset=".98" stop-color="#223654"/>
    </radialGradient>
    <linearGradient id="linear-gradient-7" x1="891.33" y1="174.76" x2="857.42" y2="103.62" gradientUnits="userSpaceOnUse">
      <stop offset="0" stop-color="#edc2a2"/>
      <stop offset=".98" stop-color="#ce9874"/>
    </linearGradient>
    <radialGradient id="radial-gradient-6" cx="908.73" cy="80.32" fx="908.73" fy="80.32" r="41.23" gradientUnits="userSpaceOnUse">
      <stop offset="0" stop-color="#edc2a2"/>
      <stop offset=".98" stop-color="#ce9874"/>
    </radialGradient>
    <radialGradient id="radial-gradient-7" cx="884.72" cy="57.42" fx="884.72" fy="57.42" r="69.35" gradientUnits="userSpaceOnUse">
      <stop offset="0" stop-color="#7a1123"/>
      <stop offset=".18" stop-color="#741224"/>
      <stop offset=".4" stop-color="#651527"/>
      <stop offset=".64" stop-color="#4b1a2d"/>
      <stop offset=".91" stop-color="#272235"/>
      <stop offset=".98" stop-color="#1c2538"/>
    </radialGradient>
    <linearGradient id="linear-gradient-8" x1="920.74" y1="160.08" x2="893.42" y2="102.76" gradientUnits="userSpaceOnUse">
      <stop offset="0" stop-color="#dead0a"/>
      <stop offset="1" stop-color="#7a1123"/>
    </linearGradient>
    <linearGradient id="linear-gradient-9" x1="-365.96" y1="342.72" x2="670.48" y2="342.72" gradientTransform="translate(154.89 35.32) rotate(6.21)" gradientUnits="userSpaceOnUse">
      <stop offset=".34" stop-color="#223654"/>
      <stop offset=".4" stop-color="#38554c"/>
      <stop offset=".5" stop-color="#5e8940"/>
      <stop offset=".6" stop-color="#7bb336"/>
      <stop offset=".68" stop-color="#91d12f"/>
      <stop offset=".76" stop-color="#9ee32b"/>
      <stop offset=".81" stop-color="#a3ea2a"/>
    </linearGradient>
    <linearGradient id="linear-gradient-10" x1="-313.15" y1="768.46" x2="723.29" y2="768.46" gradientTransform="translate(150.44 65.09) rotate(5.95)" xlink:href="#linear-gradient-9"/>
    <linearGradient id="linear-gradient-11" x1="-2505.2" y1="492.06" x2="-1468.76" y2="492.06" gradientTransform="translate(-1230.75 1215.77) rotate(175.58)" xlink:href="#linear-gradient-9"/>
    <linearGradient id="linear-gradient-12" x1="-2510.43" y1="375.86" x2="-1473.99" y2="375.86" gradientTransform="translate(-1230.75 1215.77) rotate(175.58)" xlink:href="#linear-gradient-9"/>
  </defs>
  <rect x="404.32" y="331.63" width="188.19" height="59.93" rx="17.8" ry="17.8" transform="translate(42.07 -51.83) rotate(6.21)" style="fill: #1c2538;"/>
  <g>
    <path d="m467.26,370.89l3.03-27.79,18.6,2.03-.57,5.25-12.35-1.34-.63,5.81,10.99,1.2-.57,5.25-10.99-1.2-1.25,11.47-6.26-.68Z" style="fill: #a3ea2a;"/>
    <path d="m493.3,345.61l6.25.68-3.03,27.79-6.25-.68,3.03-27.79Z" style="fill: #a3ea2a;"/>
    <path d="m521.59,376.81c-1.44-3.38-3.04-6.73-4.79-10.06-1.75-3.33-3.65-6.5-5.7-9.51l-1.98,18.2-6.17-.67,3.03-27.79,5.09.55c.79.98,1.64,2.17,2.57,3.57.93,1.4,1.87,2.89,2.82,4.47.95,1.58,1.89,3.21,2.81,4.89.93,1.68,1.79,3.3,2.6,4.85l1.79-16.4,6.22.68-3.03,27.79-5.25-.57Z" style="fill: #a3ea2a;"/>
  </g>
  <rect x="403.86" y="619.23" width="188.19" height="59.93" rx="17.8" ry="17.8" transform="translate(-43.07 35.43) rotate(-3.91)" style="fill: #1c2538;"/>
  <g>
    <path d="m468.92,663.82l-1.9-27.89,18.67-1.28.36,5.27-12.39.85.4,5.83,11.03-.75.36,5.27-11.03.75.79,11.51-6.28.43Z" style="fill: #a3ea2a;"/>
    <path d="m490.11,634.35l6.28-.43,1.9,27.89-6.28.43-1.9-27.89Z" style="fill: #a3ea2a;"/>
    <path d="m523.44,660.09c-2.02-3.07-4.18-6.09-6.48-9.06-2.3-2.97-4.73-5.75-7.28-8.36l1.25,18.27-6.2.42-1.9-27.89,5.11-.35c.95.83,2,1.85,3.16,3.06,1.16,1.21,2.35,2.51,3.56,3.9,1.21,1.39,2.42,2.83,3.63,4.32,1.21,1.5,2.34,2.93,3.41,4.32l-1.12-16.46,6.24-.43,1.9,27.89-5.27.36Z" style="fill: #a3ea2a;"/>
  </g>
  <rect x="393.65" y="501.25" width="188.19" height="59.93" rx="17.8" ry="17.8" transform="translate(-35.05 34.46) rotate(-3.91)" style="fill: #1c2538;"/>
  <g>
    <path d="m469.73,545.09c-.38-.95-.78-1.92-1.2-2.92-.43-1-.85-1.99-1.28-2.98l-10.89.74c-.28,1.04-.57,2.08-.85,3.13-.28,1.05-.55,2.06-.79,3.04l-6.52.45c.84-3.08,1.65-5.92,2.42-8.53.77-2.61,1.52-5.08,2.27-7.39.75-2.32,1.49-4.52,2.23-6.6.74-2.08,1.51-4.12,2.32-6.12l5.95-.41c1.05,1.87,2.09,3.79,3.11,5.75,1.03,1.96,2.07,4.04,3.13,6.24,1.06,2.19,2.14,4.53,3.26,7.01s2.3,5.19,3.56,8.12l-6.72.46Zm-9.01-21.05c-.11.42-.28.98-.5,1.7-.22.72-.47,1.54-.76,2.48-.28.94-.6,1.97-.95,3.1-.35,1.13-.7,2.31-1.06,3.54l7.97-.54c-.51-1.18-1-2.31-1.48-3.38s-.92-2.06-1.35-2.95c-.42-.89-.79-1.67-1.11-2.35-.32-.68-.58-1.21-.77-1.59Z" style="fill: #a3ea2a;"/>
    <path d="m491.78,544.15c-4.53.31-8.07-.71-10.62-3.07-2.55-2.36-3.98-5.86-4.29-10.5-.16-2.31.06-4.39.66-6.25.6-1.86,1.49-3.46,2.66-4.79,1.18-1.33,2.61-2.38,4.31-3.14,1.7-.76,3.57-1.21,5.61-1.35,1.18-.08,2.26-.07,3.24.04.98.11,1.84.25,2.58.43.74.18,1.36.37,1.86.58.5.21.86.37,1.08.49l-1.46,5.19c-.89-.4-1.92-.72-3.08-.96s-2.47-.32-3.92-.22c-.97.07-1.9.29-2.8.68-.9.39-1.69.96-2.35,1.72-.66.76-1.17,1.72-1.52,2.87-.35,1.16-.47,2.54-.36,4.15.09,1.29.31,2.48.67,3.57.36,1.09.88,2.02,1.57,2.78.68.76,1.55,1.34,2.6,1.74,1.05.4,2.3.55,3.75.45.91-.06,1.73-.17,2.44-.33.72-.16,1.35-.33,1.91-.51.55-.19,1.04-.39,1.45-.6.42-.22.79-.42,1.13-.6l2.07,4.91c-.85.6-2.06,1.16-3.64,1.7-1.58.54-3.43.88-5.55,1.03Z" style="fill: #a3ea2a;"/>
    <path d="m521.54,541.55c-.63-.87-1.36-1.8-2.2-2.81-.84-1-1.74-2.01-2.7-3.02-.96-1.01-1.96-1.97-2.99-2.89-1.04-.92-2.06-1.72-3.08-2.41l.81,11.81-6.28.43-1.9-27.89,6.28-.43.72,10.48c1.5-1.81,3.02-3.69,4.56-5.66,1.54-1.96,2.96-3.79,4.26-5.48l7.45-.51c-1.74,2.39-3.5,4.69-5.28,6.91-1.78,2.22-3.66,4.45-5.63,6.71,2.36,1.71,4.66,3.77,6.91,6.18,2.25,2.41,4.43,5.09,6.56,8.04l-7.46.51Z" style="fill: #a3ea2a;"/>
  </g>
  <rect x="393.6" y="788.35" width="188.19" height="59.93" rx="17.8" ry="17.8" transform="translate(87.46 -46.15) rotate(5.95)" style="fill: #1c2538;"/>
  <g>
    <path d="m468.08,832.67c-.21-1-.44-2.02-.69-3.08s-.5-2.11-.75-3.15l-10.86-1.13c-.46.98-.91,1.96-1.37,2.94-.46.98-.89,1.94-1.29,2.87l-6.5-.68c1.36-2.88,2.64-5.55,3.84-7.99,1.2-2.44,2.37-4.74,3.5-6.89,1.13-2.15,2.24-4.19,3.32-6.12,1.08-1.93,2.19-3.81,3.33-5.63l5.93.62c.71,2.02,1.41,4.09,2.08,6.2.68,2.11,1.35,4.34,2.01,6.68.67,2.34,1.34,4.83,2.01,7.47s1.38,5.51,2.12,8.61l-6.7-.7Zm-5.28-22.29c-.18.39-.44.92-.79,1.58-.34.67-.73,1.44-1.17,2.31-.44.88-.93,1.84-1.47,2.89s-1.09,2.15-1.65,3.31l7.95.83c-.3-1.25-.59-2.44-.88-3.58-.28-1.14-.56-2.19-.82-3.13-.26-.95-.5-1.78-.69-2.51-.2-.72-.36-1.29-.49-1.7Z" style="fill: #a3ea2a;"/>
    <path d="m489.97,835.52c-4.52-.47-7.83-2.09-9.94-4.85-2.1-2.76-2.92-6.45-2.43-11.08.24-2.3.81-4.31,1.72-6.04.91-1.73,2.06-3.15,3.45-4.26,1.39-1.11,2.98-1.9,4.79-2.36,1.8-.46,3.72-.58,5.76-.37,1.18.12,2.24.32,3.18.6.94.27,1.77.56,2.46.86.7.3,1.28.6,1.73.89.46.29.78.51.98.67l-2.33,4.87c-.81-.54-1.76-1.04-2.87-1.47-1.1-.44-2.38-.73-3.82-.88-.96-.1-1.92-.04-2.88.19-.96.22-1.83.65-2.61,1.29-.78.64-1.45,1.49-1.99,2.57-.55,1.08-.9,2.42-1.07,4.02-.13,1.28-.12,2.5.05,3.63.17,1.14.52,2.14,1.07,3.01.54.87,1.3,1.59,2.27,2.16.97.57,2.17.94,3.62,1.09.91.09,1.73.13,2.46.09.73-.03,1.39-.09,1.97-.18.58-.09,1.09-.2,1.54-.35.45-.14.85-.28,1.22-.4l1.2,5.19c-.94.44-2.23.79-3.88,1.05-1.65.26-3.53.28-5.64.06Z" style="fill: #a3ea2a;"/>
    <path d="m519.73,838.06c-.47-.96-1.03-2.01-1.69-3.14-.66-1.13-1.37-2.28-2.14-3.44-.77-1.16-1.59-2.28-2.45-3.36-.86-1.08-1.74-2.04-2.62-2.9l-1.23,11.77-6.26-.65,2.9-27.8,6.26.65-1.09,10.45c1.79-1.52,3.6-3.12,5.46-4.79,1.85-1.67,3.56-3.23,5.14-4.67l7.43.77c-2.13,2.06-4.26,4.02-6.39,5.9-2.13,1.88-4.36,3.76-6.7,5.65,2.03,2.09,3.95,4.51,5.75,7.27,1.8,2.76,3.49,5.78,5.08,9.04l-7.44-.78Z" style="fill: #a3ea2a;"/>
  </g>
  <rect x="19.46" y="219.1" width="188.19" height="59.93" rx="17.8" ry="17.8" style="fill: #1c2538;"/>
  <g>
    <path d="m87.44,261.68c-.31-.97-.65-1.97-1-2.99-.36-1.02-.71-2.04-1.07-3.06h-10.92c-.35,1.02-.71,2.04-1.06,3.07-.35,1.03-.68,2.02-.99,2.98h-6.53c1.05-3.01,2.05-5.79,2.99-8.35s1.87-4.96,2.77-7.22c.9-2.26,1.79-4.4,2.67-6.43s1.79-4.01,2.73-5.95h5.96c.92,1.94,1.82,3.92,2.72,5.95.89,2.03,1.79,4.17,2.69,6.43.91,2.26,1.83,4.67,2.78,7.22s1.95,5.34,3,8.35h-6.74Zm-7.56-21.62c-.14.41-.35.96-.62,1.66-.27.7-.58,1.51-.92,2.42-.35.92-.73,1.92-1.16,3.03-.43,1.1-.86,2.25-1.3,3.46h7.99c-.43-1.21-.84-2.37-1.24-3.47-.4-1.1-.78-2.12-1.14-3.03-.36-.92-.68-1.72-.95-2.42-.27-.7-.49-1.24-.66-1.64Z" style="fill: #a3ea2a;"/>
    <path d="m105.84,262.08c-1.75-.03-3.17-.22-4.26-.56-1.09-.35-1.95-.84-2.58-1.47-.63-.63-1.06-1.4-1.29-2.3-.23-.9-.34-1.92-.34-3.04v-23.35l6.01-.97v23.11c0,.54.04,1.02.12,1.45.08.43.24.79.46,1.09s.56.54.99.73c.43.19,1.01.31,1.73.36l-.85,4.96Z" style="fill: #a3ea2a;"/>
    <path d="m116.69,234.33c0,1.1-.36,1.97-1.07,2.6-.71.63-1.55.95-2.52.95s-1.81-.32-2.52-.95c-.71-.63-1.07-1.5-1.07-2.6s.36-1.97,1.07-2.6c.71-.63,1.55-.95,2.52-.95s1.81.32,2.52.95c.71.63,1.07,1.5,1.07,2.6Zm-.57,27.35h-6.01v-21.22h6.01v21.22Z" style="fill: #a3ea2a;"/>
    <path d="m120.76,251.07c0-1.53.25-2.98.75-4.34.5-1.36,1.22-2.54,2.16-3.55.94-1.01,2.08-1.81,3.43-2.4,1.34-.59,2.88-.89,4.6-.89,1.13,0,2.16.1,3.11.3.94.2,1.86.49,2.74.87l-1.25,4.8c-.56-.21-1.18-.4-1.85-.56-.67-.16-1.43-.24-2.26-.24-1.78,0-3.1.55-3.97,1.65s-1.31,2.55-1.31,4.36c0,1.91.41,3.39,1.23,4.44.82,1.05,2.25,1.57,4.3,1.57.73,0,1.5-.07,2.34-.2.83-.13,1.6-.35,2.3-.65l.85,4.92c-.7.3-1.57.55-2.62.77-1.05.21-2.21.32-3.47.32-1.94,0-3.6-.29-5-.87-1.4-.58-2.55-1.36-3.45-2.36-.9-.99-1.56-2.17-1.98-3.53-.42-1.36-.63-2.83-.63-4.42Z" style="fill: #a3ea2a;"/>
    <path d="m139.92,251.23c0-1.88.29-3.53.87-4.94.58-1.41,1.34-2.59,2.28-3.53.94-.94,2.02-1.65,3.25-2.14,1.22-.48,2.48-.73,3.77-.73,3.01,0,5.39.92,7.14,2.76,1.75,1.84,2.62,4.55,2.62,8.13,0,.35-.01.73-.04,1.15-.03.42-.05.79-.08,1.11h-13.63c.13,1.24.71,2.22,1.73,2.94,1.02.73,2.39,1.09,4.11,1.09,1.1,0,2.18-.1,3.25-.3,1.06-.2,1.93-.45,2.6-.75l.81,4.88c-.32.16-.75.32-1.29.48-.54.16-1.14.3-1.79.42-.66.12-1.37.22-2.12.3-.75.08-1.51.12-2.26.12-1.91,0-3.57-.28-4.98-.85s-2.58-1.34-3.51-2.32-1.61-2.14-2.06-3.49c-.44-1.34-.67-2.8-.67-4.36Zm14.12-2.3c-.03-.51-.11-1.01-.26-1.49-.15-.48-.38-.91-.69-1.29-.31-.38-.7-.69-1.17-.93s-1.06-.36-1.75-.36-1.25.12-1.73.34c-.48.23-.89.53-1.21.91-.32.38-.57.81-.75,1.31-.17.5-.3,1-.38,1.51h7.95Z" style="fill: #a3ea2a;"/>
  </g>
  <rect x="775.32" y="219.1" width="188.19" height="59.93" rx="17.8" ry="17.8" style="fill: #1c2538;"/>
  <g>
    <path d="m843.99,262.04c-1.53,0-3.06-.05-4.58-.14-1.52-.09-3.1-.32-4.74-.67v-27.1c1.29-.24,2.7-.42,4.24-.54,1.53-.12,2.96-.18,4.28-.18,1.77,0,3.41.13,4.9.38s2.78.69,3.85,1.31c1.08.62,1.92,1.43,2.52,2.44.61,1.01.91,2.25.91,3.73,0,2.23-1.08,3.99-3.23,5.28,1.77.67,2.98,1.59,3.63,2.74.65,1.16.97,2.46.97,3.91,0,2.93-1.07,5.14-3.21,6.61-2.14,1.48-5.32,2.22-9.54,2.22Zm-3.19-17.34h3.07c1.94,0,3.32-.25,4.15-.75.83-.5,1.25-1.3,1.25-2.4s-.43-1.92-1.29-2.38-2.12-.69-3.79-.69c-.54,0-1.12,0-1.73.02-.62.01-1.17.05-1.65.1v6.09Zm0,4.8v7.22c.46.05.95.09,1.49.12.54.03,1.13.04,1.77.04,1.88,0,3.4-.27,4.56-.81,1.16-.54,1.73-1.53,1.73-2.98,0-1.29-.48-2.21-1.45-2.76-.97-.55-2.35-.83-4.15-.83h-3.95Z" style="fill: #a3ea2a;"/>
    <path d="m881.21,251.03c0,1.67-.24,3.19-.73,4.58-.48,1.39-1.18,2.57-2.1,3.55-.92.98-2.01,1.74-3.29,2.28-1.28.54-2.71.81-4.3.81s-2.98-.27-4.25-.81c-1.28-.54-2.37-1.3-3.29-2.28-.92-.98-1.63-2.16-2.14-3.55-.51-1.38-.77-2.91-.77-4.58s.26-3.19.79-4.56c.52-1.37,1.25-2.54,2.18-3.51.93-.97,2.03-1.72,3.31-2.26,1.28-.54,2.67-.81,4.17-.81s2.94.27,4.21.81c1.28.54,2.37,1.29,3.29,2.26.91.97,1.63,2.14,2.14,3.51.51,1.37.77,2.89.77,4.56Zm-6.13,0c0-1.86-.37-3.31-1.11-4.38-.74-1.06-1.79-1.59-3.17-1.59s-2.43.53-3.19,1.59c-.75,1.06-1.13,2.52-1.13,4.38s.38,3.33,1.13,4.42,1.82,1.63,3.19,1.63,2.43-.54,3.17-1.63c.74-1.09,1.11-2.56,1.11-4.42Z" style="fill: #a3ea2a;"/>
    <path d="m905.58,251.07c0,1.69-.25,3.23-.75,4.6-.5,1.37-1.22,2.54-2.16,3.51-.94.97-2.1,1.71-3.47,2.24-1.37.52-2.93.79-4.68.79-.73,0-1.49-.03-2.28-.1-.79-.07-1.57-.16-2.34-.26s-1.5-.24-2.2-.38-1.32-.3-1.86-.46v-29.65l6.01-.97v10.57c.67-.3,1.37-.52,2.1-.69s1.51-.24,2.34-.24c1.5,0,2.84.26,3.99.79s2.12,1.27,2.9,2.24c.78.97,1.37,2.13,1.77,3.49.4,1.36.61,2.87.61,4.54Zm-6.13-.16c0-3.87-1.43-5.81-4.28-5.81-.62,0-1.23.08-1.83.24-.61.16-1.1.36-1.47.6v10.93c.3.05.67.1,1.13.14.46.04.95.06,1.49.06,1.64,0,2.88-.57,3.71-1.69.83-1.13,1.25-2.62,1.25-4.48Z" style="fill: #a3ea2a;"/>
  </g>
  <rect x="95.23" y="312.92" width="9" height="607.56" style="fill: #a3ea2a;"/>
  <rect x="870.45" y="312.92" width="9" height="607.56" style="fill: #a3ea2a;"/>
  <g id="Female_user_1" data-name="Female user #1">
    <g>
      <path d="m109.05,25.28c5.43-1.73,17.83-9.96,28.9-8.84,11.07,1.13,30.01,6.75,32.63,20.63,2.63,13.88,16.21,14.8,14.83,24.92s-4.47,29.39,2.55,42.49c5.41,10.1-10.71,22.16-3.26,32.88,0,0-11.5,5.11-15.25,1.36-3.75-3.75-9.56,5.25-14.82,3.38s-11.71-4.38-13.26-2.85l-12.92.74-12.37-1.37s-12.96-5-13.46-2.18c0,0-10.25,1.73-13.44.04s-8.63-3.75-13.5-3.19c-4.88.56-10.31.19-9.75-4.13s-5.81-3.75-6.94-7.88,6.56-13.13,5.44-15.19-5.21-12.41-4.31-16.69c.94-4.5,9-8.06,8.63-12.75s-1.5-17.6.38-21.57,7.5-3,9-7.31.69-13.73,5.25-18.38c9.56-9.75,21.74-2.85,25.68-4.1Z" style="fill: url(#radial-gradient);"/>
      <path d="m79.44,151.39c10.09-3.36,18.12-1.87,21.11-6.91,1.32-2.24,3.58-9.31,4.38-16.6,1.02-9.16.42-18.61.42-18.61l35.17,20.63s.56,13.66,2.8,15.71,16.44,2.61,20.36,4.3-7.28,31.01-7.28,31.01l-54.54,10.83-25.22-24.09,2.8-16.25Z" style="fill: url(#linear-gradient);"/>
      <path d="m79.44,151.39c-8.08,1.36-24.92,3.09-32.04,9.56-7.12,6.48-18.13,47.28-18.13,47.28h184.35s-7.77-34.54-15.54-44.04c-7.77-9.5-27.21-12.79-34.4-14.3,0,0,.51,32.43-40.94,32.43s-43.3-30.94-43.3-30.94Z" style="fill: url(#radial-gradient-2);"/>
      <path d="m65.87,173.31c1.13,12.66,6.1,23.69,6.78,33.66,0,0,2.71-16.7,0-23.26-2.71-6.56-6.78-10.4-6.78-10.4Z" style="fill: #1c2538;"/>
      <path d="m90.13,182.74c14.02,8.53,50.41,13.08,71.21,2.21,0,0-7.05,8.82-37.1,8.82-24.62,0-34.12-11.03-34.12-11.03Z" style="fill: url(#linear-gradient-2); opacity: .6;"/>
      <path d="m141.32,206.97c-37.75-2.78-53.75-18.19-53.75-18.19,0,0,16.6,6.14,35.82,7.02s34.95.92,34.95.92c0,0-12.21,7.35-43.18,4.12,0,0,11.02,4.38,26.17,6.14" style="fill: #1c2538;"/>
      <path d="m173.71,205.15c-1.36-25.55,7.23-33.8,7.23-33.8,0,0-4.3,11.52-4.75,18.65s-2.49,15.15-2.49,15.15Z" style="fill: #1c2538;"/>
      <path d="m105.47,119.62c9.21,5.79,30.75,12.51,38.41,12.51s11.95-5.04,17.18-14.76,5.79-19.61,4.67-27.08,1.49-10.09,2.43-14.57,0-14.76,0-14.76c0,0-8.97-.19-11.77-4.86-2.8-4.67-11.59-5.42-18.5-5.23-6.91.19-17.32-11.39-17.32-11.39,0,0-8.07,4.48-8.07,10.83s3.18,12.33-.56,18.86-9.9,7.84-9.9,12.89c0,0-2.61-11.02-8.22-9.71s-3.44,12.78-.49,17.95c1.21,2.12,1.51,5.15,2.46,6.84,1.66,2.96,6.32,1.45,6.24-.32,0,0-.15,6.24,1.56,11.39,1.81,5.47,1.92,9.32,1.87,11.4Z" style="fill: url(#radial-gradient-3);"/>
      <g style="fill: none; opacity: .5;">
        <path d="m52.65,166.03c3.99-1.5,9.91-.11,10.34,0-.21-.06-1.55-.57-1.79-4.39-.23-3.68,9.17-4.51,19.47-4.83-.96-3.2-1.09-5.37-1.09-5.37-8.08,1.36-24.92,3.09-32.04,9.56-1.22,1.11-2.55,3.22-3.93,5.97.71,5.46-.98,7.81-1.22,8.11.44-.54,6.27-7.54,10.25-9.04Z" style="fill: url(#linear-gradient-3);"/>
      </g>
      <path d="m161.35,161.28c9.23-2.05,15.19-2.29,24,2.49s7.26,9.51,7.26,9.51c0,0,8.63-.65,12.35,4.44,0,0,0,0,0,0-2.11-5.69-4.42-10.73-6.73-13.56-7.77-9.5-27.21-12.79-34.4-14.3,0,0,.08,5.19-2.47,11.41h0Z" style="fill: url(#linear-gradient-4); opacity: .5;"/>
    </g>
  </g>
  <g id="Male_user_1" data-name="Male user #1">
    <g>
      <path d="m840.99,139.2c-17.22,9.54-31.69,4.19-48.84,22.41-17.15,18.22-18.76,46.62-18.76,46.62h189.71s-1.61-33.76-13.4-49.3-28.22-4.39-46.33-19.73-62.39,0-62.39,0Z" style="fill: url(#radial-gradient-4);"/>
      <path d="m903.37,139.2c-1.16-.98-2.43-1.84-3.79-2.59l1.57,13.22c7.88,5.41,30.33,1.38,37.92,7.98,7.59,6.6,7.59,27.15,7.59,27.15,0,0,11.38-8.63,9.49,9.28-1.03,9.73-5.32,13.01-9.03,13.98h15.99s-1.61-33.76-13.4-49.3c-11.79-15.54-28.22-4.39-46.33-19.73Z" style="fill: url(#linear-gradient-5); opacity: .5;"/>
      <path d="m789.82,172.68c4.43-9.65,40.47-9.95,59.73-21.18l-4.29-6.73-4.47-5.57c-17.14,9.4-31.56,4.15-48.65,22.3-3.17,3.37-5.81,7.09-8.01,10.91l-7.28,17.38s0,0,0,0c0,0,8.54-7.47,12.96-17.11Z" style="fill: url(#linear-gradient-6); opacity: .5;"/>
      <path d="m840.99,139.2c1.99,23.46,18.76,32.42,18.76,32.42,0,0,.3-6.31,8.5-6.57,8.2-.26,10.78,9.76,10.78,9.76l-3.78-25.9-34.26-9.71Z" style="fill: #1c2538;"/>
      <path d="m880.83,170.31s1.99-10.42,9.36-9.23c7.37,1.19,8.57,3.38,8.57,3.38l2.39-14.61-19.33-1.13-1,21.6Z" style="fill: #1c2538;"/>
      <path d="m856.49,123.65c-7.86,2.51-10.38,10.41-14.33,11.66-3.95,1.26,1.44,10.59,4.85,16.7,3.41,6.1,11.67,16.52,11.67,16.52,0,0,7.67-19.65,16.49-7.31l9.54-3.46s11.42-10.23,12.71,11.67c0,0,5.42-7.54,6.68-14.9s-1.26-17.89-1.26-17.89l-46.36-12.98Z" style="fill: url(#radial-gradient-5);"/>
      <path d="m859.07,102.84c.13,11.07-2.67,28.61-9.52,33.8,0,0,14.47,12.04,20.81,16.87,6.35,4.82,9.65,26.65,9.65,26.65,0,0,4.85-19.54,4.71-25.13-.14-5.58,5.95-.25,11.03-8.12s-2.96-17.01-2.96-17.01l-33.72-27.06Z" style="fill: url(#linear-gradient-7);"/>
      <path d="m923.55,52.08c.77,6.63,2.55,10.98,1.58,18.4s-1.45,19.7-.47,26.22c.98,6.52-3.73,17.34-3.73,17.34l-46.15-.97-17.43-19.2-12.1-18.39,17.59-46.15,62.56,9.2-1.86,13.54Z" style="fill: url(#radial-gradient-6);"/>
      <path d="m923.46,52.94s1.56-10.13-4.67-10.52c-6.23-.39-13.24,9.35-22.46,7.01s-27.78-9.35-32.45-4.67,6.49,5.97,6.62,13.76c.13,7.79-2.86,10.65-2.21,15.84.65,5.19-.39,8.83-2.86,8.18-2.47-.65-1.17-11.68-5.06-15.71s-11.55-.26-8.05,7.4,3.51,8.05,3.89,11.16,2.73,5.84,5.97,2.86c0,0-1.95,13.5-1.95,16.1,0,0-13.63-17.66-17.27-24.54-3.63-6.88-4.02-16.36-4.15-23.24-.13-6.88,1.3-9.61,5.06-12.85,3.76-3.25,3.63-14.02,11.16-19.73,7.53-5.71,13.11-6.36,21.68-7.53s11.7-6.06,16.1-5.97,8.89,2.57,14.2,1.37,8.28,1.37,9.07,3.66c1.1,3.21,5.77,2.66,7.79,4.95,1.63,1.85-.37,6.23,1.74,9.71s5.09,4.49,5.02,10.81c-.1,9.02-7.18,11.94-7.18,11.94Z" style="fill: url(#radial-gradient-7);"/>
      <path d="m859.75,103.72s7.41,14.42,14.23,21.64,14.43,10.72,22.42,10.72,17.54,2.14,21.44-1.95,7.99-20.27,7.99-26.51-1.17-10.92-1.17-10.92c0,0-.97,9.16-3.7,8.58s-1.32-3.66-12.61-3.5c-11.29.16-12.1,6.29-18.39,6.13-6.29-.16-21.69-28.25-21.69-28.25h-4.28l-4.24,24.05Z" style="fill: url(#linear-gradient-8);"/>
      <path d="m817.42,182.17c1.1,12.34,5.95,16.34,6.61,26.06,0,0,2.64-9.54,0-15.93-2.64-6.39-6.61-10.14-6.61-10.14Z" style="fill: #223654;"/>
      <path d="m915.32,208.23c-1.32-24.9,7.05-27.97,7.05-27.97,0,0-4.19,7.41-4.63,14.36s-2.42,13.61-2.42,13.61Z" style="fill: #223654;"/>
    </g>
  </g>
  <g id="arrow_styles_for_diagrams_etc" data-name="arrow styles for diagrams etc">
    <g id="arrow_styles_for_diagrams_etc-2" data-name="arrow styles for diagrams etc">
      <g id="arrow_styles_for_diagrams_etc-3" data-name="arrow styles for diagrams etc">
        <path d="m814.75,454.5l-71.44,31.34c-2.11.92-4.43-.78-4.18-3.07l2.17-19.94-585.7-63.78c-5.96-.65-10.26-6-9.61-11.96l1.72-15.83c.65-5.94,5.99-10.23,11.93-9.59l585.73,63.78,2.17-19.94c.25-2.3,2.89-3.45,4.75-2.1l63.02,45.98c1.86,1.35,1.55,4.2-.56,5.12Z" style="fill: url(#linear-gradient-9);"/>
      </g>
    </g>
  </g>
  <g id="arrow_styles_for_diagrams_etc-4" data-name="arrow styles for diagrams etc">
    <g id="arrow_styles_for_diagrams_etc-5" data-name="arrow styles for diagrams etc">
      <g id="arrow_styles_for_diagrams_etc-6" data-name="arrow styles for diagrams etc">
        <path d="m820.61,910.15l-71.3,31.67c-2.1.93-4.44-.76-4.2-3.05l2.08-19.95-585.99-61.08c-5.96-.62-10.29-5.96-9.67-11.92l1.65-15.84c.62-5.94,5.94-10.26,11.89-9.64l586.02,61.08,2.08-19.95c.24-2.3,2.87-3.46,4.74-2.12l63.23,45.69c1.87,1.34,1.57,4.19-.53,5.12Z" style="fill: url(#linear-gradient-10);"/>
      </g>
    </g>
  </g>
  <g id="arrow_styles_for_diagrams_etc-7" data-name="arrow styles for diagrams etc">
    <g id="arrow_styles_for_diagrams_etc-8" data-name="arrow styles for diagrams etc">
      <g id="arrow_styles_for_diagrams_etc-9" data-name="arrow styles for diagrams etc">
        <path d="m164.71,611.75l64.43-43.99c1.9-1.29,4.5-.05,4.68,2.25l1.55,20,587.41-45.43c5.98-.46,11.19,4.01,11.66,9.98l1.23,15.88c.46,5.96-4,11.16-9.96,11.62l-587.44,45.43,1.55,20c.18,2.3-2.2,3.92-4.28,2.94l-70.43-33.56c-2.08-.98-2.3-3.84-.4-5.13Z" style="fill: url(#linear-gradient-11);"/>
      </g>
    </g>
  </g>
  <g id="arrow_styles_for_diagrams_etc-10" data-name="arrow styles for diagrams etc">
    <g id="arrow_styles_for_diagrams_etc-11" data-name="arrow styles for diagrams etc">
      <g id="arrow_styles_for_diagrams_etc-12" data-name="arrow styles for diagrams etc">
        <path d="m178.89,727.2l64.43-43.99c1.9-1.29,4.5-.05,4.68,2.25l1.55,20,587.41-45.43c5.98-.46,11.19,4.01,11.66,9.98l1.23,15.88c.46,5.96-4,11.16-9.96,11.62l-587.44,45.43,1.55,20c.18,2.3-2.2,3.92-4.28,2.94l-70.43-33.56c-2.08-.98-2.3-3.84-.4-5.13Z" style="fill: url(#linear-gradient-12);"/>
      </g>
    </g>
  </g>
</svg>