<?xml version="1.0" encoding="UTF-8"?>
<svg id="Layer_2" data-name="Layer 2" xmlns="http://www.w3.org/2000/svg" width="981.27" height="949.04" xmlns:xlink="http://www.w3.org/1999/xlink" viewBox="0 0 981.27 949.04">
  <defs>
    <radialGradient id="radial-gradient" cx="117.38" cy="79.34" fx="117.38" fy="79.34" r="64.07" gradientUnits="userSpaceOnUse">
      <stop offset="0" stop-color="#1c2538"/>
      <stop offset=".24" stop-color="#1f2437"/>
      <stop offset=".44" stop-color="#292235"/>
      <stop offset=".62" stop-color="#3a1e31"/>
      <stop offset=".79" stop-color="#52192b"/>
      <stop offset=".96" stop-color="#701325"/>
      <stop offset="1" stop-color="#7a1123"/>
    </radialGradient>
    <linearGradient id="linear-gradient" x1="112.93" y1="179.74" x2="117.22" y2="98.18" gradientUnits="userSpaceOnUse">
      <stop offset="0" stop-color="#995e28"/>
      <stop offset=".14" stop-color="#8b511e"/>
      <stop offset=".35" stop-color="#7c4314"/>
      <stop offset=".53" stop-color="#773f11"/>
      <stop offset=".64" stop-color="#5e310c"/>
    </linearGradient>
    <radialGradient id="radial-gradient-2" cx="114.83" cy="179.06" fx="114.83" fy="179.06" r="68.36" gradientUnits="userSpaceOnUse">
      <stop offset="0" stop-color="#223654"/>
      <stop offset=".41" stop-color="#213450"/>
      <stop offset=".73" stop-color="#1f2d46"/>
      <stop offset="1" stop-color="#1c2538"/>
    </radialGradient>
    <linearGradient id="linear-gradient-2" x1="119" y1="185.04" x2="117.36" y2="199.93" gradientUnits="userSpaceOnUse">
      <stop offset="0" stop-color="#223654"/>
      <stop offset=".76" stop-color="#2a59be"/>
    </linearGradient>
    <radialGradient id="radial-gradient-3" cx="139.13" cy="92.36" fx="139.13" fy="92.36" r="42.85" gradientUnits="userSpaceOnUse">
      <stop offset="0" stop-color="#995e28"/>
      <stop offset=".37" stop-color="#955b25"/>
      <stop offset=".68" stop-color="#8b511f"/>
      <stop offset=".95" stop-color="#7a4213"/>
      <stop offset="1" stop-color="#773f11"/>
    </radialGradient>
    <linearGradient id="linear-gradient-3" x1="55.72" y1="170.96" x2="52.25" y2="149.03" gradientUnits="userSpaceOnUse">
      <stop offset="0" stop-color="#1c2538"/>
      <stop offset=".76" stop-color="#2a59be"/>
    </linearGradient>
    <linearGradient id="linear-gradient-4" x1="176.54" y1="175.58" x2="176.54" y2="143.78" xlink:href="#linear-gradient-3"/>
    <radialGradient id="radial-gradient-4" cx="866.78" cy="180.29" fx="866.78" fy="180.29" r="72.24" gradientUnits="userSpaceOnUse">
      <stop offset="0" stop-color="#223654"/>
      <stop offset=".37" stop-color="#20324e"/>
      <stop offset=".82" stop-color="#1d293f"/>
      <stop offset=".98" stop-color="#1c2538"/>
    </radialGradient>
    <linearGradient id="linear-gradient-5" x1="920.59" y1="176.69" x2="953.5" y2="142.79" xlink:href="#linear-gradient-3"/>
    <linearGradient id="linear-gradient-6" x1="808.22" y1="175.92" x2="796.37" y2="137.42" gradientUnits="userSpaceOnUse">
      <stop offset=".02" stop-color="#1c2538"/>
      <stop offset=".76" stop-color="#2a59be"/>
    </linearGradient>
    <radialGradient id="radial-gradient-5" cx="866.01" cy="146.54" fx="866.01" fy="146.54" r="27.73" gradientUnits="userSpaceOnUse">
      <stop offset="0" stop-color="#2a59be"/>
      <stop offset=".16" stop-color="#2957b8"/>
      <stop offset=".37" stop-color="#2852a9"/>
      <stop offset=".6" stop-color="#26498f"/>
      <stop offset=".84" stop-color="#233d6b"/>
      <stop offset=".98" stop-color="#223654"/>
    </radialGradient>
    <linearGradient id="linear-gradient-7" x1="884.72" y1="174.76" x2="850.81" y2="103.62" gradientUnits="userSpaceOnUse">
      <stop offset="0" stop-color="#edc2a2"/>
      <stop offset=".98" stop-color="#ce9874"/>
    </linearGradient>
    <radialGradient id="radial-gradient-6" cx="902.12" cy="80.32" fx="902.12" fy="80.32" r="41.23" gradientUnits="userSpaceOnUse">
      <stop offset="0" stop-color="#edc2a2"/>
      <stop offset=".98" stop-color="#ce9874"/>
    </radialGradient>
    <radialGradient id="radial-gradient-7" cx="878.11" cy="57.42" fx="878.11" fy="57.42" r="69.35" gradientUnits="userSpaceOnUse">
      <stop offset="0" stop-color="#7a1123"/>
      <stop offset=".18" stop-color="#741224"/>
      <stop offset=".4" stop-color="#651527"/>
      <stop offset=".64" stop-color="#4b1a2d"/>
      <stop offset=".91" stop-color="#272235"/>
      <stop offset=".98" stop-color="#1c2538"/>
    </radialGradient>
    <linearGradient id="linear-gradient-8" x1="914.13" y1="160.08" x2="886.81" y2="102.76" gradientUnits="userSpaceOnUse">
      <stop offset="0" stop-color="#dead0a"/>
      <stop offset="1" stop-color="#7a1123"/>
    </linearGradient>
    <linearGradient id="linear-gradient-9" x1="-355.17" y1="427.85" x2="681.27" y2="427.85" gradientTransform="translate(161.19 -80.75) rotate(6.21)" gradientUnits="userSpaceOnUse">
      <stop offset=".34" stop-color="#223654"/>
      <stop offset=".4" stop-color="#38554c"/>
      <stop offset=".5" stop-color="#5e8940"/>
      <stop offset=".6" stop-color="#7bb336"/>
      <stop offset=".68" stop-color="#91d12f"/>
      <stop offset=".76" stop-color="#9ee32b"/>
      <stop offset=".81" stop-color="#a3ea2a"/>
    </linearGradient>
    <linearGradient id="linear-gradient-10" x1="-291.66" y1="880.32" x2="744.78" y2="880.32" gradientTransform="translate(185.79 -89.51) rotate(7.74)" xlink:href="#linear-gradient-9"/>
    <linearGradient id="linear-gradient-11" x1="-345.01" y1="545.4" x2="691.43" y2="545.4" gradientTransform="translate(910.36 1133.11) rotate(175.58)" xlink:href="#linear-gradient-9"/>
  </defs>
  <rect x="20.74" y="219.1" width="188.19" height="59.93" rx="17.8" ry="17.8" style="fill: #1c2538;"/>
  <g>
    <path d="m88.72,261.68c-.31-.97-.65-1.97-1-2.99s-.71-2.04-1.07-3.06h-10.92c-.35,1.02-.71,2.04-1.06,3.07-.35,1.03-.69,2.02-.99,2.98h-6.53c1.05-3.01,2.05-5.79,2.99-8.35.94-2.55,1.87-4.96,2.77-7.22.9-2.26,1.79-4.4,2.67-6.43.88-2.03,1.79-4.01,2.73-5.95h5.96c.92,1.94,1.82,3.92,2.72,5.95.89,2.03,1.79,4.17,2.69,6.43.91,2.26,1.83,4.67,2.78,7.22s1.94,5.34,3,8.35h-6.74Zm-7.56-21.62c-.14.41-.35.96-.62,1.66-.27.7-.58,1.51-.92,2.42-.35.92-.73,1.92-1.16,3.03-.43,1.1-.86,2.25-1.3,3.46h7.99c-.43-1.21-.84-2.37-1.24-3.47-.4-1.1-.78-2.12-1.14-3.03-.36-.92-.68-1.72-.95-2.42-.27-.7-.49-1.24-.66-1.64Z" style="fill: #a3ea2a;"/>
    <path d="m107.11,262.08c-1.75-.03-3.17-.22-4.26-.56-1.09-.35-1.95-.84-2.58-1.47-.63-.63-1.06-1.4-1.29-2.3-.23-.9-.34-1.92-.34-3.04v-23.35l6.01-.97v23.11c0,.54.04,1.02.12,1.45.08.43.23.79.46,1.09.23.3.56.54.99.73.43.19,1.01.31,1.73.36l-.85,4.96Z" style="fill: #a3ea2a;"/>
    <path d="m117.96,234.33c0,1.1-.36,1.97-1.07,2.6-.71.63-1.55.95-2.52.95s-1.81-.32-2.52-.95c-.71-.63-1.07-1.5-1.07-2.6s.36-1.97,1.07-2.6c.71-.63,1.55-.95,2.52-.95s1.81.32,2.52.95c.71.63,1.07,1.5,1.07,2.6Zm-.56,27.35h-6.01v-21.22h6.01v21.22Z" style="fill: #a3ea2a;"/>
    <path d="m122.03,251.07c0-1.53.25-2.98.75-4.34s1.22-2.54,2.16-3.55c.94-1.01,2.08-1.81,3.43-2.4,1.34-.59,2.88-.89,4.6-.89,1.13,0,2.16.1,3.11.3.94.2,1.86.49,2.74.87l-1.25,4.8c-.56-.21-1.18-.4-1.85-.56-.67-.16-1.43-.24-2.26-.24-1.77,0-3.1.55-3.97,1.65-.87,1.1-1.31,2.55-1.31,4.36,0,1.91.41,3.39,1.23,4.44.82,1.05,2.25,1.57,4.3,1.57.73,0,1.51-.07,2.34-.2.83-.13,1.6-.35,2.3-.65l.85,4.92c-.7.3-1.57.55-2.62.77-1.05.21-2.21.32-3.47.32-1.94,0-3.6-.29-5-.87-1.4-.58-2.55-1.36-3.45-2.36-.9-.99-1.56-2.17-1.98-3.53-.42-1.36-.63-2.83-.63-4.42Z" style="fill: #a3ea2a;"/>
    <path d="m141.19,251.23c0-1.88.29-3.53.87-4.94.58-1.41,1.34-2.59,2.28-3.53.94-.94,2.02-1.65,3.25-2.14,1.22-.48,2.48-.73,3.77-.73,3.01,0,5.39.92,7.14,2.76,1.75,1.84,2.62,4.55,2.62,8.13,0,.35-.01.73-.04,1.15-.03.42-.05.79-.08,1.11h-13.63c.13,1.24.71,2.22,1.73,2.94,1.02.73,2.39,1.09,4.11,1.09,1.1,0,2.18-.1,3.25-.3,1.06-.2,1.93-.45,2.6-.75l.81,4.88c-.32.16-.75.32-1.29.48-.54.16-1.14.3-1.79.42-.66.12-1.36.22-2.12.3-.75.08-1.51.12-2.26.12-1.91,0-3.57-.28-4.98-.85-1.41-.56-2.58-1.34-3.51-2.32s-1.61-2.14-2.06-3.49c-.44-1.34-.67-2.8-.67-4.36Zm14.12-2.3c-.03-.51-.11-1.01-.26-1.49-.15-.48-.38-.91-.69-1.29-.31-.38-.7-.69-1.17-.93-.47-.24-1.06-.36-1.75-.36s-1.25.12-1.73.34c-.48.23-.89.53-1.21.91-.32.38-.57.81-.75,1.31-.18.5-.3,1-.38,1.51h7.95Z" style="fill: #a3ea2a;"/>
  </g>
  <rect x="404.12" y="299.81" width="188.19" height="59.93" rx="17.8" ry="17.8" transform="translate(38.63 -52) rotate(6.21)" style="fill: #1c2538;"/>
  <g>
    <path d="m468.28,334.37c.88.1,1.62.1,2.21.02.59-.08,1.07-.23,1.45-.45.37-.22.65-.49.82-.82.17-.33.28-.71.33-1.14.1-.91-.25-1.71-1.04-2.41-.79-.69-2.19-1.5-4.2-2.42-.87-.42-1.74-.89-2.61-1.4s-1.62-1.12-2.28-1.83c-.65-.71-1.16-1.53-1.52-2.48-.36-.94-.47-2.06-.33-3.34.14-1.28.51-2.41,1.1-3.39.59-.98,1.37-1.78,2.33-2.4.96-.62,2.09-1.06,3.39-1.31,1.3-.25,2.74-.29,4.31-.12,1.87.2,3.47.58,4.79,1.13,1.32.55,2.4,1.11,3.22,1.69l-2.34,4.73c-.73-.49-1.56-.93-2.47-1.34-.92-.41-2.04-.69-3.38-.83-1.5-.16-2.6-.07-3.29.27-.7.34-1.1.94-1.19,1.8-.06.51.02.95.22,1.32.2.37.51.72.92,1.05.41.33.89.64,1.44.93.55.29,1.16.59,1.83.91,1.39.69,2.58,1.36,3.6,1.99,1.01.64,1.83,1.34,2.47,2.12.63.77,1.07,1.65,1.32,2.62.25.97.3,2.13.15,3.46-.28,2.59-1.41,4.51-3.38,5.74-1.97,1.23-4.79,1.65-8.45,1.25-1.23-.13-2.33-.33-3.3-.58-.97-.26-1.83-.53-2.57-.83-.74-.3-1.37-.6-1.89-.9-.52-.3-.96-.58-1.31-.83l2.31-4.78c.78.54,1.76,1.06,2.93,1.56,1.18.49,2.65.84,4.41,1.03Z" style="fill: #a3ea2a;"/>
    <path d="m495.08,325.53c1.33-1.77,2.61-3.55,3.83-5.33,1.22-1.78,2.37-3.59,3.43-5.41l6.9.75c-1.85,2.83-3.74,5.56-5.68,8.19-1.94,2.63-3.97,5.26-6.09,7.9l-1.16,10.62-6.25-.68,1.15-10.54c-1.51-3.03-2.93-6.05-4.27-9.07s-2.6-6.1-3.8-9.26l7.26.79c.65,2.01,1.36,4.02,2.14,6.02.78,2,1.63,4.01,2.55,6.02Z" style="fill: #a3ea2a;"/>
    <path d="m528.26,345.73c-1.44-3.38-3.04-6.73-4.79-10.06-1.75-3.33-3.65-6.5-5.7-9.51l-1.98,18.2-6.17-.67,3.03-27.79,5.09.55c.79.98,1.64,2.17,2.57,3.57.93,1.4,1.87,2.89,2.82,4.47.95,1.58,1.89,3.21,2.81,4.89.93,1.68,1.79,3.3,2.6,4.85l1.79-16.4,6.21.68-3.03,27.79-5.25-.57Z" style="fill: #a3ea2a;"/>
  </g>
  <rect x="416.61" y="759.71" width="188.19" height="59.93" rx="17.8" ry="17.8" transform="translate(110.96 -61.57) rotate(7.74)" style="fill: #1c2538;"/>
  <g>
    <path d="m490.26,799.62c-.18-1-.37-2.04-.59-3.1s-.43-2.12-.65-3.17l-10.82-1.47c-.49.96-.98,1.93-1.46,2.89-.49.97-.95,1.91-1.38,2.82l-6.47-.88c1.45-2.84,2.81-5.46,4.09-7.87,1.28-2.4,2.52-4.67,3.72-6.78,1.2-2.12,2.37-4.12,3.51-6.02s2.31-3.74,3.51-5.53l5.91.8c.65,2.04,1.28,4.13,1.89,6.26s1.21,4.38,1.8,6.74c.59,2.36,1.19,4.87,1.78,7.53.59,2.66,1.21,5.55,1.85,8.68l-6.68-.91Zm-4.58-22.44c-.19.38-.47.9-.83,1.56-.36.66-.78,1.42-1.24,2.28-.47.86-.98,1.81-1.56,2.84-.57,1.03-1.16,2.12-1.75,3.26l7.92,1.08c-.26-1.26-.51-2.46-.76-3.61-.25-1.15-.49-2.2-.72-3.16-.23-.96-.44-1.8-.62-2.53-.18-.73-.32-1.3-.43-1.71Z" style="fill: #a3ea2a;"/>
    <path d="m512.05,803.15c-4.5-.61-7.76-2.33-9.78-5.15-2.02-2.82-2.71-6.54-2.09-11.15.31-2.29.95-4.29,1.91-5.99.96-1.7,2.16-3.08,3.58-4.15,1.42-1.07,3.04-1.8,4.86-2.21,1.82-.4,3.74-.47,5.77-.19,1.17.16,2.23.39,3.16.69.94.3,1.75.62,2.44.94.69.32,1.26.64,1.7.94.45.31.77.54.96.7l-2.48,4.79c-.79-.57-1.73-1.09-2.82-1.56-1.09-.47-2.35-.81-3.79-1-.96-.13-1.92-.1-2.88.1-.96.2-1.84.6-2.65,1.21-.8.61-1.49,1.45-2.07,2.51-.58,1.06-.98,2.39-1.19,3.99-.17,1.28-.2,2.49-.07,3.63.13,1.14.45,2.16.97,3.04.52.88,1.25,1.63,2.2,2.23.95.6,2.14,1,3.58,1.2.91.12,1.73.18,2.46.17.73,0,1.39-.05,1.97-.12.58-.07,1.09-.17,1.55-.3.45-.13.86-.25,1.23-.36l1.04,5.23c-.95.41-2.26.73-3.91.93-1.66.21-3.54.17-5.64-.12Z" style="fill: #a3ea2a;"/>
    <path d="m541.72,806.62c-.44-.98-.97-2.04-1.59-3.19-.62-1.15-1.3-2.32-2.03-3.5-.73-1.18-1.52-2.33-2.35-3.43s-1.67-2.1-2.53-2.98l-1.59,11.73-6.23-.85,3.76-27.7,6.24.85-1.41,10.41c1.83-1.47,3.7-3.01,5.6-4.62,1.9-1.61,3.66-3.11,5.28-4.5l7.4,1c-2.19,1.99-4.38,3.89-6.57,5.7-2.19,1.81-4.48,3.62-6.87,5.44,1.96,2.15,3.8,4.63,5.52,7.45,1.71,2.82,3.31,5.88,4.8,9.2l-7.41-1.01Z" style="fill: #a3ea2a;"/>
  </g>
  <rect x="350.8" y="532.88" width="254.52" height="59.93" rx="20.72" ry="20.72" transform="translate(-41.97 38.53) rotate(-4.42)" style="fill: #1c2538;"/>
  <g>
    <path d="m401.43,576.61c.88-.07,1.61-.2,2.17-.39.57-.19,1.01-.43,1.34-.71.33-.28.55-.6.65-.96.11-.36.14-.75.11-1.18-.07-.91-.56-1.64-1.46-2.17-.91-.54-2.43-1.07-4.57-1.61-.94-.25-1.88-.55-2.82-.89-.94-.35-1.8-.8-2.57-1.38s-1.42-1.29-1.95-2.16c-.53-.86-.84-1.94-.94-3.22-.1-1.29.05-2.46.45-3.54.4-1.07,1.02-2,1.85-2.79.83-.79,1.86-1.43,3.09-1.92,1.23-.49,2.64-.79,4.22-.91,1.88-.14,3.51-.07,4.91.23,1.4.3,2.56.65,3.48,1.07l-1.43,5.09c-.81-.34-1.7-.63-2.68-.87-.98-.23-2.13-.3-3.47-.2-1.5.12-2.56.41-3.19.87-.62.47-.9,1.13-.84,1.99.04.51.19.93.46,1.26s.63.62,1.1.87c.46.25.99.46,1.59.65.59.18,1.25.37,1.96.56,1.49.42,2.79.86,3.9,1.29,1.11.44,2.05.98,2.81,1.62.76.64,1.36,1.42,1.78,2.33.42.91.68,2.04.79,3.38.2,2.6-.55,4.69-2.27,6.26-1.71,1.58-4.4,2.5-8.08,2.79-1.23.09-2.35.11-3.35.04-1-.07-1.9-.18-2.68-.34-.78-.16-1.46-.33-2.02-.53s-1.05-.39-1.44-.58l1.38-5.12c.87.39,1.92.72,3.17.99,1.25.27,2.76.33,4.53.2Z" style="fill: #a3ea2a;"/>
    <path d="m426.14,562.98c.98-1.98,1.91-3.97,2.78-5.94.87-1.98,1.66-3.96,2.38-5.95l6.92-.54c-1.3,3.12-2.65,6.15-4.07,9.09-1.42,2.94-2.93,5.9-4.53,8.89l.82,10.66-6.27.48-.82-10.58c-2.04-2.7-4-5.41-5.87-8.12-1.87-2.72-3.68-5.51-5.44-8.4l7.28-.56c1.01,1.86,2.08,3.7,3.21,5.52,1.14,1.82,2.34,3.64,3.61,5.45Z" style="fill: #a3ea2a;"/>
    <path d="m462.48,576.7c-2.04-3.05-4.23-6.05-6.56-9-2.33-2.95-4.78-5.71-7.36-8.29l1.41,18.26-6.19.48-2.15-27.87,5.11-.39c.95.82,2.02,1.83,3.19,3.03,1.17,1.21,2.37,2.49,3.6,3.87,1.23,1.38,2.45,2.8,3.67,4.29s2.37,2.91,3.45,4.28l-1.27-16.45,6.23-.48,2.15,27.87-5.27.41Z" style="fill: #a3ea2a;"/>
    <path d="m476.29,583.12l-6.15.48,10.51-39.97,6.07-.47-10.42,39.97Z" style="fill: #a3ea2a;"/>
    <path d="m507.44,573.23c-.38-.94-.79-1.91-1.23-2.91-.44-.99-.87-1.98-1.3-2.97l-10.88.84c-.27,1.04-.55,2.09-.82,3.14-.27,1.05-.53,2.07-.76,3.05l-6.51.5c.82-3.08,1.6-5.93,2.34-8.55.74-2.62,1.48-5.09,2.21-7.41.73-2.32,1.45-4.53,2.17-6.62.72-2.09,1.47-4.14,2.26-6.14l5.95-.46c1.06,1.86,2.12,3.77,3.17,5.72s2.11,4.03,3.18,6.21,2.19,4.51,3.32,6.98c1.14,2.47,2.35,5.17,3.63,8.09l-6.72.52Zm-9.2-20.97c-.11.42-.27.98-.49,1.7-.21.72-.46,1.55-.73,2.49-.27.94-.58,1.97-.92,3.1-.34,1.13-.68,2.32-1.03,3.55l7.97-.62c-.52-1.17-1.02-2.3-1.51-3.37-.49-1.07-.94-2.05-1.37-2.93-.43-.88-.81-1.67-1.13-2.34-.33-.67-.59-1.2-.78-1.59Z" style="fill: #a3ea2a;"/>
    <path d="m529.48,572.09c-4.53.35-8.08-.64-10.65-2.98s-4.03-5.82-4.39-10.46c-.18-2.3.02-4.39.61-6.26.58-1.87,1.46-3.47,2.62-4.81,1.16-1.34,2.59-2.41,4.29-3.18,1.69-.78,3.56-1.25,5.6-1.4,1.18-.09,2.26-.09,3.24.01.98.1,1.84.23,2.58.41s1.36.36,1.86.56c.5.2.86.36,1.09.48l-1.42,5.21c-.89-.39-1.92-.7-3.09-.93-1.16-.23-2.47-.29-3.92-.18-.97.08-1.9.31-2.8.7-.9.39-1.68.97-2.33,1.74-.66.77-1.15,1.73-1.5,2.89-.34,1.16-.45,2.54-.33,4.15.1,1.29.33,2.48.7,3.57.37,1.09.9,2.01,1.59,2.77.69.76,1.57,1.33,2.62,1.72,1.06.39,2.31.53,3.75.42.91-.07,1.72-.19,2.44-.35.72-.16,1.35-.34,1.9-.53.55-.19,1.03-.4,1.45-.62.41-.22.79-.43,1.13-.61l2.12,4.89c-.84.6-2.05,1.18-3.63,1.74-1.58.55-3.42.91-5.54,1.08Z" style="fill: #a3ea2a;"/>
    <path d="m559.22,569.22c-.63-.86-1.38-1.79-2.22-2.79-.85-.99-1.76-1.99-2.72-2.99-.97-1-1.97-1.96-3.02-2.86-1.04-.91-2.08-1.7-3.1-2.38l.91,11.8-6.27.49-2.15-27.87,6.27-.49.81,10.47c1.48-1.82,2.98-3.72,4.5-5.7,1.52-1.98,2.92-3.81,4.21-5.51l7.44-.58c-1.72,2.41-3.46,4.73-5.22,6.96-1.76,2.23-3.62,4.49-5.57,6.76,2.37,1.69,4.7,3.73,6.96,6.12,2.27,2.39,4.48,5.05,6.63,7.98l-7.46.58Z" style="fill: #a3ea2a;"/>
  </g>
  <rect x="776.6" y="219.1" width="188.19" height="59.93" rx="17.8" ry="17.8" style="fill: #1c2538;"/>
  <g>
    <path d="m845.26,262.04c-1.53,0-3.06-.05-4.58-.14-1.52-.09-3.1-.32-4.74-.67v-27.1c1.29-.24,2.7-.42,4.24-.54s2.96-.18,4.28-.18c1.77,0,3.41.13,4.9.38s2.78.69,3.85,1.31c1.07.62,1.92,1.43,2.52,2.44.6,1.01.91,2.25.91,3.73,0,2.23-1.08,3.99-3.23,5.28,1.77.67,2.98,1.59,3.63,2.74.65,1.16.97,2.46.97,3.91,0,2.93-1.07,5.14-3.21,6.61-2.14,1.48-5.32,2.22-9.54,2.22Zm-3.19-17.34h3.07c1.94,0,3.32-.25,4.15-.75.83-.5,1.25-1.3,1.25-2.4s-.43-1.92-1.29-2.38c-.86-.46-2.12-.69-3.79-.69-.54,0-1.12,0-1.73.02-.62.01-1.17.05-1.65.1v6.09Zm0,4.8v7.22c.46.05.95.09,1.49.12.54.03,1.13.04,1.77.04,1.88,0,3.4-.27,4.56-.81,1.16-.54,1.73-1.53,1.73-2.98,0-1.29-.48-2.21-1.45-2.76-.97-.55-2.35-.83-4.15-.83h-3.95Z" style="fill: #a3ea2a;"/>
    <path d="m882.49,251.03c0,1.67-.24,3.19-.73,4.58-.48,1.39-1.18,2.57-2.1,3.55-.91.98-2.01,1.74-3.29,2.28-1.28.54-2.71.81-4.3.81s-2.98-.27-4.25-.81c-1.28-.54-2.37-1.3-3.29-2.28-.91-.98-1.63-2.16-2.14-3.55-.51-1.38-.77-2.91-.77-4.58s.26-3.19.79-4.56c.52-1.37,1.25-2.54,2.18-3.51.93-.97,2.03-1.72,3.31-2.26,1.28-.54,2.67-.81,4.17-.81s2.94.27,4.22.81c1.28.54,2.37,1.29,3.29,2.26.91.97,1.63,2.14,2.14,3.51.51,1.37.77,2.89.77,4.56Zm-6.13,0c0-1.86-.37-3.31-1.11-4.38-.74-1.06-1.79-1.59-3.17-1.59s-2.43.53-3.19,1.59c-.75,1.06-1.13,2.52-1.13,4.38s.38,3.33,1.13,4.42c.75,1.09,1.81,1.63,3.19,1.63s2.43-.54,3.17-1.63c.74-1.09,1.11-2.56,1.11-4.42Z" style="fill: #a3ea2a;"/>
    <path d="m906.85,251.07c0,1.69-.25,3.23-.75,4.6s-1.22,2.54-2.16,3.51c-.94.97-2.1,1.71-3.47,2.24-1.37.52-2.93.79-4.68.79-.73,0-1.49-.03-2.28-.1-.79-.07-1.57-.16-2.34-.26-.77-.11-1.5-.24-2.2-.38-.7-.15-1.32-.3-1.86-.46v-29.65l6.01-.97v10.57c.67-.3,1.37-.52,2.1-.69.73-.16,1.51-.24,2.34-.24,1.51,0,2.84.26,3.99.79,1.16.52,2.12,1.27,2.9,2.24.78.97,1.37,2.13,1.77,3.49.4,1.36.6,2.87.6,4.54Zm-6.13-.16c0-3.87-1.43-5.81-4.28-5.81-.62,0-1.23.08-1.84.24s-1.1.36-1.47.6v10.93c.3.05.67.1,1.13.14.46.04.95.06,1.49.06,1.64,0,2.88-.57,3.71-1.69.83-1.13,1.25-2.62,1.25-4.48Z" style="fill: #a3ea2a;"/>
  </g>
  <rect x="96.5" y="312.91" width="9" height="607.56" style="fill: #a3ea2a;"/>
  <rect x="871.72" y="312.91" width="9" height="607.56" style="fill: #a3ea2a;"/>
  <g id="Female_user_1" data-name="Female user #1">
    <g>
      <path d="m102.44,25.28c5.43-1.73,17.83-9.96,28.9-8.84,11.07,1.13,30.01,6.75,32.63,20.63,2.63,13.88,16.21,14.8,14.83,24.92s-4.47,29.39,2.55,42.49c5.41,10.1-10.71,22.16-3.26,32.88,0,0-11.5,5.11-15.25,1.36-3.75-3.75-9.56,5.25-14.82,3.38s-11.71-4.38-13.26-2.85l-12.92.74-12.37-1.37s-12.96-5-13.46-2.18c0,0-10.25,1.73-13.44.04s-8.63-3.75-13.5-3.19c-4.88.56-10.31.19-9.75-4.13s-5.81-3.75-6.94-7.88,6.56-13.13,5.44-15.19-5.21-12.41-4.31-16.69c.94-4.5,9-8.06,8.63-12.75s-1.5-17.6.38-21.57,7.5-3,9-7.31.69-13.73,5.25-18.38c9.56-9.75,21.74-2.85,25.68-4.1Z" style="fill: url(#radial-gradient);"/>
      <path d="m72.83,151.39c10.09-3.36,18.12-1.87,21.11-6.91,1.32-2.24,3.58-9.31,4.38-16.6,1.02-9.16.42-18.61.42-18.61l35.17,20.63s.56,13.66,2.8,15.71,16.44,2.61,20.36,4.3-7.28,31.01-7.28,31.01l-54.54,10.83-25.22-24.09,2.8-16.25Z" style="fill: url(#linear-gradient);"/>
      <path d="m72.83,151.39c-8.08,1.36-24.92,3.09-32.04,9.56-7.12,6.48-18.13,47.28-18.13,47.28h184.35s-7.77-34.54-15.54-44.04c-7.77-9.5-27.21-12.79-34.4-14.3,0,0,.51,32.43-40.94,32.43s-43.3-30.94-43.3-30.94Z" style="fill: url(#radial-gradient-2);"/>
      <path d="m59.26,173.31c1.13,12.66,6.1,23.69,6.78,33.66,0,0,2.71-16.7,0-23.26-2.71-6.56-6.78-10.4-6.78-10.4Z" style="fill: #1c2538;"/>
      <path d="m83.52,182.74c14.02,8.53,50.41,13.08,71.21,2.21,0,0-7.05,8.82-37.1,8.82-24.62,0-34.12-11.03-34.12-11.03Z" style="fill: url(#linear-gradient-2); opacity: .6;"/>
      <path d="m134.71,206.97c-37.75-2.78-53.75-18.19-53.75-18.19,0,0,16.6,6.14,35.82,7.02s34.95.92,34.95.92c0,0-12.21,7.35-43.18,4.12,0,0,11.02,4.38,26.17,6.14" style="fill: #1c2538;"/>
      <path d="m167.1,205.15c-1.36-25.55,7.23-33.8,7.23-33.8,0,0-4.3,11.52-4.75,18.65s-2.49,15.15-2.49,15.15Z" style="fill: #1c2538;"/>
      <path d="m98.86,119.62c9.21,5.79,30.75,12.51,38.41,12.51s11.95-5.04,17.18-14.76,5.79-19.61,4.67-27.08,1.49-10.09,2.43-14.57,0-14.76,0-14.76c0,0-8.97-.19-11.77-4.86-2.8-4.67-11.59-5.42-18.5-5.23-6.91.19-17.32-11.39-17.32-11.39,0,0-8.07,4.48-8.07,10.83s3.18,12.33-.56,18.86-9.9,7.84-9.9,12.89c0,0-2.61-11.02-8.22-9.71s-3.44,12.78-.49,17.95c1.21,2.12,1.51,5.15,2.46,6.84,1.66,2.96,6.32,1.45,6.24-.32,0,0-.15,6.24,1.56,11.39,1.81,5.47,1.92,9.32,1.87,11.4Z" style="fill: url(#radial-gradient-3);"/>
      <g style="fill: none; opacity: .5;">
        <path d="m46.04,166.03c3.99-1.5,9.91-.11,10.34,0-.21-.06-1.55-.57-1.79-4.39-.23-3.68,9.17-4.51,19.47-4.83-.96-3.2-1.09-5.37-1.09-5.37-8.08,1.36-24.92,3.09-32.04,9.56-1.22,1.11-2.55,3.22-3.93,5.97.71,5.46-.98,7.81-1.22,8.11.44-.54,6.27-7.54,10.25-9.04Z" style="fill: url(#linear-gradient-3);"/>
      </g>
      <path d="m154.74,161.28c9.23-2.05,15.19-2.29,24,2.49s7.26,9.51,7.26,9.51c0,0,8.63-.65,12.35,4.44,0,0,0,0,0,0-2.11-5.69-4.42-10.73-6.73-13.56-7.77-9.5-27.21-12.79-34.4-14.3,0,0,.08,5.19-2.47,11.41h0Z" style="fill: url(#linear-gradient-4); opacity: .5;"/>
    </g>
  </g>
  <g id="Male_user_1" data-name="Male user #1">
    <g>
      <path d="m834.38,139.2c-17.22,9.54-31.69,4.19-48.84,22.41-17.15,18.22-18.76,46.62-18.76,46.62h189.71s-1.61-33.76-13.4-49.3-28.22-4.39-46.33-19.73c-18.11-15.34-62.39,0-62.39,0Z" style="fill: url(#radial-gradient-4);"/>
      <path d="m896.76,139.2c-1.16-.98-2.43-1.84-3.79-2.59l1.57,13.22c7.88,5.41,30.33,1.38,37.92,7.98,7.59,6.6,7.59,27.15,7.59,27.15,0,0,11.38-8.63,9.49,9.28-1.03,9.73-5.32,13.01-9.03,13.98h15.99s-1.61-33.76-13.4-49.3c-11.79-15.54-28.22-4.39-46.33-19.73Z" style="fill: url(#linear-gradient-5); opacity: .5;"/>
      <path d="m783.21,172.68c4.43-9.65,40.47-9.95,59.73-21.18l-4.29-6.73-4.47-5.57c-17.14,9.4-31.56,4.15-48.65,22.3-3.17,3.37-5.81,7.09-8.01,10.91l-7.28,17.38s0,0,0,0c0,0,8.54-7.47,12.96-17.11Z" style="fill: url(#linear-gradient-6); opacity: .5;"/>
      <path d="m834.38,139.2c1.99,23.46,18.76,32.42,18.76,32.42,0,0,.3-6.31,8.5-6.57,8.2-.26,10.78,9.76,10.78,9.76l-3.78-25.9-34.26-9.71Z" style="fill: #1c2538;"/>
      <path d="m874.22,170.31s1.99-10.42,9.36-9.23c7.37,1.19,8.57,3.38,8.57,3.38l2.39-14.61-19.33-1.13-1,21.6Z" style="fill: #1c2538;"/>
      <path d="m849.88,123.65c-7.86,2.51-10.38,10.41-14.33,11.66-3.95,1.26,1.44,10.59,4.85,16.7,3.41,6.1,11.67,16.52,11.67,16.52,0,0,7.67-19.65,16.49-7.31l9.54-3.46s11.42-10.23,12.71,11.67c0,0,5.42-7.54,6.68-14.9,1.26-7.36-1.26-17.89-1.26-17.89l-46.36-12.98Z" style="fill: url(#radial-gradient-5);"/>
      <path d="m852.46,102.84c.13,11.07-2.67,28.61-9.52,33.8,0,0,14.47,12.04,20.81,16.87,6.35,4.82,9.65,26.65,9.65,26.65,0,0,4.85-19.54,4.71-25.13s5.95-.25,11.03-8.12c5.08-7.87-2.96-17.01-2.96-17.01l-33.72-27.06Z" style="fill: url(#linear-gradient-7);"/>
      <path d="m916.94,52.08c.77,6.63,2.55,10.98,1.58,18.4s-1.45,19.7-.47,26.22-3.73,17.34-3.73,17.34l-46.15-.97-17.43-19.2-12.1-18.39,17.59-46.15,62.56,9.2-1.86,13.54Z" style="fill: url(#radial-gradient-6);"/>
      <path d="m916.85,52.94s1.56-10.13-4.67-10.52c-6.23-.39-13.24,9.35-22.46,7.01s-27.78-9.35-32.45-4.67,6.49,5.97,6.62,13.76-2.86,10.65-2.21,15.84-.39,8.83-2.86,8.18-1.17-11.68-5.06-15.71-11.55-.26-8.05,7.4,3.51,8.05,3.89,11.16,2.73,5.84,5.97,2.86c0,0-1.95,13.5-1.95,16.1,0,0-13.63-17.66-17.27-24.54s-4.02-16.36-4.15-23.24,1.3-9.61,5.06-12.85,3.63-14.02,11.16-19.73c7.53-5.71,13.11-6.36,21.68-7.53s11.7-6.06,16.1-5.97,8.89,2.57,14.2,1.37,8.28,1.37,9.07,3.66c1.1,3.21,5.77,2.66,7.79,4.95,1.63,1.85-.37,6.23,1.74,9.71s5.09,4.49,5.02,10.81c-.1,9.02-7.18,11.94-7.18,11.94Z" style="fill: url(#radial-gradient-7);"/>
      <path d="m853.14,103.72s7.41,14.42,14.23,21.64,14.43,10.72,22.42,10.72,17.54,2.14,21.44-1.95,7.99-20.27,7.99-26.51-1.17-10.92-1.17-10.92c0,0-.97,9.16-3.7,8.58s-1.32-3.66-12.61-3.5c-11.29.16-12.1,6.29-18.39,6.13-6.29-.16-21.69-28.25-21.69-28.25h-4.28l-4.24,24.05Z" style="fill: url(#linear-gradient-8);"/>
      <path d="m810.81,182.17c1.1,12.34,5.95,16.34,6.61,26.06,0,0,2.64-9.54,0-15.93s-6.61-10.14-6.61-10.14Z" style="fill: #223654;"/>
      <path d="m908.71,208.23c-1.32-24.9,7.05-27.97,7.05-27.97,0,0-4.19,7.41-4.63,14.36s-2.42,13.61-2.42,13.61Z" style="fill: #223654;"/>
    </g>
  </g>
  <g id="arrow_styles_for_diagrams_etc" data-name="arrow styles for diagrams etc">
    <g id="arrow_styles_for_diagrams_etc-2" data-name="arrow styles for diagrams etc">
      <g id="arrow_styles_for_diagrams_etc-3" data-name="arrow styles for diagrams etc">
        <path d="m822.56,424.24l-71.44,31.34c-2.11.92-4.43-.78-4.18-3.07l2.17-19.94-585.7-63.78c-5.96-.65-10.26-6-9.61-11.96l1.72-15.83c.65-5.94,5.99-10.23,11.93-9.59l585.73,63.78,2.17-19.94c.25-2.3,2.89-3.45,4.75-2.1l63.02,45.98c1.86,1.35,1.55,4.2-.56,5.12Z" style="fill: url(#linear-gradient-9);"/>
      </g>
    </g>
  </g>
  <g id="arrow_styles_for_diagrams_etc-4" data-name="arrow styles for diagrams etc">
    <g id="arrow_styles_for_diagrams_etc-5" data-name="arrow styles for diagrams etc">
      <g id="arrow_styles_for_diagrams_etc-6" data-name="arrow styles for diagrams etc">
        <path d="m835.53,889.77l-72.25,29.43c-2.13.86-4.41-.89-4.1-3.18l2.7-19.88-583.8-79.32c-5.94-.81-10.1-6.28-9.29-12.21l2.14-15.78c.8-5.92,6.26-10.07,12.18-9.27l583.83,79.32,2.7-19.88c.31-2.29,2.98-3.37,4.8-1.97l61.78,47.64c1.83,1.4,1.44,4.24-.69,5.1Z" style="fill: url(#linear-gradient-10);"/>
      </g>
    </g>
  </g>
  <g id="arrow_styles_for_diagrams_etc-7" data-name="arrow styles for diagrams etc">
    <g id="arrow_styles_for_diagrams_etc-8" data-name="arrow styles for diagrams etc">
      <g id="arrow_styles_for_diagrams_etc-9" data-name="arrow styles for diagrams etc">
        <path d="m147.96,642.46l64.43-43.99c1.9-1.29,4.5-.05,4.68,2.25l1.55,20,587.41-45.43c5.98-.46,11.19,4.01,11.66,9.98l1.23,15.88c.46,5.96-4,11.16-9.96,11.62l-587.44,45.43,1.55,20c.18,2.3-2.2,3.92-4.28,2.94l-70.43-33.56c-2.08-.98-2.3-3.84-.4-5.13Z" style="fill: url(#linear-gradient-11);"/>
      </g>
    </g>
  </g>
</svg>