<?xml version="1.0" encoding="UTF-8"?>
<svg id="Layer_2" data-name="Layer 2" xmlns="http://www.w3.org/2000/svg" width="981.27" height="949.04" xmlns:xlink="http://www.w3.org/1999/xlink" viewBox="0 0 981.27 949.04">
  <defs>
    <radialGradient id="radial-gradient" cx="118.56" cy="79.34" fx="118.56" fy="79.34" r="64.07" gradientUnits="userSpaceOnUse">
      <stop offset="0" stop-color="#1c2538"/>
      <stop offset=".24" stop-color="#1f2437"/>
      <stop offset=".44" stop-color="#292235"/>
      <stop offset=".62" stop-color="#3a1e31"/>
      <stop offset=".79" stop-color="#52192b"/>
      <stop offset=".96" stop-color="#701325"/>
      <stop offset="1" stop-color="#7a1123"/>
    </radialGradient>
    <linearGradient id="linear-gradient" x1="114.12" y1="179.74" x2="118.41" y2="98.18" gradientUnits="userSpaceOnUse">
      <stop offset="0" stop-color="#995e28"/>
      <stop offset=".14" stop-color="#8b511e"/>
      <stop offset=".35" stop-color="#7c4314"/>
      <stop offset=".53" stop-color="#773f11"/>
      <stop offset=".64" stop-color="#5e310c"/>
    </linearGradient>
    <radialGradient id="radial-gradient-2" cx="116.02" cy="179.06" fx="116.02" fy="179.06" r="68.36" gradientUnits="userSpaceOnUse">
      <stop offset="0" stop-color="#223654"/>
      <stop offset=".41" stop-color="#213450"/>
      <stop offset=".73" stop-color="#1f2d46"/>
      <stop offset="1" stop-color="#1c2538"/>
    </radialGradient>
    <linearGradient id="linear-gradient-2" x1="120.18" y1="185.04" x2="118.54" y2="199.93" gradientUnits="userSpaceOnUse">
      <stop offset="0" stop-color="#223654"/>
      <stop offset=".76" stop-color="#2a59be"/>
    </linearGradient>
    <radialGradient id="radial-gradient-3" cx="140.32" cy="92.36" fx="140.32" fy="92.36" r="42.85" gradientUnits="userSpaceOnUse">
      <stop offset="0" stop-color="#995e28"/>
      <stop offset=".37" stop-color="#955b25"/>
      <stop offset=".68" stop-color="#8b511f"/>
      <stop offset=".95" stop-color="#7a4213"/>
      <stop offset="1" stop-color="#773f11"/>
    </radialGradient>
    <linearGradient id="linear-gradient-3" x1="56.9" y1="170.96" x2="53.44" y2="149.03" gradientUnits="userSpaceOnUse">
      <stop offset="0" stop-color="#1c2538"/>
      <stop offset=".76" stop-color="#2a59be"/>
    </linearGradient>
    <linearGradient id="linear-gradient-4" x1="177.72" y1="175.58" x2="177.72" y2="143.78" xlink:href="#linear-gradient-3"/>
    <radialGradient id="radial-gradient-4" cx="867.96" cy="180.29" fx="867.96" fy="180.29" r="72.24" gradientUnits="userSpaceOnUse">
      <stop offset="0" stop-color="#223654"/>
      <stop offset=".37" stop-color="#20324e"/>
      <stop offset=".82" stop-color="#1d293f"/>
      <stop offset=".98" stop-color="#1c2538"/>
    </radialGradient>
    <linearGradient id="linear-gradient-5" x1="921.77" y1="176.69" x2="954.68" y2="142.79" xlink:href="#linear-gradient-3"/>
    <linearGradient id="linear-gradient-6" x1="809.41" y1="175.92" x2="797.56" y2="137.42" gradientUnits="userSpaceOnUse">
      <stop offset=".02" stop-color="#1c2538"/>
      <stop offset=".76" stop-color="#2a59be"/>
    </linearGradient>
    <radialGradient id="radial-gradient-5" cx="867.19" cy="146.54" fx="867.19" fy="146.54" r="27.73" gradientUnits="userSpaceOnUse">
      <stop offset="0" stop-color="#2a59be"/>
      <stop offset=".16" stop-color="#2957b8"/>
      <stop offset=".37" stop-color="#2852a9"/>
      <stop offset=".6" stop-color="#26498f"/>
      <stop offset=".84" stop-color="#233d6b"/>
      <stop offset=".98" stop-color="#223654"/>
    </radialGradient>
    <linearGradient id="linear-gradient-7" x1="885.9" y1="174.76" x2="852" y2="103.62" gradientUnits="userSpaceOnUse">
      <stop offset="0" stop-color="#edc2a2"/>
      <stop offset=".98" stop-color="#ce9874"/>
    </linearGradient>
    <radialGradient id="radial-gradient-6" cx="903.3" cy="80.32" fx="903.3" fy="80.32" r="41.23" gradientUnits="userSpaceOnUse">
      <stop offset="0" stop-color="#edc2a2"/>
      <stop offset=".98" stop-color="#ce9874"/>
    </radialGradient>
    <radialGradient id="radial-gradient-7" cx="879.29" cy="57.42" fx="879.29" fy="57.42" r="69.35" gradientUnits="userSpaceOnUse">
      <stop offset="0" stop-color="#7a1123"/>
      <stop offset=".18" stop-color="#741224"/>
      <stop offset=".4" stop-color="#651527"/>
      <stop offset=".64" stop-color="#4b1a2d"/>
      <stop offset=".91" stop-color="#272235"/>
      <stop offset=".98" stop-color="#1c2538"/>
    </radialGradient>
    <linearGradient id="linear-gradient-8" x1="915.32" y1="160.08" x2="887.99" y2="102.76" gradientUnits="userSpaceOnUse">
      <stop offset="0" stop-color="#dead0a"/>
      <stop offset="1" stop-color="#7a1123"/>
    </linearGradient>
    <linearGradient id="linear-gradient-9" x1="-188.04" y1="1673.63" x2="848.4" y2="1673.63" gradientTransform="translate(1021.68 2097.48) rotate(-180)" gradientUnits="userSpaceOnUse">
      <stop offset=".34" stop-color="#223654"/>
      <stop offset=".4" stop-color="#38554c"/>
      <stop offset=".5" stop-color="#5e8940"/>
      <stop offset=".6" stop-color="#7bb336"/>
      <stop offset=".68" stop-color="#91d12f"/>
      <stop offset=".76" stop-color="#9ee32b"/>
      <stop offset=".81" stop-color="#a3ea2a"/>
    </linearGradient>
    <linearGradient id="linear-gradient-10" x1="-156.64" y1="1450.67" x2="879.8" y2="1450.67" gradientTransform="translate(-97.62 -876.63)" xlink:href="#linear-gradient-9"/>
    <linearGradient id="linear-gradient-11" x1="-156.64" y1="1610.94" x2="879.8" y2="1610.94" gradientTransform="translate(-97.62 -876.63)" xlink:href="#linear-gradient-9"/>
    <linearGradient id="linear-gradient-12" x1="-156.64" y1="1770.14" x2="879.8" y2="1770.14" gradientTransform="translate(-97.62 -876.63)" xlink:href="#linear-gradient-9"/>
  </defs>
  <rect x="18.06" y="214.96" width="188.19" height="59.93" rx="17.8" ry="17.8" style="fill: #1c2538;"/>
  <g>
    <path d="m86.04,257.54c-.31-.97-.65-1.97-1-2.99-.36-1.02-.71-2.04-1.07-3.06h-10.92c-.35,1.02-.71,2.04-1.06,3.07-.35,1.03-.68,2.02-.99,2.98h-6.53c1.05-3.01,2.05-5.79,2.99-8.35s1.87-4.96,2.77-7.22c.9-2.26,1.79-4.4,2.67-6.43s1.79-4.01,2.73-5.95h5.96c.92,1.94,1.82,3.92,2.72,5.95.89,2.03,1.79,4.17,2.69,6.43.91,2.26,1.83,4.67,2.78,7.22s1.95,5.34,3,8.35h-6.74Zm-7.56-21.62c-.14.41-.35.96-.62,1.66-.27.7-.58,1.51-.92,2.42-.35.92-.73,1.92-1.16,3.03-.43,1.1-.86,2.25-1.3,3.46h7.99c-.43-1.21-.84-2.37-1.24-3.47-.4-1.1-.78-2.12-1.14-3.03-.36-.92-.68-1.72-.95-2.42-.27-.7-.49-1.24-.66-1.64Z" style="fill: #a3ea2a;"/>
    <path d="m104.44,257.95c-1.75-.03-3.17-.22-4.26-.56-1.09-.35-1.95-.84-2.58-1.47-.63-.63-1.06-1.4-1.29-2.3-.23-.9-.34-1.92-.34-3.04v-23.35l6.01-.97v23.11c0,.54.04,1.02.12,1.45.08.43.24.79.46,1.09s.56.54.99.73c.43.19,1.01.31,1.73.36l-.85,4.96Z" style="fill: #a3ea2a;"/>
    <path d="m115.29,230.2c0,1.1-.36,1.97-1.07,2.6-.71.63-1.55.95-2.52.95s-1.81-.32-2.52-.95c-.71-.63-1.07-1.5-1.07-2.6s.36-1.97,1.07-2.6c.71-.63,1.55-.95,2.52-.95s1.81.32,2.52.95c.71.63,1.07,1.5,1.07,2.6Zm-.57,27.35h-6.01v-21.22h6.01v21.22Z" style="fill: #a3ea2a;"/>
    <path d="m119.36,246.93c0-1.53.25-2.98.75-4.34.5-1.36,1.22-2.54,2.16-3.55.94-1.01,2.08-1.81,3.43-2.4,1.34-.59,2.88-.89,4.6-.89,1.13,0,2.16.1,3.11.3.94.2,1.86.49,2.74.87l-1.25,4.8c-.56-.21-1.18-.4-1.85-.56-.67-.16-1.43-.24-2.26-.24-1.78,0-3.1.55-3.97,1.65s-1.31,2.55-1.31,4.36c0,1.91.41,3.39,1.23,4.44.82,1.05,2.25,1.57,4.3,1.57.73,0,1.5-.07,2.34-.2.83-.13,1.6-.35,2.3-.65l.85,4.92c-.7.3-1.57.55-2.62.77-1.05.21-2.21.32-3.47.32-1.94,0-3.6-.29-5-.87-1.4-.58-2.55-1.36-3.45-2.36-.9-.99-1.56-2.17-1.98-3.53-.42-1.36-.63-2.83-.63-4.42Z" style="fill: #a3ea2a;"/>
    <path d="m138.52,247.1c0-1.88.29-3.53.87-4.94.58-1.41,1.34-2.59,2.28-3.53.94-.94,2.02-1.65,3.25-2.14,1.22-.48,2.48-.73,3.77-.73,3.01,0,5.39.92,7.14,2.76,1.75,1.84,2.62,4.55,2.62,8.13,0,.35-.01.73-.04,1.15-.03.42-.05.79-.08,1.11h-13.63c.13,1.24.71,2.22,1.73,2.94,1.02.73,2.39,1.09,4.11,1.09,1.1,0,2.18-.1,3.25-.3,1.06-.2,1.93-.45,2.6-.75l.81,4.88c-.32.16-.75.32-1.29.48-.54.16-1.14.3-1.79.42-.66.12-1.37.22-2.12.3-.75.08-1.51.12-2.26.12-1.91,0-3.57-.28-4.98-.85s-2.58-1.34-3.51-2.32-1.61-2.14-2.06-3.49c-.44-1.34-.67-2.8-.67-4.36Zm14.12-2.3c-.03-.51-.11-1.01-.26-1.49-.15-.48-.38-.91-.69-1.29-.31-.38-.7-.69-1.17-.93s-1.06-.36-1.75-.36-1.25.12-1.73.34c-.48.23-.89.53-1.21.91-.32.38-.57.81-.75,1.31-.17.5-.3,1-.38,1.51h7.95Z" style="fill: #a3ea2a;"/>
  </g>
  <rect x="353.71" y="328.75" width="248.03" height="59.93" rx="20.44" ry="20.44" style="fill: #1c2538;"/>
  <g>
    <path d="m396.5,343.05c4.2,0,7.41.75,9.64,2.24,2.23,1.49,3.35,3.81,3.35,6.96,0,1.96-.45,3.56-1.35,4.78-.9,1.22-2.2,2.18-3.89,2.88.56.7,1.16,1.5,1.77,2.4.62.9,1.23,1.84,1.84,2.82.6.98,1.19,2,1.75,3.07.56,1.06,1.09,2.1,1.57,3.13h-7.03c-.51-.91-1.03-1.84-1.56-2.78-.53-.94-1.07-1.86-1.62-2.74-.55-.89-1.1-1.73-1.64-2.52-.54-.79-1.08-1.51-1.62-2.16h-3.11v10.2h-6.29v-27.55c1.37-.27,2.79-.46,4.25-.56s2.78-.16,3.93-.16Zm.36,5.37c-.46,0-.87.01-1.23.04-.36.03-.71.05-1.03.08v7.58h1.77c2.37,0,4.06-.29,5.08-.89s1.53-1.6,1.53-3.03-.52-2.35-1.55-2.92c-1.04-.58-2.56-.87-4.58-.87Z" style="fill: #a3ea2a;"/>
    <path d="m415.21,371.33v-27.95h18.88v5.28h-12.58v5.49h11.17v5.16h-11.17v6.74h13.51v5.28h-19.8Z" style="fill: #a3ea2a;"/>
    <path d="m465.55,357.33c0,1.96-.24,3.73-.73,5.3-.48,1.57-1.16,2.95-2.04,4.13-.87,1.18-1.92,2.17-3.13,2.94-1.21.78-2.54,1.34-3.99,1.69.13.54.43.97.89,1.31.46.34,1.03.61,1.73.83.7.21,1.51.38,2.44.48.93.11,1.93.2,3,.28l-1.29,4.6c-2.1-.08-3.89-.29-5.38-.62-1.49-.34-2.76-.8-3.79-1.39-1.04-.59-1.86-1.32-2.46-2.18-.6-.86-1.07-1.86-1.39-2.98-1.67-.22-3.21-.68-4.64-1.39-1.43-.71-2.66-1.67-3.71-2.88s-1.87-2.66-2.46-4.36c-.59-1.69-.89-3.62-.89-5.77,0-2.39.38-4.5,1.13-6.31.75-1.82,1.77-3.34,3.05-4.58,1.28-1.24,2.76-2.16,4.44-2.78,1.68-.62,3.45-.93,5.3-.93s3.71.31,5.4.93c1.69.62,3.17,1.55,4.44,2.78,1.26,1.24,2.26,2.76,2.98,4.58.73,1.81,1.09,3.92,1.09,6.31Zm-21.34,0c0,1.37.17,2.61.5,3.71.34,1.1.82,2.05,1.45,2.84.63.79,1.4,1.41,2.32,1.83.91.43,1.96.65,3.15.65s2.2-.21,3.13-.65c.93-.43,1.71-1.04,2.34-1.83s1.12-1.74,1.45-2.84.5-2.34.5-3.71-.17-2.61-.5-3.73c-.34-1.12-.82-2.07-1.45-2.86-.63-.79-1.41-1.4-2.34-1.83-.93-.43-1.97-.65-3.13-.65s-2.23.22-3.15.67-1.69,1.06-2.32,1.86c-.63.79-1.12,1.75-1.45,2.86-.34,1.12-.5,2.35-.5,3.69Z" style="fill: #a3ea2a;"/>
    <path d="m481.72,371.89c-1.96,0-3.66-.28-5.08-.83-1.43-.55-2.6-1.32-3.53-2.3-.93-.98-1.61-2.15-2.06-3.51-.44-1.36-.67-2.86-.67-4.5v-17.38h6.29v16.86c0,1.13.13,2.09.38,2.88.25.79.6,1.44,1.05,1.94.44.5.98.85,1.61,1.07.63.22,1.32.32,2.08.32,1.53,0,2.78-.47,3.73-1.41.95-.94,1.43-2.54,1.43-4.8v-16.86h6.29v17.38c0,1.64-.23,3.15-.69,4.52-.46,1.37-1.16,2.55-2.1,3.53-.94.98-2.14,1.74-3.59,2.28-1.45.54-3.17.81-5.16.81Z" style="fill: #a3ea2a;"/>
    <path d="m499.31,371.33v-27.95h18.88v5.28h-12.58v5.49h11.17v5.16h-11.17v6.74h13.51v5.28h-19.8Z" style="fill: #a3ea2a;"/>
    <path d="m531.37,366.53c.89,0,1.62-.07,2.2-.22.58-.15,1.04-.35,1.39-.61.35-.25.59-.56.73-.91.13-.35.2-.74.2-1.17,0-.91-.43-1.67-1.29-2.28-.86-.61-2.34-1.26-4.44-1.96-.91-.32-1.83-.69-2.74-1.11-.92-.42-1.73-.94-2.46-1.57-.73-.63-1.32-1.4-1.77-2.3-.46-.9-.69-2-.69-3.29s.24-2.45.73-3.49c.48-1.03,1.17-1.92,2.06-2.64.89-.73,1.96-1.28,3.23-1.67,1.26-.39,2.69-.58,4.28-.58,1.88,0,3.51.2,4.88.61,1.37.4,2.5.85,3.39,1.33l-1.82,4.96c-.78-.4-1.65-.76-2.6-1.07-.95-.31-2.1-.46-3.45-.46-1.51,0-2.59.21-3.25.62-.66.42-.99,1.06-.99,1.92,0,.51.12.94.36,1.29s.58.67,1.03.95c.44.28.95.54,1.53.77.58.23,1.22.46,1.92.71,1.45.54,2.71,1.07,3.79,1.59,1.08.52,1.97,1.14,2.68,1.84.71.7,1.24,1.52,1.59,2.46.35.94.52,2.08.52,3.43,0,2.61-.92,4.63-2.74,6.07-1.83,1.44-4.58,2.16-8.27,2.16-1.24,0-2.35-.07-3.35-.22-1-.15-1.88-.33-2.64-.54-.77-.21-1.43-.44-1.98-.69-.55-.24-1.01-.47-1.39-.69l1.78-5c.83.46,1.86.87,3.08,1.23,1.22.36,2.72.54,4.5.54Z" style="fill: #a3ea2a;"/>
    <path d="m567.15,343.37v5.36h-8.43v22.59h-6.29v-22.59h-8.43v-5.36h23.15Z" style="fill: #a3ea2a;"/>
  </g>
  <rect x="353.71" y="491.46" width="248.03" height="59.93" rx="20.44" ry="20.44" style="fill: #1c2538;"/>
  <g>
    <path d="m382.7,505.76c4.2,0,7.41.75,9.64,2.24,2.23,1.49,3.35,3.81,3.35,6.96,0,1.96-.45,3.56-1.35,4.78-.9,1.22-2.2,2.18-3.89,2.88.56.7,1.16,1.5,1.77,2.4.62.9,1.23,1.84,1.84,2.82.6.98,1.19,2,1.75,3.07.56,1.06,1.09,2.1,1.57,3.13h-7.03c-.51-.91-1.03-1.84-1.56-2.78-.53-.94-1.07-1.86-1.62-2.74-.55-.89-1.1-1.73-1.64-2.52-.54-.79-1.08-1.51-1.62-2.16h-3.11v10.2h-6.29v-27.55c1.37-.27,2.79-.46,4.25-.56s2.78-.16,3.93-.16Zm.36,5.37c-.46,0-.87.01-1.23.04-.36.03-.71.05-1.03.08v7.58h1.77c2.37,0,4.06-.29,5.08-.89s1.53-1.6,1.53-3.03-.52-2.35-1.55-2.92c-1.04-.58-2.56-.87-4.58-.87Z" style="fill: #a3ea2a;"/>
    <path d="m401.42,534.04v-27.95h18.88v5.28h-12.58v5.49h11.17v5.16h-11.17v6.74h13.51v5.28h-19.8Z" style="fill: #a3ea2a;"/>
    <path d="m433.48,529.24c.89,0,1.62-.07,2.2-.22.58-.15,1.04-.35,1.39-.61.35-.25.59-.56.73-.91.13-.35.2-.74.2-1.17,0-.91-.43-1.67-1.29-2.28-.86-.61-2.34-1.26-4.44-1.96-.91-.32-1.83-.69-2.74-1.11-.92-.42-1.73-.94-2.46-1.57-.73-.63-1.32-1.4-1.77-2.3-.46-.9-.69-2-.69-3.29s.24-2.45.73-3.49c.48-1.03,1.17-1.92,2.06-2.64.89-.73,1.96-1.28,3.23-1.67,1.26-.39,2.69-.58,4.28-.58,1.88,0,3.51.2,4.88.61,1.37.4,2.5.85,3.39,1.33l-1.82,4.96c-.78-.4-1.65-.76-2.6-1.07-.95-.31-2.1-.46-3.45-.46-1.51,0-2.59.21-3.25.62-.66.42-.99,1.06-.99,1.92,0,.51.12.94.36,1.29s.58.67,1.03.95c.44.28.95.54,1.53.77.58.23,1.22.46,1.92.71,1.45.54,2.71,1.07,3.79,1.59,1.08.52,1.97,1.14,2.68,1.84.71.7,1.24,1.52,1.59,2.46.35.94.52,2.08.52,3.43,0,2.61-.92,4.63-2.74,6.07-1.83,1.44-4.58,2.16-8.27,2.16-1.24,0-2.35-.07-3.35-.22-1-.15-1.88-.33-2.64-.54-.77-.21-1.43-.44-1.98-.69-.55-.24-1.01-.47-1.39-.69l1.78-5c.83.46,1.86.87,3.08,1.23,1.22.36,2.72.54,4.5.54Z" style="fill: #a3ea2a;"/>
    <path d="m457.72,505.76c4.17,0,7.37.73,9.6,2.2,2.23,1.47,3.35,3.87,3.35,7.2s-1.13,5.79-3.39,7.28-5.49,2.24-9.68,2.24h-1.98v9.36h-6.29v-27.55c1.37-.27,2.82-.46,4.36-.56s2.88-.16,4.03-.16Zm.4,5.37c-.46,0-.91.01-1.35.04-.44.03-.83.05-1.15.08v8.07h1.98c2.18,0,3.82-.3,4.92-.89,1.1-.59,1.65-1.69,1.65-3.31,0-.78-.14-1.42-.42-1.94s-.69-.92-1.21-1.23c-.52-.31-1.16-.52-1.92-.65-.75-.12-1.59-.18-2.5-.18Z" style="fill: #a3ea2a;"/>
    <path d="m501.93,520.04c0,2.39-.36,4.5-1.07,6.31-.71,1.82-1.69,3.33-2.92,4.56-1.24,1.22-2.71,2.14-4.42,2.76-1.71.62-3.54.93-5.51.93s-3.71-.31-5.4-.93-3.17-1.54-4.44-2.76c-1.26-1.22-2.26-2.74-2.99-4.56-.73-1.82-1.09-3.92-1.09-6.31s.38-4.5,1.13-6.31c.75-1.82,1.77-3.34,3.04-4.58,1.28-1.24,2.76-2.16,4.44-2.78,1.68-.62,3.45-.93,5.3-.93s3.71.31,5.41.93c1.69.62,3.17,1.55,4.44,2.78,1.26,1.24,2.26,2.76,2.98,4.58.73,1.81,1.09,3.92,1.09,6.31Zm-21.34,0c0,1.37.17,2.61.5,3.71s.82,2.05,1.45,2.84,1.41,1.41,2.32,1.83c.91.43,1.96.65,3.15.65s2.2-.21,3.13-.65c.93-.43,1.71-1.04,2.34-1.83.63-.79,1.12-1.74,1.45-2.84.34-1.1.5-2.34.5-3.71s-.17-2.61-.5-3.73c-.34-1.12-.82-2.07-1.45-2.86-.63-.79-1.41-1.4-2.34-1.83-.93-.43-1.97-.65-3.13-.65s-2.23.22-3.15.67-1.69,1.06-2.32,1.86-1.12,1.75-1.45,2.86c-.34,1.12-.5,2.35-.5,3.69Z" style="fill: #a3ea2a;"/>
    <path d="m525.93,534.04c-1.8-3.2-3.75-6.36-5.85-9.48-2.1-3.12-4.33-6.06-6.7-8.83v18.31h-6.21v-27.95h5.12c.89.89,1.87,1.98,2.94,3.27,1.08,1.29,2.17,2.67,3.29,4.13,1.12,1.47,2.22,2.98,3.33,4.56s2.14,3.08,3.11,4.54v-16.5h6.25v27.95h-5.28Z" style="fill: #a3ea2a;"/>
    <path d="m545.29,529.24c.89,0,1.62-.07,2.2-.22.58-.15,1.04-.35,1.39-.61.35-.25.59-.56.73-.91.13-.35.2-.74.2-1.17,0-.91-.43-1.67-1.29-2.28-.86-.61-2.34-1.26-4.44-1.96-.91-.32-1.83-.69-2.74-1.11-.92-.42-1.73-.94-2.46-1.57-.73-.63-1.32-1.4-1.77-2.3-.46-.9-.69-2-.69-3.29s.24-2.45.73-3.49c.48-1.03,1.17-1.92,2.06-2.64.89-.73,1.96-1.28,3.23-1.67,1.26-.39,2.69-.58,4.28-.58,1.88,0,3.51.2,4.88.61,1.37.4,2.5.85,3.39,1.33l-1.82,4.96c-.78-.4-1.65-.76-2.6-1.07-.95-.31-2.1-.46-3.45-.46-1.51,0-2.59.21-3.25.62-.66.42-.99,1.06-.99,1.92,0,.51.12.94.36,1.29s.58.67,1.03.95c.44.28.95.54,1.53.77.58.23,1.22.46,1.92.71,1.45.54,2.71,1.07,3.79,1.59,1.08.52,1.97,1.14,2.68,1.84.71.7,1.24,1.52,1.59,2.46.35.94.52,2.08.52,3.43,0,2.61-.92,4.63-2.74,6.07-1.83,1.44-4.58,2.16-8.27,2.16-1.24,0-2.35-.07-3.35-.22-1-.15-1.88-.33-2.64-.54-.77-.21-1.43-.44-1.98-.69-.55-.24-1.01-.47-1.39-.69l1.78-5c.83.46,1.86.87,3.08,1.23,1.22.36,2.72.54,4.5.54Z" style="fill: #a3ea2a;"/>
    <path d="m561.14,534.04v-27.95h18.88v5.28h-12.58v5.49h11.17v5.16h-11.17v6.74h13.51v5.28h-19.8Z" style="fill: #a3ea2a;"/>
  </g>
  <rect x="351.23" y="651" width="248.03" height="59.93" rx="20.44" ry="20.44" style="fill: #1c2538;"/>
  <g>
    <path d="m380.22,665.3c4.2,0,7.41.75,9.64,2.24,2.23,1.49,3.35,3.81,3.35,6.96,0,1.96-.45,3.56-1.35,4.78-.9,1.22-2.2,2.18-3.89,2.88.56.7,1.16,1.5,1.77,2.4.62.9,1.23,1.84,1.84,2.82.6.98,1.19,2,1.75,3.07.56,1.06,1.09,2.1,1.57,3.13h-7.03c-.51-.91-1.03-1.84-1.56-2.78-.53-.94-1.07-1.86-1.62-2.74-.55-.89-1.1-1.73-1.64-2.52-.54-.79-1.08-1.51-1.62-2.16h-3.11v10.2h-6.29v-27.55c1.37-.27,2.79-.46,4.25-.56s2.78-.16,3.93-.16Zm.36,5.37c-.46,0-.87.01-1.23.04-.36.03-.71.05-1.03.08v7.58h1.77c2.37,0,4.06-.29,5.08-.89s1.53-1.6,1.53-3.03-.52-2.35-1.55-2.92c-1.04-.58-2.56-.87-4.58-.87Z" style="fill: #a3ea2a;"/>
    <path d="m398.94,693.58v-27.95h18.88v5.28h-12.58v5.49h11.17v5.16h-11.17v6.74h13.51v5.28h-19.8Z" style="fill: #a3ea2a;"/>
    <path d="m431,688.78c.89,0,1.62-.07,2.2-.22.58-.15,1.04-.35,1.39-.61.35-.25.59-.56.73-.91.13-.35.2-.74.2-1.17,0-.91-.43-1.67-1.29-2.28-.86-.61-2.34-1.26-4.44-1.96-.91-.32-1.83-.69-2.74-1.11-.92-.42-1.73-.94-2.46-1.57-.73-.63-1.32-1.4-1.77-2.3-.46-.9-.69-2-.69-3.29s.24-2.45.73-3.49c.48-1.03,1.17-1.92,2.06-2.64.89-.73,1.96-1.28,3.23-1.67,1.26-.39,2.69-.58,4.28-.58,1.88,0,3.51.2,4.88.61,1.37.4,2.5.85,3.39,1.33l-1.82,4.96c-.78-.4-1.65-.76-2.6-1.07-.95-.31-2.1-.46-3.45-.46-1.51,0-2.59.21-3.25.62-.66.42-.99,1.06-.99,1.92,0,.51.12.94.36,1.29s.58.67,1.03.95c.44.28.95.54,1.53.77.58.23,1.22.46,1.92.71,1.45.54,2.71,1.07,3.79,1.59,1.08.52,1.97,1.14,2.68,1.84.71.7,1.24,1.52,1.59,2.46.35.94.52,2.08.52,3.43,0,2.61-.92,4.63-2.74,6.07-1.83,1.44-4.58,2.16-8.27,2.16-1.24,0-2.35-.07-3.35-.22-1-.15-1.88-.33-2.64-.54-.77-.21-1.43-.44-1.98-.69-.55-.24-1.01-.47-1.39-.69l1.78-5c.83.46,1.86.87,3.08,1.23,1.22.36,2.72.54,4.5.54Z" style="fill: #a3ea2a;"/>
    <path d="m455.24,665.3c4.17,0,7.37.73,9.6,2.2,2.23,1.47,3.35,3.87,3.35,7.2s-1.13,5.79-3.39,7.28-5.49,2.24-9.68,2.24h-1.98v9.36h-6.29v-27.55c1.37-.27,2.82-.46,4.36-.56s2.88-.16,4.03-.16Zm.4,5.37c-.46,0-.91.01-1.35.04-.44.03-.83.05-1.15.08v8.07h1.98c2.18,0,3.82-.3,4.92-.89,1.1-.59,1.65-1.69,1.65-3.31,0-.78-.14-1.42-.42-1.94s-.69-.92-1.21-1.23c-.52-.31-1.16-.52-1.92-.65-.75-.12-1.59-.18-2.5-.18Z" style="fill: #a3ea2a;"/>
    <path d="m499.45,679.58c0,2.39-.36,4.5-1.07,6.31-.71,1.82-1.69,3.33-2.92,4.56-1.24,1.22-2.71,2.14-4.42,2.76-1.71.62-3.54.93-5.51.93s-3.71-.31-5.4-.93-3.17-1.54-4.44-2.76c-1.26-1.22-2.26-2.74-2.99-4.56-.73-1.82-1.09-3.92-1.09-6.31s.38-4.5,1.13-6.31c.75-1.82,1.77-3.34,3.04-4.58,1.28-1.24,2.76-2.16,4.44-2.78,1.68-.62,3.45-.93,5.3-.93s3.71.31,5.41.93c1.69.62,3.17,1.55,4.44,2.78,1.26,1.24,2.26,2.76,2.98,4.58.73,1.81,1.09,3.92,1.09,6.31Zm-21.34,0c0,1.37.17,2.61.5,3.71s.82,2.05,1.45,2.84,1.41,1.41,2.32,1.83c.91.43,1.96.65,3.15.65s2.2-.21,3.13-.65c.93-.43,1.71-1.04,2.34-1.83.63-.79,1.12-1.74,1.45-2.84.34-1.1.5-2.34.5-3.71s-.17-2.61-.5-3.73c-.34-1.12-.82-2.07-1.45-2.86-.63-.79-1.41-1.4-2.34-1.83-.93-.43-1.97-.65-3.13-.65s-2.23.22-3.15.67-1.69,1.06-2.32,1.86-1.12,1.75-1.45,2.86c-.34,1.12-.5,2.35-.5,3.69Z" style="fill: #a3ea2a;"/>
    <path d="m523.45,693.58c-1.8-3.2-3.75-6.36-5.85-9.48-2.1-3.12-4.33-6.06-6.7-8.83v18.31h-6.21v-27.95h5.12c.89.89,1.87,1.98,2.94,3.27,1.08,1.29,2.17,2.67,3.29,4.13,1.12,1.47,2.22,2.98,3.33,4.56s2.14,3.08,3.11,4.54v-16.5h6.25v27.95h-5.28Z" style="fill: #a3ea2a;"/>
    <path d="m542.81,688.78c.89,0,1.62-.07,2.2-.22.58-.15,1.04-.35,1.39-.61.35-.25.59-.56.73-.91.13-.35.2-.74.2-1.17,0-.91-.43-1.67-1.29-2.28-.86-.61-2.34-1.26-4.44-1.96-.91-.32-1.83-.69-2.74-1.11-.92-.42-1.73-.94-2.46-1.57-.73-.63-1.32-1.4-1.77-2.3-.46-.9-.69-2-.69-3.29s.24-2.45.73-3.49c.48-1.03,1.17-1.92,2.06-2.64.89-.73,1.96-1.28,3.23-1.67,1.26-.39,2.69-.58,4.28-.58,1.88,0,3.51.2,4.88.61,1.37.4,2.5.85,3.39,1.33l-1.82,4.96c-.78-.4-1.65-.76-2.6-1.07-.95-.31-2.1-.46-3.45-.46-1.51,0-2.59.21-3.25.62-.66.42-.99,1.06-.99,1.92,0,.51.12.94.36,1.29s.58.67,1.03.95c.44.28.95.54,1.53.77.58.23,1.22.46,1.92.71,1.45.54,2.71,1.07,3.79,1.59,1.08.52,1.97,1.14,2.68,1.84.71.7,1.24,1.52,1.59,2.46.35.94.52,2.08.52,3.43,0,2.61-.92,4.63-2.74,6.07-1.83,1.44-4.58,2.16-8.27,2.16-1.24,0-2.35-.07-3.35-.22-1-.15-1.88-.33-2.64-.54-.77-.21-1.43-.44-1.98-.69-.55-.24-1.01-.47-1.39-.69l1.78-5c.83.46,1.86.87,3.08,1.23,1.22.36,2.72.54,4.5.54Z" style="fill: #a3ea2a;"/>
    <path d="m558.66,693.58v-27.95h18.88v5.28h-12.58v5.49h11.17v5.16h-11.17v6.74h13.51v5.28h-19.8Z" style="fill: #a3ea2a;"/>
  </g>
  <rect x="353.71" y="809.74" width="248.03" height="59.93" rx="20.44" ry="20.44" style="fill: #1c2538;"/>
  <g>
    <path d="m382.7,824.05c4.2,0,7.41.75,9.64,2.24,2.23,1.49,3.35,3.81,3.35,6.96,0,1.96-.45,3.56-1.35,4.78-.9,1.22-2.2,2.18-3.89,2.88.56.7,1.16,1.5,1.77,2.4.62.9,1.23,1.84,1.84,2.82.6.98,1.19,2,1.75,3.07.56,1.06,1.09,2.1,1.57,3.13h-7.03c-.51-.91-1.03-1.84-1.56-2.78-.53-.94-1.07-1.86-1.62-2.74-.55-.89-1.1-1.73-1.64-2.52-.54-.79-1.08-1.51-1.62-2.16h-3.11v10.2h-6.29v-27.55c1.37-.27,2.79-.46,4.25-.56s2.78-.16,3.93-.16Zm.36,5.37c-.46,0-.87.01-1.23.04-.36.03-.71.05-1.03.08v7.58h1.77c2.37,0,4.06-.29,5.08-.89s1.53-1.6,1.53-3.03-.52-2.35-1.55-2.92c-1.04-.58-2.56-.87-4.58-.87Z" style="fill: #a3ea2a;"/>
    <path d="m401.42,852.32v-27.95h18.88v5.28h-12.58v5.49h11.17v5.16h-11.17v6.74h13.51v5.28h-19.8Z" style="fill: #a3ea2a;"/>
    <path d="m433.48,847.52c.89,0,1.62-.07,2.2-.22.58-.15,1.04-.35,1.39-.61.35-.25.59-.56.73-.91.13-.35.2-.74.2-1.17,0-.91-.43-1.67-1.29-2.28-.86-.61-2.34-1.26-4.44-1.96-.91-.32-1.83-.69-2.74-1.11-.92-.42-1.73-.94-2.46-1.57-.73-.63-1.32-1.4-1.77-2.3-.46-.9-.69-2-.69-3.29s.24-2.45.73-3.49c.48-1.03,1.17-1.92,2.06-2.64.89-.73,1.96-1.28,3.23-1.67,1.26-.39,2.69-.58,4.28-.58,1.88,0,3.51.2,4.88.61,1.37.4,2.5.85,3.39,1.33l-1.82,4.96c-.78-.4-1.65-.76-2.6-1.07-.95-.31-2.1-.46-3.45-.46-1.51,0-2.59.21-3.25.62-.66.42-.99,1.06-.99,1.92,0,.51.12.94.36,1.29s.58.67,1.03.95c.44.28.95.54,1.53.77.58.23,1.22.46,1.92.71,1.45.54,2.71,1.07,3.79,1.59,1.08.52,1.97,1.14,2.68,1.84.71.7,1.24,1.52,1.59,2.46.35.94.52,2.08.52,3.43,0,2.61-.92,4.63-2.74,6.07-1.83,1.44-4.58,2.16-8.27,2.16-1.24,0-2.35-.07-3.35-.22-1-.15-1.88-.33-2.64-.54-.77-.21-1.43-.44-1.98-.69-.55-.24-1.01-.47-1.39-.69l1.78-5c.83.46,1.86.87,3.08,1.23,1.22.36,2.72.54,4.5.54Z" style="fill: #a3ea2a;"/>
    <path d="m457.72,824.05c4.17,0,7.37.73,9.6,2.2,2.23,1.47,3.35,3.87,3.35,7.2s-1.13,5.79-3.39,7.28-5.49,2.24-9.68,2.24h-1.98v9.36h-6.29v-27.55c1.37-.27,2.82-.46,4.36-.56s2.88-.16,4.03-.16Zm.4,5.37c-.46,0-.91.01-1.35.04-.44.03-.83.05-1.15.08v8.07h1.98c2.18,0,3.82-.3,4.92-.89,1.1-.59,1.65-1.69,1.65-3.31,0-.78-.14-1.42-.42-1.94s-.69-.92-1.21-1.23c-.52-.31-1.16-.52-1.92-.65-.75-.12-1.59-.18-2.5-.18Z" style="fill: #a3ea2a;"/>
    <path d="m501.93,838.32c0,2.39-.36,4.5-1.07,6.31-.71,1.82-1.69,3.33-2.92,4.56-1.24,1.22-2.71,2.14-4.42,2.76-1.71.62-3.54.93-5.51.93s-3.71-.31-5.4-.93-3.17-1.54-4.44-2.76c-1.26-1.22-2.26-2.74-2.99-4.56-.73-1.82-1.09-3.92-1.09-6.31s.38-4.5,1.13-6.31c.75-1.82,1.77-3.34,3.04-4.58,1.28-1.24,2.76-2.16,4.44-2.78,1.68-.62,3.45-.93,5.3-.93s3.71.31,5.41.93c1.69.62,3.17,1.55,4.44,2.78,1.26,1.24,2.26,2.76,2.98,4.58.73,1.81,1.09,3.92,1.09,6.31Zm-21.34,0c0,1.37.17,2.61.5,3.71s.82,2.05,1.45,2.84,1.41,1.41,2.32,1.83c.91.43,1.96.65,3.15.65s2.2-.21,3.13-.65c.93-.43,1.71-1.04,2.34-1.83.63-.79,1.12-1.74,1.45-2.84.34-1.1.5-2.34.5-3.71s-.17-2.61-.5-3.73c-.34-1.12-.82-2.07-1.45-2.86-.63-.79-1.41-1.4-2.34-1.83-.93-.43-1.97-.65-3.13-.65s-2.23.22-3.15.67-1.69,1.06-2.32,1.86-1.12,1.75-1.45,2.86c-.34,1.12-.5,2.35-.5,3.69Z" style="fill: #a3ea2a;"/>
    <path d="m525.93,852.32c-1.8-3.2-3.75-6.36-5.85-9.48-2.1-3.12-4.33-6.06-6.7-8.83v18.31h-6.21v-27.95h5.12c.89.89,1.87,1.98,2.94,3.27,1.08,1.29,2.17,2.67,3.29,4.13,1.12,1.47,2.22,2.98,3.33,4.56s2.14,3.08,3.11,4.54v-16.5h6.25v27.95h-5.28Z" style="fill: #a3ea2a;"/>
    <path d="m545.29,847.52c.89,0,1.62-.07,2.2-.22.58-.15,1.04-.35,1.39-.61.35-.25.59-.56.73-.91.13-.35.2-.74.2-1.17,0-.91-.43-1.67-1.29-2.28-.86-.61-2.34-1.26-4.44-1.96-.91-.32-1.83-.69-2.74-1.11-.92-.42-1.73-.94-2.46-1.57-.73-.63-1.32-1.4-1.77-2.3-.46-.9-.69-2-.69-3.29s.24-2.45.73-3.49c.48-1.03,1.17-1.92,2.06-2.64.89-.73,1.96-1.28,3.23-1.67,1.26-.39,2.69-.58,4.28-.58,1.88,0,3.51.2,4.88.61,1.37.4,2.5.85,3.39,1.33l-1.82,4.96c-.78-.4-1.65-.76-2.6-1.07-.95-.31-2.1-.46-3.45-.46-1.51,0-2.59.21-3.25.62-.66.42-.99,1.06-.99,1.92,0,.51.12.94.36,1.29s.58.67,1.03.95c.44.28.95.54,1.53.77.58.23,1.22.46,1.92.71,1.45.54,2.71,1.07,3.79,1.59,1.08.52,1.97,1.14,2.68,1.84.71.7,1.24,1.52,1.59,2.46.35.94.52,2.08.52,3.43,0,2.61-.92,4.63-2.74,6.07-1.83,1.44-4.58,2.16-8.27,2.16-1.24,0-2.35-.07-3.35-.22-1-.15-1.88-.33-2.64-.54-.77-.21-1.43-.44-1.98-.69-.55-.24-1.01-.47-1.39-.69l1.78-5c.83.46,1.86.87,3.08,1.23,1.22.36,2.72.54,4.5.54Z" style="fill: #a3ea2a;"/>
    <path d="m561.14,852.32v-27.95h18.88v5.28h-12.58v5.49h11.17v5.16h-11.17v6.74h13.51v5.28h-19.8Z" style="fill: #a3ea2a;"/>
  </g>
  <rect x="773.92" y="214.96" width="188.19" height="59.93" rx="17.8" ry="17.8" style="fill: #1c2538;"/>
  <g>
    <path d="m842.59,257.91c-1.53,0-3.06-.05-4.58-.14-1.52-.09-3.1-.32-4.74-.67v-27.1c1.29-.24,2.7-.42,4.24-.54,1.53-.12,2.96-.18,4.28-.18,1.77,0,3.41.13,4.9.38s2.78.69,3.85,1.31c1.07.62,1.92,1.43,2.52,2.44.6,1.01.91,2.25.91,3.73,0,2.23-1.08,3.99-3.23,5.28,1.77.67,2.98,1.59,3.63,2.74.65,1.16.97,2.46.97,3.91,0,2.93-1.07,5.14-3.21,6.61-2.14,1.48-5.32,2.22-9.54,2.22Zm-3.19-17.34h3.07c1.94,0,3.32-.25,4.15-.75.83-.5,1.25-1.3,1.25-2.4s-.43-1.92-1.29-2.38c-.86-.46-2.12-.69-3.79-.69-.54,0-1.12,0-1.73.02-.62.01-1.17.05-1.65.1v6.09Zm0,4.8v7.22c.46.05.95.09,1.49.12.54.03,1.13.04,1.78.04,1.88,0,3.4-.27,4.56-.81,1.16-.54,1.73-1.53,1.73-2.98,0-1.29-.48-2.21-1.45-2.76s-2.35-.83-4.15-.83h-3.95Z" style="fill: #a3ea2a;"/>
    <path d="m879.81,246.89c0,1.67-.24,3.19-.73,4.58-.48,1.39-1.18,2.57-2.1,3.55s-2.01,1.74-3.29,2.28c-1.28.54-2.71.81-4.3.81s-2.98-.27-4.25-.81c-1.28-.54-2.37-1.3-3.29-2.28s-1.63-2.16-2.14-3.55c-.51-1.38-.77-2.91-.77-4.58s.26-3.19.79-4.56c.52-1.37,1.25-2.54,2.18-3.51s2.03-1.72,3.31-2.26c1.28-.54,2.67-.81,4.17-.81s2.94.27,4.22.81c1.28.54,2.37,1.29,3.29,2.26.91.97,1.63,2.14,2.14,3.51.51,1.37.77,2.89.77,4.56Zm-6.13,0c0-1.86-.37-3.31-1.11-4.38-.74-1.06-1.79-1.59-3.17-1.59s-2.43.53-3.19,1.59c-.75,1.06-1.13,2.52-1.13,4.38s.38,3.33,1.13,4.42c.75,1.09,1.81,1.63,3.19,1.63s2.43-.54,3.17-1.63c.74-1.09,1.11-2.56,1.11-4.42Z" style="fill: #a3ea2a;"/>
    <path d="m904.17,246.93c0,1.69-.25,3.23-.75,4.6-.5,1.37-1.22,2.54-2.16,3.51-.94.97-2.1,1.71-3.47,2.24-1.37.52-2.93.79-4.68.79-.73,0-1.49-.03-2.28-.1-.79-.07-1.57-.16-2.34-.26-.77-.11-1.5-.24-2.2-.38-.7-.15-1.32-.3-1.86-.46v-29.65l6.01-.97v10.57c.67-.3,1.37-.52,2.1-.69.73-.16,1.5-.24,2.34-.24,1.51,0,2.84.26,3.99.79,1.16.52,2.12,1.27,2.9,2.24.78.97,1.37,2.13,1.77,3.49.4,1.36.6,2.87.6,4.54Zm-6.13-.16c0-3.87-1.43-5.81-4.28-5.81-.62,0-1.23.08-1.84.24-.6.16-1.1.36-1.47.6v10.93c.29.05.67.1,1.13.14.46.04.95.06,1.49.06,1.64,0,2.88-.57,3.71-1.69.83-1.13,1.25-2.62,1.25-4.48Z" style="fill: #a3ea2a;"/>
  </g>
  <rect x="93.82" y="308.78" width="9" height="607.56" style="fill: #a3ea2a;"/>
  <rect x="869.04" y="308.78" width="9" height="607.56" style="fill: #a3ea2a;"/>
  <g id="Female_user_1" data-name="Female user #1">
    <g>
      <path d="m103.62,25.28c5.43-1.73,17.83-9.96,28.9-8.84,11.07,1.13,30.01,6.75,32.63,20.63,2.63,13.88,16.21,14.8,14.83,24.92-1.38,10.12-4.47,29.39,2.55,42.49,5.41,10.1-10.71,22.16-3.26,32.88,0,0-11.5,5.11-15.25,1.36-3.75-3.75-9.56,5.25-14.82,3.38s-11.71-4.38-13.26-2.85l-12.92.74-12.37-1.37s-12.96-5-13.46-2.18c0,0-10.25,1.73-13.44.04s-8.63-3.75-13.5-3.19c-4.88.56-10.31.19-9.75-4.13s-5.81-3.75-6.94-7.88,6.56-13.13,5.44-15.19-5.21-12.41-4.31-16.69c.94-4.5,9-8.06,8.63-12.75-.38-4.69-1.5-17.6.38-21.57s7.5-3,9-7.31.69-13.73,5.25-18.38c9.56-9.75,21.74-2.85,25.68-4.1Z" style="fill: url(#radial-gradient);"/>
      <path d="m74.01,151.39c10.09-3.36,18.12-1.87,21.11-6.91,1.32-2.24,3.58-9.31,4.38-16.6,1.02-9.16.42-18.61.42-18.61l35.17,20.63s.56,13.66,2.8,15.71,16.44,2.61,20.36,4.3-7.28,31.01-7.28,31.01l-54.54,10.83-25.22-24.09,2.8-16.25Z" style="fill: url(#linear-gradient);"/>
      <path d="m74.01,151.39c-8.08,1.36-24.92,3.09-32.04,9.56-7.12,6.48-18.13,47.28-18.13,47.28h184.35s-7.77-34.54-15.54-44.04c-7.77-9.5-27.21-12.79-34.4-14.3,0,0,.51,32.43-40.94,32.43s-43.3-30.94-43.3-30.94Z" style="fill: url(#radial-gradient-2);"/>
      <path d="m60.44,173.31c1.13,12.66,6.1,23.69,6.78,33.66,0,0,2.71-16.7,0-23.26-2.71-6.56-6.78-10.4-6.78-10.4Z" style="fill: #1c2538;"/>
      <path d="m84.71,182.74c14.02,8.53,50.41,13.08,71.21,2.21,0,0-7.05,8.82-37.1,8.82-24.62,0-34.12-11.03-34.12-11.03Z" style="fill: url(#linear-gradient-2); opacity: .6;"/>
      <path d="m135.89,206.97c-37.75-2.78-53.75-18.19-53.75-18.19,0,0,16.6,6.14,35.82,7.02s34.95.92,34.95.92c0,0-12.21,7.35-43.18,4.12,0,0,11.02,4.38,26.17,6.14" style="fill: #1c2538;"/>
      <path d="m168.28,205.15c-1.36-25.55,7.23-33.8,7.23-33.8,0,0-4.3,11.52-4.75,18.65s-2.49,15.15-2.49,15.15Z" style="fill: #1c2538;"/>
      <path d="m100.05,119.62c9.21,5.79,30.75,12.51,38.41,12.51s11.95-5.04,17.18-14.76,5.79-19.61,4.67-27.08,1.49-10.09,2.43-14.57c.93-4.48,0-14.76,0-14.76,0,0-8.97-.19-11.77-4.86-2.8-4.67-11.59-5.42-18.5-5.23-6.91.19-17.32-11.39-17.32-11.39,0,0-8.07,4.48-8.07,10.83s3.18,12.33-.56,18.86-9.9,7.84-9.9,12.89c0,0-2.61-11.02-8.22-9.71s-3.44,12.78-.49,17.95c1.21,2.12,1.51,5.15,2.46,6.84,1.66,2.96,6.32,1.45,6.24-.32,0,0-.15,6.24,1.56,11.39,1.81,5.47,1.92,9.32,1.87,11.4Z" style="fill: url(#radial-gradient-3);"/>
      <g style="fill: none; opacity: .5;">
        <path d="m47.22,166.03c3.99-1.5,9.91-.11,10.34,0-.21-.06-1.55-.57-1.79-4.39-.23-3.68,9.17-4.51,19.47-4.83-.96-3.2-1.09-5.37-1.09-5.37-8.08,1.36-24.92,3.09-32.04,9.56-1.22,1.11-2.55,3.22-3.93,5.97.71,5.46-.98,7.81-1.22,8.11.44-.54,6.27-7.54,10.25-9.04Z" style="fill: url(#linear-gradient-3);"/>
      </g>
      <path d="m155.92,161.28c9.23-2.05,15.19-2.29,24,2.49s7.26,9.51,7.26,9.51c0,0,8.63-.65,12.35,4.44,0,0,0,0,0,0-2.11-5.69-4.42-10.73-6.73-13.56-7.77-9.5-27.21-12.79-34.4-14.3,0,0,.08,5.19-2.47,11.41h0Z" style="fill: url(#linear-gradient-4); opacity: .5;"/>
    </g>
  </g>
  <g id="Male_user_1" data-name="Male user #1">
    <g>
      <path d="m835.56,139.2c-17.22,9.54-31.69,4.19-48.84,22.41-17.15,18.22-18.76,46.62-18.76,46.62h189.71s-1.61-33.76-13.4-49.3-28.22-4.39-46.33-19.73-62.39,0-62.39,0Z" style="fill: url(#radial-gradient-4);"/>
      <path d="m897.95,139.2c-1.16-.98-2.43-1.84-3.79-2.59l1.57,13.22c7.88,5.41,30.33,1.38,37.92,7.98,7.59,6.6,7.59,27.15,7.59,27.15,0,0,11.38-8.63,9.49,9.28-1.03,9.73-5.32,13.01-9.03,13.98h15.99s-1.61-33.76-13.4-49.3c-11.79-15.54-28.22-4.39-46.33-19.73Z" style="fill: url(#linear-gradient-5); opacity: .5;"/>
      <path d="m784.4,172.68c4.43-9.65,40.47-9.95,59.73-21.18l-4.29-6.73-4.47-5.57c-17.14,9.4-31.56,4.15-48.65,22.3-3.17,3.37-5.81,7.09-8.01,10.91l-7.28,17.38s0,0,0,0c0,0,8.54-7.47,12.96-17.11Z" style="fill: url(#linear-gradient-6); opacity: .5;"/>
      <path d="m835.56,139.2c1.99,23.46,18.76,32.42,18.76,32.42,0,0,.3-6.31,8.5-6.57,8.2-.26,10.78,9.76,10.78,9.76l-3.78-25.9-34.26-9.71Z" style="fill: #1c2538;"/>
      <path d="m875.4,170.31s1.99-10.42,9.36-9.23c7.37,1.19,8.57,3.38,8.57,3.38l2.39-14.61-19.33-1.13-1,21.6Z" style="fill: #1c2538;"/>
      <path d="m851.07,123.65c-7.86,2.51-10.38,10.41-14.33,11.66-3.95,1.26,1.44,10.59,4.85,16.7,3.41,6.1,11.67,16.52,11.67,16.52,0,0,7.67-19.65,16.49-7.31l9.54-3.46s11.42-10.23,12.71,11.67c0,0,5.42-7.54,6.68-14.9s-1.26-17.89-1.26-17.89l-46.36-12.98Z" style="fill: url(#radial-gradient-5);"/>
      <path d="m853.65,102.84c.13,11.07-2.67,28.61-9.52,33.8,0,0,14.47,12.04,20.81,16.87,6.35,4.82,9.65,26.65,9.65,26.65,0,0,4.85-19.54,4.71-25.13-.14-5.58,5.95-.25,11.03-8.12s-2.96-17.01-2.96-17.01l-33.72-27.06Z" style="fill: url(#linear-gradient-7);"/>
      <path d="m918.13,52.08c.77,6.63,2.55,10.98,1.58,18.4s-1.45,19.7-.47,26.22c.98,6.52-3.73,17.34-3.73,17.34l-46.15-.97-17.43-19.2-12.1-18.39,17.59-46.15,62.56,9.2-1.86,13.54Z" style="fill: url(#radial-gradient-6);"/>
      <path d="m918.03,52.94s1.56-10.13-4.67-10.52c-6.23-.39-13.24,9.35-22.46,7.01s-27.78-9.35-32.45-4.67,6.49,5.97,6.62,13.76c.13,7.79-2.86,10.65-2.21,15.84.65,5.19-.39,8.83-2.86,8.18-2.47-.65-1.17-11.68-5.06-15.71s-11.55-.26-8.05,7.4,3.51,8.05,3.89,11.16,2.73,5.84,5.97,2.86c0,0-1.95,13.5-1.95,16.1,0,0-13.63-17.66-17.27-24.54-3.63-6.88-4.02-16.36-4.15-23.24-.13-6.88,1.3-9.61,5.06-12.85,3.76-3.25,3.63-14.02,11.16-19.73,7.53-5.71,13.11-6.36,21.68-7.53s11.7-6.06,16.1-5.97,8.89,2.57,14.2,1.37,8.28,1.37,9.07,3.66c1.1,3.21,5.77,2.66,7.79,4.95,1.63,1.85-.37,6.23,1.74,9.71s5.09,4.49,5.02,10.81c-.1,9.02-7.18,11.94-7.18,11.94Z" style="fill: url(#radial-gradient-7);"/>
      <path d="m854.32,103.72s7.41,14.42,14.23,21.64,14.43,10.72,22.42,10.72,17.54,2.14,21.44-1.95,7.99-20.27,7.99-26.51-1.17-10.92-1.17-10.92c0,0-.97,9.16-3.7,8.58s-1.32-3.66-12.61-3.5c-11.29.16-12.1,6.29-18.39,6.13-6.29-.16-21.69-28.25-21.69-28.25h-4.28l-4.24,24.05Z" style="fill: url(#linear-gradient-8);"/>
      <path d="m812,182.17c1.1,12.34,5.95,16.34,6.61,26.06,0,0,2.64-9.54,0-15.93-2.64-6.39-6.61-10.14-6.61-10.14Z" style="fill: #223654;"/>
      <path d="m909.89,208.23c-1.32-24.9,7.05-27.97,7.05-27.97,0,0-4.19,7.41-4.63,14.36s-2.42,13.61-2.42,13.61Z" style="fill: #223654;"/>
    </g>
  </g>
  <g id="arrow_styles_for_diagrams_etc" data-name="arrow styles for diagrams etc">
    <g id="arrow_styles_for_diagrams_etc-2" data-name="arrow styles for diagrams etc">
      <g id="arrow_styles_for_diagrams_etc-3" data-name="arrow styles for diagrams etc">
        <path d="m142.41,421.27l67.63-38.89c2-1.14,4.49.29,4.49,2.6v20.06s589.17,0,589.17,0c5.99,0,10.85,4.86,10.85,10.85v15.93c0,5.98-4.85,10.82-10.82,10.82H214.53s0,20.06,0,20.06c0,2.31-2.5,3.74-4.49,2.6l-67.63-38.89c-2-1.14-2-4.01,0-5.15Z" style="fill: url(#linear-gradient-9);"/>
      </g>
    </g>
  </g>
  <g id="arrow_styles_for_diagrams_etc-4" data-name="arrow styles for diagrams etc">
    <g id="arrow_styles_for_diagrams_etc-5" data-name="arrow styles for diagrams etc">
      <g id="arrow_styles_for_diagrams_etc-6" data-name="arrow styles for diagrams etc">
        <path d="m813.05,576.61l-67.63,38.89c-2,1.14-4.49-.29-4.49-2.6v-20.06s-589.17,0-589.17,0c-5.99,0-10.85-4.86-10.85-10.85v-15.93c0-5.98,4.85-10.82,10.82-10.82h589.2s0-20.06,0-20.06c0-2.31,2.5-3.74,4.49-2.6l67.63,38.89c2,1.14,2,4.01,0,5.15Z" style="fill: url(#linear-gradient-10);"/>
      </g>
    </g>
  </g>
  <g id="arrow_styles_for_diagrams_etc-7" data-name="arrow styles for diagrams etc">
    <g id="arrow_styles_for_diagrams_etc-8" data-name="arrow styles for diagrams etc">
      <g id="arrow_styles_for_diagrams_etc-9" data-name="arrow styles for diagrams etc">
        <path d="m813.05,736.88l-67.63,38.89c-2,1.14-4.49-.29-4.49-2.6v-20.06s-589.17,0-589.17,0c-5.99,0-10.85-4.86-10.85-10.85v-15.93c0-5.98,4.85-10.82,10.82-10.82h589.2s0-20.06,0-20.06c0-2.31,2.5-3.74,4.49-2.6l67.63,38.89c2,1.14,2,4.01,0,5.15Z" style="fill: url(#linear-gradient-11);"/>
      </g>
    </g>
  </g>
  <g id="arrow_styles_for_diagrams_etc-10" data-name="arrow styles for diagrams etc">
    <g id="arrow_styles_for_diagrams_etc-11" data-name="arrow styles for diagrams etc">
      <g id="arrow_styles_for_diagrams_etc-12" data-name="arrow styles for diagrams etc">
        <path d="m813.05,896.08l-67.63,38.89c-2,1.14-4.49-.29-4.49-2.6v-20.06s-589.17,0-589.17,0c-5.99,0-10.85-4.86-10.85-10.85v-15.93c0-5.98,4.85-10.82,10.82-10.82h589.2s0-20.06,0-20.06c0-2.31,2.5-3.74,4.49-2.6l67.63,38.89c2,1.14,2,4.01,0,5.15Z" style="fill: url(#linear-gradient-12);"/>
      </g>
    </g>
  </g>
</svg>