<?xml version="1.0" encoding="UTF-8"?>
<svg xmlns="http://www.w3.org/2000/svg" width="1360.33" height="488.78" xmlns:xlink="http://www.w3.org/1999/xlink" viewBox="0 0 1360.33 488.78">
  <defs>
    <linearGradient id="linear-gradient" x1="221.53" y1="442.73" x2="221.53" y2="305.7" gradientUnits="userSpaceOnUse">
      <stop offset=".42" stop-color="#9da8c4"/>
      <stop offset=".66" stop-color="#4f5669"/>
      <stop offset=".84" stop-color="#1a1a1a"/>
    </linearGradient>
    <linearGradient id="linear-gradient-2" x1="111.06" y1="188.63" x2="619.91" y2="556.36" gradientUnits="userSpaceOnUse">
      <stop offset="0" stop-color="#9da8c4"/>
      <stop offset=".57" stop-color="#4f5669"/>
      <stop offset="1" stop-color="#444b5c"/>
    </linearGradient>
    <linearGradient id="linear-gradient-3" x1="313.47" y1="334.97" x2="127.36" y2="185.72" gradientUnits="userSpaceOnUse">
      <stop offset=".12" stop-color="#525a6a"/>
      <stop offset=".29" stop-color="#586071"/>
      <stop offset=".55" stop-color="#687286"/>
      <stop offset=".66" stop-color="#727c92"/>
    </linearGradient>
    <linearGradient id="linear-gradient-4" x1="931.46" y1="2550.95" x2="930.96" y2="2584.16" gradientTransform="translate(-709.64 -2206.75)" xlink:href="#linear-gradient"/>
    <linearGradient id="linear-gradient-5" x1="221.53" y1="357.7" x2="221.53" y2="100.6" gradientUnits="userSpaceOnUse">
      <stop offset=".12" stop-color="#1c2538"/>
      <stop offset=".34" stop-color="#1d293f"/>
      <stop offset=".66" stop-color="#223654"/>
    </linearGradient>
    <linearGradient id="linear-gradient-6" x1="-1814.56" y1="315.76" x2="-1769.81" y2="94.98" gradientTransform="translate(-1133.47 -33.62) rotate(-178.68) scale(1 -1)" gradientUnits="userSpaceOnUse">
      <stop offset=".48" stop-color="#02adef" stop-opacity=".92"/>
      <stop offset=".53" stop-color="#1db2ec" stop-opacity=".93"/>
      <stop offset=".65" stop-color="#5dbfe8" stop-opacity=".95"/>
      <stop offset=".76" stop-color="#90cae4" stop-opacity=".97"/>
      <stop offset=".85" stop-color="#b5d1e1" stop-opacity=".99"/>
      <stop offset=".93" stop-color="#cbd6df" stop-opacity="1"/>
      <stop offset=".98" stop-color="#d4d8df"/>
    </linearGradient>
    <linearGradient id="linear-gradient-7" x1="881" y1="244.94" x2="577.53" y2="244.94" gradientUnits="userSpaceOnUse">
      <stop offset=".36" stop-color="#02adef" stop-opacity=".92"/>
      <stop offset=".45" stop-color="#05adee" stop-opacity=".93"/>
      <stop offset=".54" stop-color="#10b0ed" stop-opacity=".93"/>
      <stop offset=".62" stop-color="#23b3ec" stop-opacity=".94"/>
      <stop offset=".7" stop-color="#3db9ea" stop-opacity=".95"/>
      <stop offset=".79" stop-color="#5fc0e7" stop-opacity=".96"/>
      <stop offset=".87" stop-color="#89c8e4" stop-opacity=".97"/>
      <stop offset=".94" stop-color="#b9d2e1" stop-opacity=".99"/>
      <stop offset=".98" stop-color="#d4d8df"/>
    </linearGradient>
    <linearGradient id="linear-gradient-8" x1="1162.86" y1="113.94" x2="1154.1" y2="236.71" gradientTransform="translate(2331.6) rotate(-180) scale(1 -1)" xlink:href="#linear-gradient-2"/>
    <linearGradient id="linear-gradient-9" x1="1084.18" y1="150.18" x2="1107.4" y2="284.34" gradientTransform="translate(2331.6) rotate(-180) scale(1 -1)" xlink:href="#linear-gradient-2"/>
    <linearGradient id="linear-gradient-10" x1="1351.17" y1="40.51" x2="1129.86" y2="396.54" gradientTransform="translate(2331.6) rotate(-180) scale(1 -1)" xlink:href="#linear-gradient-2"/>
    <linearGradient id="linear-gradient-11" x1="-4858.96" y1="79.47" x2="-4824.03" y2="85.57" gradientTransform="translate(5930.98 -158.14) rotate(-3.59)" gradientUnits="userSpaceOnUse">
      <stop offset="0" stop-color="#666"/>
      <stop offset=".57" stop-color="#4d4d4d"/>
      <stop offset="1" stop-color="#333"/>
    </linearGradient>
    <linearGradient id="linear-gradient-12" x1="-4876.42" y1="118.63" x2="-4788.71" y2="118.63" xlink:href="#linear-gradient-11"/>
    <linearGradient id="linear-gradient-13" x1="-4881.39" y1="152.59" x2="-4792.09" y2="152.59" gradientTransform="translate(5930.98 -158.14) rotate(-3.59)" gradientUnits="userSpaceOnUse">
      <stop offset="0" stop-color="#666"/>
      <stop offset=".19" stop-color="#4d4d4d"/>
      <stop offset=".65" stop-color="#333"/>
    </linearGradient>
  </defs>
  <g id="Layer_3" data-name="Layer 3">
    <line x1="302.29" y1="272.62" x2="1171.46" y2="272.62" style="fill: none; stroke: #a3ea2a; stroke-miterlimit: 10; stroke-width: 13px;"/>
    <line x1="302.29" y1="245.32" x2="1171.46" y2="245.32" style="fill: none; stroke: #a3ea2a; stroke-miterlimit: 10; stroke-width: 13px;"/>
    <g>
      <rect x="17.01" y="21.92" width="355.77" height="64.2" rx="16.06" ry="16.06" style="fill: #1c2538; stroke-width: 0px;"/>
      <g>
        <path d="m99.47,41.69c.39.71.84,1.59,1.35,2.64s1.04,2.18,1.59,3.41,1.1,2.47,1.64,3.75c.54,1.28,1.05,2.48,1.53,3.6.48-1.12.99-2.32,1.53-3.6.54-1.28,1.09-2.52,1.64-3.75.55-1.22,1.08-2.36,1.59-3.41.51-1.05.96-1.93,1.35-2.64h4.61c.22,1.49.42,3.16.6,5.01s.35,3.77.49,5.77.27,4.01.39,6.02c.12,2.01.22,3.9.31,5.68h-4.93c-.06-2.18-.15-4.56-.26-7.14s-.27-5.17-.49-7.78c-.39.91-.82,1.91-1.3,3.02-.48,1.1-.95,2.21-1.42,3.31-.47,1.1-.92,2.16-1.35,3.16-.43,1-.8,1.87-1.11,2.58h-3.54c-.3-.71-.67-1.57-1.11-2.58-.43-1.01-.88-2.06-1.35-3.16-.47-1.1-.94-2.21-1.42-3.31-.48-1.1-.91-2.11-1.3-3.02-.22,2.62-.38,5.21-.49,7.78-.11,2.57-.19,4.95-.26,7.14h-4.93c.09-1.77.19-3.67.31-5.68s.25-4.02.39-6.02.3-3.92.49-5.77.38-3.52.6-5.01h4.83Z" style="fill: #a3ea2a; stroke-width: 0px;"/>
        <path d="m137.45,47.1c-.98,3.29-1.99,6.37-3.06,9.24s-2.22,5.67-3.48,8.37c-.46.97-.91,1.8-1.36,2.48-.46.68-.95,1.24-1.5,1.69s-1.15.77-1.83.97c-.68.21-1.48.31-2.39.31-.76,0-1.46-.07-2.1-.21-.64-.14-1.16-.3-1.58-.47l.84-3.86c.5.17.94.29,1.33.36.39.06.8.1,1.23.1.87,0,1.53-.23,2-.7.47-.46.86-1.11,1.18-1.93-1.1-2.16-2.21-4.59-3.31-7.28-1.1-2.69-2.14-5.71-3.12-9.07h5.12c.22.84.47,1.76.77,2.74.29.98.6,1.98.93,2.98.33,1.01.66,1.98.99,2.94.34.95.66,1.82.96,2.59.28-.78.58-1.64.88-2.59.3-.95.6-1.93.9-2.94s.58-2,.85-2.98c.27-.98.52-1.9.73-2.74h5Z" style="fill: #a3ea2a; stroke-width: 0px;"/>
        <path d="m158.37,64.62c-3.65,0-6.44-1.02-8.35-3.05s-2.87-4.92-2.87-8.66c0-1.86.29-3.52.88-4.98.58-1.46,1.38-2.69,2.4-3.7,1.02-1.01,2.23-1.77,3.63-2.29,1.41-.52,2.93-.78,4.57-.78.95,0,1.82.07,2.59.21s1.46.3,2.04.49c.58.18,1.07.37,1.46.57.39.2.67.35.84.45l-1.46,4.09c-.69-.37-1.5-.68-2.42-.94-.92-.26-1.96-.39-3.13-.39-.78,0-1.54.13-2.29.39s-1.41.68-1.98,1.25-1.03,1.31-1.38,2.22c-.35.91-.52,2.01-.52,3.31,0,1.04.11,2.01.34,2.9.23.9.59,1.67,1.1,2.32.51.65,1.17,1.16,2,1.54.82.38,1.82.57,2.98.57.74,0,1.4-.04,1.98-.13.58-.09,1.1-.19,1.56-.31.45-.12.85-.25,1.2-.41s.66-.29.94-.42l1.39,4.05c-.71.43-1.72.82-3.02,1.17s-2.8.52-4.51.52Z" style="fill: #a3ea2a; stroke-width: 0px;"/>
        <path d="m184.39,55.6c0,1.34-.2,2.57-.58,3.68-.39,1.11-.95,2.07-1.69,2.85-.74.79-1.62,1.4-2.64,1.83-1.03.43-2.18.65-3.45.65s-2.4-.22-3.42-.65c-1.03-.43-1.91-1.04-2.64-1.83-.74-.79-1.31-1.74-1.72-2.85-.41-1.11-.62-2.34-.62-3.68s.21-2.56.63-3.67c.42-1.1,1.01-2.04,1.75-2.82s1.63-1.38,2.66-1.82c1.03-.43,2.15-.65,3.36-.65s2.36.22,3.39.65c1.03.43,1.91,1.04,2.64,1.82s1.31,1.72,1.72,2.82c.41,1.1.62,2.32.62,3.67Zm-4.93,0c0-1.49-.3-2.67-.89-3.52-.59-.85-1.44-1.28-2.55-1.28s-1.96.43-2.56,1.28c-.61.85-.91,2.03-.91,3.52s.3,2.68.91,3.55c.61.88,1.46,1.31,2.56,1.31s1.95-.44,2.55-1.31c.59-.88.89-2.06.89-3.55Z" style="fill: #a3ea2a; stroke-width: 0px;"/>
        <path d="m197.49,55.12c0-1.56-.2-2.66-.6-3.31s-1.09-.97-2.06-.97c-.3,0-.62.02-.94.05s-.64.07-.94.11v13.17h-4.83v-16.48c.41-.11.89-.22,1.44-.34.55-.12,1.13-.23,1.75-.32s1.25-.17,1.9-.23c.65-.05,1.29-.08,1.91-.08,1.23,0,2.23.16,3,.47s1.4.69,1.9,1.12c.69-.5,1.49-.89,2.38-1.17.9-.28,1.72-.42,2.48-.42,1.36,0,2.48.19,3.36.57.88.38,1.57.91,2.09,1.61.52.69.88,1.51,1.07,2.46s.29,2.01.29,3.18v9.63h-4.83v-9.05c0-1.56-.2-2.66-.6-3.31-.4-.65-1.09-.97-2.06-.97-.26,0-.62.07-1.09.2s-.85.29-1.15.49c.15.5.25,1.02.29,1.57.04.55.06,1.14.06,1.77v9.31h-4.83v-9.05Z" style="fill: #a3ea2a; stroke-width: 0px;"/>
        <path d="m231.94,55.63c0,1.32-.16,2.52-.49,3.6s-.8,2.01-1.43,2.79c-.63.78-1.41,1.38-2.34,1.82s-2,.65-3.21.65c-.67,0-1.3-.06-1.88-.19s-1.15-.31-1.69-.55v6.42h-4.83v-22.48c.43-.13.93-.25,1.49-.37.56-.12,1.15-.22,1.77-.31.62-.09,1.24-.16,1.88-.21.64-.05,1.25-.08,1.83-.08,1.41,0,2.66.21,3.76.63,1.1.42,2.03,1.02,2.79,1.78.76.77,1.33,1.7,1.74,2.81.4,1.1.6,2.33.6,3.7Zm-4.93.13c0-1.49-.34-2.69-1.01-3.58s-1.67-1.35-2.98-1.35c-.43,0-.83.02-1.2.05-.37.03-.67.07-.91.11v8.73c.3.19.7.36,1.18.49s.98.19,1.48.19c2.29,0,3.44-1.55,3.44-4.64Z" style="fill: #a3ea2a; stroke-width: 0px;"/>
        <path d="m250.23,63.58c-.82.24-1.88.46-3.18.67-1.3.21-2.66.31-4.09.31s-2.65-.2-3.62-.58c-.96-.39-1.72-.94-2.29-1.64-.56-.7-.96-1.54-1.2-2.51-.24-.97-.36-2.04-.36-3.21v-9.5h4.83v8.92c0,1.56.21,2.68.62,3.37.41.69,1.18,1.04,2.3,1.04.35,0,.71-.02,1.1-.05.39-.03.73-.07,1.04-.11v-13.17h4.83v16.48Z" style="fill: #a3ea2a; stroke-width: 0px;"/>
        <path d="m254.61,42.86l4.83-.78v5.03h5.81v4.02h-5.81v6c0,1.02.18,1.83.54,2.43.36.61,1.08.91,2.16.91.52,0,1.05-.05,1.61-.15.55-.1,1.05-.23,1.51-.41l.68,3.76c-.58.24-1.23.44-1.95.62-.71.17-1.59.26-2.63.26-1.32,0-2.41-.18-3.28-.54-.87-.36-1.56-.85-2.08-1.49s-.88-1.41-1.09-2.32c-.21-.91-.31-1.91-.31-3.02v-14.34Z" style="fill: #a3ea2a; stroke-width: 0px;"/>
        <path d="m267.71,55.76c0-1.51.23-2.84.7-3.97.46-1.13,1.08-2.08,1.83-2.84s1.63-1.33,2.61-1.72c.98-.39,1.99-.58,3.03-.58,2.42,0,4.33.74,5.74,2.22,1.41,1.48,2.11,3.66,2.11,6.54,0,.28-.01.59-.03.92-.02.34-.04.63-.07.89h-10.96c.11,1,.57,1.78,1.39,2.37.82.58,1.92.88,3.31.88.89,0,1.76-.08,2.61-.24.85-.16,1.55-.36,2.09-.6l.65,3.92c-.26.13-.61.26-1.04.39-.43.13-.91.24-1.44.34-.53.1-1.1.18-1.7.24-.61.07-1.21.1-1.82.1-1.54,0-2.87-.23-4.01-.68-1.13-.45-2.08-1.08-2.82-1.87-.75-.79-1.3-1.72-1.65-2.81-.36-1.08-.54-2.25-.54-3.5Zm11.35-1.85c-.02-.41-.09-.81-.21-1.2-.12-.39-.3-.74-.55-1.04-.25-.3-.56-.55-.94-.75-.38-.19-.85-.29-1.41-.29s-1.01.09-1.39.28c-.39.18-.71.43-.97.73s-.46.65-.6,1.05c-.14.4-.24.81-.31,1.22h6.39Z" style="fill: #a3ea2a; stroke-width: 0px;"/>
        <path d="m297.74,51.39c-.43-.11-.94-.22-1.52-.34-.58-.12-1.21-.18-1.88-.18-.3,0-.67.03-1.09.08-.42.05-.74.11-.96.18v13.04h-4.83v-16.15c.86-.3,1.89-.59,3.07-.86,1.18-.27,2.49-.41,3.94-.41.26,0,.57.02.94.05.37.03.74.08,1.1.13.37.05.74.12,1.1.2.37.08.68.17.94.28l-.81,3.99Z" style="fill: #a3ea2a; stroke-width: 0px;"/>
      </g>
    </g>
    <g>
      <rect x="17.01" y="409.67" width="355.77" height="64.2" rx="16.06" ry="16.06" style="fill: #1c2538; stroke-width: 0px;"/>
      <g>
        <path d="m119.24,429.44h5.06v22.48h-5.06v-9.54h-8.5v9.54h-5.06v-22.48h5.06v8.6h8.5v-8.6Z" style="fill: #a3ea2a; stroke-width: 0px;"/>
        <path d="m128.36,443.51c0-1.51.23-2.84.7-3.97.46-1.13,1.08-2.08,1.83-2.84s1.63-1.33,2.61-1.72c.98-.39,1.99-.58,3.03-.58,2.42,0,4.33.74,5.74,2.22,1.41,1.48,2.11,3.66,2.11,6.54,0,.28-.01.59-.03.92-.02.34-.04.63-.07.89h-10.96c.11,1,.57,1.78,1.39,2.37.82.58,1.92.88,3.31.88.89,0,1.76-.08,2.61-.24.85-.16,1.55-.36,2.09-.6l.65,3.92c-.26.13-.61.26-1.04.39-.43.13-.91.24-1.44.34-.53.1-1.1.18-1.7.24-.61.07-1.21.1-1.82.1-1.54,0-2.87-.23-4.01-.68-1.13-.45-2.08-1.08-2.82-1.87-.75-.79-1.3-1.72-1.65-2.81-.36-1.08-.54-2.25-.54-3.5Zm11.35-1.85c-.02-.41-.09-.81-.21-1.2-.12-.39-.3-.74-.55-1.04-.25-.3-.56-.55-.94-.75-.38-.19-.85-.29-1.41-.29s-1.01.09-1.39.28c-.39.18-.71.43-.97.73s-.46.65-.6,1.05c-.14.4-.24.81-.31,1.22h6.39Z" style="fill: #a3ea2a; stroke-width: 0px;"/>
        <path d="m154.92,452.24c-1.41-.02-2.55-.17-3.42-.45-.88-.28-1.57-.68-2.08-1.18s-.85-1.12-1.04-1.85-.28-1.54-.28-2.45v-18.78l4.83-.78v18.58c0,.43.03.82.1,1.17.07.35.19.64.37.88.18.24.45.43.79.58s.81.25,1.39.29l-.68,3.99Z" style="fill: #a3ea2a; stroke-width: 0px;"/>
        <path d="m165.17,452.24c-1.41-.02-2.55-.17-3.42-.45-.88-.28-1.57-.68-2.08-1.18s-.85-1.12-1.04-1.85-.28-1.54-.28-2.45v-18.78l4.83-.78v18.58c0,.43.03.82.1,1.17.07.35.19.64.37.88.18.24.45.43.79.58s.81.25,1.39.29l-.68,3.99Z" style="fill: #a3ea2a; stroke-width: 0px;"/>
        <path d="m184.57,443.35c0,1.34-.2,2.57-.58,3.68-.39,1.11-.95,2.07-1.69,2.85-.74.79-1.62,1.4-2.64,1.83-1.03.43-2.18.65-3.45.65s-2.4-.22-3.42-.65c-1.03-.43-1.91-1.04-2.64-1.83-.74-.79-1.31-1.74-1.72-2.85-.41-1.11-.62-2.34-.62-3.68s.21-2.56.63-3.67c.42-1.1,1.01-2.04,1.75-2.82s1.63-1.38,2.66-1.82c1.03-.43,2.15-.65,3.36-.65s2.36.22,3.39.65c1.03.43,1.91,1.04,2.64,1.82s1.31,1.72,1.72,2.82c.41,1.1.62,2.32.62,3.67Zm-4.93,0c0-1.49-.3-2.67-.89-3.52-.59-.85-1.44-1.28-2.55-1.28s-1.96.43-2.56,1.28c-.61.85-.91,2.03-.91,3.52s.3,2.68.91,3.55c.61.88,1.46,1.31,2.56,1.31s1.95-.44,2.55-1.31c.59-.88.89-2.06.89-3.55Z" style="fill: #a3ea2a; stroke-width: 0px;"/>
        <path d="m211.51,431.84c.26.89.54,1.89.86,3,.31,1.11.65,2.27,1,3.46.36,1.19.72,2.38,1.08,3.57.37,1.19.72,2.29,1.07,3.31.28-1.1.57-2.3.86-3.6.29-1.3.57-2.64.83-4.02s.52-2.76.77-4.14.48-2.7.7-3.97h5.26c-.76,3.76-1.64,7.58-2.63,11.45-.99,3.87-2.06,7.55-3.21,11.03h-4.63c-.75-2.08-1.49-4.25-2.2-6.54-.71-2.28-1.41-4.57-2.1-6.86-.69,2.29-1.38,4.58-2.08,6.86-.69,2.28-1.42,4.46-2.18,6.54h-4.62c-1.15-3.48-2.22-7.16-3.21-11.03-.99-3.87-1.86-7.69-2.62-11.45h5.48c.22,1.28.46,2.6.72,3.97.26,1.37.53,2.75.81,4.14.28,1.38.57,2.72.86,4.02.29,1.3.59,2.5.9,3.6.39-1.06.77-2.18,1.14-3.37s.73-2.38,1.07-3.57c.35-1.19.67-2.33.96-3.44.29-1.1.56-2.09.8-2.95h4.31Z" style="fill: #a3ea2a; stroke-width: 0px;"/>
        <path d="m241.71,443.35c0,1.34-.2,2.57-.58,3.68-.39,1.11-.95,2.07-1.69,2.85-.74.79-1.62,1.4-2.64,1.83-1.03.43-2.18.65-3.45.65s-2.4-.22-3.42-.65c-1.03-.43-1.91-1.04-2.64-1.83-.74-.79-1.31-1.74-1.72-2.85-.41-1.11-.62-2.34-.62-3.68s.21-2.56.63-3.67c.42-1.1,1.01-2.04,1.75-2.82s1.63-1.38,2.66-1.82c1.03-.43,2.15-.65,3.36-.65s2.36.22,3.39.65c1.03.43,1.91,1.04,2.64,1.82s1.31,1.72,1.72,2.82c.41,1.1.62,2.32.62,3.67Zm-4.93,0c0-1.49-.3-2.67-.89-3.52-.59-.85-1.44-1.28-2.55-1.28s-1.96.43-2.56,1.28c-.61.85-.91,2.03-.91,3.52s.3,2.68.91,3.55c.61.88,1.46,1.31,2.56,1.31s1.95-.44,2.55-1.31c.59-.88.89-2.06.89-3.55Z" style="fill: #a3ea2a; stroke-width: 0px;"/>
        <path d="m255.73,439.14c-.43-.11-.94-.22-1.52-.34-.58-.12-1.21-.18-1.88-.18-.3,0-.67.03-1.09.08-.42.05-.74.11-.96.18v13.04h-4.83v-16.15c.86-.3,1.89-.59,3.07-.86,1.18-.27,2.49-.41,3.94-.41.26,0,.57.02.94.05.37.03.74.08,1.1.13.37.05.74.12,1.1.2.37.08.68.17.94.28l-.81,3.99Z" style="fill: #a3ea2a; stroke-width: 0px;"/>
        <path d="m265.94,452.24c-1.41-.02-2.55-.17-3.42-.45-.88-.28-1.57-.68-2.08-1.18s-.85-1.12-1.04-1.85-.28-1.54-.28-2.45v-18.78l4.83-.78v18.58c0,.43.03.82.1,1.17.07.35.19.64.37.88.18.24.45.43.79.58s.81.25,1.39.29l-.68,3.99Z" style="fill: #a3ea2a; stroke-width: 0px;"/>
        <path d="m284.43,451.36c-.43.13-.93.25-1.49.37-.56.12-1.15.22-1.77.31-.62.09-1.24.16-1.88.21-.64.05-1.25.08-1.83.08-1.41,0-2.66-.21-3.76-.62-1.1-.41-2.03-1-2.79-1.77s-1.34-1.7-1.74-2.79c-.4-1.09-.6-2.32-.6-3.68s.17-2.63.52-3.75c.35-1.11.84-2.06,1.49-2.84s1.44-1.37,2.38-1.78,2.02-.62,3.23-.62c.67,0,1.27.06,1.8.19.53.13,1.06.31,1.61.55v-7.72l4.83-.78v24.62Zm-10.93-8.11c0,1.49.33,2.69,1.01,3.6.67.91,1.66,1.36,2.98,1.36.43,0,.83-.02,1.2-.05.37-.03.67-.07.91-.11v-8.79c-.3-.19-.7-.36-1.18-.49s-.98-.2-1.48-.2c-2.29,0-3.44,1.56-3.44,4.67Z" style="fill: #a3ea2a; stroke-width: 0px;"/>
      </g>
    </g>
    <g>
      <rect x="995.63" y="409.67" width="355.77" height="64.2" rx="16.06" ry="16.06" style="fill: #1c2538; stroke-width: 0px;"/>
      <g>
        <path d="m1097.86,429.44h5.06v22.48h-5.06v-9.54h-8.5v9.54h-5.06v-22.48h5.06v8.6h8.5v-8.6Z" style="fill: #a3ea2a; stroke-width: 0px;"/>
        <path d="m1106.98,443.51c0-1.51.23-2.84.7-3.97.46-1.13,1.08-2.08,1.83-2.84s1.63-1.33,2.61-1.72c.98-.39,1.99-.58,3.03-.58,2.42,0,4.33.74,5.74,2.22,1.41,1.48,2.11,3.66,2.11,6.54,0,.28-.01.59-.03.92-.02.34-.04.63-.07.89h-10.96c.11,1,.57,1.78,1.39,2.37.82.58,1.92.88,3.31.88.89,0,1.76-.08,2.61-.24.85-.16,1.55-.36,2.09-.6l.65,3.92c-.26.13-.61.26-1.04.39-.43.13-.91.24-1.44.34-.53.1-1.1.18-1.7.24-.61.07-1.21.1-1.82.1-1.54,0-2.87-.23-4.01-.68-1.13-.45-2.08-1.08-2.82-1.87-.75-.79-1.3-1.72-1.65-2.81-.36-1.08-.54-2.25-.54-3.5Zm11.35-1.85c-.02-.41-.09-.81-.21-1.2-.12-.39-.3-.74-.55-1.04-.25-.3-.56-.55-.94-.75-.38-.19-.85-.29-1.41-.29s-1.01.09-1.39.28c-.39.18-.71.43-.97.73s-.46.65-.6,1.05c-.14.4-.24.81-.31,1.22h6.39Z" style="fill: #a3ea2a; stroke-width: 0px;"/>
        <path d="m1133.54,452.24c-1.41-.02-2.55-.17-3.42-.45-.88-.28-1.57-.68-2.08-1.18s-.85-1.12-1.04-1.85-.28-1.54-.28-2.45v-18.78l4.83-.78v18.58c0,.43.03.82.1,1.17.07.35.19.64.37.88.18.24.45.43.79.58s.81.25,1.39.29l-.68,3.99Z" style="fill: #a3ea2a; stroke-width: 0px;"/>
        <path d="m1143.79,452.24c-1.41-.02-2.55-.17-3.42-.45-.88-.28-1.57-.68-2.08-1.18s-.85-1.12-1.04-1.85-.28-1.54-.28-2.45v-18.78l4.83-.78v18.58c0,.43.03.82.1,1.17.07.35.19.64.37.88.18.24.45.43.79.58s.81.25,1.39.29l-.68,3.99Z" style="fill: #a3ea2a; stroke-width: 0px;"/>
        <path d="m1163.18,443.35c0,1.34-.2,2.57-.58,3.68-.39,1.11-.95,2.07-1.69,2.85-.74.79-1.62,1.4-2.64,1.83-1.03.43-2.18.65-3.45.65s-2.4-.22-3.42-.65c-1.03-.43-1.91-1.04-2.64-1.83-.74-.79-1.31-1.74-1.72-2.85-.41-1.11-.62-2.34-.62-3.68s.21-2.56.63-3.67c.42-1.1,1.01-2.04,1.75-2.82s1.63-1.38,2.66-1.82c1.03-.43,2.15-.65,3.36-.65s2.36.22,3.39.65c1.03.43,1.91,1.04,2.64,1.82s1.31,1.72,1.72,2.82c.41,1.1.62,2.32.62,3.67Zm-4.93,0c0-1.49-.3-2.67-.89-3.52-.59-.85-1.44-1.28-2.55-1.28s-1.96.43-2.56,1.28c-.61.85-.91,2.03-.91,3.52s.3,2.68.91,3.55c.61.88,1.46,1.31,2.56,1.31s1.95-.44,2.55-1.31c.59-.88.89-2.06.89-3.55Z" style="fill: #a3ea2a; stroke-width: 0px;"/>
        <path d="m1190.13,431.84c.26.89.54,1.89.86,3,.31,1.11.65,2.27,1,3.46.36,1.19.72,2.38,1.08,3.57.37,1.19.72,2.29,1.07,3.31.28-1.1.57-2.3.86-3.6.29-1.3.57-2.64.83-4.02s.52-2.76.77-4.14.48-2.7.7-3.97h5.26c-.76,3.76-1.64,7.58-2.63,11.45-.99,3.87-2.06,7.55-3.21,11.03h-4.63c-.75-2.08-1.49-4.25-2.2-6.54-.71-2.28-1.41-4.57-2.1-6.86-.69,2.29-1.38,4.58-2.08,6.86-.69,2.28-1.42,4.46-2.18,6.54h-4.62c-1.15-3.48-2.22-7.16-3.21-11.03-.99-3.87-1.86-7.69-2.62-11.45h5.48c.22,1.28.46,2.6.72,3.97.26,1.37.53,2.75.81,4.14.28,1.38.57,2.72.86,4.02.29,1.3.59,2.5.9,3.6.39-1.06.77-2.18,1.14-3.37s.73-2.38,1.07-3.57c.35-1.19.67-2.33.96-3.44.29-1.1.56-2.09.8-2.95h4.31Z" style="fill: #a3ea2a; stroke-width: 0px;"/>
        <path d="m1220.33,443.35c0,1.34-.2,2.57-.58,3.68-.39,1.11-.95,2.07-1.69,2.85-.74.79-1.62,1.4-2.64,1.83-1.03.43-2.18.65-3.45.65s-2.4-.22-3.42-.65c-1.03-.43-1.91-1.04-2.64-1.83-.74-.79-1.31-1.74-1.72-2.85-.41-1.11-.62-2.34-.62-3.68s.21-2.56.63-3.67c.42-1.1,1.01-2.04,1.75-2.82s1.63-1.38,2.66-1.82c1.03-.43,2.15-.65,3.36-.65s2.36.22,3.39.65c1.03.43,1.91,1.04,2.64,1.82s1.31,1.72,1.72,2.82c.41,1.1.62,2.32.62,3.67Zm-4.93,0c0-1.49-.3-2.67-.89-3.52-.59-.85-1.44-1.28-2.55-1.28s-1.96.43-2.56,1.28c-.61.85-.91,2.03-.91,3.52s.3,2.68.91,3.55c.61.88,1.46,1.31,2.56,1.31s1.95-.44,2.55-1.31c.59-.88.89-2.06.89-3.55Z" style="fill: #a3ea2a; stroke-width: 0px;"/>
        <path d="m1234.34,439.14c-.43-.11-.94-.22-1.52-.34-.58-.12-1.21-.18-1.88-.18-.3,0-.67.03-1.09.08-.42.05-.74.11-.96.18v13.04h-4.83v-16.15c.86-.3,1.89-.59,3.07-.86,1.18-.27,2.49-.41,3.94-.41.26,0,.57.02.94.05.37.03.74.08,1.1.13.37.05.74.12,1.1.2.37.08.68.17.94.28l-.81,3.99Z" style="fill: #a3ea2a; stroke-width: 0px;"/>
        <path d="m1244.56,452.24c-1.41-.02-2.55-.17-3.42-.45-.88-.28-1.57-.68-2.08-1.18s-.85-1.12-1.04-1.85-.28-1.54-.28-2.45v-18.78l4.83-.78v18.58c0,.43.03.82.1,1.17.07.35.19.64.37.88.18.24.45.43.79.58s.81.25,1.39.29l-.68,3.99Z" style="fill: #a3ea2a; stroke-width: 0px;"/>
        <path d="m1263.05,451.36c-.43.13-.93.25-1.49.37-.56.12-1.15.22-1.77.31-.62.09-1.24.16-1.88.21-.64.05-1.25.08-1.83.08-1.41,0-2.66-.21-3.76-.62-1.1-.41-2.03-1-2.79-1.77s-1.34-1.7-1.74-2.79c-.4-1.09-.6-2.32-.6-3.68s.17-2.63.52-3.75c.35-1.11.84-2.06,1.49-2.84s1.44-1.37,2.38-1.78,2.02-.62,3.23-.62c.67,0,1.27.06,1.8.19.53.13,1.06.31,1.61.55v-7.72l4.83-.78v24.62Zm-10.93-8.11c0,1.49.33,2.69,1.01,3.6.67.91,1.66,1.36,2.98,1.36.43,0,.83-.02,1.2-.05.37-.03.67-.07.91-.11v-8.79c-.3-.19-.7-.36-1.18-.49s-.98-.2-1.48-.2c-2.29,0-3.44,1.56-3.44,4.67Z" style="fill: #a3ea2a; stroke-width: 0px;"/>
      </g>
    </g>
    <g>
      <rect x="521.19" y="409.67" width="355.77" height="64.2" rx="16.06" ry="16.06" style="fill: #1c2538; stroke-width: 0px;"/>
      <g>
        <path d="m576.7,426.75c.91,0,1.74.09,2.5.28s1.34.36,1.75.54l-.94,3.86c-.43-.19-.9-.34-1.41-.44s-.98-.15-1.41-.15c-.58,0-1.08.08-1.48.24-.4.16-.71.38-.94.66-.23.28-.39.62-.49,1.01-.1.39-.15.81-.15,1.26v.84h5.97v4.02h-5.97v13.04h-4.83v-17.97c0-2.21.62-3.96,1.87-5.25,1.24-1.3,3.09-1.95,5.53-1.95Z" style="fill: #a3ea2a; stroke-width: 0px;"/>
        <path d="m590.22,437.58c1.41,0,2.6.19,3.58.57.98.38,1.79.89,2.42,1.54.63.65,1.08,1.41,1.36,2.27.28.86.42,1.78.42,2.76,0,.87-.16,1.75-.47,2.66s-.79,1.73-1.43,2.46c-.64.74-1.45,1.34-2.43,1.82-.98.48-2.15.71-3.49.71-2.7,0-4.76-.85-6.16-2.56-1.41-1.71-2.11-4.06-2.11-7.07,0-2.16.33-4.08,1-5.74.67-1.67,1.63-3.07,2.87-4.2,1.24-1.14,2.75-2,4.51-2.59,1.76-.59,3.75-.9,5.95-.92.04.67.09,1.33.13,1.96.04.64.09,1.3.13,1.99-1.1.02-2.14.12-3.1.31-.96.18-1.84.47-2.63.86-.79.39-1.48.89-2.06,1.51-.58.62-1.04,1.37-1.36,2.25.47-.22.96-.37,1.46-.45.5-.09.96-.13,1.39-.13Zm-.62,3.76c-.48,0-.98.04-1.52.13-.54.09-.96.21-1.26.36,0,.09,0,.22-.02.39-.01.17-.02.32-.02.45,0,.78.05,1.51.16,2.21.11.69.29,1.3.55,1.82.26.52.6.92,1.04,1.22s.97.44,1.62.44c.54,0,1-.11,1.38-.34.38-.23.69-.51.94-.86.25-.35.43-.73.55-1.15.12-.42.18-.83.18-1.22,0-1.1-.28-1.95-.83-2.55s-1.48-.89-2.77-.89Z" style="fill: #a3ea2a; stroke-width: 0px;"/>
        <path d="m617.27,443.38c0,1.36-.2,2.59-.6,3.7-.4,1.1-.98,2.04-1.74,2.82-.76.78-1.69,1.38-2.79,1.8-1.1.42-2.36.63-3.76.63-.58,0-1.2-.03-1.83-.08-.64-.05-1.26-.12-1.88-.21-.62-.09-1.21-.19-1.77-.31-.56-.12-1.06-.24-1.49-.37v-23.84l4.83-.78v8.5c.54-.24,1.1-.42,1.69-.55s1.21-.19,1.88-.19c1.21,0,2.28.21,3.21.63s1.71,1.02,2.34,1.8c.63.78,1.1,1.71,1.43,2.8.32,1.09.49,2.31.49,3.65Zm-4.93-.13c0-3.11-1.15-4.67-3.44-4.67-.5,0-.99.07-1.48.2s-.88.29-1.18.49v8.79c.24.04.54.08.91.11.37.03.77.05,1.2.05,1.32,0,2.31-.45,2.98-1.36s1.01-2.11,1.01-3.6Z" style="fill: #a3ea2a; stroke-width: 0px;"/>
        <path d="m630.47,443c-.45.22-.96.37-1.51.47-.55.1-1.02.15-1.41.15-1.41,0-2.61-.17-3.6-.5s-1.81-.81-2.45-1.43c-.64-.62-1.11-1.36-1.41-2.22-.3-.86-.45-1.82-.45-2.85,0-.86.15-1.75.44-2.66s.75-1.74,1.38-2.48c.63-.75,1.42-1.36,2.38-1.85s2.12-.73,3.49-.73c2.79,0,4.89.86,6.31,2.58s2.12,4.19,2.12,7.41c0,2.12-.28,3.99-.83,5.61-.55,1.62-1.41,2.98-2.56,4.09-1.16,1.1-2.63,1.94-4.43,2.51-1.8.57-3.92.87-6.39.89-.02-.69-.05-1.36-.1-2.01-.04-.65-.09-1.32-.13-2.01,1.23-.02,2.35-.11,3.34-.28.99-.16,1.87-.43,2.63-.81.76-.38,1.4-.88,1.93-1.51.53-.63.95-1.42,1.25-2.37Zm-2.37-3.15c.5,0,1.02-.05,1.56-.15.54-.1.94-.23,1.2-.41v-.29c0-.09,0-.17.02-.26.01-.09.02-.16.02-.23-.02-.78-.09-1.51-.19-2.19-.11-.68-.29-1.28-.55-1.78-.26-.51-.61-.91-1.05-1.2-.44-.29-.99-.44-1.64-.44-.52,0-.97.11-1.36.32-.39.22-.7.5-.94.84s-.42.72-.54,1.13c-.12.41-.18.81-.18,1.2,0,1.17.29,2.03.86,2.59.57.56,1.51.84,2.81.84Z" style="fill: #a3ea2a; stroke-width: 0px;"/>
        <path d="m641.76,451.91c.13-1.58.4-3.22.81-4.93.41-1.71.91-3.38,1.51-5.03s1.26-3.2,2-4.65c.73-1.46,1.48-2.72,2.24-3.78h-9.76v-4.12h15.73v3.5c-.69.76-1.45,1.81-2.29,3.15-.83,1.34-1.62,2.86-2.37,4.56-.75,1.7-1.39,3.52-1.95,5.47-.55,1.95-.89,3.89-1.02,5.84h-4.9Z" style="fill: #a3ea2a; stroke-width: 0px;"/>
        <path d="m657.04,443.51c0-1.51.23-2.84.7-3.97.46-1.13,1.08-2.08,1.83-2.84s1.63-1.33,2.61-1.72c.98-.39,1.99-.58,3.03-.58,2.42,0,4.33.74,5.74,2.22,1.41,1.48,2.11,3.66,2.11,6.54,0,.28-.01.59-.03.92-.02.34-.04.63-.07.89h-10.96c.11,1,.57,1.78,1.39,2.37.82.58,1.92.88,3.31.88.89,0,1.76-.08,2.61-.24.85-.16,1.55-.36,2.09-.6l.65,3.92c-.26.13-.61.26-1.04.39-.43.13-.91.24-1.44.34-.53.1-1.1.18-1.7.24-.61.07-1.21.1-1.82.1-1.54,0-2.87-.23-4.01-.68-1.13-.45-2.08-1.08-2.82-1.87-.75-.79-1.3-1.72-1.65-2.81-.36-1.08-.54-2.25-.54-3.5Zm11.35-1.85c-.02-.41-.09-.81-.21-1.2-.12-.39-.3-.74-.55-1.04-.25-.3-.56-.55-.94-.75-.38-.19-.85-.29-1.41-.29s-1.01.09-1.39.28c-.39.18-.71.43-.97.73s-.46.65-.6,1.05c-.14.4-.24.81-.31,1.22h6.39Z" style="fill: #a3ea2a; stroke-width: 0px;"/>
        <path d="m689.6,429.44v13.49h2.4v3.96h-2.4v5.03h-4.74v-5.03h-9.7v-3.54c.48-.95,1.07-2.03,1.78-3.23s1.51-2.43,2.38-3.7c.88-1.27,1.8-2.5,2.77-3.71.97-1.21,1.95-2.3,2.92-3.28h4.57Zm-4.74,5.9c-.84,1.1-1.74,2.3-2.69,3.6-.95,1.3-1.75,2.63-2.4,3.99h5.09v-7.59Z" style="fill: #a3ea2a; stroke-width: 0px;"/>
        <path d="m702.61,426.75c.91,0,1.74.09,2.5.28s1.34.36,1.75.54l-.94,3.86c-.43-.19-.9-.34-1.41-.44s-.98-.15-1.41-.15c-.58,0-1.08.08-1.48.24-.4.16-.71.38-.94.66-.23.28-.39.62-.49,1.01-.1.39-.15.81-.15,1.26v.84h5.97v4.02h-5.97v13.04h-4.83v-17.97c0-2.21.62-3.96,1.87-5.25,1.24-1.3,3.09-1.95,5.53-1.95Z" style="fill: #a3ea2a; stroke-width: 0px;"/>
        <path d="m721.71,429.44v13.49h2.4v3.96h-2.4v5.03h-4.74v-5.03h-9.7v-3.54c.48-.95,1.07-2.03,1.78-3.23s1.51-2.43,2.38-3.7c.88-1.27,1.8-2.5,2.77-3.71.97-1.21,1.95-2.3,2.92-3.28h4.57Zm-4.74,5.9c-.84,1.1-1.74,2.3-2.69,3.6-.95,1.3-1.75,2.63-2.4,3.99h5.09v-7.59Z" style="fill: #a3ea2a; stroke-width: 0px;"/>
        <path d="m733.45,434.4c1.43,0,2.62.16,3.57.49.95.32,1.71.79,2.29,1.39.57.61.98,1.34,1.22,2.21.24.87.36,1.83.36,2.89v10.05c-.69.15-1.65.33-2.89.54s-2.72.31-4.48.31c-1.1,0-2.1-.1-3-.29-.9-.19-1.67-.51-2.32-.96-.65-.44-1.15-1.02-1.49-1.74-.35-.71-.52-1.59-.52-2.63s.2-1.84.6-2.53c.4-.69.93-1.24,1.61-1.65.67-.41,1.44-.71,2.3-.89.86-.18,1.76-.28,2.69-.28.63,0,1.18.03,1.67.08.49.05.88.12,1.18.21v-.45c0-.82-.25-1.48-.75-1.98-.5-.5-1.36-.75-2.59-.75-.82,0-1.63.06-2.43.18-.8.12-1.49.29-2.08.5l-.62-3.89c.28-.09.63-.18,1.05-.28.42-.1.88-.18,1.38-.26.5-.08,1.02-.14,1.57-.19.55-.05,1.11-.08,1.67-.08Zm.39,14.14c.48,0,.93-.01,1.36-.03.43-.02.78-.05,1.04-.1v-3.67c-.2-.04-.49-.09-.88-.13-.39-.04-.75-.06-1.07-.06-.45,0-.88.03-1.28.08-.4.05-.75.16-1.05.31-.3.15-.54.36-.71.62-.17.26-.26.58-.26.97,0,.76.25,1.28.76,1.57.51.29,1.21.44,2.09.44Z" style="fill: #a3ea2a; stroke-width: 0px;"/>
        <path d="m744.45,443.38c0-1.23.2-2.39.6-3.49.4-1.09.98-2.04,1.74-2.85.76-.81,1.68-1.45,2.76-1.93s2.31-.71,3.7-.71c.91,0,1.74.08,2.5.24.76.16,1.49.39,2.21.7l-1,3.86c-.45-.17-.95-.32-1.49-.45-.54-.13-1.15-.19-1.82-.19-1.43,0-2.49.44-3.2,1.33-.7.89-1.05,2.05-1.05,3.5,0,1.54.33,2.72.99,3.57.66.84,1.81,1.27,3.45,1.27.58,0,1.21-.05,1.88-.16.67-.11,1.29-.28,1.85-.52l.68,3.96c-.56.24-1.26.44-2.11.62-.84.17-1.77.26-2.79.26-1.56,0-2.9-.23-4.02-.7-1.12-.46-2.05-1.1-2.77-1.9-.72-.8-1.25-1.75-1.59-2.84s-.5-2.28-.5-3.55Z" style="fill: #a3ea2a; stroke-width: 0px;"/>
        <path d="m766.79,434.4c1.43,0,2.62.16,3.57.49.95.32,1.71.79,2.29,1.39.57.61.98,1.34,1.22,2.21.24.87.36,1.83.36,2.89v10.05c-.69.15-1.65.33-2.89.54s-2.72.31-4.48.31c-1.1,0-2.1-.1-3-.29-.9-.19-1.67-.51-2.32-.96-.65-.44-1.15-1.02-1.49-1.74-.35-.71-.52-1.59-.52-2.63s.2-1.84.6-2.53c.4-.69.93-1.24,1.61-1.65.67-.41,1.44-.71,2.3-.89.86-.18,1.76-.28,2.69-.28.63,0,1.18.03,1.67.08.49.05.88.12,1.18.21v-.45c0-.82-.25-1.48-.75-1.98-.5-.5-1.36-.75-2.59-.75-.82,0-1.63.06-2.43.18-.8.12-1.49.29-2.08.5l-.62-3.89c.28-.09.63-.18,1.05-.28.42-.1.88-.18,1.38-.26.5-.08,1.02-.14,1.57-.19.55-.05,1.11-.08,1.67-.08Zm.39,14.14c.48,0,.93-.01,1.36-.03.43-.02.78-.05,1.04-.1v-3.67c-.2-.04-.49-.09-.88-.13-.39-.04-.75-.06-1.07-.06-.45,0-.88.03-1.28.08-.4.05-.75.16-1.05.31-.3.15-.54.36-.71.62-.17.26-.26.58-.26.97,0,.76.25,1.28.76,1.57.51.29,1.21.44,2.09.44Z" style="fill: #a3ea2a; stroke-width: 0px;"/>
        <path d="m793.52,445.65c0,.97-.17,1.87-.5,2.68-.33.81-.84,1.52-1.51,2.13-.67.61-1.51,1.08-2.51,1.41-1.01.33-2.17.5-3.49.5-1.51,0-2.77-.21-3.78-.63s-1.82-.95-2.43-1.58c-.62-.63-1.05-1.32-1.31-2.06s-.39-1.43-.39-2.06.09-1.25.26-1.79c.17-.54.41-1.03.71-1.48.3-.44.64-.85,1.02-1.22.38-.37.78-.71,1.22-1.04-.93-.76-1.62-1.5-2.06-2.24-.44-.73-.66-1.67-.66-2.82,0-.86.18-1.7.54-2.49.36-.8.86-1.5,1.51-2.09s1.43-1.07,2.35-1.43c.92-.36,1.94-.53,3.07-.53,1.32,0,2.45.19,3.39.57s1.71.86,2.32,1.44c.61.58,1.04,1.24,1.31,1.96.27.72.41,1.44.41,2.15,0,1.04-.28,2-.83,2.9-.55.9-1.24,1.6-2.06,2.12,1.23.8,2.11,1.64,2.64,2.52s.79,1.9.79,3.07Zm-11.22.2c0,.26.06.55.18.86.12.31.31.6.57.86.26.26.59.48,1.01.65.41.17.91.26,1.49.26,1.12,0,1.95-.27,2.46-.81.52-.54.78-1.15.78-1.82,0-.5-.11-.94-.34-1.33-.23-.39-.54-.73-.92-1.02-.39-.29-.85-.55-1.38-.78-.53-.23-1.1-.44-1.7-.63-.61.46-1.11.99-1.52,1.59-.41.61-.62,1.33-.62,2.18Zm6-10.67c0-.24-.05-.49-.15-.76-.1-.27-.26-.52-.49-.76-.23-.24-.51-.44-.86-.6-.35-.16-.77-.24-1.26-.24s-.89.08-1.23.23c-.35.15-.63.35-.86.6-.23.25-.39.51-.5.79s-.16.55-.16.81c0,.69.25,1.34.76,1.94.51.6,1.38,1.12,2.61,1.55.69-.43,1.22-.93,1.59-1.49.37-.56.55-1.25.55-2.07Z" style="fill: #a3ea2a; stroke-width: 0px;"/>
        <path d="m803.15,434.4c1.43,0,2.62.16,3.57.49.95.32,1.71.79,2.29,1.39.57.61.98,1.34,1.22,2.21.24.87.36,1.83.36,2.89v10.05c-.69.15-1.65.33-2.89.54s-2.72.31-4.48.31c-1.1,0-2.1-.1-3-.29-.9-.19-1.67-.51-2.32-.96-.65-.44-1.15-1.02-1.49-1.74-.35-.71-.52-1.59-.52-2.63s.2-1.84.6-2.53c.4-.69.93-1.24,1.61-1.65.67-.41,1.44-.71,2.3-.89.86-.18,1.76-.28,2.69-.28.63,0,1.18.03,1.67.08.49.05.88.12,1.18.21v-.45c0-.82-.25-1.48-.75-1.98-.5-.5-1.36-.75-2.59-.75-.82,0-1.63.06-2.43.18-.8.12-1.49.29-2.08.5l-.62-3.89c.28-.09.63-.18,1.05-.28.42-.1.88-.18,1.38-.26.5-.08,1.02-.14,1.57-.19.55-.05,1.11-.08,1.67-.08Zm.39,14.14c.48,0,.93-.01,1.36-.03.43-.02.78-.05,1.04-.1v-3.67c-.2-.04-.49-.09-.88-.13-.39-.04-.75-.06-1.07-.06-.45,0-.88.03-1.28.08-.4.05-.75.16-1.05.31-.3.15-.54.36-.71.62-.17.26-.26.58-.26.97,0,.76.25,1.28.76,1.57.51.29,1.21.44,2.09.44Z" style="fill: #a3ea2a; stroke-width: 0px;"/>
        <path d="m824.37,445.3c0-.63-.14-1.18-.42-1.67-.28-.49-.77-.89-1.46-1.22-.69-.33-1.62-.57-2.79-.75s-2.64-.26-4.41-.26c.24-2.01.43-4.05.58-6.13.15-2.08.27-4.02.36-5.84h12.16v4.05h-8.11c-.04.78-.09,1.53-.15,2.25-.05.72-.11,1.36-.18,1.9,3.16.22,5.49.96,6.99,2.22,1.5,1.27,2.25,3.02,2.25,5.27,0,1.04-.18,2-.55,2.89-.37.89-.92,1.65-1.65,2.3-.74.65-1.66,1.16-2.77,1.52-1.11.37-2.42.55-3.91.55-.58,0-1.2-.04-1.83-.11-.64-.08-1.25-.17-1.85-.29s-1.13-.24-1.61-.37-.84-.26-1.1-.39l.88-3.99c.54.24,1.25.47,2.14.7.89.23,1.95.34,3.18.34,1.49,0,2.57-.3,3.24-.89s1.01-1.29,1.01-2.09Z" style="fill: #a3ea2a; stroke-width: 0px;"/>
      </g>
    </g>
    <g>
      <rect x="521.19" y="21.92" width="355.77" height="64.2" rx="16.06" ry="16.06" style="fill: #1c2538; stroke-width: 0px;"/>
      <g>
        <path d="m621.38,41.69v4.31h-6.78v18.16h-5.06v-18.16h-6.78v-4.31h18.62Z" style="fill: #a3ea2a; stroke-width: 0px;"/>
        <path d="m624.3,64.16v-24.39l4.83-.78v8.17c.32-.11.74-.21,1.25-.31.51-.1,1-.15,1.48-.15,1.38,0,2.53.19,3.45.57.92.38,1.65.91,2.21,1.61.55.69.94,1.51,1.17,2.46.23.95.34,2.01.34,3.18v9.63h-4.83v-9.05c0-1.56-.2-2.66-.6-3.31s-1.14-.97-2.22-.97c-.43,0-.84.04-1.22.11-.38.08-.72.16-1.02.24v12.97h-4.83Z" style="fill: #a3ea2a; stroke-width: 0px;"/>
        <path d="m642.59,55.76c0-1.51.23-2.84.7-3.97.46-1.13,1.08-2.08,1.83-2.84s1.63-1.33,2.61-1.72c.98-.39,1.99-.58,3.03-.58,2.42,0,4.33.74,5.74,2.22,1.41,1.48,2.11,3.66,2.11,6.54,0,.28-.01.59-.03.92-.02.34-.04.63-.07.89h-10.96c.11,1,.57,1.78,1.39,2.37.82.58,1.92.88,3.31.88.89,0,1.76-.08,2.61-.24.85-.16,1.55-.36,2.09-.6l.65,3.92c-.26.13-.61.26-1.04.39-.43.13-.91.24-1.44.34-.53.1-1.1.18-1.7.24-.61.07-1.21.1-1.82.1-1.54,0-2.87-.23-4.01-.68-1.13-.45-2.08-1.08-2.82-1.87-.75-.79-1.3-1.72-1.65-2.81-.36-1.08-.54-2.25-.54-3.5Zm11.35-1.85c-.02-.41-.09-.81-.21-1.2-.12-.39-.3-.74-.55-1.04-.25-.3-.56-.55-.94-.75-.38-.19-.85-.29-1.41-.29s-1.01.09-1.39.28c-.39.18-.71.43-.97.73s-.46.65-.6,1.05c-.14.4-.24.81-.31,1.22h6.39Z" style="fill: #a3ea2a; stroke-width: 0px;"/>
        <path d="m670.45,41.69h5.06v22.48h-5.06v-22.48Z" style="fill: #a3ea2a; stroke-width: 0px;"/>
        <path d="m680.37,47.69c.82-.24,1.88-.46,3.18-.67,1.3-.21,2.66-.31,4.09-.31s2.65.19,3.62.57c.96.38,1.72.91,2.29,1.61s.96,1.51,1.2,2.46.36,2.01.36,3.18v9.63h-4.83v-9.05c0-1.56-.21-2.66-.62-3.31-.41-.65-1.18-.97-2.3-.97-.35,0-.71.02-1.1.05-.39.03-.74.07-1.04.11v13.17h-4.83v-16.48Z" style="fill: #a3ea2a; stroke-width: 0px;"/>
        <path d="m699.32,42.86l4.83-.78v5.03h5.81v4.02h-5.81v6c0,1.02.18,1.83.54,2.43.36.61,1.08.91,2.16.91.52,0,1.05-.05,1.61-.15.55-.1,1.05-.23,1.51-.41l.68,3.76c-.58.24-1.23.44-1.95.62-.71.17-1.59.26-2.63.26-1.32,0-2.41-.18-3.28-.54-.87-.36-1.56-.85-2.08-1.49s-.88-1.41-1.09-2.32c-.21-.91-.31-1.91-.31-3.02v-14.34Z" style="fill: #a3ea2a; stroke-width: 0px;"/>
        <path d="m712.42,55.76c0-1.51.23-2.84.7-3.97.46-1.13,1.08-2.08,1.83-2.84s1.63-1.33,2.61-1.72c.98-.39,1.99-.58,3.03-.58,2.42,0,4.33.74,5.74,2.22,1.41,1.48,2.11,3.66,2.11,6.54,0,.28-.01.59-.03.92-.02.34-.04.63-.07.89h-10.96c.11,1,.57,1.78,1.39,2.37.82.58,1.92.88,3.31.88.89,0,1.76-.08,2.61-.24.85-.16,1.55-.36,2.09-.6l.65,3.92c-.26.13-.61.26-1.04.39-.43.13-.91.24-1.44.34-.53.1-1.1.18-1.7.24-.61.07-1.21.1-1.82.1-1.54,0-2.87-.23-4.01-.68-1.13-.45-2.08-1.08-2.82-1.87-.75-.79-1.3-1.72-1.65-2.81-.36-1.08-.54-2.25-.54-3.5Zm11.35-1.85c-.02-.41-.09-.81-.21-1.2-.12-.39-.3-.74-.55-1.04-.25-.3-.56-.55-.94-.75-.38-.19-.85-.29-1.41-.29s-1.01.09-1.39.28c-.39.18-.71.43-.97.73s-.46.65-.6,1.05c-.14.4-.24.81-.31,1.22h6.39Z" style="fill: #a3ea2a; stroke-width: 0px;"/>
        <path d="m742.45,51.39c-.43-.11-.94-.22-1.52-.34-.58-.12-1.21-.18-1.88-.18-.3,0-.67.03-1.09.08-.42.05-.74.11-.96.18v13.04h-4.83v-16.15c.86-.3,1.89-.59,3.07-.86,1.18-.27,2.49-.41,3.94-.41.26,0,.57.02.94.05.37.03.74.08,1.1.13.37.05.74.12,1.1.2.37.08.68.17.94.28l-.81,3.99Z" style="fill: #a3ea2a; stroke-width: 0px;"/>
        <path d="m745.86,47.69c.82-.24,1.88-.46,3.18-.67,1.3-.21,2.66-.31,4.09-.31s2.65.19,3.62.57c.96.38,1.72.91,2.29,1.61s.96,1.51,1.2,2.46.36,2.01.36,3.18v9.63h-4.83v-9.05c0-1.56-.21-2.66-.62-3.31-.41-.65-1.18-.97-2.3-.97-.35,0-.71.02-1.1.05-.39.03-.74.07-1.04.11v13.17h-4.83v-16.48Z" style="fill: #a3ea2a; stroke-width: 0px;"/>
        <path d="m764.15,55.76c0-1.51.23-2.84.7-3.97.46-1.13,1.08-2.08,1.83-2.84s1.63-1.33,2.61-1.72c.98-.39,1.99-.58,3.03-.58,2.42,0,4.33.74,5.74,2.22,1.41,1.48,2.11,3.66,2.11,6.54,0,.28-.01.59-.03.92-.02.34-.04.63-.07.89h-10.96c.11,1,.57,1.78,1.39,2.37.82.58,1.92.88,3.31.88.89,0,1.76-.08,2.61-.24.85-.16,1.55-.36,2.09-.6l.65,3.92c-.26.13-.61.26-1.04.39-.43.13-.91.24-1.44.34-.53.1-1.1.18-1.7.24-.61.07-1.21.1-1.82.1-1.54,0-2.87-.23-4.01-.68-1.13-.45-2.08-1.08-2.82-1.87-.75-.79-1.3-1.72-1.65-2.81-.36-1.08-.54-2.25-.54-3.5Zm11.35-1.85c-.02-.41-.09-.81-.21-1.2-.12-.39-.3-.74-.55-1.04-.25-.3-.56-.55-.94-.75-.38-.19-.85-.29-1.41-.29s-1.01.09-1.39.28c-.39.18-.71.43-.97.73s-.46.65-.6,1.05c-.14.4-.24.81-.31,1.22h6.39Z" style="fill: #a3ea2a; stroke-width: 0px;"/>
        <path d="m783.74,42.86l4.83-.78v5.03h5.81v4.02h-5.81v6c0,1.02.18,1.83.54,2.43.36.61,1.08.91,2.16.91.52,0,1.05-.05,1.61-.15.55-.1,1.05-.23,1.51-.41l.68,3.76c-.58.24-1.23.44-1.95.62-.71.17-1.59.26-2.63.26-1.32,0-2.41-.18-3.28-.54-.87-.36-1.56-.85-2.08-1.49s-.88-1.41-1.09-2.32c-.21-.91-.31-1.91-.31-3.02v-14.34Z" style="fill: #a3ea2a; stroke-width: 0px;"/>
      </g>
    </g>
    <g>
      <rect x="995.63" y="21.92" width="355.77" height="64.2" rx="16.06" ry="16.06" style="fill: #1c2538; stroke-width: 0px;"/>
      <g>
        <path d="m1094.07,59.82v4.35h-15.02v-22.48h5.06v18.13h9.96Z" style="fill: #a3ea2a; stroke-width: 0px;"/>
        <path d="m1102.27,42.17c0,.89-.29,1.58-.86,2.09-.57.51-1.25.76-2.03.76s-1.46-.25-2.03-.76c-.57-.51-.86-1.21-.86-2.09s.29-1.58.86-2.09c.57-.51,1.25-.76,2.03-.76s1.45.25,2.03.76c.57.51.86,1.21.86,2.09Zm-.45,21.99h-4.83v-17.06h4.83v17.06Z" style="fill: #a3ea2a; stroke-width: 0px;"/>
        <path d="m1106.36,47.69c.82-.24,1.88-.46,3.18-.67,1.3-.21,2.66-.31,4.09-.31s2.65.19,3.62.57c.96.38,1.72.91,2.29,1.61s.96,1.51,1.2,2.46.36,2.01.36,3.18v9.63h-4.83v-9.05c0-1.56-.21-2.66-.62-3.31-.41-.65-1.18-.97-2.3-.97-.35,0-.71.02-1.1.05-.39.03-.74.07-1.04.11v13.17h-4.83v-16.48Z" style="fill: #a3ea2a; stroke-width: 0px;"/>
        <path d="m1140.03,63.58c-.82.24-1.88.46-3.18.67-1.3.21-2.66.31-4.09.31s-2.65-.2-3.62-.58c-.96-.39-1.72-.94-2.29-1.64-.56-.7-.96-1.54-1.2-2.51-.24-.97-.36-2.04-.36-3.21v-9.5h4.83v8.92c0,1.56.21,2.68.62,3.37.41.69,1.18,1.04,2.3,1.04.35,0,.71-.02,1.1-.05.39-.03.73-.07,1.04-.11v-13.17h4.83v16.48Z" style="fill: #a3ea2a; stroke-width: 0px;"/>
        <path d="m1151.33,51.89l3.39-4.78h4.99l-5.92,8.3c1.36,1.56,2.56,3.11,3.62,4.65,1.05,1.54,1.9,2.91,2.53,4.12h-5.18c-.18-.33-.39-.73-.65-1.22-.26-.49-.55-1-.88-1.53s-.66-.98-1.01-1.35c-.35-.37-.7-.7-1.04-1-.33.28-.66.59-1,.93-.34.34-.66.76-.96,1.27-.3.51-.6,1.01-.9,1.51s-.55.96-.78,1.39h-4.92c.27-.53.63-1.17,1.08-1.91.45-.74.93-1.51,1.47-2.29.53-.79,1.11-1.55,1.73-2.3.62-.74,1.23-1.44,1.82-2.09-1.06-1.51-2.08-2.96-3.06-4.35-.98-1.39-1.95-2.76-2.9-4.12h5.22l3.36,4.78Z" style="fill: #a3ea2a; stroke-width: 0px;"/>
        <path d="m1176.77,60.31c.71,0,1.3-.06,1.77-.18.46-.12.84-.28,1.12-.49s.48-.45.58-.73c.11-.28.16-.59.16-.94,0-.73-.35-1.35-1.04-1.83s-1.88-1.01-3.57-1.57c-.74-.26-1.47-.56-2.21-.89s-1.39-.76-1.98-1.27c-.58-.51-1.06-1.12-1.43-1.85-.37-.72-.55-1.61-.55-2.64s.2-1.97.58-2.81c.39-.83.94-1.54,1.65-2.12s1.58-1.03,2.59-1.35,2.16-.47,3.44-.47c1.51,0,2.82.16,3.92.49,1.1.32,2.01.68,2.72,1.07l-1.46,3.99c-.63-.32-1.33-.61-2.09-.86-.77-.25-1.69-.37-2.77-.37-1.21,0-2.08.17-2.61.5-.53.34-.79.85-.79,1.54,0,.41.1.76.29,1.04.2.28.47.54.83.76.36.23.77.43,1.23.62s.98.37,1.54.57c1.17.43,2.18.86,3.05,1.28.86.42,1.58.91,2.16,1.48.57.56,1,1.22,1.28,1.98.28.76.42,1.68.42,2.76,0,2.1-.74,3.72-2.21,4.88-1.47,1.16-3.69,1.74-6.65,1.74-.99,0-1.89-.06-2.69-.18-.8-.12-1.51-.26-2.12-.44s-1.15-.36-1.59-.55c-.44-.19-.82-.38-1.12-.55l1.43-4.02c.67.37,1.5.7,2.48.99.98.29,2.19.44,3.62.44Z" style="fill: #a3ea2a; stroke-width: 0px;"/>
        <path d="m1188.38,55.76c0-1.51.23-2.84.7-3.97.46-1.13,1.08-2.08,1.83-2.84s1.63-1.33,2.61-1.72c.98-.39,1.99-.58,3.03-.58,2.42,0,4.33.74,5.74,2.22,1.41,1.48,2.11,3.66,2.11,6.54,0,.28-.01.59-.03.92-.02.34-.04.63-.07.89h-10.96c.11,1,.57,1.78,1.39,2.37.82.58,1.92.88,3.31.88.89,0,1.76-.08,2.61-.24.85-.16,1.55-.36,2.09-.6l.65,3.92c-.26.13-.61.26-1.04.39-.43.13-.91.24-1.44.34-.53.1-1.1.18-1.7.24-.61.07-1.21.1-1.82.1-1.54,0-2.87-.23-4.01-.68-1.13-.45-2.08-1.08-2.82-1.87-.75-.79-1.3-1.72-1.65-2.81-.36-1.08-.54-2.25-.54-3.5Zm11.35-1.85c-.02-.41-.09-.81-.21-1.2-.12-.39-.3-.74-.55-1.04-.25-.3-.56-.55-.94-.75-.38-.19-.85-.29-1.41-.29s-1.01.09-1.39.28c-.39.18-.71.43-.97.73s-.46.65-.6,1.05c-.14.4-.24.81-.31,1.22h6.39Z" style="fill: #a3ea2a; stroke-width: 0px;"/>
        <path d="m1218.42,51.39c-.43-.11-.94-.22-1.52-.34-.58-.12-1.21-.18-1.88-.18-.3,0-.67.03-1.09.08-.42.05-.74.11-.96.18v13.04h-4.83v-16.15c.86-.3,1.89-.59,3.07-.86,1.18-.27,2.49-.41,3.94-.41.26,0,.57.02.94.05.37.03.74.08,1.1.13.37.05.74.12,1.1.2.37.08.68.17.94.28l-.81,3.99Z" style="fill: #a3ea2a; stroke-width: 0px;"/>
        <path d="m1227.49,64.16c-1.11-2.16-2.23-4.69-3.37-7.59-1.14-2.9-2.22-6.05-3.24-9.47h5.12c.22.84.47,1.76.77,2.74.29.98.6,1.98.91,2.98.31,1.01.63,1.98.94,2.94.32.95.62,1.82.93,2.59.28-.78.59-1.64.91-2.59s.65-1.93.96-2.94.62-2,.91-2.98c.29-.98.55-1.9.76-2.74h5c-1.02,3.42-2.1,6.57-3.24,9.47-1.14,2.9-2.26,5.43-3.37,7.59h-4.01Z" style="fill: #a3ea2a; stroke-width: 0px;"/>
        <path d="m1239.4,55.76c0-1.51.23-2.84.7-3.97.46-1.13,1.08-2.08,1.83-2.84s1.63-1.33,2.61-1.72c.98-.39,1.99-.58,3.03-.58,2.42,0,4.33.74,5.74,2.22,1.41,1.48,2.11,3.66,2.11,6.54,0,.28-.01.59-.03.92-.02.34-.04.63-.07.89h-10.96c.11,1,.57,1.78,1.39,2.37.82.58,1.92.88,3.31.88.89,0,1.76-.08,2.61-.24.85-.16,1.55-.36,2.09-.6l.65,3.92c-.26.13-.61.26-1.04.39-.43.13-.91.24-1.44.34-.53.1-1.1.18-1.7.24-.61.07-1.21.1-1.82.1-1.54,0-2.87-.23-4.01-.68-1.13-.45-2.08-1.08-2.82-1.87-.75-.79-1.3-1.72-1.65-2.81-.36-1.08-.54-2.25-.54-3.5Zm11.35-1.85c-.02-.41-.09-.81-.21-1.2-.12-.39-.3-.74-.55-1.04-.25-.3-.56-.55-.94-.75-.38-.19-.85-.29-1.41-.29s-1.01.09-1.39.28c-.39.18-.71.43-.97.73s-.46.65-.6,1.05c-.14.4-.24.81-.31,1.22h6.39Z" style="fill: #a3ea2a; stroke-width: 0px;"/>
        <path d="m1269.44,51.39c-.43-.11-.94-.22-1.52-.34-.58-.12-1.21-.18-1.88-.18-.3,0-.67.03-1.09.08-.42.05-.74.11-.96.18v13.04h-4.83v-16.15c.86-.3,1.89-.59,3.07-.86,1.18-.27,2.49-.41,3.94-.41.26,0,.57.02.94.05.37.03.74.08,1.1.13.37.05.74.12,1.1.2.37.08.68.17.94.28l-.81,3.99Z" style="fill: #a3ea2a; stroke-width: 0px;"/>
      </g>
    </g>
  </g>
  <g id="Layer_2" data-name="Layer 2">
    <g id="Desktop_variation" data-name="Desktop variation">
      <g>
        <g id="Desktop_Computer" data-name="Desktop Computer">
          <g>
            <path d="m219.28,156.54v179.42c0,5.98-4.15,11.17-9.99,12.48l-24.77,5.58-50.08,11.27c1.56-.49,6.21-2.99,6.32-15.61.06-6.75-.75-54.04-1.66-104.43-.94-51.76-1.99-106.8-2.33-124.58-.05-2.45-.76-4.79-2.02-6.82-1.09-1.76-2.6-3.27-4.43-4.39-.27-.16-.55-.32-.82-.48-.98-.54-2.01-.99-3.05-1.27l2.32-.1,7.45-.31c6.92-.29,13.77,1.42,19.75,4.91l56.96,33.27c3.93,2.29,6.34,6.5,6.34,11.05Z" style="fill: #525a6a; stroke-width: 0px;"/>
            <path d="m184.47,354.02l-50.08,11.27c1.56-.49,6.21-2.99,6.32-15.61.06-6.75-.75-54.04-1.66-104.43,2.99,15.61,18.9,92.42,45.41,108.77Z" style="fill: #525a6a; stroke-width: 0px;"/>
            <path d="m219.28,156.54v13.7c-11.37-24.53-62.94-52.01-71.08-53.75-5.46-1.16-10.44-2.09-13.44-2.63-1.85-.33-2.95-.52-2.95-.52l-2.31-4.36-1.69-2.71,6.85.21c7.97.25,15.76,2.49,22.65,6.51l55.62,32.48c3.93,2.29,6.34,6.5,6.34,11.05Z" style="fill: #525a6a; stroke-width: 0px;"/>
            <path d="m134.39,365.29c-.32.1-.5.11-.5.11l.5-.11Z" style="fill: #2c2c2c; stroke-width: 0px;"/>
            <path d="m50.7,112.46l75.28-5.91c6.25-.49,11.64,4.04,11.72,9.86l3.01,239.83c.07,5.83-5.23,10.49-11.51,10.11l-78.29-4.76c-5.68-.35-10.1-4.72-10.1-9.99V122.44c0-5.2,4.3-9.54,9.89-9.98Z" style="fill: #89bd27; stroke-width: 0px;"/>
            <path d="m136.28,353.66c.07,5.75-4.93,10.34-10.87,9.97l-74.03-4.7c-5.38-.34-9.56-4.65-9.56-9.85V122.95c0-5.13,4.08-9.43,9.38-9.86l18.75-1.53,52.56-4.3c5.92-.49,11.02,3.98,11.1,9.74l1.02,106.4,1.53,120.7.11,9.56Z" style="fill: #727c92; stroke-width: 0px;"/>
            <path d="m136.28,353.51c.07,5.75-4.93,10.34-10.87,9.97l-74.03-4.7c-5.38-.34-9.56-4.65-9.56-9.85V123.09c0-5.13,4.08-9.41,9.36-9.84l18.72-1.53,66.26,232.24.11,9.55Z" style="fill: #525a6a; opacity: .65; stroke-width: 0px;"/>
            <path d="m44.89,125.35v13.31c0,1.73,1.52,3.09,3.3,2.96l77.99-5.48c1.61-.11,2.85-1.41,2.85-2.96v-14.68c0-1.75-1.55-3.12-3.35-2.96l-77.99,6.85c-1.58.14-2.8,1.42-2.8,2.96Z" style="fill: #d4d8df; stroke-width: 0px;"/>
            <path d="m44.89,152.02v13.32c0,1.7,1.48,3.06,3.24,2.97l77.99-4.11c1.63-.09,2.91-1.39,2.91-2.97v-14.69c0-1.73-1.52-3.09-3.3-2.96l-77.99,5.48c-1.61.11-2.85,1.41-2.85,2.96Z" style="fill: #d4d8df; stroke-width: 0px;"/>
            <path d="m44.89,178.69v13.32c0,1.68,1.45,3.03,3.19,2.97l77.99-2.74c1.65-.06,2.96-1.37,2.96-2.97v-14.69c0-1.7-1.48-3.06-3.24-2.97l-77.99,4.11c-1.63.09-2.91,1.39-2.91,2.97Z" style="fill: #d4d8df; stroke-width: 0px;"/>
            <polygon points="115.77 245.89 115.77 249.97 59.68 249.97 59.68 220.39 61.71 220.33 61.71 245.89 115.77 245.89" style="fill: #1c2538; stroke-width: 0px;"/>
            <polygon points="115.77 218.98 115.77 245.89 61.71 245.89 61.71 220.4 115.77 218.98" style="fill: #d4d8df; stroke-width: 0px;"/>
            <polyline points="68.85 334.1 68.85 338.69 77.52 338.69 77.52 334.1 68.85 334.1" style="fill: #d4d8df; stroke-width: 0px;"/>
            <polyline points="89.76 334.61 89.76 339.2 99.96 339.2 99.96 334.61 89.76 334.61" style="fill: #d4d8df; stroke-width: 0px;"/>
            <polygon points="115.77 233.48 62.22 233.9 62.22 236.57 115.77 236.57 115.77 233.48" style="fill: #1c2538; stroke-width: 0px;"/>
            <path d="m136.2,353.53c.07,5.74-4.93,10.33-10.86,9.96l-73.96-4.69c-5.37-.34-9.55-4.65-9.55-9.84v-104.38c1.42,16.95.17,90.81,12.44,103.89,9.95,10.6,54.43,10.21,68.51,6.99,13.84-3.16,11.41-91.73,11.86-131.91l1.56,129.98Z" style="fill: #1c2538; stroke-width: 0px;"/>
            <polygon points="210.1 173.43 210.75 333.39 205.51 334.64 204.21 169.67 210.1 173.43" style="fill: #727c92; opacity: .65; stroke-width: 0px;"/>
            <path d="m54.33,348.55l-9.29,6.25-.93.42s1.2,2.28,4.83,3.3l8.58-7.43s-2.91-1.88-3.19-2.54Z" style="fill: #e8e8e8; opacity: .26; stroke-width: 0px;"/>
            <path d="m43.64,357.89s6.12,3.31,9.07,3.51l70.07,4.53c3.17.22,6.57-.32,9.25-2.04l5.46-4.75-.28-.07-4.39,2.81c-3.51,2.25-7.9,3.04-12.06,2.77l-67.31-4.09c-3.12-.2-9.81-2.68-9.81-2.68h0Z" style="fill: #64930a; stroke-width: 0px;"/>
            <path d="m53.57,355.44s15.23,4.19,34.47,4.74c19.24.56,36.83-1.25,41.71-2.64,0,0-31.12,1.95-41.71,1.53-10.59-.42-35.16-3.9-35.16-3.9" style="fill: #e8e8e8; opacity: .26; stroke-width: 0px;"/>
            <path d="m131.67,108.89s3.4,2.83,3.4,6.52c0,3.69,1.12,85.94,1.12,85.94,0,0,2.53-79.74,1.55-85.12-.99-5.38-6.07-7.34-6.07-7.34Z" style="fill: #a3ea2a; opacity: .36; stroke-width: 0px;"/>
          </g>
        </g>
        <rect x="199.5" y="329.37" width="44.07" height="35.5" style="fill: url(#linear-gradient); stroke-width: 0px;"/>
        <path d="m98.37,191.87h246.32c2.37,0,4.29,1.92,4.29,4.29v144.6c0,2.37-1.92,4.29-4.29,4.29H98.37c-2.37,0-4.29-1.92-4.29-4.29v-144.6c0-2.37,1.92-4.29,4.29-4.29Z" style="fill: url(#linear-gradient-2); stroke-width: 0px;"/>
        <path d="m348.98,196.16v132.21H94.08v-132.21c0-2.37,1.92-4.29,4.29-4.29h246.32c2.37,0,4.29,1.92,4.29,4.29Z" style="fill: url(#linear-gradient-3); stroke-width: 0px;"/>
        <path d="m183.06,361.62h76.95v3.29c0,1.87-1.52,3.38-3.38,3.38h-70.18c-1.87,0-3.38-1.52-3.38-3.38v-3.29h0Z" transform="translate(443.06 729.9) rotate(180)" style="fill: url(#linear-gradient-4); stroke-width: 0px;"/>
        <circle cx="221.53" cy="338.53" r="4.41" style="fill: #1c2538; stroke-width: 0px;"/>
        <path d="m103.49,317.85v-115.79c0-1.55,1.26-2.81,2.81-2.81h230.47c1.55,0,2.81,1.26,2.81,2.81v115.79c0,2.13-1.78,3.85-3.98,3.85H107.47c-2.2,0-3.98-1.72-3.98-3.85Z" style="fill: url(#linear-gradient-5); stroke-width: 0px;"/>
        <rect x="139.07" y="223.23" width="114.17" height="3.69" style="fill: #a3ea2a; stroke-width: 0px;"/>
        <rect x="139.13" y="232.6" width="147.89" height="3.69" style="fill: #a3ea2a; stroke-width: 0px;"/>
        <rect x="139.13" y="241.96" width="161.23" height="3.69" style="fill: #a3ea2a; stroke-width: 0px;"/>
        <rect x="139.07" y="263.25" width="114.17" height="3.69" style="fill: #a3ea2a; stroke-width: 0px;"/>
        <rect x="139.13" y="272.62" width="147.89" height="3.69" style="fill: #a3ea2a; stroke-width: 0px;"/>
        <rect x="139.13" y="281.99" width="161.23" height="3.69" style="fill: #a3ea2a; stroke-width: 0px;"/>
      </g>
    </g>
    <g id="Cloud">
      <path d="m567.19,324.56c14.3,5.68,28.18,8.69,28.18,8.69h0c-10.21-2.89-21.17-10.74-21.22-31.16-.08-38.23,42.88-36.29,42.88-36.29,2.96-45.81,47.9-46.68,47.9-46.68,0,0,8.98-58.09,73.5-63.3,11.72-.94,21.43.52,29.47,3.55l-26.95-12.13c-29.69-13.36-64.77-7.51-87.91,15.39-9.83,9.72-18.51,23.28-24.19,42.16,0,0-36.85-1.41-49.2,42,0,0-27.26,10.54-33.2,30.49-7.82,26.29,6.62,41.68,20.73,47.28Z" style="fill: url(#linear-gradient-6); stroke-width: 0px;"/>
      <path d="m573.65,302.05c.04,20.42,11.01,28.28,21.22,31.16,8.9,2.52,31.33.25,31.33.25l192.78-19.09s37.45-7.74,34.77-57.5c-2.68-49.76-47.63-38.45-47.63-38.45,0,0-2.46-45.44-38.71-59.09,0,0,0,0-.01,0-8.05-3.03-17.76-4.5-29.47-3.55-64.52,5.21-73.5,63.3-73.5,63.3,0,0-44.94.88-47.9,46.68,0,0-42.96-1.94-42.88,36.29Z" style="fill: url(#linear-gradient-7); stroke-width: 0px;"/>
    </g>
    <g id="Server_green" data-name="Server green">
      <g>
        <g>
          <g>
            <polygon points="1287.19 181.73 1169.91 130.3 1060.05 182.92 1174.04 231.69 1287.19 181.73" style="fill: url(#linear-gradient-8); stroke-width: 0px;"/>
            <polyline points="1172.91 229.99 1171.97 344.27 1283.07 294.89 1287.19 181.73" style="fill: url(#linear-gradient-9); stroke-width: 0px;"/>
            <polygon points="1173 230.08 1171.97 344.27 1061.9 291.8 1059.84 182.76 1173 230.08" style="fill: url(#linear-gradient-10); stroke-width: 0px;"/>
            <path d="m1156.55,261.48l-82.71-37.95c-1.06-.49-1.76-1.51-1.84-2.67l-1.36-21.59c-.15-2.37,2.27-4.05,4.44-3.08l83.89,37.34c1.13.5,1.86,1.62,1.87,2.86l.18,22.21c.02,2.31-2.37,3.86-4.48,2.9Z" style="fill: url(#linear-gradient-11); stroke-width: 0px;"/>
            <path d="m1160.73,259.97c-.72,1.49-2.53,2.25-4.18,1.51l-82.72-37.95c-1.05-.48-1.76-1.51-1.83-2.67l-1.36-21.59c-.13-1.99,1.56-3.5,3.39-3.36-.23.46-.34,1-.3,1.57l1.36,21.59c.07,1.16.78,2.19,1.83,2.67l82.72,37.95c.36.15.72.26,1.09.28Z" style="fill: #1a1a1a; stroke-width: 0px;"/>
            <path d="m1155.45,295.71l-82.71-37.95c-1.06-.49-1.76-1.51-1.84-2.67l-1.36-21.59c-.15-2.37,2.27-4.05,4.44-3.08l83.89,37.34c1.13.5,1.86,1.62,1.87,2.86l.18,22.21c.02,2.31-2.37,3.86-4.48,2.9Z" style="fill: url(#linear-gradient-12); stroke-width: 0px;"/>
            <path d="m1159.63,294.2c-.72,1.49-2.53,2.25-4.18,1.51l-82.72-37.95c-1.05-.48-1.76-1.51-1.83-2.67l-1.36-21.59c-.13-1.99,1.56-3.5,3.39-3.36-.23.46-.34,1-.3,1.57l1.36,21.59c.07,1.16.78,2.19,1.83,2.67l82.72,37.95c.36.15.72.26,1.09.28Z" style="fill: #1a1a1a; stroke-width: 0px;"/>
            <path d="m1154.21,329.81l-84.31-37.85c-1.06-.49-1.76-1.51-1.84-2.67l-1.36-21.59c-.15-2.37,2.27-4.05,4.44-3.08l85.49,37.24c1.13.5,1.86,1.62,1.87,2.86l.18,22.21c.02,2.31-2.37,3.86-4.48,2.9Z" style="fill: url(#linear-gradient-13); stroke-width: 0px;"/>
            <path d="m1158.38,328.3c-.72,1.49-2.53,2.25-4.18,1.51l-84.31-37.85c-1.05-.48-1.76-1.51-1.83-2.67l-1.36-21.59c-.13-1.99,1.56-3.5,3.39-3.36-.23.46-.34,1-.3,1.57l1.36,21.59c.07,1.16.78,2.19,1.83,2.67l84.31,37.85c.36.15.72.26,1.09.28Z" style="fill: #1a1a1a; stroke-width: 0px;"/>
            <circle cx="1151.94" cy="238.51" r="2.5" style="stroke-width: 0px;"/>
            <circle cx="1151.62" cy="248.28" r="2.5" style="stroke-width: 0px;"/>
            <circle cx="1140.03" cy="233.41" r="2.5" style="stroke-width: 0px;"/>
            <circle cx="1138.58" cy="242.61" r="2.5" style="fill: #a3ea2a; stroke-width: 0px;"/>
            <circle cx="1128.12" cy="228.3" r="2.5" style="fill: #a3ea2a; stroke-width: 0px;"/>
            <circle cx="1127.8" cy="238.07" r="2.5" style="stroke-width: 0px;"/>
            <circle cx="1116.21" cy="222.63" r="2.5" style="fill: #a3ea2a; stroke-width: 0px;"/>
            <circle cx="1115.9" cy="232.4" r="2.5" style="stroke-width: 0px;"/>
            <circle cx="1104.3" cy="217.53" r="2.5" style="fill: #a3ea2a; stroke-width: 0px;"/>
            <circle cx="1103.99" cy="227.3" r="2.5" style="fill: #1a1a1a; stroke-width: 0px;"/>
            <circle cx="1092.39" cy="211.86" r="2.5" style="stroke-width: 0px;"/>
            <circle cx="1092.08" cy="222.19" r="2.5" style="fill: #a3ea2a; stroke-width: 0px;"/>
            <circle cx="1081.04" cy="206.19" r="2.5" style="fill: #a3ea2a; stroke-width: 0px;"/>
            <circle cx="1080.73" cy="215.96" r="2.5" style="stroke-width: 0px;"/>
            <circle cx="1150.8" cy="271.97" r="2.5" style="stroke-width: 0px;"/>
            <circle cx="1150.49" cy="281.74" r="2.5" style="stroke-width: 0px;"/>
            <circle cx="1138.89" cy="266.87" r="2.5" style="fill: #a3ea2a; stroke-width: 0px;"/>
            <circle cx="1137.45" cy="276.07" r="2.5" style="fill: #a3ea2a; stroke-width: 0px;"/>
            <circle cx="1126.98" cy="261.76" r="2.5" style="stroke-width: 0px;"/>
            <circle cx="1126.67" cy="271.53" r="2.5" style="stroke-width: 0px;"/>
            <circle cx="1115.07" cy="256.09" r="2.5" style="fill: #a3ea2a; stroke-width: 0px;"/>
            <circle cx="1114.76" cy="265.86" r="2.5" style="stroke-width: 0px;"/>
            <circle cx="1103.16" cy="250.99" r="2.5" style="stroke-width: 0px;"/>
            <circle cx="1102.85" cy="260.76" r="2.5" style="fill: #a3ea2a; stroke-width: 0px;"/>
            <circle cx="1091.25" cy="245.32" r="2.5" style="fill: #a3ea2a; stroke-width: 0px;"/>
            <circle cx="1090.94" cy="255.65" r="2.5" style="fill: #a3ea2a; stroke-width: 0px;"/>
            <circle cx="1079.91" cy="239.65" r="2.5" style="stroke-width: 0px;"/>
            <circle cx="1079.6" cy="249.42" r="2.5" style="stroke-width: 0px;"/>
            <circle cx="1147.97" cy="306" r="2.5" style="stroke-width: 0px;"/>
            <circle cx="1147.65" cy="315.77" r="2.5" style="fill: #a3ea2a; stroke-width: 0px;"/>
            <circle cx="1136.06" cy="300.9" r="2.5" style="stroke-width: 0px;"/>
            <circle cx="1134.61" cy="310.1" r="2.5" style="fill: #a3ea2a; stroke-width: 0px;"/>
            <circle cx="1124.15" cy="295.79" r="2.5" style="fill: #1a1a1a; stroke-width: 0px;"/>
            <circle cx="1123.83" cy="305.56" r="2.5" style="fill: #a3ea2a; stroke-width: 0px;"/>
            <circle cx="1112.24" cy="290.12" r="2.5" style="fill: #a3ea2a; stroke-width: 0px;"/>
            <circle cx="1111.93" cy="299.89" r="2.5" style="stroke-width: 0px;"/>
            <circle cx="1100.33" cy="285.02" r="2.5" style="stroke-width: 0px;"/>
            <circle cx="1100.02" cy="294.79" r="2.5" style="stroke-width: 0px;"/>
            <circle cx="1088.42" cy="279.35" r="2.5" style="stroke-width: 0px;"/>
            <circle cx="1088.11" cy="289.68" r="2.5" style="fill: #1a1a1a; stroke-width: 0px;"/>
            <circle cx="1077.07" cy="273.67" r="2.5" style="fill: #a3ea2a; stroke-width: 0px;"/>
            <circle cx="1076.76" cy="283.44" r="2.5" style="fill: #a3ea2a; stroke-width: 0px;"/>
            <polygon points="1280.82 189.43 1275.71 290.82 1179.17 335.01 1179.17 232.14 1280.82 189.43" style="fill: #272728; stroke-width: 0px;"/>
            <polygon points="1280.82 189.43 1276.81 190.94 1272.54 289.88 1275.71 290.82 1280.82 189.43" style="fill: #1a1a1a; stroke-width: 0px;"/>
            <polygon points="1272.54 289.88 1179.17 332.95 1179.17 335.01 1275.71 290.82 1272.54 289.88" style="fill: #1a1a1a; stroke-width: 0px;"/>
          </g>
          <line x1="1245.17" y1="297.44" x2="1246.26" y2="257.82" style="fill: #eb0037; stroke: #000; stroke-linecap: round; stroke-linejoin: round; stroke-width: 1.13px;"/>
          <line x1="1239.2" y1="300.15" x2="1240.29" y2="260.53" style="fill: #eb0037; stroke: #000; stroke-linecap: round; stroke-linejoin: round; stroke-width: 1.13px;"/>
          <line x1="1233.23" y1="302.86" x2="1234.32" y2="263.25" style="fill: #eb0037; stroke: #000; stroke-linecap: round; stroke-linejoin: round; stroke-width: 1.13px;"/>
          <line x1="1225.76" y1="305.63" x2="1226.84" y2="266.01" style="fill: #eb0037; stroke: #000; stroke-linecap: round; stroke-linejoin: round; stroke-width: 1.13px;"/>
          <line x1="1219.79" y1="308.34" x2="1220.87" y2="268.72" style="fill: #eb0037; stroke: #000; stroke-linecap: round; stroke-linejoin: round; stroke-width: 1.13px;"/>
          <line x1="1213.82" y1="311.6" x2="1214.9" y2="271.98" style="fill: #eb0037; stroke: #000; stroke-linecap: round; stroke-linejoin: round; stroke-width: 1.13px;"/>
          <line x1="1207.85" y1="314.85" x2="1208.93" y2="275.24" style="fill: #eb0037; stroke: #000; stroke-linecap: round; stroke-linejoin: round; stroke-width: 1.13px;"/>
          <line x1="1201.88" y1="317.57" x2="1202.96" y2="277.95" style="fill: #eb0037; stroke: #000; stroke-linecap: round; stroke-linejoin: round; stroke-width: 1.13px;"/>
          <line x1="1195.91" y1="320.28" x2="1196.99" y2="280.66" style="fill: #eb0037; stroke: #000; stroke-linecap: round; stroke-linejoin: round; stroke-width: 1.13px;"/>
          <polygon points="1268.07 180.05 1173.51 224.84 1078.96 182.54 1173.51 219.87 1268.07 180.05" style="fill: #97afbf; opacity: .25; stroke-width: 0px;"/>
          <polygon points="1273.05 180.05 1171.03 135.26 1078.96 180.05 1171.03 137.75 1273.05 180.05" style="fill: #97afbf; opacity: .25; stroke-width: 0px;"/>
        </g>
        <line x1="1263.08" y1="288.21" x2="1264.17" y2="248.59" style="fill: #eb0037; stroke: #000; stroke-linecap: round; stroke-linejoin: round; stroke-width: 1.13px;"/>
        <line x1="1257.11" y1="290.92" x2="1258.2" y2="251.31" style="fill: #eb0037; stroke: #000; stroke-linecap: round; stroke-linejoin: round; stroke-width: 1.13px;"/>
        <line x1="1251.14" y1="294.18" x2="1252.23" y2="254.56" style="fill: #eb0037; stroke: #000; stroke-linecap: round; stroke-linejoin: round; stroke-width: 1.13px;"/>
      </g>
    </g>
  </g>
</svg>